<?xml version="1.0" encoding="UTF-8" standalone="no"?>
<!DOCTYPE svg PUBLIC "-//W3C//DTD SVG 1.1//EN"
 "http://www.w3.org/Graphics/SVG/1.1/DTD/svg11.dtd">
<!-- Generated by graphviz version 2.40.1 (20161225.0304)
 -->
<!-- Title: dependencies Pages: 1 -->
<svg width="797pt" height="211pt"
 viewBox="0.00 0.00 797.00 211.00" xmlns="http://www.w3.org/2000/svg" xmlns:xlink="http://www.w3.org/1999/xlink">
<g id="graph0" class="graph" transform="scale(1 1) rotate(0) translate(4 207)">
<title>dependencies</title>
<polygon fill="#ffffff" stroke="transparent" points="-4,4 -4,-207 793,-207 793,4 -4,4"/>
<text text-anchor="start" x="373.5091" y="-42.4" font-family="sans-serif" font-weight="bold" font-size="14.00" fill="#000000">Legend</text>
<polygon fill="#ffffb3" stroke="transparent" points="160.5,-10 160.5,-30 180.5,-30 180.5,-10 160.5,-10"/>
<text text-anchor="start" x="184.129" y="-15.4" font-family="sans-serif" font-size="14.00" fill="#000000"> &#160;Declarations</text>
<polygon fill="#8dd3c7" stroke="transparent" points="273.5,-10 273.5,-30 293.5,-30 293.5,-10 273.5,-10"/>
<text text-anchor="start" x="297.2251" y="-15.4" font-family="sans-serif" font-size="14.00" fill="#000000"> &#160;Module</text>
<polygon fill="#80b1d3" stroke="transparent" points="359.5,-10 359.5,-30 379.5,-30 379.5,-10 359.5,-10"/>
<text text-anchor="start" x="383.2812" y="-15.4" font-family="sans-serif" font-size="14.00" fill="#000000"> &#160;Bootstrap</text>
<polygon fill="#fdb462" stroke="transparent" points="456.5,-10 456.5,-30 476.5,-30 476.5,-10 456.5,-10"/>
<text text-anchor="start" x="480.1732" y="-15.4" font-family="sans-serif" font-size="14.00" fill="#000000"> &#160;Providers</text>
<polygon fill="#fb8072" stroke="transparent" points="552.5,-10 552.5,-30 572.5,-30 572.5,-10 552.5,-10"/>
<text text-anchor="start" x="576.2258" y="-15.4" font-family="sans-serif" font-size="14.00" fill="#000000"> &#160;Exports</text>
<g id="clust1" class="cluster">
<title>cluster_ChannelsModule</title>
<polygon fill="none" stroke="#000000" stroke-dasharray="1,5" points="8,-70 8,-195 781,-195 781,-70 8,-70"/>
</g>
<g id="clust2" class="cluster">
<title>cluster_ChannelsModule_declarations</title>
<polygon fill="none" stroke="#000000" points="196,-78 196,-130 773,-130 773,-78 196,-78"/>
</g>
<g id="clust7" class="cluster">
<title>cluster_ChannelsModule_imports</title>
<polygon fill="none" stroke="#000000" points="16,-78 16,-130 188,-130 188,-78 16,-78"/>
</g>
<!-- ChannelsComponent -->
<g id="node1" class="node">
<title>ChannelsComponent</title>
<polygon fill="#ffffb3" stroke="#000000" points="764.9341,-122 631.0659,-122 631.0659,-86 764.9341,-86 764.9341,-122"/>
<text text-anchor="middle" x="698" y="-99.8" font-family="Times,serif" font-size="14.00" fill="#000000">ChannelsComponent</text>
</g>
<!-- ChannelsModule -->
<g id="node5" class="node">
<title>ChannelsModule</title>
<polygon fill="#8dd3c7" stroke="#000000" points="455.6513,-187 452.6513,-191 431.6513,-191 428.6513,-187 344.3487,-187 344.3487,-151 455.6513,-151 455.6513,-187"/>
<text text-anchor="middle" x="400" y="-164.8" font-family="Times,serif" font-size="14.00" fill="#000000">ChannelsModule</text>
</g>
<!-- ChannelsComponent&#45;&gt;ChannelsModule -->
<g id="edge1" class="edge">
<title>ChannelsComponent&#45;&gt;ChannelsModule</title>
<path fill="none" stroke="#000000" d="M698,-122.2843C698,-143.3211 698,-175 698,-175 698,-175 465.7019,-175 465.7019,-175"/>
<polygon fill="#000000" stroke="#000000" points="465.702,-171.5001 455.7019,-175 465.7019,-178.5001 465.702,-171.5001"/>
</g>
<!-- EntranceComponent -->
<g id="node2" class="node">
<title>EntranceComponent</title>
<polygon fill="#ffffb3" stroke="#000000" points="613.58,-122 482.42,-122 482.42,-86 613.58,-86 613.58,-122"/>
<text text-anchor="middle" x="548" y="-99.8" font-family="Times,serif" font-size="14.00" fill="#000000">EntranceComponent</text>
</g>
<!-- EntranceComponent&#45;&gt;ChannelsModule -->
<g id="edge2" class="edge">
<title>EntranceComponent&#45;&gt;ChannelsModule</title>
<path fill="none" stroke="#000000" d="M548,-122.0225C548,-139.3734 548,-163 548,-163 548,-163 465.9525,-163 465.9525,-163"/>
<polygon fill="#000000" stroke="#000000" points="465.9525,-159.5001 455.9525,-163 465.9524,-166.5001 465.9525,-159.5001"/>
</g>
<!-- MeetingComponent -->
<g id="node3" class="node">
<title>MeetingComponent</title>
<polygon fill="#ffffb3" stroke="#000000" points="463.9874,-122 336.0126,-122 336.0126,-86 463.9874,-86 463.9874,-122"/>
<text text-anchor="middle" x="400" y="-99.8" font-family="Times,serif" font-size="14.00" fill="#000000">MeetingComponent</text>
</g>
<!-- MeetingComponent&#45;&gt;ChannelsModule -->
<g id="edge3" class="edge">
<title>MeetingComponent&#45;&gt;ChannelsModule</title>
<path fill="none" stroke="#000000" d="M400,-122.1061C400,-122.1061 400,-140.991 400,-140.991"/>
<polygon fill="#000000" stroke="#000000" points="396.5001,-140.9909 400,-150.991 403.5001,-140.991 396.5001,-140.9909"/>
</g>
<!-- OtherComponent -->
<g id="node4" class="node">
<title>OtherComponent</title>
<polygon fill="#ffffb3" stroke="#000000" points="317.705,-122 204.295,-122 204.295,-86 317.705,-86 317.705,-122"/>
<text text-anchor="middle" x="261" y="-99.8" font-family="Times,serif" font-size="14.00" fill="#000000">OtherComponent</text>
</g>
<!-- OtherComponent&#45;&gt;ChannelsModule -->
<g id="edge4" class="edge">
<title>OtherComponent&#45;&gt;ChannelsModule</title>
<path fill="none" stroke="#000000" d="M261,-122.0225C261,-139.3734 261,-163 261,-163 261,-163 334.2643,-163 334.2643,-163"/>
<polygon fill="#000000" stroke="#000000" points="334.2643,-166.5001 344.2643,-163 334.2643,-159.5001 334.2643,-166.5001"/>
</g>
<!-- ChannelsRoutingModule -->
<g id="node6" class="node">
<title>ChannelsRoutingModule</title>
<polygon fill="#8dd3c7" stroke="#000000" points="180.2688,-122 177.2688,-126 156.2688,-126 153.2688,-122 23.7312,-122 23.7312,-86 180.2688,-86 180.2688,-122"/>
<text text-anchor="middle" x="102" y="-99.8" font-family="Times,serif" font-size="14.00" fill="#000000">ChannelsRoutingModule</text>
</g>
<!-- ChannelsRoutingModule&#45;&gt;ChannelsModule -->
<g id="edge5" class="edge">
<title>ChannelsRoutingModule&#45;&gt;ChannelsModule</title>
<path fill="none" stroke="#000000" d="M102,-122.2843C102,-143.3211 102,-175 102,-175 102,-175 334.2981,-175 334.2981,-175"/>
<polygon fill="#000000" stroke="#000000" points="334.2981,-178.5001 344.2981,-175 334.298,-171.5001 334.2981,-178.5001"/>
</g>
</g>
</svg>
