<?xml version="1.0" encoding="UTF-8" standalone="no"?>
<!DOCTYPE svg PUBLIC "-//W3C//DTD SVG 1.1//EN"
 "http://www.w3.org/Graphics/SVG/1.1/DTD/svg11.dtd">
<!-- Generated by graphviz version 2.40.1 (20161225.0304)
 -->
<!-- Title: dependencies Pages: 1 -->
<svg width="1412pt" height="211pt"
 viewBox="0.00 0.00 1412.00 211.00" xmlns="http://www.w3.org/2000/svg" xmlns:xlink="http://www.w3.org/1999/xlink">
<g id="graph0" class="graph" transform="scale(1 1) rotate(0) translate(4 207)">
<title>dependencies</title>
<polygon fill="#ffffff" stroke="transparent" points="-4,4 -4,-207 1408,-207 1408,4 -4,4"/>
<text text-anchor="start" x="681.0091" y="-42.4" font-family="sans-serif" font-weight="bold" font-size="14.00" fill="#000000">Legend</text>
<polygon fill="#ffffb3" stroke="transparent" points="468,-10 468,-30 488,-30 488,-10 468,-10"/>
<text text-anchor="start" x="491.629" y="-15.4" font-family="sans-serif" font-size="14.00" fill="#000000"> &#160;Declarations</text>
<polygon fill="#8dd3c7" stroke="transparent" points="581,-10 581,-30 601,-30 601,-10 581,-10"/>
<text text-anchor="start" x="604.7251" y="-15.4" font-family="sans-serif" font-size="14.00" fill="#000000"> &#160;Module</text>
<polygon fill="#80b1d3" stroke="transparent" points="667,-10 667,-30 687,-30 687,-10 667,-10"/>
<text text-anchor="start" x="690.7812" y="-15.4" font-family="sans-serif" font-size="14.00" fill="#000000"> &#160;Bootstrap</text>
<polygon fill="#fdb462" stroke="transparent" points="764,-10 764,-30 784,-30 784,-10 764,-10"/>
<text text-anchor="start" x="787.6732" y="-15.4" font-family="sans-serif" font-size="14.00" fill="#000000"> &#160;Providers</text>
<polygon fill="#fb8072" stroke="transparent" points="860,-10 860,-30 880,-30 880,-10 860,-10"/>
<text text-anchor="start" x="883.7258" y="-15.4" font-family="sans-serif" font-size="14.00" fill="#000000"> &#160;Exports</text>
<g id="clust1" class="cluster">
<title>cluster_ChannelsModule</title>
<polygon fill="none" stroke="#000000" stroke-dasharray="1,5" points="8,-70 8,-195 1396,-195 1396,-70 8,-70"/>
</g>
<g id="clust2" class="cluster">
<title>cluster_ChannelsModule_declarations</title>
<polygon fill="none" stroke="#000000" points="196,-78 196,-130 1388,-130 1388,-78 196,-78"/>
</g>
<g id="clust11" class="cluster">
<title>cluster_ChannelsModule_imports</title>
<polygon fill="none" stroke="#000000" points="16,-78 16,-130 188,-130 188,-78 16,-78"/>
</g>
<!-- ChannelsComponent -->
<g id="node1" class="node">
<title>ChannelsComponent</title>
<polygon fill="#ffffb3" stroke="#000000" points="1379.9341,-122 1246.0659,-122 1246.0659,-86 1379.9341,-86 1379.9341,-122"/>
<text text-anchor="middle" x="1313" y="-99.8" font-family="Times,serif" font-size="14.00" fill="#000000">ChannelsComponent</text>
</g>
<!-- ChannelsModule -->
<g id="node9" class="node">
<title>ChannelsModule</title>
<polygon fill="#8dd3c7" stroke="#000000" points="793.6513,-187 790.6513,-191 769.6513,-191 766.6513,-187 682.3487,-187 682.3487,-151 793.6513,-151 793.6513,-187"/>
<text text-anchor="middle" x="738" y="-164.8" font-family="Times,serif" font-size="14.00" fill="#000000">ChannelsModule</text>
</g>
<!-- ChannelsComponent&#45;&gt;ChannelsModule -->
<g id="edge1" class="edge">
<title>ChannelsComponent&#45;&gt;ChannelsModule</title>
<path fill="none" stroke="#000000" d="M1313,-122.0109C1313,-144.4852 1313,-180 1313,-180 1313,-180 803.6559,-180 803.6559,-180"/>
<polygon fill="#000000" stroke="#000000" points="803.6559,-176.5001 793.6559,-180 803.6558,-183.5001 803.6559,-176.5001"/>
</g>
<!-- EntranceComponent -->
<g id="node2" class="node">
<title>EntranceComponent</title>
<polygon fill="#ffffb3" stroke="#000000" points="1228.58,-122 1097.42,-122 1097.42,-86 1228.58,-86 1228.58,-122"/>
<text text-anchor="middle" x="1163" y="-99.8" font-family="Times,serif" font-size="14.00" fill="#000000">EntranceComponent</text>
</g>
<!-- EntranceComponent&#45;&gt;ChannelsModule -->
<g id="edge2" class="edge">
<title>EntranceComponent&#45;&gt;ChannelsModule</title>
<path fill="none" stroke="#000000" d="M1163,-122.1289C1163,-142.5724 1163,-173 1163,-173 1163,-173 803.9984,-173 803.9984,-173"/>
<polygon fill="#000000" stroke="#000000" points="803.9984,-169.5001 793.9984,-173 803.9983,-176.5001 803.9984,-169.5001"/>
</g>
<!-- MeetingComponent -->
<g id="node3" class="node">
<title>MeetingComponent</title>
<polygon fill="#ffffb3" stroke="#000000" points="1078.9874,-122 951.0126,-122 951.0126,-86 1078.9874,-86 1078.9874,-122"/>
<text text-anchor="middle" x="1015" y="-99.8" font-family="Times,serif" font-size="14.00" fill="#000000">MeetingComponent</text>
</g>
<!-- MeetingComponent&#45;&gt;ChannelsModule -->
<g id="edge3" class="edge">
<title>MeetingComponent&#45;&gt;ChannelsModule</title>
<path fill="none" stroke="#000000" d="M1015,-122.2667C1015,-140.5552 1015,-166 1015,-166 1015,-166 803.7219,-166 803.7219,-166"/>
<polygon fill="#000000" stroke="#000000" points="803.7219,-162.5001 793.7219,-166 803.7218,-169.5001 803.7219,-162.5001"/>
</g>
<!-- EventComponent -->
<g id="node4" class="node">
<title>EventComponent</title>
<polygon fill="#ffffb3" stroke="#000000" points="932.9902,-122 819.0098,-122 819.0098,-86 932.9902,-86 932.9902,-122"/>
<text text-anchor="middle" x="876" y="-99.8" font-family="Times,serif" font-size="14.00" fill="#000000">EventComponent</text>
</g>
<!-- EventComponent&#45;&gt;ChannelsModule -->
<g id="edge4" class="edge">
<title>EventComponent&#45;&gt;ChannelsModule</title>
<path fill="none" stroke="#000000" d="M876,-122.0091C876,-138.0494 876,-159 876,-159 876,-159 803.7321,-159 803.7321,-159"/>
<polygon fill="#000000" stroke="#000000" points="803.7321,-155.5001 793.7321,-159 803.7321,-162.5001 803.7321,-155.5001"/>
</g>
<!-- SupportComponent -->
<g id="node5" class="node">
<title>SupportComponent</title>
<polygon fill="#ffffb3" stroke="#000000" points="800.6666,-122 675.3334,-122 675.3334,-86 800.6666,-86 800.6666,-122"/>
<text text-anchor="middle" x="738" y="-99.8" font-family="Times,serif" font-size="14.00" fill="#000000">SupportComponent</text>
</g>
<!-- SupportComponent&#45;&gt;ChannelsModule -->
<g id="edge5" class="edge">
<title>SupportComponent&#45;&gt;ChannelsModule</title>
<path fill="none" stroke="#000000" d="M738,-122.1061C738,-122.1061 738,-140.991 738,-140.991"/>
<polygon fill="#000000" stroke="#000000" points="734.5001,-140.9909 738,-150.991 741.5001,-140.991 734.5001,-140.9909"/>
</g>
<!-- FinancialComponent -->
<g id="node6" class="node">
<title>FinancialComponent</title>
<polygon fill="#ffffb3" stroke="#000000" points="656.9313,-122 523.0687,-122 523.0687,-86 656.9313,-86 656.9313,-122"/>
<text text-anchor="middle" x="590" y="-99.8" font-family="Times,serif" font-size="14.00" fill="#000000">FinancialComponent</text>
</g>
<!-- FinancialComponent&#45;&gt;ChannelsModule -->
<g id="edge6" class="edge">
<title>FinancialComponent&#45;&gt;ChannelsModule</title>
<path fill="none" stroke="#000000" d="M590,-122.0091C590,-138.0494 590,-159 590,-159 590,-159 672.0475,-159 672.0475,-159"/>
<polygon fill="#000000" stroke="#000000" points="672.0476,-162.5001 682.0475,-159 672.0475,-155.5001 672.0476,-162.5001"/>
</g>
<!-- BuildServersComponent -->
<g id="node7" class="node">
<title>BuildServersComponent</title>
<polygon fill="#ffffb3" stroke="#000000" points="505.4284,-122 350.5716,-122 350.5716,-86 505.4284,-86 505.4284,-122"/>
<text text-anchor="middle" x="428" y="-99.8" font-family="Times,serif" font-size="14.00" fill="#000000">BuildServersComponent</text>
</g>
<!-- BuildServersComponent&#45;&gt;ChannelsModule -->
<g id="edge7" class="edge">
<title>BuildServersComponent&#45;&gt;ChannelsModule</title>
<path fill="none" stroke="#000000" d="M428,-122.2667C428,-140.5552 428,-166 428,-166 428,-166 672.2202,-166 672.2202,-166"/>
<polygon fill="#000000" stroke="#000000" points="672.2202,-169.5001 682.2202,-166 672.2201,-162.5001 672.2202,-169.5001"/>
</g>
<!-- WeatherComponent -->
<g id="node8" class="node">
<title>WeatherComponent</title>
<polygon fill="#ffffb3" stroke="#000000" points="332.2423,-122 203.7577,-122 203.7577,-86 332.2423,-86 332.2423,-122"/>
<text text-anchor="middle" x="268" y="-99.8" font-family="Times,serif" font-size="14.00" fill="#000000">WeatherComponent</text>
</g>
<!-- WeatherComponent&#45;&gt;ChannelsModule -->
<g id="edge8" class="edge">
<title>WeatherComponent&#45;&gt;ChannelsModule</title>
<path fill="none" stroke="#000000" d="M268,-122.1289C268,-142.5724 268,-173 268,-173 268,-173 672.2392,-173 672.2392,-173"/>
<polygon fill="#000000" stroke="#000000" points="672.2392,-176.5001 682.2392,-173 672.2391,-169.5001 672.2392,-176.5001"/>
</g>
<!-- ChannelsRoutingModule -->
<g id="node10" class="node">
<title>ChannelsRoutingModule</title>
<polygon fill="#8dd3c7" stroke="#000000" points="180.2688,-122 177.2688,-126 156.2688,-126 153.2688,-122 23.7312,-122 23.7312,-86 180.2688,-86 180.2688,-122"/>
<text text-anchor="middle" x="102" y="-99.8" font-family="Times,serif" font-size="14.00" fill="#000000">ChannelsRoutingModule</text>
</g>
<!-- ChannelsRoutingModule&#45;&gt;ChannelsModule -->
<g id="edge9" class="edge">
<title>ChannelsRoutingModule&#45;&gt;ChannelsModule</title>
<path fill="none" stroke="#000000" d="M102,-122.0109C102,-144.4852 102,-180 102,-180 102,-180 672.1167,-180 672.1167,-180"/>
<polygon fill="#000000" stroke="#000000" points="672.1167,-183.5001 682.1167,-180 672.1166,-176.5001 672.1167,-183.5001"/>
</g>
</g>
</svg>
