<?xml version="1.0" encoding="UTF-8" standalone="no"?>
<!DOCTYPE svg PUBLIC "-//W3C//DTD SVG 1.1//EN"
 "http://www.w3.org/Graphics/SVG/1.1/DTD/svg11.dtd">
<!-- Generated by graphviz version 2.40.1 (20161225.0304)
 -->
<!-- Title: dependencies Pages: 1 -->
<svg width="516pt" height="211pt"
 viewBox="0.00 0.00 516.00 211.00" xmlns="http://www.w3.org/2000/svg" xmlns:xlink="http://www.w3.org/1999/xlink">
<g id="graph0" class="graph" transform="scale(1 1) rotate(0) translate(4 207)">
<title>dependencies</title>
<polygon fill="#ffffff" stroke="transparent" points="-4,4 -4,-207 512,-207 512,4 -4,4"/>
<text text-anchor="start" x="233.0091" y="-42.4" font-family="sans-serif" font-weight="bold" font-size="14.00" fill="#000000">Legend</text>
<polygon fill="#ffffb3" stroke="transparent" points="20,-10 20,-30 40,-30 40,-10 20,-10"/>
<text text-anchor="start" x="43.629" y="-15.4" font-family="sans-serif" font-size="14.00" fill="#000000"> &#160;Declarations</text>
<polygon fill="#8dd3c7" stroke="transparent" points="133,-10 133,-30 153,-30 153,-10 133,-10"/>
<text text-anchor="start" x="156.7251" y="-15.4" font-family="sans-serif" font-size="14.00" fill="#000000"> &#160;Module</text>
<polygon fill="#80b1d3" stroke="transparent" points="219,-10 219,-30 239,-30 239,-10 219,-10"/>
<text text-anchor="start" x="242.7812" y="-15.4" font-family="sans-serif" font-size="14.00" fill="#000000"> &#160;Bootstrap</text>
<polygon fill="#fdb462" stroke="transparent" points="316,-10 316,-30 336,-30 336,-10 316,-10"/>
<text text-anchor="start" x="339.6732" y="-15.4" font-family="sans-serif" font-size="14.00" fill="#000000"> &#160;Providers</text>
<polygon fill="#fb8072" stroke="transparent" points="412,-10 412,-30 432,-30 432,-10 412,-10"/>
<text text-anchor="start" x="435.7258" y="-15.4" font-family="sans-serif" font-size="14.00" fill="#000000"> &#160;Exports</text>
<g id="clust1" class="cluster">
<title>cluster_ChannelsModule</title>
<polygon fill="none" stroke="#000000" stroke-dasharray="1,5" points="8,-70 8,-195 500,-195 500,-70 8,-70"/>
</g>
<g id="clust2" class="cluster">
<title>cluster_ChannelsModule_declarations</title>
<polygon fill="none" stroke="#000000" points="196,-78 196,-130 492,-130 492,-78 196,-78"/>
</g>
<g id="clust5" class="cluster">
<title>cluster_ChannelsModule_imports</title>
<polygon fill="none" stroke="#000000" points="16,-78 16,-130 188,-130 188,-78 16,-78"/>
</g>
<!-- ChannelsComponent -->
<g id="node1" class="node">
<title>ChannelsComponent</title>
<polygon fill="#ffffb3" stroke="#000000" points="483.9341,-122 350.0659,-122 350.0659,-86 483.9341,-86 483.9341,-122"/>
<text text-anchor="middle" x="417" y="-99.8" font-family="Times,serif" font-size="14.00" fill="#000000">ChannelsComponent</text>
</g>
<!-- ChannelsModule -->
<g id="node3" class="node">
<title>ChannelsModule</title>
<polygon fill="#8dd3c7" stroke="#000000" points="323.6513,-187 320.6513,-191 299.6513,-191 296.6513,-187 212.3487,-187 212.3487,-151 323.6513,-151 323.6513,-187"/>
<text text-anchor="middle" x="268" y="-164.8" font-family="Times,serif" font-size="14.00" fill="#000000">ChannelsModule</text>
</g>
<!-- ChannelsComponent&#45;&gt;ChannelsModule -->
<g id="edge1" class="edge">
<title>ChannelsComponent&#45;&gt;ChannelsModule</title>
<path fill="none" stroke="#000000" d="M417,-122.1061C417,-141.3391 417,-169 417,-169 417,-169 333.906,-169 333.906,-169"/>
<polygon fill="#000000" stroke="#000000" points="333.9061,-165.5001 323.906,-169 333.906,-172.5001 333.9061,-165.5001"/>
</g>
<!-- ChannelComponent -->
<g id="node2" class="node">
<title>ChannelComponent</title>
<polygon fill="#ffffb3" stroke="#000000" points="331.9888,-122 204.0112,-122 204.0112,-86 331.9888,-86 331.9888,-122"/>
<text text-anchor="middle" x="268" y="-99.8" font-family="Times,serif" font-size="14.00" fill="#000000">ChannelComponent</text>
</g>
<!-- ChannelComponent&#45;&gt;ChannelsModule -->
<g id="edge2" class="edge">
<title>ChannelComponent&#45;&gt;ChannelsModule</title>
<path fill="none" stroke="#000000" d="M268,-122.1061C268,-122.1061 268,-140.991 268,-140.991"/>
<polygon fill="#000000" stroke="#000000" points="264.5001,-140.9909 268,-150.991 271.5001,-140.991 264.5001,-140.9909"/>
</g>
<!-- ChannelsRoutingModule -->
<g id="node4" class="node">
<title>ChannelsRoutingModule</title>
<polygon fill="#8dd3c7" stroke="#000000" points="180.2688,-122 177.2688,-126 156.2688,-126 153.2688,-122 23.7312,-122 23.7312,-86 180.2688,-86 180.2688,-122"/>
<text text-anchor="middle" x="102" y="-99.8" font-family="Times,serif" font-size="14.00" fill="#000000">ChannelsRoutingModule</text>
</g>
<!-- ChannelsRoutingModule&#45;&gt;ChannelsModule -->
<g id="edge3" class="edge">
<title>ChannelsRoutingModule&#45;&gt;ChannelsModule</title>
<path fill="none" stroke="#000000" d="M102,-122.1061C102,-141.3391 102,-169 102,-169 102,-169 202.2626,-169 202.2626,-169"/>
<polygon fill="#000000" stroke="#000000" points="202.2626,-172.5001 212.2626,-169 202.2626,-165.5001 202.2626,-172.5001"/>
</g>
</g>
</svg>
