<?xml version="1.0" encoding="UTF-8" standalone="no"?>
<!DOCTYPE svg PUBLIC "-//W3C//DTD SVG 1.1//EN"
 "http://www.w3.org/Graphics/SVG/1.1/DTD/svg11.dtd">
<!-- Generated by graphviz version 2.40.1 (20161225.0304)
 -->
<!-- Title: dependencies Pages: 1 -->
<svg width="6422pt" height="360pt"
 viewBox="0.00 0.00 6422.00 360.00" xmlns="http://www.w3.org/2000/svg" xmlns:xlink="http://www.w3.org/1999/xlink">
<g id="graph0" class="graph" transform="scale(1 1) rotate(0) translate(4 356)">
<title>dependencies</title>
<polygon fill="#ffffff" stroke="transparent" points="-4,4 -4,-356 6418,-356 6418,4 -4,4"/>
<text text-anchor="start" x="3186.0091" y="-42.4" font-family="sans-serif" font-weight="bold" font-size="14.00" fill="#000000">Legend</text>
<polygon fill="#ffffb3" stroke="transparent" points="2973,-10 2973,-30 2993,-30 2993,-10 2973,-10"/>
<text text-anchor="start" x="2996.629" y="-15.4" font-family="sans-serif" font-size="14.00" fill="#000000"> &#160;Declarations</text>
<polygon fill="#8dd3c7" stroke="transparent" points="3086,-10 3086,-30 3106,-30 3106,-10 3086,-10"/>
<text text-anchor="start" x="3109.7251" y="-15.4" font-family="sans-serif" font-size="14.00" fill="#000000"> &#160;Module</text>
<polygon fill="#80b1d3" stroke="transparent" points="3172,-10 3172,-30 3192,-30 3192,-10 3172,-10"/>
<text text-anchor="start" x="3195.7812" y="-15.4" font-family="sans-serif" font-size="14.00" fill="#000000"> &#160;Bootstrap</text>
<polygon fill="#fdb462" stroke="transparent" points="3269,-10 3269,-30 3289,-30 3289,-10 3269,-10"/>
<text text-anchor="start" x="3292.6732" y="-15.4" font-family="sans-serif" font-size="14.00" fill="#000000"> &#160;Providers</text>
<polygon fill="#fb8072" stroke="transparent" points="3365,-10 3365,-30 3385,-30 3385,-10 3365,-10"/>
<text text-anchor="start" x="3388.7258" y="-15.4" font-family="sans-serif" font-size="14.00" fill="#000000"> &#160;Exports</text>
<g id="clust1" class="cluster">
<title>cluster_AdminModule</title>
<polygon fill="none" stroke="#000000" stroke-dasharray="1,5" points="8,-70 8,-206 3758,-206 3758,-70 8,-70"/>
</g>
<g id="clust2" class="cluster">
<title>cluster_AdminModule_declarations</title>
<polygon fill="none" stroke="#000000" points="184,-78 184,-130 3750,-130 3750,-78 184,-78"/>
</g>
<g id="clust23" class="cluster">
<title>cluster_AdminModule_imports</title>
<polygon fill="none" stroke="#000000" points="16,-78 16,-130 176,-130 176,-78 16,-78"/>
</g>
<g id="clust33" class="cluster">
<title>cluster_AppModule</title>
<polygon fill="none" stroke="#000000" stroke-dasharray="1,5" points="5382,-146 5382,-344 6376,-344 6376,-146 5382,-146"/>
</g>
<g id="clust34" class="cluster">
<title>cluster_AppModule_declarations</title>
<polygon fill="none" stroke="#000000" points="6246,-154 6246,-206 6368,-206 6368,-154 6246,-154"/>
</g>
<g id="clust36" class="cluster">
<title>cluster_AppModule_imports</title>
<polygon fill="none" stroke="#000000" points="5964,-154 5964,-206 6238,-206 6238,-154 5964,-154"/>
</g>
<g id="clust38" class="cluster">
<title>cluster_AppModule_bootstrap</title>
<polygon fill="none" stroke="#000000" points="5759,-284 5759,-336 5883,-336 5883,-284 5759,-284"/>
</g>
<g id="clust39" class="cluster">
<title>cluster_AppModule_providers</title>
<polygon fill="none" stroke="#000000" points="5390,-154 5390,-206 5956,-206 5956,-154 5390,-154"/>
</g>
<g id="clust46" class="cluster">
<title>cluster_ChannelsModule</title>
<polygon fill="none" stroke="#000000" stroke-dasharray="1,5" points="5914,-70 5914,-138 6406,-138 6406,-70 5914,-70"/>
</g>
<g id="clust47" class="cluster">
<title>cluster_ChannelsModule_declarations</title>
<polygon fill="none" stroke="#000000" points="6102,-78 6102,-130 6398,-130 6398,-78 6102,-78"/>
</g>
<g id="clust50" class="cluster">
<title>cluster_ChannelsModule_imports</title>
<polygon fill="none" stroke="#000000" points="5922,-78 5922,-130 6094,-130 6094,-78 5922,-78"/>
</g>
<g id="clust60" class="cluster">
<title>cluster_ComponentsModule</title>
<polygon fill="none" stroke="#000000" stroke-dasharray="1,5" points="3766,-70 3766,-206 5374,-206 5374,-70 3766,-70"/>
</g>
<g id="clust61" class="cluster">
<title>cluster_ComponentsModule_declarations</title>
<polygon fill="none" stroke="#000000" points="3774,-78 3774,-130 5366,-130 5366,-78 3774,-78"/>
</g>
<!-- AdminSideNavComponent -->
<g id="node1" class="node">
<title>AdminSideNavComponent</title>
<polygon fill="#ffffb3" stroke="#000000" points="3570.4297,-122 3401.5703,-122 3401.5703,-86 3570.4297,-86 3570.4297,-122"/>
<text text-anchor="middle" x="3486" y="-99.8" font-family="Times,serif" font-size="14.00" fill="#000000">AdminSideNavComponent</text>
</g>
<!-- AdminModule -->
<g id="node21" class="node">
<title>AdminModule</title>
<polygon fill="#8dd3c7" stroke="#000000" points="2090.4386,-198 2087.4386,-202 2066.4386,-202 2063.4386,-198 1991.5614,-198 1991.5614,-162 2090.4386,-162 2090.4386,-198"/>
<text text-anchor="middle" x="2041" y="-175.8" font-family="Times,serif" font-size="14.00" fill="#000000">AdminModule</text>
</g>
<!-- AdminSideNavComponent&#45;&gt;AdminModule -->
<g id="edge1" class="edge">
<title>AdminSideNavComponent&#45;&gt;AdminModule</title>
<path fill="none" stroke="#000000" d="M3486,-122.0908C3486,-145.1328 3486,-182 3486,-182 3486,-182 2100.3221,-182 2100.3221,-182"/>
<polygon fill="#000000" stroke="#000000" points="2100.3222,-178.5001 2090.3221,-182 2100.3221,-185.5001 2100.3222,-178.5001"/>
</g>
<!-- AdminChannelsComponent -->
<g id="node2" class="node">
<title>AdminChannelsComponent</title>
<polygon fill="#ffffb3" stroke="#000000" points="3384.3215,-122 3211.6785,-122 3211.6785,-86 3384.3215,-86 3384.3215,-122"/>
<text text-anchor="middle" x="3298" y="-99.8" font-family="Times,serif" font-size="14.00" fill="#000000">AdminChannelsComponent</text>
</g>
<!-- AdminChannelsComponent&#45;&gt;AdminModule -->
<g id="edge2" class="edge">
<title>AdminChannelsComponent&#45;&gt;AdminModule</title>
<path fill="none" stroke="#000000" d="M3298,-122.1554C3298,-144.3519 3298,-179 3298,-179 3298,-179 2100.2759,-179 2100.2759,-179"/>
<polygon fill="#000000" stroke="#000000" points="2100.2759,-175.5001 2090.2759,-179 2100.2759,-182.5001 2100.2759,-175.5001"/>
</g>
<!-- DashboardComponent -->
<g id="node3" class="node">
<title>DashboardComponent</title>
<polygon fill="#ffffb3" stroke="#000000" points="3193.9734,-122 3052.0266,-122 3052.0266,-86 3193.9734,-86 3193.9734,-122"/>
<text text-anchor="middle" x="3123" y="-99.8" font-family="Times,serif" font-size="14.00" fill="#000000">DashboardComponent</text>
</g>
<!-- DashboardComponent&#45;&gt;AdminModule -->
<g id="edge3" class="edge">
<title>DashboardComponent&#45;&gt;AdminModule</title>
<path fill="none" stroke="#000000" d="M3123,-122.0449C3123,-143.6623 3123,-177 3123,-177 3123,-177 2100.3029,-177 2100.3029,-177"/>
<polygon fill="#000000" stroke="#000000" points="2100.3029,-173.5001 2090.3029,-177 2100.3029,-180.5001 2100.3029,-173.5001"/>
</g>
<!-- SettingComponent -->
<g id="node4" class="node">
<title>SettingComponent</title>
<polygon fill="#ffffb3" stroke="#000000" points="3034.5014,-122 2913.4986,-122 2913.4986,-86 3034.5014,-86 3034.5014,-122"/>
<text text-anchor="middle" x="2974" y="-99.8" font-family="Times,serif" font-size="14.00" fill="#000000">SettingComponent</text>
</g>
<!-- SettingComponent&#45;&gt;AdminModule -->
<g id="edge4" class="edge">
<title>SettingComponent&#45;&gt;AdminModule</title>
<path fill="none" stroke="#000000" d="M2974,-122.0267C2974,-142.7672 2974,-174 2974,-174 2974,-174 2100.5034,-174 2100.5034,-174"/>
<polygon fill="#000000" stroke="#000000" points="2100.5034,-170.5001 2090.5034,-174 2100.5034,-177.5001 2100.5034,-170.5001"/>
</g>
<!-- BuildServersComponent -->
<g id="node5" class="node">
<title>BuildServersComponent</title>
<polygon fill="#ffffb3" stroke="#000000" points="3742.4284,-122 3587.5716,-122 3587.5716,-86 3742.4284,-86 3742.4284,-122"/>
<text text-anchor="middle" x="3665" y="-99.8" font-family="Times,serif" font-size="14.00" fill="#000000">BuildServersComponent</text>
</g>
<!-- BuildServersComponent&#45;&gt;AdminModule -->
<g id="edge5" class="edge">
<title>BuildServersComponent&#45;&gt;AdminModule</title>
<path fill="none" stroke="#000000" d="M3639.262,-122.1532C3639.262,-145.7566 3639.262,-184 3639.262,-184 3639.262,-184 2100.5854,-184 2100.5854,-184"/>
<polygon fill="#000000" stroke="#000000" points="2100.5854,-180.5001 2090.5854,-184 2100.5854,-187.5001 2100.5854,-180.5001"/>
</g>
<!-- ComponentsModule -->
<g id="node46" class="node">
<title>ComponentsModule</title>
<polygon fill="#8dd3c7" stroke="#000000" points="4515.3272,-198 4512.3272,-202 4491.3272,-202 4488.3272,-198 4384.6728,-198 4384.6728,-162 4515.3272,-162 4515.3272,-198"/>
<text text-anchor="middle" x="4450" y="-175.8" font-family="Times,serif" font-size="14.00" fill="#000000">ComponentsModule</text>
</g>
<!-- BuildServersComponent&#45;&gt;ComponentsModule -->
<g id="edge40" class="edge">
<title>BuildServersComponent&#45;&gt;ComponentsModule</title>
<path fill="none" stroke="#000000" d="M3690.738,-122.1762C3690.738,-148.9879 3690.738,-196 3690.738,-196 3690.738,-196 4374.6086,-196 4374.6086,-196"/>
<polygon fill="#000000" stroke="#000000" points="4374.6086,-199.5001 4384.6086,-196 4374.6086,-192.5001 4374.6086,-199.5001"/>
</g>
<!-- AdminComponent -->
<g id="node6" class="node">
<title>AdminComponent</title>
<polygon fill="#ffffb3" stroke="#000000" points="2760.2204,-122 2639.7796,-122 2639.7796,-86 2760.2204,-86 2760.2204,-122"/>
<text text-anchor="middle" x="2700" y="-99.8" font-family="Times,serif" font-size="14.00" fill="#000000">AdminComponent</text>
</g>
<!-- AdminComponent&#45;&gt;AdminModule -->
<g id="edge6" class="edge">
<title>AdminComponent&#45;&gt;AdminModule</title>
<path fill="none" stroke="#000000" d="M2700,-122.0348C2700,-141.5762 2700,-170 2700,-170 2700,-170 2100.2626,-170 2100.2626,-170"/>
<polygon fill="#000000" stroke="#000000" points="2100.2626,-166.5001 2090.2626,-170 2100.2626,-173.5001 2100.2626,-166.5001"/>
</g>
<!-- AdminEntranceComponent -->
<g id="node7" class="node">
<title>AdminEntranceComponent</title>
<polygon fill="#ffffb3" stroke="#000000" points="2621.9678,-122 2452.0322,-122 2452.0322,-86 2621.9678,-86 2621.9678,-122"/>
<text text-anchor="middle" x="2537" y="-99.8" font-family="Times,serif" font-size="14.00" fill="#000000">AdminEntranceComponent</text>
</g>
<!-- AdminEntranceComponent&#45;&gt;AdminModule -->
<g id="edge7" class="edge">
<title>AdminEntranceComponent&#45;&gt;AdminModule</title>
<path fill="none" stroke="#000000" d="M2537,-122.2222C2537,-140.8285 2537,-167 2537,-167 2537,-167 2100.3717,-167 2100.3717,-167"/>
<polygon fill="#000000" stroke="#000000" points="2100.3718,-163.5001 2090.3717,-167 2100.3717,-170.5001 2100.3718,-163.5001"/>
</g>
<!-- AdminEntranceDetailComponent -->
<g id="node8" class="node">
<title>AdminEntranceDetailComponent</title>
<polygon fill="#ffffb3" stroke="#000000" points="2434.1755,-122 2229.8245,-122 2229.8245,-86 2434.1755,-86 2434.1755,-122"/>
<text text-anchor="middle" x="2332" y="-99.8" font-family="Times,serif" font-size="14.00" fill="#000000">AdminEntranceDetailComponent</text>
</g>
<!-- AdminEntranceDetailComponent&#45;&gt;AdminModule -->
<g id="edge8" class="edge">
<title>AdminEntranceDetailComponent&#45;&gt;AdminModule</title>
<path fill="none" stroke="#000000" d="M2332,-122.302C2332,-140.2699 2332,-165 2332,-165 2332,-165 2100.3642,-165 2100.3642,-165"/>
<polygon fill="#000000" stroke="#000000" points="2100.3642,-161.5001 2090.3642,-165 2100.3641,-168.5001 2100.3642,-161.5001"/>
</g>
<!-- AdminEventComponent -->
<g id="node9" class="node">
<title>AdminEventComponent</title>
<polygon fill="#ffffb3" stroke="#000000" points="2211.378,-122 2058.622,-122 2058.622,-86 2211.378,-86 2211.378,-122"/>
<text text-anchor="middle" x="2135" y="-99.8" font-family="Times,serif" font-size="14.00" fill="#000000">AdminEventComponent</text>
</g>
<!-- AdminEventComponent&#45;&gt;AdminModule -->
<g id="edge9" class="edge">
<title>AdminEventComponent&#45;&gt;AdminModule</title>
<path fill="none" stroke="#000000" d="M2074.3899,-122.0109C2074.3899,-122.0109 2074.3899,-151.855 2074.3899,-151.855"/>
<polygon fill="#000000" stroke="#000000" points="2070.89,-151.8549 2074.3899,-161.855 2077.89,-151.855 2070.89,-151.8549"/>
</g>
<!-- AdminEventDetailComponent -->
<g id="node10" class="node">
<title>AdminEventDetailComponent</title>
<polygon fill="#ffffb3" stroke="#000000" points="2040.5856,-122 1853.4144,-122 1853.4144,-86 2040.5856,-86 2040.5856,-122"/>
<text text-anchor="middle" x="1947" y="-99.8" font-family="Times,serif" font-size="14.00" fill="#000000">AdminEventDetailComponent</text>
</g>
<!-- AdminEventDetailComponent&#45;&gt;AdminModule -->
<g id="edge10" class="edge">
<title>AdminEventDetailComponent&#45;&gt;AdminModule</title>
<path fill="none" stroke="#000000" d="M2016.162,-122.0109C2016.162,-122.0109 2016.162,-151.855 2016.162,-151.855"/>
<polygon fill="#000000" stroke="#000000" points="2012.6621,-151.8549 2016.162,-161.855 2019.6621,-151.855 2012.6621,-151.8549"/>
</g>
<!-- AdminMeetingComponent -->
<g id="node11" class="node">
<title>AdminMeetingComponent</title>
<polygon fill="#ffffb3" stroke="#000000" points="1835.3752,-122 1668.6248,-122 1668.6248,-86 1835.3752,-86 1835.3752,-122"/>
<text text-anchor="middle" x="1752" y="-99.8" font-family="Times,serif" font-size="14.00" fill="#000000">AdminMeetingComponent</text>
</g>
<!-- AdminMeetingComponent&#45;&gt;AdminModule -->
<g id="edge11" class="edge">
<title>AdminMeetingComponent&#45;&gt;AdminModule</title>
<path fill="none" stroke="#000000" d="M1752,-122.2667C1752,-140.5552 1752,-166 1752,-166 1752,-166 1981.6475,-166 1981.6475,-166"/>
<polygon fill="#000000" stroke="#000000" points="1981.6475,-169.5001 1991.6475,-166 1981.6475,-162.5001 1981.6475,-169.5001"/>
</g>
<!-- SupportTicketsComponent -->
<g id="node12" class="node">
<title>SupportTicketsComponent</title>
<polygon fill="#ffffb3" stroke="#000000" points="1650.3738,-122 1483.6262,-122 1483.6262,-86 1650.3738,-86 1650.3738,-122"/>
<text text-anchor="middle" x="1567" y="-99.8" font-family="Times,serif" font-size="14.00" fill="#000000">SupportTicketsComponent</text>
</g>
<!-- SupportTicketsComponent&#45;&gt;AdminModule -->
<g id="edge12" class="edge">
<title>SupportTicketsComponent&#45;&gt;AdminModule</title>
<path fill="none" stroke="#000000" d="M1567,-122.1061C1567,-141.3391 1567,-169 1567,-169 1567,-169 1981.6151,-169 1981.6151,-169"/>
<polygon fill="#000000" stroke="#000000" points="1981.6151,-172.5001 1991.6151,-169 1981.6151,-165.5001 1981.6151,-172.5001"/>
</g>
<!-- ImageUploadComponent -->
<g id="node13" class="node">
<title>ImageUploadComponent</title>
<polygon fill="#ffffb3" stroke="#000000" points="1465.5253,-122 1308.4747,-122 1308.4747,-86 1465.5253,-86 1465.5253,-122"/>
<text text-anchor="middle" x="1387" y="-99.8" font-family="Times,serif" font-size="14.00" fill="#000000">ImageUploadComponent</text>
</g>
<!-- ImageUploadComponent&#45;&gt;AdminModule -->
<g id="edge13" class="edge">
<title>ImageUploadComponent&#45;&gt;AdminModule</title>
<path fill="none" stroke="#000000" d="M1387,-122.2228C1387,-142.3652 1387,-172 1387,-172 1387,-172 1981.5756,-172 1981.5756,-172"/>
<polygon fill="#000000" stroke="#000000" points="1981.5757,-175.5001 1991.5756,-172 1981.5756,-168.5001 1981.5757,-175.5001"/>
</g>
<!-- ImageViewComponent -->
<g id="node14" class="node">
<title>ImageViewComponent</title>
<polygon fill="#ffffb3" stroke="#000000" points="1290.1317,-122 1143.8683,-122 1143.8683,-86 1290.1317,-86 1290.1317,-122"/>
<text text-anchor="middle" x="1217" y="-99.8" font-family="Times,serif" font-size="14.00" fill="#000000">ImageViewComponent</text>
</g>
<!-- ImageViewComponent&#45;&gt;AdminModule -->
<g id="edge14" class="edge">
<title>ImageViewComponent&#45;&gt;AdminModule</title>
<path fill="none" stroke="#000000" d="M1217,-122.1686C1217,-143.498 1217,-176 1217,-176 1217,-176 1981.6171,-176 1981.6171,-176"/>
<polygon fill="#000000" stroke="#000000" points="1981.6172,-179.5001 1991.6171,-176 1981.6171,-172.5001 1981.6172,-179.5001"/>
</g>
<!-- AdminChannelsContentsComponent -->
<g id="node15" class="node">
<title>AdminChannelsContentsComponent</title>
<polygon fill="#ffffb3" stroke="#000000" points="1126.0982,-122 903.9018,-122 903.9018,-86 1126.0982,-86 1126.0982,-122"/>
<text text-anchor="middle" x="1015" y="-99.8" font-family="Times,serif" font-size="14.00" fill="#000000">AdminChannelsContentsComponent</text>
</g>
<!-- AdminChannelsContentsComponent&#45;&gt;AdminModule -->
<g id="edge15" class="edge">
<title>AdminChannelsContentsComponent&#45;&gt;AdminModule</title>
<path fill="none" stroke="#000000" d="M1015,-122.1554C1015,-144.3519 1015,-179 1015,-179 1015,-179 1981.5139,-179 1981.5139,-179"/>
<polygon fill="#000000" stroke="#000000" points="1981.5139,-182.5001 1991.5139,-179 1981.5139,-175.5001 1981.5139,-182.5001"/>
</g>
<!-- ChannelContentComponent -->
<g id="node16" class="node">
<title>ChannelContentComponent</title>
<polygon fill="#ffffb3" stroke="#000000" points="886.3215,-122 713.6785,-122 713.6785,-86 886.3215,-86 886.3215,-122"/>
<text text-anchor="middle" x="800" y="-99.8" font-family="Times,serif" font-size="14.00" fill="#000000">ChannelContentComponent</text>
</g>
<!-- ChannelContentComponent&#45;&gt;AdminModule -->
<g id="edge16" class="edge">
<title>ChannelContentComponent&#45;&gt;AdminModule</title>
<path fill="none" stroke="#000000" d="M800,-122.0908C800,-145.1328 800,-182 800,-182 800,-182 1981.5855,-182 1981.5855,-182"/>
<polygon fill="#000000" stroke="#000000" points="1981.5855,-185.5001 1991.5855,-182 1981.5855,-178.5001 1981.5855,-185.5001"/>
</g>
<!-- ChannelNewComponent -->
<g id="node17" class="node">
<title>ChannelNewComponent</title>
<polygon fill="#ffffb3" stroke="#000000" points="696.4172,-122 541.5828,-122 541.5828,-86 696.4172,-86 696.4172,-122"/>
<text text-anchor="middle" x="619" y="-99.8" font-family="Times,serif" font-size="14.00" fill="#000000">ChannelNewComponent</text>
</g>
<!-- ChannelNewComponent&#45;&gt;AdminModule -->
<g id="edge17" class="edge">
<title>ChannelNewComponent&#45;&gt;AdminModule</title>
<path fill="none" stroke="#000000" d="M619,-122.3802C619,-146.2785 619,-185 619,-185 619,-185 1981.6386,-185 1981.6386,-185"/>
<polygon fill="#000000" stroke="#000000" points="1981.6386,-188.5001 1991.6386,-185 1981.6386,-181.5001 1981.6386,-188.5001"/>
</g>
<!-- ListingComponentsComponent -->
<g id="node18" class="node">
<title>ListingComponentsComponent</title>
<polygon fill="#ffffb3" stroke="#000000" points="523.7785,-122 332.2215,-122 332.2215,-86 523.7785,-86 523.7785,-122"/>
<text text-anchor="middle" x="428" y="-99.8" font-family="Times,serif" font-size="14.00" fill="#000000">ListingComponentsComponent</text>
</g>
<!-- ListingComponentsComponent&#45;&gt;AdminModule -->
<g id="edge18" class="edge">
<title>ListingComponentsComponent&#45;&gt;AdminModule</title>
<path fill="none" stroke="#000000" d="M428,-122.0263C428,-146.9773 428,-189 428,-189 428,-189 1981.4023,-189 1981.4023,-189"/>
<polygon fill="#000000" stroke="#000000" points="1981.4023,-192.5001 1991.4023,-189 1981.4023,-185.5001 1981.4023,-192.5001"/>
</g>
<!-- UpdateComponent -->
<g id="node19" class="node">
<title>UpdateComponent</title>
<polygon fill="#ffffb3" stroke="#000000" points="313.759,-122 192.241,-122 192.241,-86 313.759,-86 313.759,-122"/>
<text text-anchor="middle" x="253" y="-99.8" font-family="Times,serif" font-size="14.00" fill="#000000">UpdateComponent</text>
</g>
<!-- UpdateComponent&#45;&gt;AdminModule -->
<g id="edge19" class="edge">
<title>UpdateComponent&#45;&gt;AdminModule</title>
<path fill="none" stroke="#000000" d="M253,-122.2337C253,-148.0094 253,-192 253,-192 253,-192 1981.3125,-192 1981.3125,-192"/>
<polygon fill="#000000" stroke="#000000" points="1981.3125,-195.5001 1991.3125,-192 1981.3125,-188.5001 1981.3125,-195.5001"/>
</g>
<!-- CreateComponent -->
<g id="node20" class="node">
<title>CreateComponent</title>
<polygon fill="#ffffb3" stroke="#000000" points="2895.8641,-122 2778.1359,-122 2778.1359,-86 2895.8641,-86 2895.8641,-122"/>
<text text-anchor="middle" x="2837" y="-99.8" font-family="Times,serif" font-size="14.00" fill="#000000">CreateComponent</text>
</g>
<!-- CreateComponent&#45;&gt;AdminModule -->
<g id="edge20" class="edge">
<title>CreateComponent&#45;&gt;AdminModule</title>
<path fill="none" stroke="#000000" d="M2837,-122.2228C2837,-142.3652 2837,-172 2837,-172 2837,-172 2100.4926,-172 2100.4926,-172"/>
<polygon fill="#000000" stroke="#000000" points="2100.4926,-168.5001 2090.4926,-172 2100.4926,-175.5001 2100.4926,-168.5001"/>
</g>
<!-- AppModule -->
<g id="node24" class="node">
<title>AppModule</title>
<polygon fill="#8dd3c7" stroke="#000000" points="5862.6571,-263 5859.6571,-267 5838.6571,-267 5835.6571,-263 5779.3429,-263 5779.3429,-227 5862.6571,-227 5862.6571,-263"/>
<text text-anchor="middle" x="5821" y="-240.8" font-family="Times,serif" font-size="14.00" fill="#000000">AppModule</text>
</g>
<!-- AdminModule&#45;&gt;AppModule -->
<g id="edge23" class="edge">
<title>AdminModule&#45;&gt;AppModule</title>
<path fill="none" stroke="#000000" d="M2041,-198.2921C2041,-220.2057 2041,-254 2041,-254 2041,-254 5769.1953,-254 5769.1953,-254"/>
<polygon fill="#000000" stroke="#000000" points="5769.1954,-257.5001 5779.1953,-254 5769.1953,-250.5001 5769.1954,-257.5001"/>
</g>
<!-- AdminRoutingModule -->
<g id="node22" class="node">
<title>AdminRoutingModule</title>
<polygon fill="#8dd3c7" stroke="#000000" points="167.5561,-122 164.5561,-126 143.5561,-126 140.5561,-122 24.4439,-122 24.4439,-86 167.5561,-86 167.5561,-122"/>
<text text-anchor="middle" x="96" y="-99.8" font-family="Times,serif" font-size="14.00" fill="#000000">AdminRoutingModule</text>
</g>
<!-- AdminRoutingModule&#45;&gt;AdminModule -->
<g id="edge21" class="edge">
<title>AdminRoutingModule&#45;&gt;AdminModule</title>
<path fill="none" stroke="#000000" d="M96,-122.4152C96,-149.0057 96,-195 96,-195 96,-195 1981.4585,-195 1981.4585,-195"/>
<polygon fill="#000000" stroke="#000000" points="1981.4586,-198.5001 1991.4585,-195 1981.4585,-191.5001 1981.4586,-198.5001"/>
</g>
<!-- AppComponent -->
<g id="node23" class="node">
<title>AppComponent</title>
<polygon fill="#ffffb3" stroke="#000000" points="6359.9399,-198 6254.0601,-198 6254.0601,-162 6359.9399,-162 6359.9399,-198"/>
<text text-anchor="middle" x="6307" y="-175.8" font-family="Times,serif" font-size="14.00" fill="#000000">AppComponent</text>
</g>
<!-- AppComponent&#45;&gt;AppModule -->
<g id="edge22" class="edge">
<title>AppComponent&#45;&gt;AppModule</title>
<path fill="none" stroke="#000000" d="M6307,-198.2921C6307,-220.2057 6307,-254 6307,-254 6307,-254 5872.8567,-254 5872.8567,-254"/>
<polygon fill="#000000" stroke="#000000" points="5872.8568,-250.5001 5862.8567,-254 5872.8567,-257.5001 5872.8568,-250.5001"/>
</g>
<!-- AppComponent  -->
<g id="node27" class="node">
<title>AppComponent </title>
<polygon fill="#80b1d3" stroke="#000000" points="5875.439,-328 5766.561,-328 5766.561,-292 5875.439,-292 5875.439,-328"/>
<text text-anchor="middle" x="5821" y="-305.8" font-family="Times,serif" font-size="14.00" fill="#000000">AppComponent </text>
</g>
<!-- AppModule&#45;&gt;AppComponent  -->
<g id="edge26" class="edge">
<title>AppModule&#45;&gt;AppComponent </title>
<path fill="none" stroke="#000000" stroke-dasharray="1,5" d="M5821,-263.1061C5821,-263.1061 5821,-281.991 5821,-281.991"/>
<polygon fill="#000000" stroke="#000000" points="5817.5001,-281.9909 5821,-291.991 5824.5001,-281.991 5817.5001,-281.9909"/>
</g>
<!-- ChannelsModule -->
<g id="node25" class="node">
<title>ChannelsModule</title>
<polygon fill="#8dd3c7" stroke="#000000" points="6229.6513,-198 6226.6513,-202 6205.6513,-202 6202.6513,-198 6118.3487,-198 6118.3487,-162 6229.6513,-162 6229.6513,-198"/>
<text text-anchor="middle" x="6174" y="-175.8" font-family="Times,serif" font-size="14.00" fill="#000000">ChannelsModule</text>
</g>
<!-- ChannelsModule&#45;&gt;AppModule -->
<g id="edge24" class="edge">
<title>ChannelsModule&#45;&gt;AppModule</title>
<path fill="none" stroke="#000000" d="M6174,-198.1061C6174,-217.3391 6174,-245 6174,-245 6174,-245 5872.8799,-245 5872.8799,-245"/>
<polygon fill="#000000" stroke="#000000" points="5872.88,-241.5001 5862.8799,-245 5872.8799,-248.5001 5872.88,-241.5001"/>
</g>
<!-- AppRoutingModule -->
<g id="node26" class="node">
<title>AppRoutingModule</title>
<polygon fill="#8dd3c7" stroke="#000000" points="6100.2744,-198 6097.2744,-202 6076.2744,-202 6073.2744,-198 5971.7256,-198 5971.7256,-162 6100.2744,-162 6100.2744,-198"/>
<text text-anchor="middle" x="6036" y="-175.8" font-family="Times,serif" font-size="14.00" fill="#000000">AppRoutingModule</text>
</g>
<!-- AppRoutingModule&#45;&gt;AppModule -->
<g id="edge25" class="edge">
<title>AppRoutingModule&#45;&gt;AppModule</title>
<path fill="none" stroke="#000000" d="M6036,-198.027C6036,-214.3976 6036,-236 6036,-236 6036,-236 5872.7091,-236 5872.7091,-236"/>
<polygon fill="#000000" stroke="#000000" points="5872.7091,-232.5001 5862.7091,-236 5872.7091,-239.5001 5872.7091,-232.5001"/>
</g>
<!-- DataService -->
<g id="node28" class="node">
<title>DataService</title>
<ellipse fill="#fdb462" stroke="#000000" cx="5890" cy="-180" rx="58.4415" ry="18"/>
<text text-anchor="middle" x="5890" y="-175.8" font-family="Times,serif" font-size="14.00" fill="#000000">DataService</text>
</g>
<!-- DataService&#45;&gt;AppModule -->
<g id="edge27" class="edge">
<title>DataService&#45;&gt;AppModule</title>
<path fill="none" stroke="#000000" d="M5847.3039,-192.5327C5847.3039,-192.5327 5847.3039,-216.8507 5847.3039,-216.8507"/>
<polygon fill="#000000" stroke="#000000" points="5843.804,-216.8506 5847.3039,-226.8507 5850.804,-216.8507 5843.804,-216.8506"/>
</g>
<!-- NewsService -->
<g id="node29" class="node">
<title>NewsService</title>
<ellipse fill="#fdb462" stroke="#000000" cx="5752" cy="-180" rx="61.9538" ry="18"/>
<text text-anchor="middle" x="5752" y="-175.8" font-family="Times,serif" font-size="14.00" fill="#000000">NewsService</text>
</g>
<!-- NewsService&#45;&gt;AppModule -->
<g id="edge28" class="edge">
<title>NewsService&#45;&gt;AppModule</title>
<path fill="none" stroke="#000000" d="M5796.5743,-192.5327C5796.5743,-192.5327 5796.5743,-216.8507 5796.5743,-216.8507"/>
<polygon fill="#000000" stroke="#000000" points="5793.0744,-216.8506 5796.5743,-226.8507 5800.0744,-216.8507 5793.0744,-216.8506"/>
</g>
<!-- WeatherService -->
<g id="node30" class="node">
<title>WeatherService</title>
<ellipse fill="#fdb462" stroke="#000000" cx="5599" cy="-180" rx="72.8889" ry="18"/>
<text text-anchor="middle" x="5599" y="-175.8" font-family="Times,serif" font-size="14.00" fill="#000000">WeatherService</text>
</g>
<!-- WeatherService&#45;&gt;AppModule -->
<g id="edge29" class="edge">
<title>WeatherService&#45;&gt;AppModule</title>
<path fill="none" stroke="#000000" d="M5599,-198.027C5599,-214.3976 5599,-236 5599,-236 5599,-236 5769.2435,-236 5769.2435,-236"/>
<polygon fill="#000000" stroke="#000000" points="5769.2435,-239.5001 5779.2435,-236 5769.2435,-232.5001 5769.2435,-239.5001"/>
</g>
<!-- FileService -->
<g id="node31" class="node">
<title>FileService</title>
<ellipse fill="#fdb462" stroke="#000000" cx="5453" cy="-180" rx="55.0285" ry="18"/>
<text text-anchor="middle" x="5453" y="-175.8" font-family="Times,serif" font-size="14.00" fill="#000000">FileService</text>
</g>
<!-- FileService&#45;&gt;AppModule -->
<g id="edge30" class="edge">
<title>FileService&#45;&gt;AppModule</title>
<path fill="none" stroke="#000000" d="M5453,-198.1061C5453,-217.3391 5453,-245 5453,-245 5453,-245 5769.144,-245 5769.144,-245"/>
<polygon fill="#000000" stroke="#000000" points="5769.144,-248.5001 5779.144,-245 5769.144,-241.5001 5769.144,-248.5001"/>
</g>
<!-- ChannelsComponent -->
<g id="node32" class="node">
<title>ChannelsComponent</title>
<polygon fill="#ffffb3" stroke="#000000" points="6389.9341,-122 6256.0659,-122 6256.0659,-86 6389.9341,-86 6389.9341,-122"/>
<text text-anchor="middle" x="6323" y="-99.8" font-family="Times,serif" font-size="14.00" fill="#000000">ChannelsComponent</text>
</g>
<!-- ChannelsComponent&#45;&gt;ChannelsModule -->
<g id="edge31" class="edge">
<title>ChannelsComponent&#45;&gt;ChannelsModule</title>
<path fill="none" stroke="#000000" d="M6256.1859,-104C6250.0828,-104 6246.1375,-104 6246.1375,-104 6246.1375,-104 6246.1375,-180 6246.1375,-180 6246.1375,-180 6239.7683,-180 6239.7683,-180"/>
<polygon fill="#000000" stroke="#000000" points="6239.7684,-176.5001 6229.7683,-180 6239.7683,-183.5001 6239.7684,-176.5001"/>
</g>
<!-- ChannelComponent -->
<g id="node33" class="node">
<title>ChannelComponent</title>
<polygon fill="#ffffb3" stroke="#000000" points="6237.9888,-122 6110.0112,-122 6110.0112,-86 6237.9888,-86 6237.9888,-122"/>
<text text-anchor="middle" x="6174" y="-99.8" font-family="Times,serif" font-size="14.00" fill="#000000">ChannelComponent</text>
</g>
<!-- ChannelComponent&#45;&gt;ChannelsModule -->
<g id="edge32" class="edge">
<title>ChannelComponent&#45;&gt;ChannelsModule</title>
<path fill="none" stroke="#000000" d="M6174,-122.0109C6174,-122.0109 6174,-151.855 6174,-151.855"/>
<polygon fill="#000000" stroke="#000000" points="6170.5001,-151.8549 6174,-161.855 6177.5001,-151.855 6170.5001,-151.8549"/>
</g>
<!-- ChannelsRoutingModule -->
<g id="node34" class="node">
<title>ChannelsRoutingModule</title>
<polygon fill="#8dd3c7" stroke="#000000" points="6086.2688,-122 6083.2688,-126 6062.2688,-126 6059.2688,-122 5929.7312,-122 5929.7312,-86 6086.2688,-86 6086.2688,-122"/>
<text text-anchor="middle" x="6008" y="-99.8" font-family="Times,serif" font-size="14.00" fill="#000000">ChannelsRoutingModule</text>
</g>
<!-- ChannelsRoutingModule&#45;&gt;ChannelsModule -->
<g id="edge33" class="edge">
<title>ChannelsRoutingModule&#45;&gt;ChannelsModule</title>
<path fill="none" stroke="#000000" d="M6086.4559,-104C6097.508,-104 6105.1964,-104 6105.1964,-104 6105.1964,-104 6105.1964,-180 6105.1964,-180 6105.1964,-180 6108.1378,-180 6108.1378,-180"/>
<polygon fill="#000000" stroke="#000000" points="6108.1378,-183.5001 6118.1378,-180 6108.1378,-176.5001 6108.1378,-183.5001"/>
</g>
<!-- ComponentsComponent -->
<g id="node35" class="node">
<title>ComponentsComponent</title>
<polygon fill="#ffffb3" stroke="#000000" points="5358.1094,-122 5205.8906,-122 5205.8906,-86 5358.1094,-86 5358.1094,-122"/>
<text text-anchor="middle" x="5282" y="-99.8" font-family="Times,serif" font-size="14.00" fill="#000000">ComponentsComponent</text>
</g>
<!-- ComponentsComponent&#45;&gt;ComponentsModule -->
<g id="edge34" class="edge">
<title>ComponentsComponent&#45;&gt;ComponentsModule</title>
<path fill="none" stroke="#000000" d="M5282,-122.2337C5282,-148.0094 5282,-192 5282,-192 5282,-192 4525.2856,-192 4525.2856,-192"/>
<polygon fill="#000000" stroke="#000000" points="4525.2857,-188.5001 4515.2856,-192 4525.2856,-195.5001 4525.2857,-188.5001"/>
</g>
<!-- WebsiteLoopComponent -->
<g id="node36" class="node">
<title>WebsiteLoopComponent</title>
<polygon fill="#ffffb3" stroke="#000000" points="5188.2548,-122 5031.7452,-122 5031.7452,-86 5188.2548,-86 5188.2548,-122"/>
<text text-anchor="middle" x="5110" y="-99.8" font-family="Times,serif" font-size="14.00" fill="#000000">WebsiteLoopComponent</text>
</g>
<!-- WebsiteLoopComponent&#45;&gt;ComponentsModule -->
<g id="edge35" class="edge">
<title>WebsiteLoopComponent&#45;&gt;ComponentsModule</title>
<path fill="none" stroke="#000000" d="M5110,-122.1985C5110,-146.3563 5110,-186 5110,-186 5110,-186 4525.3926,-186 4525.3926,-186"/>
<polygon fill="#000000" stroke="#000000" points="4525.3927,-182.5001 4515.3926,-186 4525.3926,-189.5001 4525.3927,-182.5001"/>
</g>
<!-- MeetingComponent -->
<g id="node37" class="node">
<title>MeetingComponent</title>
<polygon fill="#ffffb3" stroke="#000000" points="5013.9874,-122 4886.0126,-122 4886.0126,-86 5013.9874,-86 5013.9874,-122"/>
<text text-anchor="middle" x="4950" y="-99.8" font-family="Times,serif" font-size="14.00" fill="#000000">MeetingComponent</text>
</g>
<!-- MeetingComponent&#45;&gt;ComponentsModule -->
<g id="edge36" class="edge">
<title>MeetingComponent&#45;&gt;ComponentsModule</title>
<path fill="none" stroke="#000000" d="M4950,-122.0109C4950,-144.4852 4950,-180 4950,-180 4950,-180 4525.3663,-180 4525.3663,-180"/>
<polygon fill="#000000" stroke="#000000" points="4525.3663,-176.5001 4515.3663,-180 4525.3662,-183.5001 4525.3663,-176.5001"/>
</g>
<!-- EventComponent -->
<g id="node38" class="node">
<title>EventComponent</title>
<polygon fill="#ffffb3" stroke="#000000" points="4867.9902,-122 4754.0098,-122 4754.0098,-86 4867.9902,-86 4867.9902,-122"/>
<text text-anchor="middle" x="4811" y="-99.8" font-family="Times,serif" font-size="14.00" fill="#000000">EventComponent</text>
</g>
<!-- EventComponent&#45;&gt;ComponentsModule -->
<g id="edge37" class="edge">
<title>EventComponent&#45;&gt;ComponentsModule</title>
<path fill="none" stroke="#000000" d="M4811,-122.0267C4811,-142.7672 4811,-174 4811,-174 4811,-174 4525.3744,-174 4525.3744,-174"/>
<polygon fill="#000000" stroke="#000000" points="4525.3744,-170.5001 4515.3744,-174 4525.3743,-177.5001 4525.3744,-170.5001"/>
</g>
<!-- SupportComponent -->
<g id="node39" class="node">
<title>SupportComponent</title>
<polygon fill="#ffffb3" stroke="#000000" points="4735.6666,-122 4610.3334,-122 4610.3334,-86 4735.6666,-86 4735.6666,-122"/>
<text text-anchor="middle" x="4673" y="-99.8" font-family="Times,serif" font-size="14.00" fill="#000000">SupportComponent</text>
</g>
<!-- SupportComponent&#45;&gt;ComponentsModule -->
<g id="edge38" class="edge">
<title>SupportComponent&#45;&gt;ComponentsModule</title>
<path fill="none" stroke="#000000" d="M4673,-122.1686C4673,-141.0898 4673,-168 4673,-168 4673,-168 4525.4006,-168 4525.4006,-168"/>
<polygon fill="#000000" stroke="#000000" points="4525.4006,-164.5001 4515.4006,-168 4525.4005,-171.5001 4525.4006,-164.5001"/>
</g>
<!-- FinancialComponent -->
<g id="node40" class="node">
<title>FinancialComponent</title>
<polygon fill="#ffffb3" stroke="#000000" points="4591.9313,-122 4458.0687,-122 4458.0687,-86 4591.9313,-86 4591.9313,-122"/>
<text text-anchor="middle" x="4525" y="-99.8" font-family="Times,serif" font-size="14.00" fill="#000000">FinancialComponent</text>
</g>
<!-- FinancialComponent&#45;&gt;ComponentsModule -->
<g id="edge39" class="edge">
<title>FinancialComponent&#45;&gt;ComponentsModule</title>
<path fill="none" stroke="#000000" d="M4486.7241,-122.0109C4486.7241,-122.0109 4486.7241,-151.855 4486.7241,-151.855"/>
<polygon fill="#000000" stroke="#000000" points="4483.2241,-151.8549 4486.7241,-161.855 4490.2241,-151.855 4483.2241,-151.8549"/>
</g>
<!-- WeatherComponent -->
<g id="node41" class="node">
<title>WeatherComponent</title>
<polygon fill="#ffffb3" stroke="#000000" points="4440.2423,-122 4311.7577,-122 4311.7577,-86 4440.2423,-86 4440.2423,-122"/>
<text text-anchor="middle" x="4376" y="-99.8" font-family="Times,serif" font-size="14.00" fill="#000000">WeatherComponent</text>
</g>
<!-- WeatherComponent&#45;&gt;ComponentsModule -->
<g id="edge41" class="edge">
<title>WeatherComponent&#45;&gt;ComponentsModule</title>
<path fill="none" stroke="#000000" d="M4412.6038,-122.0109C4412.6038,-122.0109 4412.6038,-151.855 4412.6038,-151.855"/>
<polygon fill="#000000" stroke="#000000" points="4409.1039,-151.8549 4412.6038,-161.855 4416.1039,-151.855 4409.1039,-151.8549"/>
</g>
<!-- AllComponent -->
<g id="node42" class="node">
<title>AllComponent</title>
<polygon fill="#ffffb3" stroke="#000000" points="4293.7204,-122 4194.2796,-122 4194.2796,-86 4293.7204,-86 4293.7204,-122"/>
<text text-anchor="middle" x="4244" y="-99.8" font-family="Times,serif" font-size="14.00" fill="#000000">AllComponent</text>
</g>
<!-- AllComponent&#45;&gt;ComponentsModule -->
<g id="edge42" class="edge">
<title>AllComponent&#45;&gt;ComponentsModule</title>
<path fill="none" stroke="#000000" d="M4244,-122.1985C4244,-146.3563 4244,-186 4244,-186 4244,-186 4374.8203,-186 4374.8203,-186"/>
<polygon fill="#000000" stroke="#000000" points="4374.8203,-189.5001 4384.8203,-186 4374.8203,-182.5001 4374.8203,-189.5001"/>
</g>
<!-- CustomComponent -->
<g id="node43" class="node">
<title>CustomComponent</title>
<polygon fill="#ffffb3" stroke="#000000" points="4176.3948,-122 4051.6052,-122 4051.6052,-86 4176.3948,-86 4176.3948,-122"/>
<text text-anchor="middle" x="4114" y="-99.8" font-family="Times,serif" font-size="14.00" fill="#000000">CustomComponent</text>
</g>
<!-- CustomComponent&#45;&gt;ComponentsModule -->
<g id="edge43" class="edge">
<title>CustomComponent&#45;&gt;ComponentsModule</title>
<path fill="none" stroke="#000000" d="M4114,-122.0263C4114,-146.9773 4114,-189 4114,-189 4114,-189 4374.8174,-189 4374.8174,-189"/>
<polygon fill="#000000" stroke="#000000" points="4374.8175,-192.5001 4384.8174,-189 4374.8174,-185.5001 4374.8175,-192.5001"/>
</g>
<!-- NewsComponent -->
<g id="node44" class="node">
<title>NewsComponent</title>
<polygon fill="#ffffb3" stroke="#000000" points="4033.705,-122 3920.295,-122 3920.295,-86 4033.705,-86 4033.705,-122"/>
<text text-anchor="middle" x="3977" y="-99.8" font-family="Times,serif" font-size="14.00" fill="#000000">NewsComponent</text>
</g>
<!-- NewsComponent&#45;&gt;ComponentsModule -->
<g id="edge44" class="edge">
<title>NewsComponent&#45;&gt;ComponentsModule</title>
<path fill="none" stroke="#000000" d="M3977,-122.0265C3977,-147.5093 3977,-191 3977,-191 3977,-191 4374.728,-191 4374.728,-191"/>
<polygon fill="#000000" stroke="#000000" points="4374.728,-194.5001 4384.728,-191 4374.7279,-187.5001 4374.728,-194.5001"/>
</g>
<!-- TrafficComponent -->
<g id="node45" class="node">
<title>TrafficComponent</title>
<polygon fill="#ffffb3" stroke="#000000" points="3902.1867,-122 3781.8133,-122 3781.8133,-86 3902.1867,-86 3902.1867,-122"/>
<text text-anchor="middle" x="3842" y="-99.8" font-family="Times,serif" font-size="14.00" fill="#000000">TrafficComponent</text>
</g>
<!-- TrafficComponent&#45;&gt;ComponentsModule -->
<g id="edge45" class="edge">
<title>TrafficComponent&#45;&gt;ComponentsModule</title>
<path fill="none" stroke="#000000" d="M3842,-122.2128C3842,-148.5111 3842,-194 3842,-194 3842,-194 4374.6448,-194 4374.6448,-194"/>
<polygon fill="#000000" stroke="#000000" points="4374.6448,-197.5001 4384.6448,-194 4374.6447,-190.5001 4374.6448,-197.5001"/>
</g>
</g>
</svg>
