<?xml version="1.0" encoding="UTF-8" standalone="no"?>
<!DOCTYPE svg PUBLIC "-//W3C//DTD SVG 1.1//EN"
 "http://www.w3.org/Graphics/SVG/1.1/DTD/svg11.dtd">
<!-- Generated by graphviz version 2.40.1 (20161225.0304)
 -->
<!-- Title: dependencies Pages: 1 -->
<svg width="6281pt" height="360pt"
 viewBox="0.00 0.00 6281.00 360.00" xmlns="http://www.w3.org/2000/svg" xmlns:xlink="http://www.w3.org/1999/xlink">
<g id="graph0" class="graph" transform="scale(1 1) rotate(0) translate(4 356)">
<title>dependencies</title>
<polygon fill="#ffffff" stroke="transparent" points="-4,4 -4,-356 6277,-356 6277,4 -4,4"/>
<text text-anchor="start" x="3115.5091" y="-42.4" font-family="sans-serif" font-weight="bold" font-size="14.00" fill="#000000">Legend</text>
<polygon fill="#ffffb3" stroke="transparent" points="2902.5,-10 2902.5,-30 2922.5,-30 2922.5,-10 2902.5,-10"/>
<text text-anchor="start" x="2926.129" y="-15.4" font-family="sans-serif" font-size="14.00" fill="#000000"> &#160;Declarations</text>
<polygon fill="#8dd3c7" stroke="transparent" points="3015.5,-10 3015.5,-30 3035.5,-30 3035.5,-10 3015.5,-10"/>
<text text-anchor="start" x="3039.2251" y="-15.4" font-family="sans-serif" font-size="14.00" fill="#000000"> &#160;Module</text>
<polygon fill="#80b1d3" stroke="transparent" points="3101.5,-10 3101.5,-30 3121.5,-30 3121.5,-10 3101.5,-10"/>
<text text-anchor="start" x="3125.2812" y="-15.4" font-family="sans-serif" font-size="14.00" fill="#000000"> &#160;Bootstrap</text>
<polygon fill="#fdb462" stroke="transparent" points="3198.5,-10 3198.5,-30 3218.5,-30 3218.5,-10 3198.5,-10"/>
<text text-anchor="start" x="3222.1732" y="-15.4" font-family="sans-serif" font-size="14.00" fill="#000000"> &#160;Providers</text>
<polygon fill="#fb8072" stroke="transparent" points="3294.5,-10 3294.5,-30 3314.5,-30 3314.5,-10 3294.5,-10"/>
<text text-anchor="start" x="3318.2258" y="-15.4" font-family="sans-serif" font-size="14.00" fill="#000000"> &#160;Exports</text>
<g id="clust1" class="cluster">
<title>cluster_AdminModule</title>
<polygon fill="none" stroke="#000000" stroke-dasharray="1,5" points="8,-70 8,-206 3467,-206 3467,-70 8,-70"/>
</g>
<g id="clust2" class="cluster">
<title>cluster_AdminModule_declarations</title>
<polygon fill="none" stroke="#000000" points="184,-78 184,-130 3459,-130 3459,-78 184,-78"/>
</g>
<g id="clust21" class="cluster">
<title>cluster_AdminModule_imports</title>
<polygon fill="none" stroke="#000000" points="16,-78 16,-130 176,-130 176,-78 16,-78"/>
</g>
<g id="clust31" class="cluster">
<title>cluster_AppModule</title>
<polygon fill="none" stroke="#000000" stroke-dasharray="1,5" points="5091,-146 5091,-344 6235,-344 6235,-146 5091,-146"/>
</g>
<g id="clust32" class="cluster">
<title>cluster_AppModule_declarations</title>
<polygon fill="none" stroke="#000000" points="6105,-154 6105,-206 6227,-206 6227,-154 6105,-154"/>
</g>
<g id="clust34" class="cluster">
<title>cluster_AppModule_imports</title>
<polygon fill="none" stroke="#000000" points="5823,-154 5823,-206 6097,-206 6097,-154 5823,-154"/>
</g>
<g id="clust36" class="cluster">
<title>cluster_AppModule_bootstrap</title>
<polygon fill="none" stroke="#000000" points="5545,-284 5545,-336 5669,-336 5669,-284 5545,-284"/>
</g>
<g id="clust37" class="cluster">
<title>cluster_AppModule_providers</title>
<polygon fill="none" stroke="#000000" points="5099,-154 5099,-206 5815,-206 5815,-154 5099,-154"/>
</g>
<g id="clust44" class="cluster">
<title>cluster_ChannelsModule</title>
<polygon fill="none" stroke="#000000" stroke-dasharray="1,5" points="5773,-70 5773,-138 6265,-138 6265,-70 5773,-70"/>
</g>
<g id="clust45" class="cluster">
<title>cluster_ChannelsModule_declarations</title>
<polygon fill="none" stroke="#000000" points="5961,-78 5961,-130 6257,-130 6257,-78 5961,-78"/>
</g>
<g id="clust48" class="cluster">
<title>cluster_ChannelsModule_imports</title>
<polygon fill="none" stroke="#000000" points="5781,-78 5781,-130 5953,-130 5953,-78 5781,-78"/>
</g>
<g id="clust58" class="cluster">
<title>cluster_ComponentsModule</title>
<polygon fill="none" stroke="#000000" stroke-dasharray="1,5" points="3475,-70 3475,-206 5083,-206 5083,-70 3475,-70"/>
</g>
<g id="clust59" class="cluster">
<title>cluster_ComponentsModule_declarations</title>
<polygon fill="none" stroke="#000000" points="3483,-78 3483,-130 5075,-130 5075,-78 3483,-78"/>
</g>
<!-- AdminSideNavComponent -->
<g id="node1" class="node">
<title>AdminSideNavComponent</title>
<polygon fill="#ffffb3" stroke="#000000" points="3279.4297,-122 3110.5703,-122 3110.5703,-86 3279.4297,-86 3279.4297,-122"/>
<text text-anchor="middle" x="3195" y="-99.8" font-family="Times,serif" font-size="14.00" fill="#000000">AdminSideNavComponent</text>
</g>
<!-- AdminModule -->
<g id="node19" class="node">
<title>AdminModule</title>
<polygon fill="#8dd3c7" stroke="#000000" points="1954.4386,-198 1951.4386,-202 1930.4386,-202 1927.4386,-198 1855.5614,-198 1855.5614,-162 1954.4386,-162 1954.4386,-198"/>
<text text-anchor="middle" x="1905" y="-175.8" font-family="Times,serif" font-size="14.00" fill="#000000">AdminModule</text>
</g>
<!-- AdminSideNavComponent&#45;&gt;AdminModule -->
<g id="edge1" class="edge">
<title>AdminSideNavComponent&#45;&gt;AdminModule</title>
<path fill="none" stroke="#000000" d="M3195,-122.0109C3195,-144.4852 3195,-180 3195,-180 3195,-180 1964.386,-180 1964.386,-180"/>
<polygon fill="#000000" stroke="#000000" points="1964.386,-176.5001 1954.386,-180 1964.386,-183.5001 1964.386,-176.5001"/>
</g>
<!-- AdminChannelsComponent -->
<g id="node2" class="node">
<title>AdminChannelsComponent</title>
<polygon fill="#ffffb3" stroke="#000000" points="3093.3215,-122 2920.6785,-122 2920.6785,-86 3093.3215,-86 3093.3215,-122"/>
<text text-anchor="middle" x="3007" y="-99.8" font-family="Times,serif" font-size="14.00" fill="#000000">AdminChannelsComponent</text>
</g>
<!-- AdminChannelsComponent&#45;&gt;AdminModule -->
<g id="edge2" class="edge">
<title>AdminChannelsComponent&#45;&gt;AdminModule</title>
<path fill="none" stroke="#000000" d="M3007,-122.2921C3007,-144.2057 3007,-178 3007,-178 3007,-178 1964.4915,-178 1964.4915,-178"/>
<polygon fill="#000000" stroke="#000000" points="1964.4915,-174.5001 1954.4915,-178 1964.4915,-181.5001 1964.4915,-174.5001"/>
</g>
<!-- DashboardComponent -->
<g id="node3" class="node">
<title>DashboardComponent</title>
<polygon fill="#ffffb3" stroke="#000000" points="2902.9734,-122 2761.0266,-122 2761.0266,-86 2902.9734,-86 2902.9734,-122"/>
<text text-anchor="middle" x="2832" y="-99.8" font-family="Times,serif" font-size="14.00" fill="#000000">DashboardComponent</text>
</g>
<!-- DashboardComponent&#45;&gt;AdminModule -->
<g id="edge3" class="edge">
<title>DashboardComponent&#45;&gt;AdminModule</title>
<path fill="none" stroke="#000000" d="M2832,-122.2843C2832,-143.3211 2832,-175 2832,-175 2832,-175 1964.5118,-175 1964.5118,-175"/>
<polygon fill="#000000" stroke="#000000" points="1964.5119,-171.5001 1954.5118,-175 1964.5118,-178.5001 1964.5119,-171.5001"/>
</g>
<!-- SettingComponent -->
<g id="node4" class="node">
<title>SettingComponent</title>
<polygon fill="#ffffb3" stroke="#000000" points="2743.5014,-122 2622.4986,-122 2622.4986,-86 2743.5014,-86 2743.5014,-122"/>
<text text-anchor="middle" x="2683" y="-99.8" font-family="Times,serif" font-size="14.00" fill="#000000">SettingComponent</text>
</g>
<!-- SettingComponent&#45;&gt;AdminModule -->
<g id="edge4" class="edge">
<title>SettingComponent&#45;&gt;AdminModule</title>
<path fill="none" stroke="#000000" d="M2683,-122.1289C2683,-142.5724 2683,-173 2683,-173 2683,-173 1964.2576,-173 1964.2576,-173"/>
<polygon fill="#000000" stroke="#000000" points="1964.2576,-169.5001 1954.2576,-173 1964.2576,-176.5001 1964.2576,-169.5001"/>
</g>
<!-- BuildServersComponent -->
<g id="node5" class="node">
<title>BuildServersComponent</title>
<polygon fill="#ffffb3" stroke="#000000" points="3451.4284,-122 3296.5716,-122 3296.5716,-86 3451.4284,-86 3451.4284,-122"/>
<text text-anchor="middle" x="3374" y="-99.8" font-family="Times,serif" font-size="14.00" fill="#000000">BuildServersComponent</text>
</g>
<!-- BuildServersComponent&#45;&gt;AdminModule -->
<g id="edge5" class="edge">
<title>BuildServersComponent&#45;&gt;AdminModule</title>
<path fill="none" stroke="#000000" d="M3348.262,-122.3228C3348.262,-145.6602 3348.262,-183 3348.262,-183 3348.262,-183 1964.2628,-183 1964.2628,-183"/>
<polygon fill="#000000" stroke="#000000" points="1964.2629,-179.5001 1954.2628,-183 1964.2628,-186.5001 1964.2629,-179.5001"/>
</g>
<!-- ComponentsModule -->
<g id="node45" class="node">
<title>ComponentsModule</title>
<polygon fill="#8dd3c7" stroke="#000000" points="4224.3272,-198 4221.3272,-202 4200.3272,-202 4197.3272,-198 4093.6728,-198 4093.6728,-162 4224.3272,-162 4224.3272,-198"/>
<text text-anchor="middle" x="4159" y="-175.8" font-family="Times,serif" font-size="14.00" fill="#000000">ComponentsModule</text>
</g>
<!-- BuildServersComponent&#45;&gt;ComponentsModule -->
<g id="edge39" class="edge">
<title>BuildServersComponent&#45;&gt;ComponentsModule</title>
<path fill="none" stroke="#000000" d="M3399.738,-122.1762C3399.738,-148.9879 3399.738,-196 3399.738,-196 3399.738,-196 4083.6086,-196 4083.6086,-196"/>
<polygon fill="#000000" stroke="#000000" points="4083.6086,-199.5001 4093.6086,-196 4083.6086,-192.5001 4083.6086,-199.5001"/>
</g>
<!-- AdminComponent -->
<g id="node6" class="node">
<title>AdminComponent</title>
<polygon fill="#ffffb3" stroke="#000000" points="2432.2204,-122 2311.7796,-122 2311.7796,-86 2432.2204,-86 2432.2204,-122"/>
<text text-anchor="middle" x="2372" y="-99.8" font-family="Times,serif" font-size="14.00" fill="#000000">AdminComponent</text>
</g>
<!-- AdminComponent&#45;&gt;AdminModule -->
<g id="edge6" class="edge">
<title>AdminComponent&#45;&gt;AdminModule</title>
<path fill="none" stroke="#000000" d="M2372,-122.1686C2372,-141.0898 2372,-168 2372,-168 2372,-168 1964.5351,-168 1964.5351,-168"/>
<polygon fill="#000000" stroke="#000000" points="1964.5351,-164.5001 1954.5351,-168 1964.535,-171.5001 1964.5351,-164.5001"/>
</g>
<!-- AdminEntranceComponent -->
<g id="node7" class="node">
<title>AdminEntranceComponent</title>
<polygon fill="#ffffb3" stroke="#000000" points="2293.9678,-122 2124.0322,-122 2124.0322,-86 2293.9678,-86 2293.9678,-122"/>
<text text-anchor="middle" x="2209" y="-99.8" font-family="Times,serif" font-size="14.00" fill="#000000">AdminEntranceComponent</text>
</g>
<!-- AdminEntranceComponent&#45;&gt;AdminModule -->
<g id="edge7" class="edge">
<title>AdminEntranceComponent&#45;&gt;AdminModule</title>
<path fill="none" stroke="#000000" d="M2209,-122.302C2209,-140.2699 2209,-165 2209,-165 2209,-165 1964.5194,-165 1964.5194,-165"/>
<polygon fill="#000000" stroke="#000000" points="1964.5195,-161.5001 1954.5194,-165 1964.5194,-168.5001 1964.5195,-161.5001"/>
</g>
<!-- AdminEntranceDetailComponent -->
<g id="node8" class="node">
<title>AdminEntranceDetailComponent</title>
<polygon fill="#ffffb3" stroke="#000000" points="2106.1755,-122 1901.8245,-122 1901.8245,-86 2106.1755,-86 2106.1755,-122"/>
<text text-anchor="middle" x="2004" y="-99.8" font-family="Times,serif" font-size="14.00" fill="#000000">AdminEntranceDetailComponent</text>
</g>
<!-- AdminEntranceDetailComponent&#45;&gt;AdminModule -->
<g id="edge8" class="edge">
<title>AdminEntranceDetailComponent&#45;&gt;AdminModule</title>
<path fill="none" stroke="#000000" d="M1928.0656,-122.0109C1928.0656,-122.0109 1928.0656,-151.855 1928.0656,-151.855"/>
<polygon fill="#000000" stroke="#000000" points="1924.5656,-151.8549 1928.0656,-161.855 1931.5656,-151.855 1924.5656,-151.8549"/>
</g>
<!-- AdminEventComponent -->
<g id="node9" class="node">
<title>AdminEventComponent</title>
<polygon fill="#ffffb3" stroke="#000000" points="1883.378,-122 1730.622,-122 1730.622,-86 1883.378,-86 1883.378,-122"/>
<text text-anchor="middle" x="1807" y="-99.8" font-family="Times,serif" font-size="14.00" fill="#000000">AdminEventComponent</text>
</g>
<!-- AdminEventComponent&#45;&gt;AdminModule -->
<g id="edge9" class="edge">
<title>AdminEventComponent&#45;&gt;AdminModule</title>
<path fill="none" stroke="#000000" d="M1869.6101,-122.0109C1869.6101,-122.0109 1869.6101,-151.855 1869.6101,-151.855"/>
<polygon fill="#000000" stroke="#000000" points="1866.1102,-151.8549 1869.6101,-161.855 1873.1102,-151.855 1866.1102,-151.8549"/>
</g>
<!-- AdminEventDetailComponent -->
<g id="node10" class="node">
<title>AdminEventDetailComponent</title>
<polygon fill="#ffffb3" stroke="#000000" points="1712.5856,-122 1525.4144,-122 1525.4144,-86 1712.5856,-86 1712.5856,-122"/>
<text text-anchor="middle" x="1619" y="-99.8" font-family="Times,serif" font-size="14.00" fill="#000000">AdminEventDetailComponent</text>
</g>
<!-- AdminEventDetailComponent&#45;&gt;AdminModule -->
<g id="edge10" class="edge">
<title>AdminEventDetailComponent&#45;&gt;AdminModule</title>
<path fill="none" stroke="#000000" d="M1619,-122.2667C1619,-140.5552 1619,-166 1619,-166 1619,-166 1845.5091,-166 1845.5091,-166"/>
<polygon fill="#000000" stroke="#000000" points="1845.5091,-169.5001 1855.5091,-166 1845.5091,-162.5001 1845.5091,-169.5001"/>
</g>
<!-- AdminMeetingComponent -->
<g id="node11" class="node">
<title>AdminMeetingComponent</title>
<polygon fill="#ffffb3" stroke="#000000" points="1507.3752,-122 1340.6248,-122 1340.6248,-86 1507.3752,-86 1507.3752,-122"/>
<text text-anchor="middle" x="1424" y="-99.8" font-family="Times,serif" font-size="14.00" fill="#000000">AdminMeetingComponent</text>
</g>
<!-- AdminMeetingComponent&#45;&gt;AdminModule -->
<g id="edge11" class="edge">
<title>AdminMeetingComponent&#45;&gt;AdminModule</title>
<path fill="none" stroke="#000000" d="M1424,-122.0348C1424,-141.5762 1424,-170 1424,-170 1424,-170 1845.3362,-170 1845.3362,-170"/>
<polygon fill="#000000" stroke="#000000" points="1845.3363,-173.5001 1855.3362,-170 1845.3362,-166.5001 1845.3363,-173.5001"/>
</g>
<!-- SupportTicketsComponent -->
<g id="node12" class="node">
<title>SupportTicketsComponent</title>
<polygon fill="#ffffb3" stroke="#000000" points="1322.3738,-122 1155.6262,-122 1155.6262,-86 1322.3738,-86 1322.3738,-122"/>
<text text-anchor="middle" x="1239" y="-99.8" font-family="Times,serif" font-size="14.00" fill="#000000">SupportTicketsComponent</text>
</g>
<!-- SupportTicketsComponent&#45;&gt;AdminModule -->
<g id="edge12" class="edge">
<title>SupportTicketsComponent&#45;&gt;AdminModule</title>
<path fill="none" stroke="#000000" d="M1239,-122.1289C1239,-142.5724 1239,-173 1239,-173 1239,-173 1845.757,-173 1845.757,-173"/>
<polygon fill="#000000" stroke="#000000" points="1845.757,-176.5001 1855.757,-173 1845.7569,-169.5001 1845.757,-176.5001"/>
</g>
<!-- ImageUploadComponent -->
<g id="node13" class="node">
<title>ImageUploadComponent</title>
<polygon fill="#ffffb3" stroke="#000000" points="1137.5253,-122 980.4747,-122 980.4747,-86 1137.5253,-86 1137.5253,-122"/>
<text text-anchor="middle" x="1059" y="-99.8" font-family="Times,serif" font-size="14.00" fill="#000000">ImageUploadComponent</text>
</g>
<!-- ImageUploadComponent&#45;&gt;AdminModule -->
<g id="edge13" class="edge">
<title>ImageUploadComponent&#45;&gt;AdminModule</title>
<path fill="none" stroke="#000000" d="M1059,-122.0449C1059,-143.6623 1059,-177 1059,-177 1059,-177 1845.5484,-177 1845.5484,-177"/>
<polygon fill="#000000" stroke="#000000" points="1845.5485,-180.5001 1855.5484,-177 1845.5484,-173.5001 1845.5485,-180.5001"/>
</g>
<!-- ImageViewComponent -->
<g id="node14" class="node">
<title>ImageViewComponent</title>
<polygon fill="#ffffb3" stroke="#000000" points="962.1317,-122 815.8683,-122 815.8683,-86 962.1317,-86 962.1317,-122"/>
<text text-anchor="middle" x="889" y="-99.8" font-family="Times,serif" font-size="14.00" fill="#000000">ImageViewComponent</text>
</g>
<!-- ImageViewComponent&#45;&gt;AdminModule -->
<g id="edge14" class="edge">
<title>ImageViewComponent&#45;&gt;AdminModule</title>
<path fill="none" stroke="#000000" d="M889,-122.0109C889,-144.4852 889,-180 889,-180 889,-180 1845.6529,-180 1845.6529,-180"/>
<polygon fill="#000000" stroke="#000000" points="1845.6529,-183.5001 1855.6529,-180 1845.6528,-176.5001 1845.6529,-183.5001"/>
</g>
<!-- AdminChannelsContentsComponent -->
<g id="node15" class="node">
<title>AdminChannelsContentsComponent</title>
<polygon fill="#ffffb3" stroke="#000000" points="798.0982,-122 575.9018,-122 575.9018,-86 798.0982,-86 798.0982,-122"/>
<text text-anchor="middle" x="687" y="-99.8" font-family="Times,serif" font-size="14.00" fill="#000000">AdminChannelsContentsComponent</text>
</g>
<!-- AdminChannelsContentsComponent&#45;&gt;AdminModule -->
<g id="edge15" class="edge">
<title>AdminChannelsContentsComponent&#45;&gt;AdminModule</title>
<path fill="none" stroke="#000000" d="M687,-122.1532C687,-145.7566 687,-184 687,-184 687,-184 1845.7444,-184 1845.7444,-184"/>
<polygon fill="#000000" stroke="#000000" points="1845.7445,-187.5001 1855.7444,-184 1845.7444,-180.5001 1845.7445,-187.5001"/>
</g>
<!-- SupportContentsComponent -->
<g id="node16" class="node">
<title>SupportContentsComponent</title>
<polygon fill="#ffffb3" stroke="#000000" points="557.9438,-122 382.0562,-122 382.0562,-86 557.9438,-86 557.9438,-122"/>
<text text-anchor="middle" x="470" y="-99.8" font-family="Times,serif" font-size="14.00" fill="#000000">SupportContentsComponent</text>
</g>
<!-- SupportContentsComponent&#45;&gt;AdminModule -->
<g id="edge16" class="edge">
<title>SupportContentsComponent&#45;&gt;AdminModule</title>
<path fill="none" stroke="#000000" d="M470,-122.2267C470,-146.9318 470,-188 470,-188 470,-188 1845.6041,-188 1845.6041,-188"/>
<polygon fill="#000000" stroke="#000000" points="1845.6041,-191.5001 1855.6041,-188 1845.604,-184.5001 1845.6041,-191.5001"/>
</g>
<!-- ChannelContentComponent -->
<g id="node17" class="node">
<title>ChannelContentComponent</title>
<polygon fill="#ffffb3" stroke="#000000" points="364.3215,-122 191.6785,-122 191.6785,-86 364.3215,-86 364.3215,-122"/>
<text text-anchor="middle" x="278" y="-99.8" font-family="Times,serif" font-size="14.00" fill="#000000">ChannelContentComponent</text>
</g>
<!-- ChannelContentComponent&#45;&gt;AdminModule -->
<g id="edge17" class="edge">
<title>ChannelContentComponent&#45;&gt;AdminModule</title>
<path fill="none" stroke="#000000" d="M278,-122.0265C278,-147.5093 278,-191 278,-191 278,-191 1845.4188,-191 1845.4188,-191"/>
<polygon fill="#000000" stroke="#000000" points="1845.4188,-194.5001 1855.4188,-191 1845.4187,-187.5001 1845.4188,-194.5001"/>
</g>
<!-- ChannelNewComponent -->
<g id="node18" class="node">
<title>ChannelNewComponent</title>
<polygon fill="#ffffb3" stroke="#000000" points="2604.4172,-122 2449.5828,-122 2449.5828,-86 2604.4172,-86 2604.4172,-122"/>
<text text-anchor="middle" x="2527" y="-99.8" font-family="Times,serif" font-size="14.00" fill="#000000">ChannelNewComponent</text>
</g>
<!-- ChannelNewComponent&#45;&gt;AdminModule -->
<g id="edge18" class="edge">
<title>ChannelNewComponent&#45;&gt;AdminModule</title>
<path fill="none" stroke="#000000" d="M2527,-122.0348C2527,-141.5762 2527,-170 2527,-170 2527,-170 1964.3272,-170 1964.3272,-170"/>
<polygon fill="#000000" stroke="#000000" points="1964.3272,-166.5001 1954.3272,-170 1964.3272,-173.5001 1964.3272,-166.5001"/>
</g>
<!-- AppModule -->
<g id="node22" class="node">
<title>AppModule</title>
<polygon fill="#8dd3c7" stroke="#000000" points="5648.6571,-263 5645.6571,-267 5624.6571,-267 5621.6571,-263 5565.3429,-263 5565.3429,-227 5648.6571,-227 5648.6571,-263"/>
<text text-anchor="middle" x="5607" y="-240.8" font-family="Times,serif" font-size="14.00" fill="#000000">AppModule</text>
</g>
<!-- AdminModule&#45;&gt;AppModule -->
<g id="edge21" class="edge">
<title>AdminModule&#45;&gt;AppModule</title>
<path fill="none" stroke="#000000" d="M1905,-198.0109C1905,-220.4852 1905,-256 1905,-256 1905,-256 5555.1065,-256 5555.1065,-256"/>
<polygon fill="#000000" stroke="#000000" points="5555.1065,-259.5001 5565.1065,-256 5555.1064,-252.5001 5555.1065,-259.5001"/>
</g>
<!-- AdminRoutingModule -->
<g id="node20" class="node">
<title>AdminRoutingModule</title>
<polygon fill="#8dd3c7" stroke="#000000" points="167.5561,-122 164.5561,-126 143.5561,-126 140.5561,-122 24.4439,-122 24.4439,-86 167.5561,-86 167.5561,-122"/>
<text text-anchor="middle" x="96" y="-99.8" font-family="Times,serif" font-size="14.00" fill="#000000">AdminRoutingModule</text>
</g>
<!-- AdminRoutingModule&#45;&gt;AdminModule -->
<g id="edge19" class="edge">
<title>AdminRoutingModule&#45;&gt;AdminModule</title>
<path fill="none" stroke="#000000" d="M96,-122.4152C96,-149.0057 96,-195 96,-195 96,-195 1845.6754,-195 1845.6754,-195"/>
<polygon fill="#000000" stroke="#000000" points="1845.6755,-198.5001 1855.6754,-195 1845.6754,-191.5001 1845.6755,-198.5001"/>
</g>
<!-- AppComponent -->
<g id="node21" class="node">
<title>AppComponent</title>
<polygon fill="#ffffb3" stroke="#000000" points="6218.9399,-198 6113.0601,-198 6113.0601,-162 6218.9399,-162 6218.9399,-198"/>
<text text-anchor="middle" x="6166" y="-175.8" font-family="Times,serif" font-size="14.00" fill="#000000">AppComponent</text>
</g>
<!-- AppComponent&#45;&gt;AppModule -->
<g id="edge20" class="edge">
<title>AppComponent&#45;&gt;AppModule</title>
<path fill="none" stroke="#000000" d="M6166,-198.0109C6166,-220.4852 6166,-256 6166,-256 6166,-256 5659.0159,-256 5659.0159,-256"/>
<polygon fill="#000000" stroke="#000000" points="5659.0159,-252.5001 5649.0159,-256 5659.0158,-259.5001 5659.0159,-252.5001"/>
</g>
<!-- AppComponent  -->
<g id="node25" class="node">
<title>AppComponent </title>
<polygon fill="#80b1d3" stroke="#000000" points="5661.439,-328 5552.561,-328 5552.561,-292 5661.439,-292 5661.439,-328"/>
<text text-anchor="middle" x="5607" y="-305.8" font-family="Times,serif" font-size="14.00" fill="#000000">AppComponent </text>
</g>
<!-- AppModule&#45;&gt;AppComponent  -->
<g id="edge24" class="edge">
<title>AppModule&#45;&gt;AppComponent </title>
<path fill="none" stroke="#000000" stroke-dasharray="1,5" d="M5607,-263.1061C5607,-263.1061 5607,-281.991 5607,-281.991"/>
<polygon fill="#000000" stroke="#000000" points="5603.5001,-281.9909 5607,-291.991 5610.5001,-281.991 5603.5001,-281.9909"/>
</g>
<!-- ChannelsModule -->
<g id="node23" class="node">
<title>ChannelsModule</title>
<polygon fill="#8dd3c7" stroke="#000000" points="6088.6513,-198 6085.6513,-202 6064.6513,-202 6061.6513,-198 5977.3487,-198 5977.3487,-162 6088.6513,-162 6088.6513,-198"/>
<text text-anchor="middle" x="6033" y="-175.8" font-family="Times,serif" font-size="14.00" fill="#000000">ChannelsModule</text>
</g>
<!-- ChannelsModule&#45;&gt;AppModule -->
<g id="edge22" class="edge">
<title>ChannelsModule&#45;&gt;AppModule</title>
<path fill="none" stroke="#000000" d="M6033,-198.1289C6033,-218.5724 6033,-249 6033,-249 6033,-249 5659.0124,-249 5659.0124,-249"/>
<polygon fill="#000000" stroke="#000000" points="5659.0124,-245.5001 5649.0124,-249 5659.0123,-252.5001 5659.0124,-245.5001"/>
</g>
<!-- AppRoutingModule -->
<g id="node24" class="node">
<title>AppRoutingModule</title>
<polygon fill="#8dd3c7" stroke="#000000" points="5959.2744,-198 5956.2744,-202 5935.2744,-202 5932.2744,-198 5830.7256,-198 5830.7256,-162 5959.2744,-162 5959.2744,-198"/>
<text text-anchor="middle" x="5895" y="-175.8" font-family="Times,serif" font-size="14.00" fill="#000000">AppRoutingModule</text>
</g>
<!-- AppRoutingModule&#45;&gt;AppModule -->
<g id="edge23" class="edge">
<title>AppRoutingModule&#45;&gt;AppModule</title>
<path fill="none" stroke="#000000" d="M5895,-198.2667C5895,-216.5552 5895,-242 5895,-242 5895,-242 5658.8777,-242 5658.8777,-242"/>
<polygon fill="#000000" stroke="#000000" points="5658.8777,-238.5001 5648.8777,-242 5658.8776,-245.5001 5658.8777,-238.5001"/>
</g>
<!-- DataService -->
<g id="node26" class="node">
<title>DataService</title>
<ellipse fill="#fdb462" stroke="#000000" cx="5749" cy="-180" rx="58.4415" ry="18"/>
<text text-anchor="middle" x="5749" y="-175.8" font-family="Times,serif" font-size="14.00" fill="#000000">DataService</text>
</g>
<!-- DataService&#45;&gt;AppModule -->
<g id="edge25" class="edge">
<title>DataService&#45;&gt;AppModule</title>
<path fill="none" stroke="#000000" d="M5749,-198.0091C5749,-214.0494 5749,-235 5749,-235 5749,-235 5658.8367,-235 5658.8367,-235"/>
<polygon fill="#000000" stroke="#000000" points="5658.8367,-231.5001 5648.8367,-235 5658.8366,-238.5001 5658.8367,-231.5001"/>
</g>
<!-- SocketService -->
<g id="node27" class="node">
<title>SocketService</title>
<ellipse fill="#fdb462" stroke="#000000" cx="5607" cy="-180" rx="66.0492" ry="18"/>
<text text-anchor="middle" x="5607" y="-175.8" font-family="Times,serif" font-size="14.00" fill="#000000">SocketService</text>
</g>
<!-- SocketService&#45;&gt;AppModule -->
<g id="edge26" class="edge">
<title>SocketService&#45;&gt;AppModule</title>
<path fill="none" stroke="#000000" d="M5607,-198.1061C5607,-198.1061 5607,-216.991 5607,-216.991"/>
<polygon fill="#000000" stroke="#000000" points="5603.5001,-216.9909 5607,-226.991 5610.5001,-216.991 5603.5001,-216.9909"/>
</g>
<!-- NewsService -->
<g id="node28" class="node">
<title>NewsService</title>
<ellipse fill="#fdb462" stroke="#000000" cx="5461" cy="-180" rx="61.9538" ry="18"/>
<text text-anchor="middle" x="5461" y="-175.8" font-family="Times,serif" font-size="14.00" fill="#000000">NewsService</text>
</g>
<!-- NewsService&#45;&gt;AppModule -->
<g id="edge27" class="edge">
<title>NewsService&#45;&gt;AppModule</title>
<path fill="none" stroke="#000000" d="M5461,-198.0091C5461,-214.0494 5461,-235 5461,-235 5461,-235 5555.1623,-235 5555.1623,-235"/>
<polygon fill="#000000" stroke="#000000" points="5555.1623,-238.5001 5565.1623,-235 5555.1622,-231.5001 5555.1623,-238.5001"/>
</g>
<!-- WeatherService -->
<g id="node29" class="node">
<title>WeatherService</title>
<ellipse fill="#fdb462" stroke="#000000" cx="5308" cy="-180" rx="72.8889" ry="18"/>
<text text-anchor="middle" x="5308" y="-175.8" font-family="Times,serif" font-size="14.00" fill="#000000">WeatherService</text>
</g>
<!-- WeatherService&#45;&gt;AppModule -->
<g id="edge28" class="edge">
<title>WeatherService&#45;&gt;AppModule</title>
<path fill="none" stroke="#000000" d="M5308,-198.2667C5308,-216.5552 5308,-242 5308,-242 5308,-242 5555.1105,-242 5555.1105,-242"/>
<polygon fill="#000000" stroke="#000000" points="5555.1105,-245.5001 5565.1105,-242 5555.1105,-238.5001 5555.1105,-245.5001"/>
</g>
<!-- FileService -->
<g id="node30" class="node">
<title>FileService</title>
<ellipse fill="#fdb462" stroke="#000000" cx="5162" cy="-180" rx="55.0285" ry="18"/>
<text text-anchor="middle" x="5162" y="-175.8" font-family="Times,serif" font-size="14.00" fill="#000000">FileService</text>
</g>
<!-- FileService&#45;&gt;AppModule -->
<g id="edge29" class="edge">
<title>FileService&#45;&gt;AppModule</title>
<path fill="none" stroke="#000000" d="M5162,-198.1289C5162,-218.5724 5162,-249 5162,-249 5162,-249 5555.1355,-249 5555.1355,-249"/>
<polygon fill="#000000" stroke="#000000" points="5555.1355,-252.5001 5565.1355,-249 5555.1354,-245.5001 5555.1355,-252.5001"/>
</g>
<!-- ChannelsComponent -->
<g id="node31" class="node">
<title>ChannelsComponent</title>
<polygon fill="#ffffb3" stroke="#000000" points="6248.9341,-122 6115.0659,-122 6115.0659,-86 6248.9341,-86 6248.9341,-122"/>
<text text-anchor="middle" x="6182" y="-99.8" font-family="Times,serif" font-size="14.00" fill="#000000">ChannelsComponent</text>
</g>
<!-- ChannelsComponent&#45;&gt;ChannelsModule -->
<g id="edge30" class="edge">
<title>ChannelsComponent&#45;&gt;ChannelsModule</title>
<path fill="none" stroke="#000000" d="M6115.1859,-104C6109.0828,-104 6105.1375,-104 6105.1375,-104 6105.1375,-104 6105.1375,-180 6105.1375,-180 6105.1375,-180 6098.7683,-180 6098.7683,-180"/>
<polygon fill="#000000" stroke="#000000" points="6098.7684,-176.5001 6088.7683,-180 6098.7683,-183.5001 6098.7684,-176.5001"/>
</g>
<!-- ChannelComponent -->
<g id="node32" class="node">
<title>ChannelComponent</title>
<polygon fill="#ffffb3" stroke="#000000" points="6096.9888,-122 5969.0112,-122 5969.0112,-86 6096.9888,-86 6096.9888,-122"/>
<text text-anchor="middle" x="6033" y="-99.8" font-family="Times,serif" font-size="14.00" fill="#000000">ChannelComponent</text>
</g>
<!-- ChannelComponent&#45;&gt;ChannelsModule -->
<g id="edge31" class="edge">
<title>ChannelComponent&#45;&gt;ChannelsModule</title>
<path fill="none" stroke="#000000" d="M6033,-122.0109C6033,-122.0109 6033,-151.855 6033,-151.855"/>
<polygon fill="#000000" stroke="#000000" points="6029.5001,-151.8549 6033,-161.855 6036.5001,-151.855 6029.5001,-151.8549"/>
</g>
<!-- ChannelsRoutingModule -->
<g id="node33" class="node">
<title>ChannelsRoutingModule</title>
<polygon fill="#8dd3c7" stroke="#000000" points="5945.2688,-122 5942.2688,-126 5921.2688,-126 5918.2688,-122 5788.7312,-122 5788.7312,-86 5945.2688,-86 5945.2688,-122"/>
<text text-anchor="middle" x="5867" y="-99.8" font-family="Times,serif" font-size="14.00" fill="#000000">ChannelsRoutingModule</text>
</g>
<!-- ChannelsRoutingModule&#45;&gt;ChannelsModule -->
<g id="edge32" class="edge">
<title>ChannelsRoutingModule&#45;&gt;ChannelsModule</title>
<path fill="none" stroke="#000000" d="M5945.4559,-104C5956.508,-104 5964.1964,-104 5964.1964,-104 5964.1964,-104 5964.1964,-180 5964.1964,-180 5964.1964,-180 5967.1378,-180 5967.1378,-180"/>
<polygon fill="#000000" stroke="#000000" points="5967.1378,-183.5001 5977.1378,-180 5967.1378,-176.5001 5967.1378,-183.5001"/>
</g>
<!-- ComponentsComponent -->
<g id="node34" class="node">
<title>ComponentsComponent</title>
<polygon fill="#ffffb3" stroke="#000000" points="5067.1094,-122 4914.8906,-122 4914.8906,-86 5067.1094,-86 5067.1094,-122"/>
<text text-anchor="middle" x="4991" y="-99.8" font-family="Times,serif" font-size="14.00" fill="#000000">ComponentsComponent</text>
</g>
<!-- ComponentsComponent&#45;&gt;ComponentsModule -->
<g id="edge33" class="edge">
<title>ComponentsComponent&#45;&gt;ComponentsModule</title>
<path fill="none" stroke="#000000" d="M4991,-122.2337C4991,-148.0094 4991,-192 4991,-192 4991,-192 4234.2856,-192 4234.2856,-192"/>
<polygon fill="#000000" stroke="#000000" points="4234.2857,-188.5001 4224.2856,-192 4234.2856,-195.5001 4234.2857,-188.5001"/>
</g>
<!-- WebsiteLoopComponent -->
<g id="node35" class="node">
<title>WebsiteLoopComponent</title>
<polygon fill="#ffffb3" stroke="#000000" points="4897.2548,-122 4740.7452,-122 4740.7452,-86 4897.2548,-86 4897.2548,-122"/>
<text text-anchor="middle" x="4819" y="-99.8" font-family="Times,serif" font-size="14.00" fill="#000000">WebsiteLoopComponent</text>
</g>
<!-- WebsiteLoopComponent&#45;&gt;ComponentsModule -->
<g id="edge34" class="edge">
<title>WebsiteLoopComponent&#45;&gt;ComponentsModule</title>
<path fill="none" stroke="#000000" d="M4819,-122.1985C4819,-146.3563 4819,-186 4819,-186 4819,-186 4234.3926,-186 4234.3926,-186"/>
<polygon fill="#000000" stroke="#000000" points="4234.3927,-182.5001 4224.3926,-186 4234.3926,-189.5001 4234.3927,-182.5001"/>
</g>
<!-- MeetingComponent -->
<g id="node36" class="node">
<title>MeetingComponent</title>
<polygon fill="#ffffb3" stroke="#000000" points="4722.9874,-122 4595.0126,-122 4595.0126,-86 4722.9874,-86 4722.9874,-122"/>
<text text-anchor="middle" x="4659" y="-99.8" font-family="Times,serif" font-size="14.00" fill="#000000">MeetingComponent</text>
</g>
<!-- MeetingComponent&#45;&gt;ComponentsModule -->
<g id="edge35" class="edge">
<title>MeetingComponent&#45;&gt;ComponentsModule</title>
<path fill="none" stroke="#000000" d="M4659,-122.0109C4659,-144.4852 4659,-180 4659,-180 4659,-180 4234.3663,-180 4234.3663,-180"/>
<polygon fill="#000000" stroke="#000000" points="4234.3663,-176.5001 4224.3663,-180 4234.3662,-183.5001 4234.3663,-176.5001"/>
</g>
<!-- EventComponent -->
<g id="node37" class="node">
<title>EventComponent</title>
<polygon fill="#ffffb3" stroke="#000000" points="4576.9902,-122 4463.0098,-122 4463.0098,-86 4576.9902,-86 4576.9902,-122"/>
<text text-anchor="middle" x="4520" y="-99.8" font-family="Times,serif" font-size="14.00" fill="#000000">EventComponent</text>
</g>
<!-- EventComponent&#45;&gt;ComponentsModule -->
<g id="edge36" class="edge">
<title>EventComponent&#45;&gt;ComponentsModule</title>
<path fill="none" stroke="#000000" d="M4520,-122.0267C4520,-142.7672 4520,-174 4520,-174 4520,-174 4234.3744,-174 4234.3744,-174"/>
<polygon fill="#000000" stroke="#000000" points="4234.3744,-170.5001 4224.3744,-174 4234.3743,-177.5001 4234.3744,-170.5001"/>
</g>
<!-- SupportComponent -->
<g id="node38" class="node">
<title>SupportComponent</title>
<polygon fill="#ffffb3" stroke="#000000" points="4444.6666,-122 4319.3334,-122 4319.3334,-86 4444.6666,-86 4444.6666,-122"/>
<text text-anchor="middle" x="4382" y="-99.8" font-family="Times,serif" font-size="14.00" fill="#000000">SupportComponent</text>
</g>
<!-- SupportComponent&#45;&gt;ComponentsModule -->
<g id="edge37" class="edge">
<title>SupportComponent&#45;&gt;ComponentsModule</title>
<path fill="none" stroke="#000000" d="M4382,-122.1686C4382,-141.0898 4382,-168 4382,-168 4382,-168 4234.4006,-168 4234.4006,-168"/>
<polygon fill="#000000" stroke="#000000" points="4234.4006,-164.5001 4224.4006,-168 4234.4005,-171.5001 4234.4006,-164.5001"/>
</g>
<!-- FinancialComponent -->
<g id="node39" class="node">
<title>FinancialComponent</title>
<polygon fill="#ffffb3" stroke="#000000" points="4300.9313,-122 4167.0687,-122 4167.0687,-86 4300.9313,-86 4300.9313,-122"/>
<text text-anchor="middle" x="4234" y="-99.8" font-family="Times,serif" font-size="14.00" fill="#000000">FinancialComponent</text>
</g>
<!-- FinancialComponent&#45;&gt;ComponentsModule -->
<g id="edge38" class="edge">
<title>FinancialComponent&#45;&gt;ComponentsModule</title>
<path fill="none" stroke="#000000" d="M4195.7241,-122.0109C4195.7241,-122.0109 4195.7241,-151.855 4195.7241,-151.855"/>
<polygon fill="#000000" stroke="#000000" points="4192.2241,-151.8549 4195.7241,-161.855 4199.2241,-151.855 4192.2241,-151.8549"/>
</g>
<!-- WeatherComponent -->
<g id="node40" class="node">
<title>WeatherComponent</title>
<polygon fill="#ffffb3" stroke="#000000" points="4149.2423,-122 4020.7577,-122 4020.7577,-86 4149.2423,-86 4149.2423,-122"/>
<text text-anchor="middle" x="4085" y="-99.8" font-family="Times,serif" font-size="14.00" fill="#000000">WeatherComponent</text>
</g>
<!-- WeatherComponent&#45;&gt;ComponentsModule -->
<g id="edge40" class="edge">
<title>WeatherComponent&#45;&gt;ComponentsModule</title>
<path fill="none" stroke="#000000" d="M4121.6038,-122.0109C4121.6038,-122.0109 4121.6038,-151.855 4121.6038,-151.855"/>
<polygon fill="#000000" stroke="#000000" points="4118.1039,-151.8549 4121.6038,-161.855 4125.1039,-151.855 4118.1039,-151.8549"/>
</g>
<!-- AllComponent -->
<g id="node41" class="node">
<title>AllComponent</title>
<polygon fill="#ffffb3" stroke="#000000" points="4002.7204,-122 3903.2796,-122 3903.2796,-86 4002.7204,-86 4002.7204,-122"/>
<text text-anchor="middle" x="3953" y="-99.8" font-family="Times,serif" font-size="14.00" fill="#000000">AllComponent</text>
</g>
<!-- AllComponent&#45;&gt;ComponentsModule -->
<g id="edge41" class="edge">
<title>AllComponent&#45;&gt;ComponentsModule</title>
<path fill="none" stroke="#000000" d="M3953,-122.1985C3953,-146.3563 3953,-186 3953,-186 3953,-186 4083.8203,-186 4083.8203,-186"/>
<polygon fill="#000000" stroke="#000000" points="4083.8203,-189.5001 4093.8203,-186 4083.8203,-182.5001 4083.8203,-189.5001"/>
</g>
<!-- CustomComponent -->
<g id="node42" class="node">
<title>CustomComponent</title>
<polygon fill="#ffffb3" stroke="#000000" points="3885.3948,-122 3760.6052,-122 3760.6052,-86 3885.3948,-86 3885.3948,-122"/>
<text text-anchor="middle" x="3823" y="-99.8" font-family="Times,serif" font-size="14.00" fill="#000000">CustomComponent</text>
</g>
<!-- CustomComponent&#45;&gt;ComponentsModule -->
<g id="edge42" class="edge">
<title>CustomComponent&#45;&gt;ComponentsModule</title>
<path fill="none" stroke="#000000" d="M3823,-122.2267C3823,-146.9318 3823,-188 3823,-188 3823,-188 4083.8174,-188 4083.8174,-188"/>
<polygon fill="#000000" stroke="#000000" points="4083.8175,-191.5001 4093.8174,-188 4083.8174,-184.5001 4083.8175,-191.5001"/>
</g>
<!-- NewsComponent -->
<g id="node43" class="node">
<title>NewsComponent</title>
<polygon fill="#ffffb3" stroke="#000000" points="3742.705,-122 3629.295,-122 3629.295,-86 3742.705,-86 3742.705,-122"/>
<text text-anchor="middle" x="3686" y="-99.8" font-family="Times,serif" font-size="14.00" fill="#000000">NewsComponent</text>
</g>
<!-- NewsComponent&#45;&gt;ComponentsModule -->
<g id="edge43" class="edge">
<title>NewsComponent&#45;&gt;ComponentsModule</title>
<path fill="none" stroke="#000000" d="M3686,-122.0265C3686,-147.5093 3686,-191 3686,-191 3686,-191 4083.728,-191 4083.728,-191"/>
<polygon fill="#000000" stroke="#000000" points="4083.728,-194.5001 4093.728,-191 4083.7279,-187.5001 4083.728,-194.5001"/>
</g>
<!-- TrafficComponent -->
<g id="node44" class="node">
<title>TrafficComponent</title>
<polygon fill="#ffffb3" stroke="#000000" points="3611.1867,-122 3490.8133,-122 3490.8133,-86 3611.1867,-86 3611.1867,-122"/>
<text text-anchor="middle" x="3551" y="-99.8" font-family="Times,serif" font-size="14.00" fill="#000000">TrafficComponent</text>
</g>
<!-- TrafficComponent&#45;&gt;ComponentsModule -->
<g id="edge44" class="edge">
<title>TrafficComponent&#45;&gt;ComponentsModule</title>
<path fill="none" stroke="#000000" d="M3551,-122.0105C3551,-148.0165 3551,-193 3551,-193 3551,-193 4083.6448,-193 4083.6448,-193"/>
<polygon fill="#000000" stroke="#000000" points="4083.6448,-196.5001 4093.6448,-193 4083.6447,-189.5001 4083.6448,-196.5001"/>
</g>
</g>
</svg>
