<?xml version="1.0" encoding="UTF-8" standalone="no"?>
<!DOCTYPE svg PUBLIC "-//W3C//DTD SVG 1.1//EN"
 "http://www.w3.org/Graphics/SVG/1.1/DTD/svg11.dtd">
<!-- Generated by graphviz version 2.40.1 (20161225.0304)
 -->
<!-- Title: dependencies Pages: 1 -->
<svg width="5857pt" height="360pt"
 viewBox="0.00 0.00 5857.00 360.00" xmlns="http://www.w3.org/2000/svg" xmlns:xlink="http://www.w3.org/1999/xlink">
<g id="graph0" class="graph" transform="scale(1 1) rotate(0) translate(4 356)">
<title>dependencies</title>
<polygon fill="#ffffff" stroke="transparent" points="-4,4 -4,-356 5853,-356 5853,4 -4,4"/>
<text text-anchor="start" x="2903.5091" y="-42.4" font-family="sans-serif" font-weight="bold" font-size="14.00" fill="#000000">Legend</text>
<polygon fill="#ffffb3" stroke="transparent" points="2690.5,-10 2690.5,-30 2710.5,-30 2710.5,-10 2690.5,-10"/>
<text text-anchor="start" x="2714.129" y="-15.4" font-family="sans-serif" font-size="14.00" fill="#000000"> &#160;Declarations</text>
<polygon fill="#8dd3c7" stroke="transparent" points="2803.5,-10 2803.5,-30 2823.5,-30 2823.5,-10 2803.5,-10"/>
<text text-anchor="start" x="2827.2251" y="-15.4" font-family="sans-serif" font-size="14.00" fill="#000000"> &#160;Module</text>
<polygon fill="#80b1d3" stroke="transparent" points="2889.5,-10 2889.5,-30 2909.5,-30 2909.5,-10 2889.5,-10"/>
<text text-anchor="start" x="2913.2812" y="-15.4" font-family="sans-serif" font-size="14.00" fill="#000000"> &#160;Bootstrap</text>
<polygon fill="#fdb462" stroke="transparent" points="2986.5,-10 2986.5,-30 3006.5,-30 3006.5,-10 2986.5,-10"/>
<text text-anchor="start" x="3010.1732" y="-15.4" font-family="sans-serif" font-size="14.00" fill="#000000"> &#160;Providers</text>
<polygon fill="#fb8072" stroke="transparent" points="3082.5,-10 3082.5,-30 3102.5,-30 3102.5,-10 3082.5,-10"/>
<text text-anchor="start" x="3106.2258" y="-15.4" font-family="sans-serif" font-size="14.00" fill="#000000"> &#160;Exports</text>
<g id="clust1" class="cluster">
<title>cluster_AdminModule</title>
<polygon fill="none" stroke="#000000" stroke-dasharray="1,5" points="8,-70 8,-206 2803,-206 2803,-70 8,-70"/>
</g>
<g id="clust2" class="cluster">
<title>cluster_AdminModule_declarations</title>
<polygon fill="none" stroke="#000000" points="184,-78 184,-130 2795,-130 2795,-78 184,-78"/>
</g>
<g id="clust17" class="cluster">
<title>cluster_AdminModule_imports</title>
<polygon fill="none" stroke="#000000" points="16,-78 16,-130 176,-130 176,-78 16,-78"/>
</g>
<g id="clust27" class="cluster">
<title>cluster_AppModule</title>
<polygon fill="none" stroke="#000000" stroke-dasharray="1,5" points="2811,-146 2811,-344 4052,-344 4052,-146 2811,-146"/>
</g>
<g id="clust28" class="cluster">
<title>cluster_AppModule_declarations</title>
<polygon fill="none" stroke="#000000" points="3922,-154 3922,-206 4044,-206 4044,-154 3922,-154"/>
</g>
<g id="clust30" class="cluster">
<title>cluster_AppModule_imports</title>
<polygon fill="none" stroke="#000000" points="3530,-154 3530,-206 3914,-206 3914,-154 3530,-154"/>
</g>
<g id="clust32" class="cluster">
<title>cluster_AppModule_bootstrap</title>
<polygon fill="none" stroke="#000000" points="3325,-284 3325,-336 3449,-336 3449,-284 3325,-284"/>
</g>
<g id="clust33" class="cluster">
<title>cluster_AppModule_providers</title>
<polygon fill="none" stroke="#000000" points="2819,-154 2819,-206 3522,-206 3522,-154 2819,-154"/>
</g>
<g id="clust40" class="cluster">
<title>cluster_ChannelsModule</title>
<polygon fill="none" stroke="#000000" stroke-dasharray="1,5" points="3331,-70 3331,-138 3823,-138 3823,-70 3331,-70"/>
</g>
<g id="clust41" class="cluster">
<title>cluster_ChannelsModule_declarations</title>
<polygon fill="none" stroke="#000000" points="3519,-78 3519,-130 3815,-130 3815,-78 3519,-78"/>
</g>
<g id="clust44" class="cluster">
<title>cluster_ChannelsModule_imports</title>
<polygon fill="none" stroke="#000000" points="3339,-78 3339,-130 3511,-130 3511,-78 3339,-78"/>
</g>
<g id="clust54" class="cluster">
<title>cluster_ComponentsModule</title>
<polygon fill="none" stroke="#000000" stroke-dasharray="1,5" points="4060,-70 4060,-206 5841,-206 5841,-70 4060,-70"/>
</g>
<g id="clust55" class="cluster">
<title>cluster_ComponentsModule_declarations</title>
<polygon fill="none" stroke="#000000" points="4068,-78 4068,-130 5833,-130 5833,-78 4068,-78"/>
</g>
<!-- AdminChannelsComponent -->
<g id="node1" class="node">
<title>AdminChannelsComponent</title>
<polygon fill="#ffffb3" stroke="#000000" points="2787.3215,-122 2614.6785,-122 2614.6785,-86 2787.3215,-86 2787.3215,-122"/>
<text text-anchor="middle" x="2701" y="-99.8" font-family="Times,serif" font-size="14.00" fill="#000000">AdminChannelsComponent</text>
</g>
<!-- AdminModule -->
<g id="node15" class="node">
<title>AdminModule</title>
<polygon fill="#8dd3c7" stroke="#000000" points="1495.4386,-198 1492.4386,-202 1471.4386,-202 1468.4386,-198 1396.5614,-198 1396.5614,-162 1495.4386,-162 1495.4386,-198"/>
<text text-anchor="middle" x="1446" y="-175.8" font-family="Times,serif" font-size="14.00" fill="#000000">AdminModule</text>
</g>
<!-- AdminChannelsComponent&#45;&gt;AdminModule -->
<g id="edge1" class="edge">
<title>AdminChannelsComponent&#45;&gt;AdminModule</title>
<path fill="none" stroke="#000000" d="M2701,-122.0105C2701,-148.0165 2701,-193 2701,-193 2701,-193 1505.584,-193 1505.584,-193"/>
<polygon fill="#000000" stroke="#000000" points="1505.5841,-189.5001 1495.584,-193 1505.584,-196.5001 1505.5841,-189.5001"/>
</g>
<!-- AdminChannelsContentsComponent -->
<g id="node2" class="node">
<title>AdminChannelsContentsComponent</title>
<polygon fill="#ffffb3" stroke="#000000" points="2597.0982,-122 2374.9018,-122 2374.9018,-86 2597.0982,-86 2597.0982,-122"/>
<text text-anchor="middle" x="2486" y="-99.8" font-family="Times,serif" font-size="14.00" fill="#000000">AdminChannelsContentsComponent</text>
</g>
<!-- AdminChannelsContentsComponent&#45;&gt;AdminModule -->
<g id="edge2" class="edge">
<title>AdminChannelsContentsComponent&#45;&gt;AdminModule</title>
<path fill="none" stroke="#000000" d="M2486,-122.2267C2486,-146.9318 2486,-188 2486,-188 2486,-188 1505.4617,-188 1505.4617,-188"/>
<polygon fill="#000000" stroke="#000000" points="1505.4617,-184.5001 1495.4617,-188 1505.4617,-191.5001 1505.4617,-184.5001"/>
</g>
<!-- AdminComponent -->
<g id="node3" class="node">
<title>AdminComponent</title>
<polygon fill="#ffffb3" stroke="#000000" points="2357.2204,-122 2236.7796,-122 2236.7796,-86 2357.2204,-86 2357.2204,-122"/>
<text text-anchor="middle" x="2297" y="-99.8" font-family="Times,serif" font-size="14.00" fill="#000000">AdminComponent</text>
</g>
<!-- AdminComponent&#45;&gt;AdminModule -->
<g id="edge3" class="edge">
<title>AdminComponent&#45;&gt;AdminModule</title>
<path fill="none" stroke="#000000" d="M2297,-122.3228C2297,-145.6602 2297,-183 2297,-183 2297,-183 1505.4317,-183 1505.4317,-183"/>
<polygon fill="#000000" stroke="#000000" points="1505.4317,-179.5001 1495.4317,-183 1505.4317,-186.5001 1505.4317,-179.5001"/>
</g>
<!-- AdminEntranceComponent -->
<g id="node4" class="node">
<title>AdminEntranceComponent</title>
<polygon fill="#ffffb3" stroke="#000000" points="2218.9678,-122 2049.0322,-122 2049.0322,-86 2218.9678,-86 2218.9678,-122"/>
<text text-anchor="middle" x="2134" y="-99.8" font-family="Times,serif" font-size="14.00" fill="#000000">AdminEntranceComponent</text>
</g>
<!-- AdminEntranceComponent&#45;&gt;AdminModule -->
<g id="edge4" class="edge">
<title>AdminEntranceComponent&#45;&gt;AdminModule</title>
<path fill="none" stroke="#000000" d="M2134,-122.2921C2134,-144.2057 2134,-178 2134,-178 2134,-178 1505.4793,-178 1505.4793,-178"/>
<polygon fill="#000000" stroke="#000000" points="1505.4793,-174.5001 1495.4793,-178 1505.4792,-181.5001 1505.4793,-174.5001"/>
</g>
<!-- AdminEntranceDetailComponent -->
<g id="node5" class="node">
<title>AdminEntranceDetailComponent</title>
<polygon fill="#ffffb3" stroke="#000000" points="2031.1755,-122 1826.8245,-122 1826.8245,-86 2031.1755,-86 2031.1755,-122"/>
<text text-anchor="middle" x="1929" y="-99.8" font-family="Times,serif" font-size="14.00" fill="#000000">AdminEntranceDetailComponent</text>
</g>
<!-- AdminEntranceDetailComponent&#45;&gt;AdminModule -->
<g id="edge5" class="edge">
<title>AdminEntranceDetailComponent&#45;&gt;AdminModule</title>
<path fill="none" stroke="#000000" d="M1929,-122.1289C1929,-142.5724 1929,-173 1929,-173 1929,-173 1505.4196,-173 1505.4196,-173"/>
<polygon fill="#000000" stroke="#000000" points="1505.4197,-169.5001 1495.4196,-173 1505.4196,-176.5001 1505.4197,-169.5001"/>
</g>
<!-- AdminEventComponent -->
<g id="node6" class="node">
<title>AdminEventComponent</title>
<polygon fill="#ffffb3" stroke="#000000" points="1808.378,-122 1655.622,-122 1655.622,-86 1808.378,-86 1808.378,-122"/>
<text text-anchor="middle" x="1732" y="-99.8" font-family="Times,serif" font-size="14.00" fill="#000000">AdminEventComponent</text>
</g>
<!-- AdminEventComponent&#45;&gt;AdminModule -->
<g id="edge6" class="edge">
<title>AdminEventComponent&#45;&gt;AdminModule</title>
<path fill="none" stroke="#000000" d="M1732,-122.1686C1732,-141.0898 1732,-168 1732,-168 1732,-168 1505.4909,-168 1505.4909,-168"/>
<polygon fill="#000000" stroke="#000000" points="1505.4909,-164.5001 1495.4909,-168 1505.4909,-171.5001 1505.4909,-164.5001"/>
</g>
<!-- AdminEventDetailComponent -->
<g id="node7" class="node">
<title>AdminEventDetailComponent</title>
<polygon fill="#ffffb3" stroke="#000000" points="1637.5856,-122 1450.4144,-122 1450.4144,-86 1637.5856,-86 1637.5856,-122"/>
<text text-anchor="middle" x="1544" y="-99.8" font-family="Times,serif" font-size="14.00" fill="#000000">AdminEventDetailComponent</text>
</g>
<!-- AdminEventDetailComponent&#45;&gt;AdminModule -->
<g id="edge7" class="edge">
<title>AdminEventDetailComponent&#45;&gt;AdminModule</title>
<path fill="none" stroke="#000000" d="M1472.838,-122.0109C1472.838,-122.0109 1472.838,-151.855 1472.838,-151.855"/>
<polygon fill="#000000" stroke="#000000" points="1469.3381,-151.8549 1472.838,-161.855 1476.3381,-151.855 1469.3381,-151.8549"/>
</g>
<!-- AdminSideNavComponent -->
<g id="node8" class="node">
<title>AdminSideNavComponent</title>
<polygon fill="#ffffb3" stroke="#000000" points="1432.4297,-122 1263.5703,-122 1263.5703,-86 1432.4297,-86 1432.4297,-122"/>
<text text-anchor="middle" x="1348" y="-99.8" font-family="Times,serif" font-size="14.00" fill="#000000">AdminSideNavComponent</text>
</g>
<!-- AdminSideNavComponent&#45;&gt;AdminModule -->
<g id="edge8" class="edge">
<title>AdminSideNavComponent&#45;&gt;AdminModule</title>
<path fill="none" stroke="#000000" d="M1414.4979,-122.0109C1414.4979,-122.0109 1414.4979,-151.855 1414.4979,-151.855"/>
<polygon fill="#000000" stroke="#000000" points="1410.998,-151.8549 1414.4979,-161.855 1417.998,-151.855 1410.998,-151.8549"/>
</g>
<!-- ChannelContentComponent -->
<g id="node9" class="node">
<title>ChannelContentComponent</title>
<polygon fill="#ffffb3" stroke="#000000" points="1246.3215,-122 1073.6785,-122 1073.6785,-86 1246.3215,-86 1246.3215,-122"/>
<text text-anchor="middle" x="1160" y="-99.8" font-family="Times,serif" font-size="14.00" fill="#000000">ChannelContentComponent</text>
</g>
<!-- ChannelContentComponent&#45;&gt;AdminModule -->
<g id="edge9" class="edge">
<title>ChannelContentComponent&#45;&gt;AdminModule</title>
<path fill="none" stroke="#000000" d="M1160,-122.2222C1160,-140.8285 1160,-167 1160,-167 1160,-167 1386.5091,-167 1386.5091,-167"/>
<polygon fill="#000000" stroke="#000000" points="1386.5091,-170.5001 1396.5091,-167 1386.5091,-163.5001 1386.5091,-170.5001"/>
</g>
<!-- ChannelNewComponent -->
<g id="node10" class="node">
<title>ChannelNewComponent</title>
<polygon fill="#ffffb3" stroke="#000000" points="1056.4172,-122 901.5828,-122 901.5828,-86 1056.4172,-86 1056.4172,-122"/>
<text text-anchor="middle" x="979" y="-99.8" font-family="Times,serif" font-size="14.00" fill="#000000">ChannelNewComponent</text>
</g>
<!-- ChannelNewComponent&#45;&gt;AdminModule -->
<g id="edge10" class="edge">
<title>ChannelNewComponent&#45;&gt;AdminModule</title>
<path fill="none" stroke="#000000" d="M979,-122.308C979,-142.1455 979,-171 979,-171 979,-171 1386.4649,-171 1386.4649,-171"/>
<polygon fill="#000000" stroke="#000000" points="1386.465,-174.5001 1396.4649,-171 1386.4649,-167.5001 1386.465,-174.5001"/>
</g>
<!-- DashboardComponent -->
<g id="node11" class="node">
<title>DashboardComponent</title>
<polygon fill="#ffffb3" stroke="#000000" points="883.9734,-122 742.0266,-122 742.0266,-86 883.9734,-86 883.9734,-122"/>
<text text-anchor="middle" x="813" y="-99.8" font-family="Times,serif" font-size="14.00" fill="#000000">DashboardComponent</text>
</g>
<!-- DashboardComponent&#45;&gt;AdminModule -->
<g id="edge11" class="edge">
<title>DashboardComponent&#45;&gt;AdminModule</title>
<path fill="none" stroke="#000000" d="M813,-122.1686C813,-143.498 813,-176 813,-176 813,-176 1386.5932,-176 1386.5932,-176"/>
<polygon fill="#000000" stroke="#000000" points="1386.5932,-179.5001 1396.5932,-176 1386.5932,-172.5001 1386.5932,-179.5001"/>
</g>
<!-- ImageUploadComponent -->
<g id="node12" class="node">
<title>ImageUploadComponent</title>
<polygon fill="#ffffb3" stroke="#000000" points="723.5253,-122 566.4747,-122 566.4747,-86 723.5253,-86 723.5253,-122"/>
<text text-anchor="middle" x="645" y="-99.8" font-family="Times,serif" font-size="14.00" fill="#000000">ImageUploadComponent</text>
</g>
<!-- ImageUploadComponent&#45;&gt;AdminModule -->
<g id="edge12" class="edge">
<title>ImageUploadComponent&#45;&gt;AdminModule</title>
<path fill="none" stroke="#000000" d="M645,-122.0109C645,-144.4852 645,-180 645,-180 645,-180 1386.4983,-180 1386.4983,-180"/>
<polygon fill="#000000" stroke="#000000" points="1386.4984,-183.5001 1396.4983,-180 1386.4983,-176.5001 1386.4984,-183.5001"/>
</g>
<!-- ImageViewComponent -->
<g id="node13" class="node">
<title>ImageViewComponent</title>
<polygon fill="#ffffb3" stroke="#000000" points="548.1317,-122 401.8683,-122 401.8683,-86 548.1317,-86 548.1317,-122"/>
<text text-anchor="middle" x="475" y="-99.8" font-family="Times,serif" font-size="14.00" fill="#000000">ImageViewComponent</text>
</g>
<!-- ImageViewComponent&#45;&gt;AdminModule -->
<g id="edge13" class="edge">
<title>ImageViewComponent&#45;&gt;AdminModule</title>
<path fill="none" stroke="#000000" d="M475,-122.3802C475,-146.2785 475,-185 475,-185 475,-185 1386.513,-185 1386.513,-185"/>
<polygon fill="#000000" stroke="#000000" points="1386.5131,-188.5001 1396.513,-185 1386.513,-181.5001 1386.5131,-188.5001"/>
</g>
<!-- ListingComponentsComponent -->
<g id="node14" class="node">
<title>ListingComponentsComponent</title>
<polygon fill="#ffffb3" stroke="#000000" points="383.7785,-122 192.2215,-122 192.2215,-86 383.7785,-86 383.7785,-122"/>
<text text-anchor="middle" x="288" y="-99.8" font-family="Times,serif" font-size="14.00" fill="#000000">ListingComponentsComponent</text>
</g>
<!-- ListingComponentsComponent&#45;&gt;AdminModule -->
<g id="edge14" class="edge">
<title>ListingComponentsComponent&#45;&gt;AdminModule</title>
<path fill="none" stroke="#000000" d="M288,-122.0263C288,-146.9773 288,-189 288,-189 288,-189 1386.6126,-189 1386.6126,-189"/>
<polygon fill="#000000" stroke="#000000" points="1386.6127,-192.5001 1396.6126,-189 1386.6126,-185.5001 1386.6127,-192.5001"/>
</g>
<!-- AppModule -->
<g id="node18" class="node">
<title>AppModule</title>
<polygon fill="#8dd3c7" stroke="#000000" points="3428.6571,-263 3425.6571,-267 3404.6571,-267 3401.6571,-263 3345.3429,-263 3345.3429,-227 3428.6571,-227 3428.6571,-263"/>
<text text-anchor="middle" x="3387" y="-240.8" font-family="Times,serif" font-size="14.00" fill="#000000">AppModule</text>
</g>
<!-- AdminModule&#45;&gt;AppModule -->
<g id="edge18" class="edge">
<title>AdminModule&#45;&gt;AppModule</title>
<path fill="none" stroke="#000000" d="M1446,-198.0109C1446,-220.4852 1446,-256 1446,-256 1446,-256 3335.1091,-256 3335.1091,-256"/>
<polygon fill="#000000" stroke="#000000" points="3335.1091,-259.5001 3345.1091,-256 3335.109,-252.5001 3335.1091,-259.5001"/>
</g>
<!-- AdminRoutingModule -->
<g id="node16" class="node">
<title>AdminRoutingModule</title>
<polygon fill="#8dd3c7" stroke="#000000" points="167.5561,-122 164.5561,-126 143.5561,-126 140.5561,-122 24.4439,-122 24.4439,-86 167.5561,-86 167.5561,-122"/>
<text text-anchor="middle" x="96" y="-99.8" font-family="Times,serif" font-size="14.00" fill="#000000">AdminRoutingModule</text>
</g>
<!-- AdminRoutingModule&#45;&gt;AdminModule -->
<g id="edge15" class="edge">
<title>AdminRoutingModule&#45;&gt;AdminModule</title>
<path fill="none" stroke="#000000" d="M96,-122.2128C96,-148.5111 96,-194 96,-194 96,-194 1386.7542,-194 1386.7542,-194"/>
<polygon fill="#000000" stroke="#000000" points="1386.7543,-197.5001 1396.7542,-194 1386.7542,-190.5001 1386.7543,-197.5001"/>
</g>
<!-- AppComponent -->
<g id="node17" class="node">
<title>AppComponent</title>
<polygon fill="#ffffb3" stroke="#000000" points="4035.9399,-198 3930.0601,-198 3930.0601,-162 4035.9399,-162 4035.9399,-198"/>
<text text-anchor="middle" x="3983" y="-175.8" font-family="Times,serif" font-size="14.00" fill="#000000">AppComponent</text>
</g>
<!-- AppComponent&#45;&gt;AppModule -->
<g id="edge16" class="edge">
<title>AppComponent&#45;&gt;AppModule</title>
<path fill="none" stroke="#000000" d="M3983,-198.0109C3983,-220.4852 3983,-256 3983,-256 3983,-256 3438.9096,-256 3438.9096,-256"/>
<polygon fill="#000000" stroke="#000000" points="3438.9096,-252.5001 3428.9096,-256 3438.9095,-259.5001 3438.9096,-252.5001"/>
</g>
<!-- AppComponent  -->
<g id="node22" class="node">
<title>AppComponent </title>
<polygon fill="#80b1d3" stroke="#000000" points="3441.439,-328 3332.561,-328 3332.561,-292 3441.439,-292 3441.439,-328"/>
<text text-anchor="middle" x="3387" y="-305.8" font-family="Times,serif" font-size="14.00" fill="#000000">AppComponent </text>
</g>
<!-- AppModule&#45;&gt;AppComponent  -->
<g id="edge21" class="edge">
<title>AppModule&#45;&gt;AppComponent </title>
<path fill="none" stroke="#000000" stroke-dasharray="1,5" d="M3387,-263.1061C3387,-263.1061 3387,-281.991 3387,-281.991"/>
<polygon fill="#000000" stroke="#000000" points="3383.5001,-281.9909 3387,-291.991 3390.5001,-281.991 3383.5001,-281.9909"/>
</g>
<!-- !environment -->
<g id="node19" class="node">
<title>!environment</title>
<polygon fill="#8dd3c7" stroke="#000000" points="3905.9232,-198 3902.9232,-202 3881.9232,-202 3878.9232,-198 3814.0768,-198 3814.0768,-162 3905.9232,-162 3905.9232,-198"/>
<text text-anchor="middle" x="3860" y="-175.8" font-family="Times,serif" font-size="14.00" fill="#000000">!environment</text>
</g>
<!-- !environment&#45;&gt;AppModule -->
<g id="edge17" class="edge">
<title>!environment&#45;&gt;AppModule</title>
<path fill="none" stroke="#000000" d="M3860,-198.1289C3860,-218.5724 3860,-249 3860,-249 3860,-249 3438.9756,-249 3438.9756,-249"/>
<polygon fill="#000000" stroke="#000000" points="3438.9756,-245.5001 3428.9756,-249 3438.9756,-252.5001 3438.9756,-245.5001"/>
</g>
<!-- AppRoutingModule -->
<g id="node20" class="node">
<title>AppRoutingModule</title>
<polygon fill="#8dd3c7" stroke="#000000" points="3796.2744,-198 3793.2744,-202 3772.2744,-202 3769.2744,-198 3667.7256,-198 3667.7256,-162 3796.2744,-162 3796.2744,-198"/>
<text text-anchor="middle" x="3732" y="-175.8" font-family="Times,serif" font-size="14.00" fill="#000000">AppRoutingModule</text>
</g>
<!-- AppRoutingModule&#45;&gt;AppModule -->
<g id="edge19" class="edge">
<title>AppRoutingModule&#45;&gt;AppModule</title>
<path fill="none" stroke="#000000" d="M3732,-198.2667C3732,-216.5552 3732,-242 3732,-242 3732,-242 3438.9589,-242 3438.9589,-242"/>
<polygon fill="#000000" stroke="#000000" points="3438.9589,-238.5001 3428.9589,-242 3438.9588,-245.5001 3438.9589,-238.5001"/>
</g>
<!-- ChannelsModule -->
<g id="node21" class="node">
<title>ChannelsModule</title>
<polygon fill="#8dd3c7" stroke="#000000" points="3649.6513,-198 3646.6513,-202 3625.6513,-202 3622.6513,-198 3538.3487,-198 3538.3487,-162 3649.6513,-162 3649.6513,-198"/>
<text text-anchor="middle" x="3594" y="-175.8" font-family="Times,serif" font-size="14.00" fill="#000000">ChannelsModule</text>
</g>
<!-- ChannelsModule&#45;&gt;AppModule -->
<g id="edge20" class="edge">
<title>ChannelsModule&#45;&gt;AppModule</title>
<path fill="none" stroke="#000000" d="M3594,-198.0091C3594,-214.0494 3594,-235 3594,-235 3594,-235 3438.8895,-235 3438.8895,-235"/>
<polygon fill="#000000" stroke="#000000" points="3438.8896,-231.5001 3428.8895,-235 3438.8895,-238.5001 3438.8896,-231.5001"/>
</g>
<!-- AuthService -->
<g id="node23" class="node">
<title>AuthService</title>
<ellipse fill="#fdb462" stroke="#000000" cx="3455" cy="-180" rx="59.1083" ry="18"/>
<text text-anchor="middle" x="3455" y="-175.8" font-family="Times,serif" font-size="14.00" fill="#000000">AuthService</text>
</g>
<!-- AuthService&#45;&gt;AppModule -->
<g id="edge22" class="edge">
<title>AuthService&#45;&gt;AppModule</title>
<path fill="none" stroke="#000000" d="M3412.2622,-192.5327C3412.2622,-192.5327 3412.2622,-216.8507 3412.2622,-216.8507"/>
<polygon fill="#000000" stroke="#000000" points="3408.7623,-216.8506 3412.2622,-226.8507 3415.7623,-216.8507 3408.7623,-216.8506"/>
</g>
<!-- DataService -->
<g id="node24" class="node">
<title>DataService</title>
<ellipse fill="#fdb462" stroke="#000000" cx="3319" cy="-180" rx="58.4415" ry="18"/>
<text text-anchor="middle" x="3319" y="-175.8" font-family="Times,serif" font-size="14.00" fill="#000000">DataService</text>
</g>
<!-- DataService&#45;&gt;AppModule -->
<g id="edge23" class="edge">
<title>DataService&#45;&gt;AppModule</title>
<path fill="none" stroke="#000000" d="M3361.1961,-192.5327C3361.1961,-192.5327 3361.1961,-216.8507 3361.1961,-216.8507"/>
<polygon fill="#000000" stroke="#000000" points="3357.6962,-216.8506 3361.1961,-226.8507 3364.6962,-216.8507 3357.6962,-216.8506"/>
</g>
<!-- FileService -->
<g id="node25" class="node">
<title>FileService</title>
<ellipse fill="#fdb462" stroke="#000000" cx="3188" cy="-180" rx="55.0285" ry="18"/>
<text text-anchor="middle" x="3188" y="-175.8" font-family="Times,serif" font-size="14.00" fill="#000000">FileService</text>
</g>
<!-- FileService&#45;&gt;AppModule -->
<g id="edge24" class="edge">
<title>FileService&#45;&gt;AppModule</title>
<path fill="none" stroke="#000000" d="M3188,-198.0091C3188,-214.0494 3188,-235 3188,-235 3188,-235 3335.2831,-235 3335.2831,-235"/>
<polygon fill="#000000" stroke="#000000" points="3335.2831,-238.5001 3345.2831,-235 3335.283,-231.5001 3335.2831,-238.5001"/>
</g>
<!-- NewsService -->
<g id="node26" class="node">
<title>NewsService</title>
<ellipse fill="#fdb462" stroke="#000000" cx="3053" cy="-180" rx="61.9538" ry="18"/>
<text text-anchor="middle" x="3053" y="-175.8" font-family="Times,serif" font-size="14.00" fill="#000000">NewsService</text>
</g>
<!-- NewsService&#45;&gt;AppModule -->
<g id="edge25" class="edge">
<title>NewsService&#45;&gt;AppModule</title>
<path fill="none" stroke="#000000" d="M3053,-198.2667C3053,-216.5552 3053,-242 3053,-242 3053,-242 3335.0369,-242 3335.0369,-242"/>
<polygon fill="#000000" stroke="#000000" points="3335.0369,-245.5001 3345.0369,-242 3335.0368,-238.5001 3335.0369,-245.5001"/>
</g>
<!-- WeatherService -->
<g id="node27" class="node">
<title>WeatherService</title>
<ellipse fill="#fdb462" stroke="#000000" cx="2900" cy="-180" rx="72.8889" ry="18"/>
<text text-anchor="middle" x="2900" y="-175.8" font-family="Times,serif" font-size="14.00" fill="#000000">WeatherService</text>
</g>
<!-- WeatherService&#45;&gt;AppModule -->
<g id="edge26" class="edge">
<title>WeatherService&#45;&gt;AppModule</title>
<path fill="none" stroke="#000000" d="M2900,-198.1289C2900,-218.5724 2900,-249 2900,-249 2900,-249 3335.0572,-249 3335.0572,-249"/>
<polygon fill="#000000" stroke="#000000" points="3335.0572,-252.5001 3345.0572,-249 3335.0571,-245.5001 3335.0572,-252.5001"/>
</g>
<!-- ChannelComponent -->
<g id="node28" class="node">
<title>ChannelComponent</title>
<polygon fill="#ffffb3" stroke="#000000" points="3806.9888,-122 3679.0112,-122 3679.0112,-86 3806.9888,-86 3806.9888,-122"/>
<text text-anchor="middle" x="3743" y="-99.8" font-family="Times,serif" font-size="14.00" fill="#000000">ChannelComponent</text>
</g>
<!-- ChannelComponent&#45;&gt;ChannelsModule -->
<g id="edge27" class="edge">
<title>ChannelComponent&#45;&gt;ChannelsModule</title>
<path fill="none" stroke="#000000" d="M3737.6964,-122.1097C3737.6964,-131.897 3737.6964,-142 3737.6964,-142 3737.6964,-142 3612.6085,-142 3612.6085,-142 3612.6085,-142 3612.6085,-151.8903 3612.6085,-151.8903"/>
<polygon fill="#000000" stroke="#000000" points="3609.1086,-151.8903 3612.6085,-161.8903 3616.1086,-151.8904 3609.1086,-151.8903"/>
</g>
<!-- ChannelsComponent -->
<g id="node29" class="node">
<title>ChannelsComponent</title>
<polygon fill="#ffffb3" stroke="#000000" points="3660.9341,-122 3527.0659,-122 3527.0659,-86 3660.9341,-86 3660.9341,-122"/>
<text text-anchor="middle" x="3594" y="-99.8" font-family="Times,serif" font-size="14.00" fill="#000000">ChannelsComponent</text>
</g>
<!-- ChannelsComponent&#45;&gt;ChannelsModule -->
<g id="edge28" class="edge">
<title>ChannelsComponent&#45;&gt;ChannelsModule</title>
<path fill="none" stroke="#000000" d="M3575.3915,-122.0109C3575.3915,-122.0109 3575.3915,-151.855 3575.3915,-151.855"/>
<polygon fill="#000000" stroke="#000000" points="3571.8916,-151.8549 3575.3915,-161.855 3578.8916,-151.855 3571.8916,-151.8549"/>
</g>
<!-- ChannelsRoutingModule -->
<g id="node30" class="node">
<title>ChannelsRoutingModule</title>
<polygon fill="#8dd3c7" stroke="#000000" points="3503.2688,-122 3500.2688,-126 3479.2688,-126 3476.2688,-122 3346.7312,-122 3346.7312,-86 3503.2688,-86 3503.2688,-122"/>
<text text-anchor="middle" x="3425" y="-99.8" font-family="Times,serif" font-size="14.00" fill="#000000">ChannelsRoutingModule</text>
</g>
<!-- ChannelsRoutingModule&#45;&gt;ChannelsModule -->
<g id="edge29" class="edge">
<title>ChannelsRoutingModule&#45;&gt;ChannelsModule</title>
<path fill="none" stroke="#000000" d="M3503.6676,-104C3513.8344,-104 3520.7936,-104 3520.7936,-104 3520.7936,-104 3520.7936,-180 3520.7936,-180 3520.7936,-180 3528.1425,-180 3528.1425,-180"/>
<polygon fill="#000000" stroke="#000000" points="3528.1425,-183.5001 3538.1425,-180 3528.1424,-176.5001 3528.1425,-183.5001"/>
</g>
<!-- AllComponent -->
<g id="node31" class="node">
<title>AllComponent</title>
<polygon fill="#ffffb3" stroke="#000000" points="5824.7204,-122 5725.2796,-122 5725.2796,-86 5824.7204,-86 5824.7204,-122"/>
<text text-anchor="middle" x="5775" y="-99.8" font-family="Times,serif" font-size="14.00" fill="#000000">AllComponent</text>
</g>
<!-- ComponentsModule -->
<g id="node43" class="node">
<title>ComponentsModule</title>
<polygon fill="#8dd3c7" stroke="#000000" points="5013.3272,-198 5010.3272,-202 4989.3272,-202 4986.3272,-198 4882.6728,-198 4882.6728,-162 5013.3272,-162 5013.3272,-198"/>
<text text-anchor="middle" x="4948" y="-175.8" font-family="Times,serif" font-size="14.00" fill="#000000">ComponentsModule</text>
</g>
<!-- AllComponent&#45;&gt;ComponentsModule -->
<g id="edge30" class="edge">
<title>AllComponent&#45;&gt;ComponentsModule</title>
<path fill="none" stroke="#000000" d="M5775,-122.2337C5775,-148.0094 5775,-192 5775,-192 5775,-192 5023.2385,-192 5023.2385,-192"/>
<polygon fill="#000000" stroke="#000000" points="5023.2386,-188.5001 5013.2385,-192 5023.2385,-195.5001 5023.2386,-188.5001"/>
</g>
<!-- BuildServersComponent -->
<g id="node32" class="node">
<title>BuildServersComponent</title>
<polygon fill="#ffffb3" stroke="#000000" points="5707.4284,-122 5552.5716,-122 5552.5716,-86 5707.4284,-86 5707.4284,-122"/>
<text text-anchor="middle" x="5630" y="-99.8" font-family="Times,serif" font-size="14.00" fill="#000000">BuildServersComponent</text>
</g>
<!-- BuildServersComponent&#45;&gt;ComponentsModule -->
<g id="edge31" class="edge">
<title>BuildServersComponent&#45;&gt;ComponentsModule</title>
<path fill="none" stroke="#000000" d="M5630,-122.1985C5630,-146.3563 5630,-186 5630,-186 5630,-186 5023.393,-186 5023.393,-186"/>
<polygon fill="#000000" stroke="#000000" points="5023.3931,-182.5001 5013.393,-186 5023.393,-189.5001 5023.3931,-182.5001"/>
</g>
<!-- ComponentsComponent -->
<g id="node33" class="node">
<title>ComponentsComponent</title>
<polygon fill="#ffffb3" stroke="#000000" points="5535.1094,-122 5382.8906,-122 5382.8906,-86 5535.1094,-86 5535.1094,-122"/>
<text text-anchor="middle" x="5459" y="-99.8" font-family="Times,serif" font-size="14.00" fill="#000000">ComponentsComponent</text>
</g>
<!-- ComponentsComponent&#45;&gt;ComponentsModule -->
<g id="edge32" class="edge">
<title>ComponentsComponent&#45;&gt;ComponentsModule</title>
<path fill="none" stroke="#000000" d="M5459,-122.0109C5459,-144.4852 5459,-180 5459,-180 5459,-180 5023.2375,-180 5023.2375,-180"/>
<polygon fill="#000000" stroke="#000000" points="5023.2376,-176.5001 5013.2375,-180 5023.2375,-183.5001 5023.2376,-176.5001"/>
</g>
<!-- CustomComponent -->
<g id="node34" class="node">
<title>CustomComponent</title>
<polygon fill="#ffffb3" stroke="#000000" points="5364.3948,-122 5239.6052,-122 5239.6052,-86 5364.3948,-86 5364.3948,-122"/>
<text text-anchor="middle" x="5302" y="-99.8" font-family="Times,serif" font-size="14.00" fill="#000000">CustomComponent</text>
</g>
<!-- CustomComponent&#45;&gt;ComponentsModule -->
<g id="edge33" class="edge">
<title>CustomComponent&#45;&gt;ComponentsModule</title>
<path fill="none" stroke="#000000" d="M5302,-122.0267C5302,-142.7672 5302,-174 5302,-174 5302,-174 5023.3416,-174 5023.3416,-174"/>
<polygon fill="#000000" stroke="#000000" points="5023.3416,-170.5001 5013.3416,-174 5023.3416,-177.5001 5023.3416,-170.5001"/>
</g>
<!-- EventComponent -->
<g id="node35" class="node">
<title>EventComponent</title>
<polygon fill="#ffffb3" stroke="#000000" points="5221.9902,-122 5108.0098,-122 5108.0098,-86 5221.9902,-86 5221.9902,-122"/>
<text text-anchor="middle" x="5165" y="-99.8" font-family="Times,serif" font-size="14.00" fill="#000000">EventComponent</text>
</g>
<!-- EventComponent&#45;&gt;ComponentsModule -->
<g id="edge34" class="edge">
<title>EventComponent&#45;&gt;ComponentsModule</title>
<path fill="none" stroke="#000000" d="M5165,-122.1686C5165,-141.0898 5165,-168 5165,-168 5165,-168 5023.4014,-168 5023.4014,-168"/>
<polygon fill="#000000" stroke="#000000" points="5023.4015,-164.5001 5013.4014,-168 5023.4014,-171.5001 5023.4015,-164.5001"/>
</g>
<!-- FinancialComponent -->
<g id="node36" class="node">
<title>FinancialComponent</title>
<polygon fill="#ffffb3" stroke="#000000" points="5089.9313,-122 4956.0687,-122 4956.0687,-86 5089.9313,-86 5089.9313,-122"/>
<text text-anchor="middle" x="5023" y="-99.8" font-family="Times,serif" font-size="14.00" fill="#000000">FinancialComponent</text>
</g>
<!-- FinancialComponent&#45;&gt;ComponentsModule -->
<g id="edge35" class="edge">
<title>FinancialComponent&#45;&gt;ComponentsModule</title>
<path fill="none" stroke="#000000" d="M4984.7241,-122.0109C4984.7241,-122.0109 4984.7241,-151.855 4984.7241,-151.855"/>
<polygon fill="#000000" stroke="#000000" points="4981.2241,-151.8549 4984.7241,-161.855 4988.2241,-151.855 4981.2241,-151.8549"/>
</g>
<!-- MeetingComponent -->
<g id="node37" class="node">
<title>MeetingComponent</title>
<polygon fill="#ffffb3" stroke="#000000" points="4937.9874,-122 4810.0126,-122 4810.0126,-86 4937.9874,-86 4937.9874,-122"/>
<text text-anchor="middle" x="4874" y="-99.8" font-family="Times,serif" font-size="14.00" fill="#000000">MeetingComponent</text>
</g>
<!-- MeetingComponent&#45;&gt;ComponentsModule -->
<g id="edge36" class="edge">
<title>MeetingComponent&#45;&gt;ComponentsModule</title>
<path fill="none" stroke="#000000" d="M4910.4152,-122.0109C4910.4152,-122.0109 4910.4152,-151.855 4910.4152,-151.855"/>
<polygon fill="#000000" stroke="#000000" points="4906.9152,-151.8549 4910.4152,-161.855 4913.9152,-151.855 4906.9152,-151.8549"/>
</g>
<!-- NewsComponent -->
<g id="node38" class="node">
<title>NewsComponent</title>
<polygon fill="#ffffb3" stroke="#000000" points="4791.705,-122 4678.295,-122 4678.295,-86 4791.705,-86 4791.705,-122"/>
<text text-anchor="middle" x="4735" y="-99.8" font-family="Times,serif" font-size="14.00" fill="#000000">NewsComponent</text>
</g>
<!-- NewsComponent&#45;&gt;ComponentsModule -->
<g id="edge37" class="edge">
<title>NewsComponent&#45;&gt;ComponentsModule</title>
<path fill="none" stroke="#000000" d="M4735,-122.1686C4735,-141.0898 4735,-168 4735,-168 4735,-168 4872.6454,-168 4872.6454,-168"/>
<polygon fill="#000000" stroke="#000000" points="4872.6455,-171.5001 4882.6454,-168 4872.6454,-164.5001 4872.6455,-171.5001"/>
</g>
<!-- SupportComponent -->
<g id="node39" class="node">
<title>SupportComponent</title>
<polygon fill="#ffffb3" stroke="#000000" points="4660.6666,-122 4535.3334,-122 4535.3334,-86 4660.6666,-86 4660.6666,-122"/>
<text text-anchor="middle" x="4598" y="-99.8" font-family="Times,serif" font-size="14.00" fill="#000000">SupportComponent</text>
</g>
<!-- SupportComponent&#45;&gt;ComponentsModule -->
<g id="edge38" class="edge">
<title>SupportComponent&#45;&gt;ComponentsModule</title>
<path fill="none" stroke="#000000" d="M4598,-122.0267C4598,-142.7672 4598,-174 4598,-174 4598,-174 4872.5783,-174 4872.5783,-174"/>
<polygon fill="#000000" stroke="#000000" points="4872.5783,-177.5001 4882.5783,-174 4872.5782,-170.5001 4872.5783,-177.5001"/>
</g>
<!-- TrafficComponent -->
<g id="node40" class="node">
<title>TrafficComponent</title>
<polygon fill="#ffffb3" stroke="#000000" points="4517.1867,-122 4396.8133,-122 4396.8133,-86 4517.1867,-86 4517.1867,-122"/>
<text text-anchor="middle" x="4457" y="-99.8" font-family="Times,serif" font-size="14.00" fill="#000000">TrafficComponent</text>
</g>
<!-- TrafficComponent&#45;&gt;ComponentsModule -->
<g id="edge39" class="edge">
<title>TrafficComponent&#45;&gt;ComponentsModule</title>
<path fill="none" stroke="#000000" d="M4457,-122.0109C4457,-144.4852 4457,-180 4457,-180 4457,-180 4872.799,-180 4872.799,-180"/>
<polygon fill="#000000" stroke="#000000" points="4872.799,-183.5001 4882.799,-180 4872.799,-176.5001 4872.799,-183.5001"/>
</g>
<!-- WeatherComponent -->
<g id="node41" class="node">
<title>WeatherComponent</title>
<polygon fill="#ffffb3" stroke="#000000" points="4379.2423,-122 4250.7577,-122 4250.7577,-86 4379.2423,-86 4379.2423,-122"/>
<text text-anchor="middle" x="4315" y="-99.8" font-family="Times,serif" font-size="14.00" fill="#000000">WeatherComponent</text>
</g>
<!-- WeatherComponent&#45;&gt;ComponentsModule -->
<g id="edge40" class="edge">
<title>WeatherComponent&#45;&gt;ComponentsModule</title>
<path fill="none" stroke="#000000" d="M4315,-122.1985C4315,-146.3563 4315,-186 4315,-186 4315,-186 4872.6421,-186 4872.6421,-186"/>
<polygon fill="#000000" stroke="#000000" points="4872.6421,-189.5001 4882.6421,-186 4872.642,-182.5001 4872.6421,-189.5001"/>
</g>
<!-- WebsiteLoopComponent -->
<g id="node42" class="node">
<title>WebsiteLoopComponent</title>
<polygon fill="#ffffb3" stroke="#000000" points="4232.2548,-122 4075.7452,-122 4075.7452,-86 4232.2548,-86 4232.2548,-122"/>
<text text-anchor="middle" x="4154" y="-99.8" font-family="Times,serif" font-size="14.00" fill="#000000">WebsiteLoopComponent</text>
</g>
<!-- WebsiteLoopComponent&#45;&gt;ComponentsModule -->
<g id="edge41" class="edge">
<title>WebsiteLoopComponent&#45;&gt;ComponentsModule</title>
<path fill="none" stroke="#000000" d="M4154,-122.2337C4154,-148.0094 4154,-192 4154,-192 4154,-192 4872.6863,-192 4872.6863,-192"/>
<polygon fill="#000000" stroke="#000000" points="4872.6863,-195.5001 4882.6863,-192 4872.6862,-188.5001 4872.6863,-195.5001"/>
</g>
</g>
</svg>
