<?xml version="1.0" encoding="UTF-8" standalone="no"?>
<!DOCTYPE svg PUBLIC "-//W3C//DTD SVG 1.1//EN"
 "http://www.w3.org/Graphics/SVG/1.1/DTD/svg11.dtd">
<!-- Generated by graphviz version 2.40.1 (20161225.0304)
 -->
<!-- Title: dependencies Pages: 1 -->
<svg width="6271pt" height="360pt"
 viewBox="0.00 0.00 6271.00 360.00" xmlns="http://www.w3.org/2000/svg" xmlns:xlink="http://www.w3.org/1999/xlink">
<g id="graph0" class="graph" transform="scale(1 1) rotate(0) translate(4 356)">
<title>dependencies</title>
<polygon fill="#ffffff" stroke="transparent" points="-4,4 -4,-356 6267,-356 6267,4 -4,4"/>
<text text-anchor="start" x="3110.5091" y="-42.4" font-family="sans-serif" font-weight="bold" font-size="14.00" fill="#000000">Legend</text>
<polygon fill="#ffffb3" stroke="transparent" points="2897.5,-10 2897.5,-30 2917.5,-30 2917.5,-10 2897.5,-10"/>
<text text-anchor="start" x="2921.129" y="-15.4" font-family="sans-serif" font-size="14.00" fill="#000000"> &#160;Declarations</text>
<polygon fill="#8dd3c7" stroke="transparent" points="3010.5,-10 3010.5,-30 3030.5,-30 3030.5,-10 3010.5,-10"/>
<text text-anchor="start" x="3034.2251" y="-15.4" font-family="sans-serif" font-size="14.00" fill="#000000"> &#160;Module</text>
<polygon fill="#80b1d3" stroke="transparent" points="3096.5,-10 3096.5,-30 3116.5,-30 3116.5,-10 3096.5,-10"/>
<text text-anchor="start" x="3120.2812" y="-15.4" font-family="sans-serif" font-size="14.00" fill="#000000"> &#160;Bootstrap</text>
<polygon fill="#fdb462" stroke="transparent" points="3193.5,-10 3193.5,-30 3213.5,-30 3213.5,-10 3193.5,-10"/>
<text text-anchor="start" x="3217.1732" y="-15.4" font-family="sans-serif" font-size="14.00" fill="#000000"> &#160;Providers</text>
<polygon fill="#fb8072" stroke="transparent" points="3289.5,-10 3289.5,-30 3309.5,-30 3309.5,-10 3289.5,-10"/>
<text text-anchor="start" x="3313.2258" y="-15.4" font-family="sans-serif" font-size="14.00" fill="#000000"> &#160;Exports</text>
<g id="clust1" class="cluster">
<title>cluster_AdminModule</title>
<polygon fill="none" stroke="#000000" stroke-dasharray="1,5" points="8,-70 8,-206 3217,-206 3217,-70 8,-70"/>
</g>
<g id="clust2" class="cluster">
<title>cluster_AdminModule_declarations</title>
<polygon fill="none" stroke="#000000" points="184,-78 184,-130 3209,-130 3209,-78 184,-78"/>
</g>
<g id="clust20" class="cluster">
<title>cluster_AdminModule_imports</title>
<polygon fill="none" stroke="#000000" points="16,-78 16,-130 176,-130 176,-78 16,-78"/>
</g>
<g id="clust30" class="cluster">
<title>cluster_AppModule</title>
<polygon fill="none" stroke="#000000" stroke-dasharray="1,5" points="3225,-146 3225,-344 4466,-344 4466,-146 3225,-146"/>
</g>
<g id="clust31" class="cluster">
<title>cluster_AppModule_declarations</title>
<polygon fill="none" stroke="#000000" points="4336,-154 4336,-206 4458,-206 4458,-154 4336,-154"/>
</g>
<g id="clust33" class="cluster">
<title>cluster_AppModule_imports</title>
<polygon fill="none" stroke="#000000" points="3944,-154 3944,-206 4328,-206 4328,-154 3944,-154"/>
</g>
<g id="clust35" class="cluster">
<title>cluster_AppModule_bootstrap</title>
<polygon fill="none" stroke="#000000" points="3739,-284 3739,-336 3863,-336 3863,-284 3739,-284"/>
</g>
<g id="clust36" class="cluster">
<title>cluster_AppModule_providers</title>
<polygon fill="none" stroke="#000000" points="3233,-154 3233,-206 3936,-206 3936,-154 3233,-154"/>
</g>
<g id="clust43" class="cluster">
<title>cluster_ChannelsModule</title>
<polygon fill="none" stroke="#000000" stroke-dasharray="1,5" points="3745,-70 3745,-138 4237,-138 4237,-70 3745,-70"/>
</g>
<g id="clust44" class="cluster">
<title>cluster_ChannelsModule_declarations</title>
<polygon fill="none" stroke="#000000" points="3933,-78 3933,-130 4229,-130 4229,-78 3933,-78"/>
</g>
<g id="clust47" class="cluster">
<title>cluster_ChannelsModule_imports</title>
<polygon fill="none" stroke="#000000" points="3753,-78 3753,-130 3925,-130 3925,-78 3753,-78"/>
</g>
<g id="clust57" class="cluster">
<title>cluster_ComponentsModule</title>
<polygon fill="none" stroke="#000000" stroke-dasharray="1,5" points="4474,-70 4474,-206 6255,-206 6255,-70 4474,-70"/>
</g>
<g id="clust58" class="cluster">
<title>cluster_ComponentsModule_declarations</title>
<polygon fill="none" stroke="#000000" points="4482,-78 4482,-130 6247,-130 6247,-78 4482,-78"/>
</g>
<!-- AdminChannelsComponent -->
<g id="node1" class="node">
<title>AdminChannelsComponent</title>
<polygon fill="#ffffb3" stroke="#000000" points="3201.3215,-122 3028.6785,-122 3028.6785,-86 3201.3215,-86 3201.3215,-122"/>
<text text-anchor="middle" x="3115" y="-99.8" font-family="Times,serif" font-size="14.00" fill="#000000">AdminChannelsComponent</text>
</g>
<!-- AdminModule -->
<g id="node18" class="node">
<title>AdminModule</title>
<polygon fill="#8dd3c7" stroke="#000000" points="1623.4386,-198 1620.4386,-202 1599.4386,-202 1596.4386,-198 1524.5614,-198 1524.5614,-162 1623.4386,-162 1623.4386,-198"/>
<text text-anchor="middle" x="1574" y="-175.8" font-family="Times,serif" font-size="14.00" fill="#000000">AdminModule</text>
</g>
<!-- AdminChannelsComponent&#45;&gt;AdminModule -->
<g id="edge1" class="edge">
<title>AdminChannelsComponent&#45;&gt;AdminModule</title>
<path fill="none" stroke="#000000" d="M3115,-122.2128C3115,-148.5111 3115,-194 3115,-194 3115,-194 1633.5265,-194 1633.5265,-194"/>
<polygon fill="#000000" stroke="#000000" points="1633.5265,-190.5001 1623.5265,-194 1633.5265,-197.5001 1633.5265,-190.5001"/>
</g>
<!-- AdminChannelsContentsComponent -->
<g id="node2" class="node">
<title>AdminChannelsContentsComponent</title>
<polygon fill="#ffffb3" stroke="#000000" points="3011.0982,-122 2788.9018,-122 2788.9018,-86 3011.0982,-86 3011.0982,-122"/>
<text text-anchor="middle" x="2900" y="-99.8" font-family="Times,serif" font-size="14.00" fill="#000000">AdminChannelsContentsComponent</text>
</g>
<!-- AdminChannelsContentsComponent&#45;&gt;AdminModule -->
<g id="edge2" class="edge">
<title>AdminChannelsContentsComponent&#45;&gt;AdminModule</title>
<path fill="none" stroke="#000000" d="M2900,-122.2384C2900,-147.4829 2900,-190 2900,-190 2900,-190 1633.5607,-190 1633.5607,-190"/>
<polygon fill="#000000" stroke="#000000" points="1633.5607,-186.5001 1623.5607,-190 1633.5607,-193.5001 1633.5607,-186.5001"/>
</g>
<!-- AdminComponent -->
<g id="node3" class="node">
<title>AdminComponent</title>
<polygon fill="#ffffb3" stroke="#000000" points="2771.2204,-122 2650.7796,-122 2650.7796,-86 2771.2204,-86 2771.2204,-122"/>
<text text-anchor="middle" x="2711" y="-99.8" font-family="Times,serif" font-size="14.00" fill="#000000">AdminComponent</text>
</g>
<!-- AdminComponent&#45;&gt;AdminModule -->
<g id="edge3" class="edge">
<title>AdminComponent&#45;&gt;AdminModule</title>
<path fill="none" stroke="#000000" d="M2711,-122.1985C2711,-146.3563 2711,-186 2711,-186 2711,-186 1633.2204,-186 1633.2204,-186"/>
<polygon fill="#000000" stroke="#000000" points="1633.2204,-182.5001 1623.2204,-186 1633.2204,-189.5001 1633.2204,-182.5001"/>
</g>
<!-- AdminEntranceComponent -->
<g id="node4" class="node">
<title>AdminEntranceComponent</title>
<polygon fill="#ffffb3" stroke="#000000" points="2632.9678,-122 2463.0322,-122 2463.0322,-86 2632.9678,-86 2632.9678,-122"/>
<text text-anchor="middle" x="2548" y="-99.8" font-family="Times,serif" font-size="14.00" fill="#000000">AdminEntranceComponent</text>
</g>
<!-- AdminEntranceComponent&#45;&gt;AdminModule -->
<g id="edge4" class="edge">
<title>AdminEntranceComponent&#45;&gt;AdminModule</title>
<path fill="none" stroke="#000000" d="M2548,-122.0908C2548,-145.1328 2548,-182 2548,-182 2548,-182 1633.3036,-182 1633.3036,-182"/>
<polygon fill="#000000" stroke="#000000" points="1633.3036,-178.5001 1623.3036,-182 1633.3035,-185.5001 1633.3036,-178.5001"/>
</g>
<!-- AdminEntranceDetailComponent -->
<g id="node5" class="node">
<title>AdminEntranceDetailComponent</title>
<polygon fill="#ffffb3" stroke="#000000" points="2445.1755,-122 2240.8245,-122 2240.8245,-86 2445.1755,-86 2445.1755,-122"/>
<text text-anchor="middle" x="2343" y="-99.8" font-family="Times,serif" font-size="14.00" fill="#000000">AdminEntranceDetailComponent</text>
</g>
<!-- AdminEntranceDetailComponent&#45;&gt;AdminModule -->
<g id="edge5" class="edge">
<title>AdminEntranceDetailComponent&#45;&gt;AdminModule</title>
<path fill="none" stroke="#000000" d="M2343,-122.2921C2343,-144.2057 2343,-178 2343,-178 2343,-178 1633.2742,-178 1633.2742,-178"/>
<polygon fill="#000000" stroke="#000000" points="1633.2743,-174.5001 1623.2742,-178 1633.2742,-181.5001 1633.2743,-174.5001"/>
</g>
<!-- AdminEventComponent -->
<g id="node6" class="node">
<title>AdminEventComponent</title>
<polygon fill="#ffffb3" stroke="#000000" points="2222.378,-122 2069.622,-122 2069.622,-86 2222.378,-86 2222.378,-122"/>
<text text-anchor="middle" x="2146" y="-99.8" font-family="Times,serif" font-size="14.00" fill="#000000">AdminEventComponent</text>
</g>
<!-- AdminEventComponent&#45;&gt;AdminModule -->
<g id="edge6" class="edge">
<title>AdminEventComponent&#45;&gt;AdminModule</title>
<path fill="none" stroke="#000000" d="M2146,-122.0267C2146,-142.7672 2146,-174 2146,-174 2146,-174 1633.2635,-174 1633.2635,-174"/>
<polygon fill="#000000" stroke="#000000" points="1633.2635,-170.5001 1623.2635,-174 1633.2634,-177.5001 1633.2635,-170.5001"/>
</g>
<!-- AdminEventDetailComponent -->
<g id="node7" class="node">
<title>AdminEventDetailComponent</title>
<polygon fill="#ffffb3" stroke="#000000" points="2051.5856,-122 1864.4144,-122 1864.4144,-86 2051.5856,-86 2051.5856,-122"/>
<text text-anchor="middle" x="1958" y="-99.8" font-family="Times,serif" font-size="14.00" fill="#000000">AdminEventDetailComponent</text>
</g>
<!-- AdminEventDetailComponent&#45;&gt;AdminModule -->
<g id="edge7" class="edge">
<title>AdminEventDetailComponent&#45;&gt;AdminModule</title>
<path fill="none" stroke="#000000" d="M1958,-122.0348C1958,-141.5762 1958,-170 1958,-170 1958,-170 1633.4152,-170 1633.4152,-170"/>
<polygon fill="#000000" stroke="#000000" points="1633.4152,-166.5001 1623.4152,-170 1633.4151,-173.5001 1633.4152,-166.5001"/>
</g>
<!-- AdminSideNavComponent -->
<g id="node8" class="node">
<title>AdminSideNavComponent</title>
<polygon fill="#ffffb3" stroke="#000000" points="1846.4297,-122 1677.5703,-122 1677.5703,-86 1846.4297,-86 1846.4297,-122"/>
<text text-anchor="middle" x="1762" y="-99.8" font-family="Times,serif" font-size="14.00" fill="#000000">AdminSideNavComponent</text>
</g>
<!-- AdminSideNavComponent&#45;&gt;AdminModule -->
<g id="edge8" class="edge">
<title>AdminSideNavComponent&#45;&gt;AdminModule</title>
<path fill="none" stroke="#000000" d="M1762,-122.2667C1762,-140.5552 1762,-166 1762,-166 1762,-166 1633.3948,-166 1633.3948,-166"/>
<polygon fill="#000000" stroke="#000000" points="1633.3948,-162.5001 1623.3948,-166 1633.3948,-169.5001 1633.3948,-162.5001"/>
</g>
<!-- ChannelContentComponent -->
<g id="node9" class="node">
<title>ChannelContentComponent</title>
<polygon fill="#ffffb3" stroke="#000000" points="1660.3215,-122 1487.6785,-122 1487.6785,-86 1660.3215,-86 1660.3215,-122"/>
<text text-anchor="middle" x="1574" y="-99.8" font-family="Times,serif" font-size="14.00" fill="#000000">ChannelContentComponent</text>
</g>
<!-- ChannelContentComponent&#45;&gt;AdminModule -->
<g id="edge9" class="edge">
<title>ChannelContentComponent&#45;&gt;AdminModule</title>
<path fill="none" stroke="#000000" d="M1574,-122.0109C1574,-122.0109 1574,-151.855 1574,-151.855"/>
<polygon fill="#000000" stroke="#000000" points="1570.5001,-151.8549 1574,-161.855 1577.5001,-151.855 1570.5001,-151.8549"/>
</g>
<!-- ChannelNewComponent -->
<g id="node10" class="node">
<title>ChannelNewComponent</title>
<polygon fill="#ffffb3" stroke="#000000" points="1470.4172,-122 1315.5828,-122 1315.5828,-86 1470.4172,-86 1470.4172,-122"/>
<text text-anchor="middle" x="1393" y="-99.8" font-family="Times,serif" font-size="14.00" fill="#000000">ChannelNewComponent</text>
</g>
<!-- ChannelNewComponent&#45;&gt;AdminModule -->
<g id="edge10" class="edge">
<title>ChannelNewComponent&#45;&gt;AdminModule</title>
<path fill="none" stroke="#000000" d="M1393,-122.2667C1393,-140.5552 1393,-166 1393,-166 1393,-166 1514.541,-166 1514.541,-166"/>
<polygon fill="#000000" stroke="#000000" points="1514.541,-169.5001 1524.541,-166 1514.5409,-162.5001 1514.541,-169.5001"/>
</g>
<!-- CreateComponent -->
<g id="node11" class="node">
<title>CreateComponent</title>
<polygon fill="#ffffb3" stroke="#000000" points="1297.8641,-122 1180.1359,-122 1180.1359,-86 1297.8641,-86 1297.8641,-122"/>
<text text-anchor="middle" x="1239" y="-99.8" font-family="Times,serif" font-size="14.00" fill="#000000">CreateComponent</text>
</g>
<!-- CreateComponent&#45;&gt;AdminModule -->
<g id="edge11" class="edge">
<title>CreateComponent&#45;&gt;AdminModule</title>
<path fill="none" stroke="#000000" d="M1239,-122.0348C1239,-141.5762 1239,-170 1239,-170 1239,-170 1514.5696,-170 1514.5696,-170"/>
<polygon fill="#000000" stroke="#000000" points="1514.5696,-173.5001 1524.5696,-170 1514.5696,-166.5001 1514.5696,-173.5001"/>
</g>
<!-- DashboardComponent -->
<g id="node12" class="node">
<title>DashboardComponent</title>
<polygon fill="#ffffb3" stroke="#000000" points="1161.9734,-122 1020.0266,-122 1020.0266,-86 1161.9734,-86 1161.9734,-122"/>
<text text-anchor="middle" x="1091" y="-99.8" font-family="Times,serif" font-size="14.00" fill="#000000">DashboardComponent</text>
</g>
<!-- DashboardComponent&#45;&gt;AdminModule -->
<g id="edge12" class="edge">
<title>DashboardComponent&#45;&gt;AdminModule</title>
<path fill="none" stroke="#000000" d="M1091,-122.1289C1091,-142.5724 1091,-173 1091,-173 1091,-173 1514.5804,-173 1514.5804,-173"/>
<polygon fill="#000000" stroke="#000000" points="1514.5804,-176.5001 1524.5804,-173 1514.5803,-169.5001 1514.5804,-176.5001"/>
</g>
<!-- ImageUploadComponent -->
<g id="node13" class="node">
<title>ImageUploadComponent</title>
<polygon fill="#ffffb3" stroke="#000000" points="1001.5253,-122 844.4747,-122 844.4747,-86 1001.5253,-86 1001.5253,-122"/>
<text text-anchor="middle" x="923" y="-99.8" font-family="Times,serif" font-size="14.00" fill="#000000">ImageUploadComponent</text>
</g>
<!-- ImageUploadComponent&#45;&gt;AdminModule -->
<g id="edge13" class="edge">
<title>ImageUploadComponent&#45;&gt;AdminModule</title>
<path fill="none" stroke="#000000" d="M923,-122.0449C923,-143.6623 923,-177 923,-177 923,-177 1514.5349,-177 1514.5349,-177"/>
<polygon fill="#000000" stroke="#000000" points="1514.5349,-180.5001 1524.5349,-177 1514.5348,-173.5001 1514.5349,-180.5001"/>
</g>
<!-- ImageViewComponent -->
<g id="node14" class="node">
<title>ImageViewComponent</title>
<polygon fill="#ffffb3" stroke="#000000" points="826.1317,-122 679.8683,-122 679.8683,-86 826.1317,-86 826.1317,-122"/>
<text text-anchor="middle" x="753" y="-99.8" font-family="Times,serif" font-size="14.00" fill="#000000">ImageViewComponent</text>
</g>
<!-- ImageViewComponent&#45;&gt;AdminModule -->
<g id="edge14" class="edge">
<title>ImageViewComponent&#45;&gt;AdminModule</title>
<path fill="none" stroke="#000000" d="M753,-122.0109C753,-144.4852 753,-180 753,-180 753,-180 1514.4917,-180 1514.4917,-180"/>
<polygon fill="#000000" stroke="#000000" points="1514.4917,-183.5001 1524.4917,-180 1514.4916,-176.5001 1514.4917,-183.5001"/>
</g>
<!-- ListingComponentsComponent -->
<g id="node15" class="node">
<title>ListingComponentsComponent</title>
<polygon fill="#ffffb3" stroke="#000000" points="661.7785,-122 470.2215,-122 470.2215,-86 661.7785,-86 661.7785,-122"/>
<text text-anchor="middle" x="566" y="-99.8" font-family="Times,serif" font-size="14.00" fill="#000000">ListingComponentsComponent</text>
</g>
<!-- ListingComponentsComponent&#45;&gt;AdminModule -->
<g id="edge15" class="edge">
<title>ListingComponentsComponent&#45;&gt;AdminModule</title>
<path fill="none" stroke="#000000" d="M566,-122.1532C566,-145.7566 566,-184 566,-184 566,-184 1514.6997,-184 1514.6997,-184"/>
<polygon fill="#000000" stroke="#000000" points="1514.6997,-187.5001 1524.6997,-184 1514.6997,-180.5001 1514.6997,-187.5001"/>
</g>
<!-- SettingComponent -->
<g id="node16" class="node">
<title>SettingComponent</title>
<polygon fill="#ffffb3" stroke="#000000" points="452.5014,-122 331.4986,-122 331.4986,-86 452.5014,-86 452.5014,-122"/>
<text text-anchor="middle" x="392" y="-99.8" font-family="Times,serif" font-size="14.00" fill="#000000">SettingComponent</text>
</g>
<!-- SettingComponent&#45;&gt;AdminModule -->
<g id="edge16" class="edge">
<title>SettingComponent&#45;&gt;AdminModule</title>
<path fill="none" stroke="#000000" d="M392,-122.2267C392,-146.9318 392,-188 392,-188 392,-188 1514.7158,-188 1514.7158,-188"/>
<polygon fill="#000000" stroke="#000000" points="1514.7158,-191.5001 1524.7158,-188 1514.7158,-184.5001 1514.7158,-191.5001"/>
</g>
<!-- UpdateComponent -->
<g id="node17" class="node">
<title>UpdateComponent</title>
<polygon fill="#ffffb3" stroke="#000000" points="313.759,-122 192.241,-122 192.241,-86 313.759,-86 313.759,-122"/>
<text text-anchor="middle" x="253" y="-99.8" font-family="Times,serif" font-size="14.00" fill="#000000">UpdateComponent</text>
</g>
<!-- UpdateComponent&#45;&gt;AdminModule -->
<g id="edge17" class="edge">
<title>UpdateComponent&#45;&gt;AdminModule</title>
<path fill="none" stroke="#000000" d="M253,-122.0265C253,-147.5093 253,-191 253,-191 253,-191 1514.6262,-191 1514.6262,-191"/>
<polygon fill="#000000" stroke="#000000" points="1514.6262,-194.5001 1524.6262,-191 1514.6261,-187.5001 1514.6262,-194.5001"/>
</g>
<!-- AppModule -->
<g id="node21" class="node">
<title>AppModule</title>
<polygon fill="#8dd3c7" stroke="#000000" points="3842.6571,-263 3839.6571,-267 3818.6571,-267 3815.6571,-263 3759.3429,-263 3759.3429,-227 3842.6571,-227 3842.6571,-263"/>
<text text-anchor="middle" x="3801" y="-240.8" font-family="Times,serif" font-size="14.00" fill="#000000">AppModule</text>
</g>
<!-- AdminModule&#45;&gt;AppModule -->
<g id="edge21" class="edge">
<title>AdminModule&#45;&gt;AppModule</title>
<path fill="none" stroke="#000000" d="M1574,-198.0109C1574,-220.4852 1574,-256 1574,-256 1574,-256 3748.9913,-256 3748.9913,-256"/>
<polygon fill="#000000" stroke="#000000" points="3748.9913,-259.5001 3758.9913,-256 3748.9912,-252.5001 3748.9913,-259.5001"/>
</g>
<!-- AdminRoutingModule -->
<g id="node19" class="node">
<title>AdminRoutingModule</title>
<polygon fill="#8dd3c7" stroke="#000000" points="167.5561,-122 164.5561,-126 143.5561,-126 140.5561,-122 24.4439,-122 24.4439,-86 167.5561,-86 167.5561,-122"/>
<text text-anchor="middle" x="96" y="-99.8" font-family="Times,serif" font-size="14.00" fill="#000000">AdminRoutingModule</text>
</g>
<!-- AdminRoutingModule&#45;&gt;AdminModule -->
<g id="edge18" class="edge">
<title>AdminRoutingModule&#45;&gt;AdminModule</title>
<path fill="none" stroke="#000000" d="M96,-122.4152C96,-149.0057 96,-195 96,-195 96,-195 1514.4017,-195 1514.4017,-195"/>
<polygon fill="#000000" stroke="#000000" points="1514.4017,-198.5001 1524.4017,-195 1514.4016,-191.5001 1514.4017,-198.5001"/>
</g>
<!-- AppComponent -->
<g id="node20" class="node">
<title>AppComponent</title>
<polygon fill="#ffffb3" stroke="#000000" points="4449.9399,-198 4344.0601,-198 4344.0601,-162 4449.9399,-162 4449.9399,-198"/>
<text text-anchor="middle" x="4397" y="-175.8" font-family="Times,serif" font-size="14.00" fill="#000000">AppComponent</text>
</g>
<!-- AppComponent&#45;&gt;AppModule -->
<g id="edge19" class="edge">
<title>AppComponent&#45;&gt;AppModule</title>
<path fill="none" stroke="#000000" d="M4397,-198.0109C4397,-220.4852 4397,-256 4397,-256 4397,-256 3852.9096,-256 3852.9096,-256"/>
<polygon fill="#000000" stroke="#000000" points="3852.9096,-252.5001 3842.9096,-256 3852.9095,-259.5001 3852.9096,-252.5001"/>
</g>
<!-- AppComponent  -->
<g id="node25" class="node">
<title>AppComponent </title>
<polygon fill="#80b1d3" stroke="#000000" points="3855.439,-328 3746.561,-328 3746.561,-292 3855.439,-292 3855.439,-328"/>
<text text-anchor="middle" x="3801" y="-305.8" font-family="Times,serif" font-size="14.00" fill="#000000">AppComponent </text>
</g>
<!-- AppModule&#45;&gt;AppComponent  -->
<g id="edge24" class="edge">
<title>AppModule&#45;&gt;AppComponent </title>
<path fill="none" stroke="#000000" stroke-dasharray="1,5" d="M3801,-263.1061C3801,-263.1061 3801,-281.991 3801,-281.991"/>
<polygon fill="#000000" stroke="#000000" points="3797.5001,-281.9909 3801,-291.991 3804.5001,-281.991 3797.5001,-281.9909"/>
</g>
<!-- !environment -->
<g id="node22" class="node">
<title>!environment</title>
<polygon fill="#8dd3c7" stroke="#000000" points="4319.9232,-198 4316.9232,-202 4295.9232,-202 4292.9232,-198 4228.0768,-198 4228.0768,-162 4319.9232,-162 4319.9232,-198"/>
<text text-anchor="middle" x="4274" y="-175.8" font-family="Times,serif" font-size="14.00" fill="#000000">!environment</text>
</g>
<!-- !environment&#45;&gt;AppModule -->
<g id="edge20" class="edge">
<title>!environment&#45;&gt;AppModule</title>
<path fill="none" stroke="#000000" d="M4274,-198.1289C4274,-218.5724 4274,-249 4274,-249 4274,-249 3852.9756,-249 3852.9756,-249"/>
<polygon fill="#000000" stroke="#000000" points="3852.9756,-245.5001 3842.9756,-249 3852.9756,-252.5001 3852.9756,-245.5001"/>
</g>
<!-- AppRoutingModule -->
<g id="node23" class="node">
<title>AppRoutingModule</title>
<polygon fill="#8dd3c7" stroke="#000000" points="4210.2744,-198 4207.2744,-202 4186.2744,-202 4183.2744,-198 4081.7256,-198 4081.7256,-162 4210.2744,-162 4210.2744,-198"/>
<text text-anchor="middle" x="4146" y="-175.8" font-family="Times,serif" font-size="14.00" fill="#000000">AppRoutingModule</text>
</g>
<!-- AppRoutingModule&#45;&gt;AppModule -->
<g id="edge22" class="edge">
<title>AppRoutingModule&#45;&gt;AppModule</title>
<path fill="none" stroke="#000000" d="M4146,-198.2667C4146,-216.5552 4146,-242 4146,-242 4146,-242 3852.9589,-242 3852.9589,-242"/>
<polygon fill="#000000" stroke="#000000" points="3852.9589,-238.5001 3842.9589,-242 3852.9588,-245.5001 3852.9589,-238.5001"/>
</g>
<!-- ChannelsModule -->
<g id="node24" class="node">
<title>ChannelsModule</title>
<polygon fill="#8dd3c7" stroke="#000000" points="4063.6513,-198 4060.6513,-202 4039.6513,-202 4036.6513,-198 3952.3487,-198 3952.3487,-162 4063.6513,-162 4063.6513,-198"/>
<text text-anchor="middle" x="4008" y="-175.8" font-family="Times,serif" font-size="14.00" fill="#000000">ChannelsModule</text>
</g>
<!-- ChannelsModule&#45;&gt;AppModule -->
<g id="edge23" class="edge">
<title>ChannelsModule&#45;&gt;AppModule</title>
<path fill="none" stroke="#000000" d="M4008,-198.0091C4008,-214.0494 4008,-235 4008,-235 4008,-235 3852.8895,-235 3852.8895,-235"/>
<polygon fill="#000000" stroke="#000000" points="3852.8896,-231.5001 3842.8895,-235 3852.8895,-238.5001 3852.8896,-231.5001"/>
</g>
<!-- AuthService -->
<g id="node26" class="node">
<title>AuthService</title>
<ellipse fill="#fdb462" stroke="#000000" cx="3869" cy="-180" rx="59.1083" ry="18"/>
<text text-anchor="middle" x="3869" y="-175.8" font-family="Times,serif" font-size="14.00" fill="#000000">AuthService</text>
</g>
<!-- AuthService&#45;&gt;AppModule -->
<g id="edge25" class="edge">
<title>AuthService&#45;&gt;AppModule</title>
<path fill="none" stroke="#000000" d="M3826.2622,-192.5327C3826.2622,-192.5327 3826.2622,-216.8507 3826.2622,-216.8507"/>
<polygon fill="#000000" stroke="#000000" points="3822.7623,-216.8506 3826.2622,-226.8507 3829.7623,-216.8507 3822.7623,-216.8506"/>
</g>
<!-- DataService -->
<g id="node27" class="node">
<title>DataService</title>
<ellipse fill="#fdb462" stroke="#000000" cx="3733" cy="-180" rx="58.4415" ry="18"/>
<text text-anchor="middle" x="3733" y="-175.8" font-family="Times,serif" font-size="14.00" fill="#000000">DataService</text>
</g>
<!-- DataService&#45;&gt;AppModule -->
<g id="edge26" class="edge">
<title>DataService&#45;&gt;AppModule</title>
<path fill="none" stroke="#000000" d="M3775.1961,-192.5327C3775.1961,-192.5327 3775.1961,-216.8507 3775.1961,-216.8507"/>
<polygon fill="#000000" stroke="#000000" points="3771.6962,-216.8506 3775.1961,-226.8507 3778.6962,-216.8507 3771.6962,-216.8506"/>
</g>
<!-- FileService -->
<g id="node28" class="node">
<title>FileService</title>
<ellipse fill="#fdb462" stroke="#000000" cx="3602" cy="-180" rx="55.0285" ry="18"/>
<text text-anchor="middle" x="3602" y="-175.8" font-family="Times,serif" font-size="14.00" fill="#000000">FileService</text>
</g>
<!-- FileService&#45;&gt;AppModule -->
<g id="edge27" class="edge">
<title>FileService&#45;&gt;AppModule</title>
<path fill="none" stroke="#000000" d="M3602,-198.0091C3602,-214.0494 3602,-235 3602,-235 3602,-235 3749.2831,-235 3749.2831,-235"/>
<polygon fill="#000000" stroke="#000000" points="3749.2831,-238.5001 3759.2831,-235 3749.283,-231.5001 3749.2831,-238.5001"/>
</g>
<!-- NewsService -->
<g id="node29" class="node">
<title>NewsService</title>
<ellipse fill="#fdb462" stroke="#000000" cx="3467" cy="-180" rx="61.9538" ry="18"/>
<text text-anchor="middle" x="3467" y="-175.8" font-family="Times,serif" font-size="14.00" fill="#000000">NewsService</text>
</g>
<!-- NewsService&#45;&gt;AppModule -->
<g id="edge28" class="edge">
<title>NewsService&#45;&gt;AppModule</title>
<path fill="none" stroke="#000000" d="M3467,-198.2667C3467,-216.5552 3467,-242 3467,-242 3467,-242 3749.0369,-242 3749.0369,-242"/>
<polygon fill="#000000" stroke="#000000" points="3749.0369,-245.5001 3759.0369,-242 3749.0368,-238.5001 3749.0369,-245.5001"/>
</g>
<!-- WeatherService -->
<g id="node30" class="node">
<title>WeatherService</title>
<ellipse fill="#fdb462" stroke="#000000" cx="3314" cy="-180" rx="72.8889" ry="18"/>
<text text-anchor="middle" x="3314" y="-175.8" font-family="Times,serif" font-size="14.00" fill="#000000">WeatherService</text>
</g>
<!-- WeatherService&#45;&gt;AppModule -->
<g id="edge29" class="edge">
<title>WeatherService&#45;&gt;AppModule</title>
<path fill="none" stroke="#000000" d="M3314,-198.1289C3314,-218.5724 3314,-249 3314,-249 3314,-249 3749.0572,-249 3749.0572,-249"/>
<polygon fill="#000000" stroke="#000000" points="3749.0572,-252.5001 3759.0572,-249 3749.0571,-245.5001 3749.0572,-252.5001"/>
</g>
<!-- ChannelComponent -->
<g id="node31" class="node">
<title>ChannelComponent</title>
<polygon fill="#ffffb3" stroke="#000000" points="4220.9888,-122 4093.0112,-122 4093.0112,-86 4220.9888,-86 4220.9888,-122"/>
<text text-anchor="middle" x="4157" y="-99.8" font-family="Times,serif" font-size="14.00" fill="#000000">ChannelComponent</text>
</g>
<!-- ChannelComponent&#45;&gt;ChannelsModule -->
<g id="edge30" class="edge">
<title>ChannelComponent&#45;&gt;ChannelsModule</title>
<path fill="none" stroke="#000000" d="M4151.6964,-122.1097C4151.6964,-131.897 4151.6964,-142 4151.6964,-142 4151.6964,-142 4026.6085,-142 4026.6085,-142 4026.6085,-142 4026.6085,-151.8903 4026.6085,-151.8903"/>
<polygon fill="#000000" stroke="#000000" points="4023.1086,-151.8903 4026.6085,-161.8903 4030.1086,-151.8904 4023.1086,-151.8903"/>
</g>
<!-- ChannelsComponent -->
<g id="node32" class="node">
<title>ChannelsComponent</title>
<polygon fill="#ffffb3" stroke="#000000" points="4074.9341,-122 3941.0659,-122 3941.0659,-86 4074.9341,-86 4074.9341,-122"/>
<text text-anchor="middle" x="4008" y="-99.8" font-family="Times,serif" font-size="14.00" fill="#000000">ChannelsComponent</text>
</g>
<!-- ChannelsComponent&#45;&gt;ChannelsModule -->
<g id="edge31" class="edge">
<title>ChannelsComponent&#45;&gt;ChannelsModule</title>
<path fill="none" stroke="#000000" d="M3989.3915,-122.0109C3989.3915,-122.0109 3989.3915,-151.855 3989.3915,-151.855"/>
<polygon fill="#000000" stroke="#000000" points="3985.8916,-151.8549 3989.3915,-161.855 3992.8916,-151.855 3985.8916,-151.8549"/>
</g>
<!-- ChannelsRoutingModule -->
<g id="node33" class="node">
<title>ChannelsRoutingModule</title>
<polygon fill="#8dd3c7" stroke="#000000" points="3917.2688,-122 3914.2688,-126 3893.2688,-126 3890.2688,-122 3760.7312,-122 3760.7312,-86 3917.2688,-86 3917.2688,-122"/>
<text text-anchor="middle" x="3839" y="-99.8" font-family="Times,serif" font-size="14.00" fill="#000000">ChannelsRoutingModule</text>
</g>
<!-- ChannelsRoutingModule&#45;&gt;ChannelsModule -->
<g id="edge32" class="edge">
<title>ChannelsRoutingModule&#45;&gt;ChannelsModule</title>
<path fill="none" stroke="#000000" d="M3917.6676,-104C3927.8344,-104 3934.7936,-104 3934.7936,-104 3934.7936,-104 3934.7936,-180 3934.7936,-180 3934.7936,-180 3942.1425,-180 3942.1425,-180"/>
<polygon fill="#000000" stroke="#000000" points="3942.1425,-183.5001 3952.1425,-180 3942.1424,-176.5001 3942.1425,-183.5001"/>
</g>
<!-- AllComponent -->
<g id="node34" class="node">
<title>AllComponent</title>
<polygon fill="#ffffb3" stroke="#000000" points="6238.7204,-122 6139.2796,-122 6139.2796,-86 6238.7204,-86 6238.7204,-122"/>
<text text-anchor="middle" x="6189" y="-99.8" font-family="Times,serif" font-size="14.00" fill="#000000">AllComponent</text>
</g>
<!-- ComponentsModule -->
<g id="node46" class="node">
<title>ComponentsModule</title>
<polygon fill="#8dd3c7" stroke="#000000" points="5427.3272,-198 5424.3272,-202 5403.3272,-202 5400.3272,-198 5296.6728,-198 5296.6728,-162 5427.3272,-162 5427.3272,-198"/>
<text text-anchor="middle" x="5362" y="-175.8" font-family="Times,serif" font-size="14.00" fill="#000000">ComponentsModule</text>
</g>
<!-- AllComponent&#45;&gt;ComponentsModule -->
<g id="edge33" class="edge">
<title>AllComponent&#45;&gt;ComponentsModule</title>
<path fill="none" stroke="#000000" d="M6189,-122.2337C6189,-148.0094 6189,-192 6189,-192 6189,-192 5437.2385,-192 5437.2385,-192"/>
<polygon fill="#000000" stroke="#000000" points="5437.2386,-188.5001 5427.2385,-192 5437.2385,-195.5001 5437.2386,-188.5001"/>
</g>
<!-- BuildServersComponent -->
<g id="node35" class="node">
<title>BuildServersComponent</title>
<polygon fill="#ffffb3" stroke="#000000" points="6121.4284,-122 5966.5716,-122 5966.5716,-86 6121.4284,-86 6121.4284,-122"/>
<text text-anchor="middle" x="6044" y="-99.8" font-family="Times,serif" font-size="14.00" fill="#000000">BuildServersComponent</text>
</g>
<!-- BuildServersComponent&#45;&gt;ComponentsModule -->
<g id="edge34" class="edge">
<title>BuildServersComponent&#45;&gt;ComponentsModule</title>
<path fill="none" stroke="#000000" d="M6044,-122.1985C6044,-146.3563 6044,-186 6044,-186 6044,-186 5437.393,-186 5437.393,-186"/>
<polygon fill="#000000" stroke="#000000" points="5437.3931,-182.5001 5427.393,-186 5437.393,-189.5001 5437.3931,-182.5001"/>
</g>
<!-- ComponentsComponent -->
<g id="node36" class="node">
<title>ComponentsComponent</title>
<polygon fill="#ffffb3" stroke="#000000" points="5949.1094,-122 5796.8906,-122 5796.8906,-86 5949.1094,-86 5949.1094,-122"/>
<text text-anchor="middle" x="5873" y="-99.8" font-family="Times,serif" font-size="14.00" fill="#000000">ComponentsComponent</text>
</g>
<!-- ComponentsComponent&#45;&gt;ComponentsModule -->
<g id="edge35" class="edge">
<title>ComponentsComponent&#45;&gt;ComponentsModule</title>
<path fill="none" stroke="#000000" d="M5873,-122.0109C5873,-144.4852 5873,-180 5873,-180 5873,-180 5437.2375,-180 5437.2375,-180"/>
<polygon fill="#000000" stroke="#000000" points="5437.2376,-176.5001 5427.2375,-180 5437.2375,-183.5001 5437.2376,-176.5001"/>
</g>
<!-- CustomComponent -->
<g id="node37" class="node">
<title>CustomComponent</title>
<polygon fill="#ffffb3" stroke="#000000" points="5778.3948,-122 5653.6052,-122 5653.6052,-86 5778.3948,-86 5778.3948,-122"/>
<text text-anchor="middle" x="5716" y="-99.8" font-family="Times,serif" font-size="14.00" fill="#000000">CustomComponent</text>
</g>
<!-- CustomComponent&#45;&gt;ComponentsModule -->
<g id="edge36" class="edge">
<title>CustomComponent&#45;&gt;ComponentsModule</title>
<path fill="none" stroke="#000000" d="M5716,-122.0267C5716,-142.7672 5716,-174 5716,-174 5716,-174 5437.3416,-174 5437.3416,-174"/>
<polygon fill="#000000" stroke="#000000" points="5437.3416,-170.5001 5427.3416,-174 5437.3416,-177.5001 5437.3416,-170.5001"/>
</g>
<!-- EventComponent -->
<g id="node38" class="node">
<title>EventComponent</title>
<polygon fill="#ffffb3" stroke="#000000" points="5635.9902,-122 5522.0098,-122 5522.0098,-86 5635.9902,-86 5635.9902,-122"/>
<text text-anchor="middle" x="5579" y="-99.8" font-family="Times,serif" font-size="14.00" fill="#000000">EventComponent</text>
</g>
<!-- EventComponent&#45;&gt;ComponentsModule -->
<g id="edge37" class="edge">
<title>EventComponent&#45;&gt;ComponentsModule</title>
<path fill="none" stroke="#000000" d="M5579,-122.1686C5579,-141.0898 5579,-168 5579,-168 5579,-168 5437.4014,-168 5437.4014,-168"/>
<polygon fill="#000000" stroke="#000000" points="5437.4015,-164.5001 5427.4014,-168 5437.4014,-171.5001 5437.4015,-164.5001"/>
</g>
<!-- FinancialComponent -->
<g id="node39" class="node">
<title>FinancialComponent</title>
<polygon fill="#ffffb3" stroke="#000000" points="5503.9313,-122 5370.0687,-122 5370.0687,-86 5503.9313,-86 5503.9313,-122"/>
<text text-anchor="middle" x="5437" y="-99.8" font-family="Times,serif" font-size="14.00" fill="#000000">FinancialComponent</text>
</g>
<!-- FinancialComponent&#45;&gt;ComponentsModule -->
<g id="edge38" class="edge">
<title>FinancialComponent&#45;&gt;ComponentsModule</title>
<path fill="none" stroke="#000000" d="M5398.7241,-122.0109C5398.7241,-122.0109 5398.7241,-151.855 5398.7241,-151.855"/>
<polygon fill="#000000" stroke="#000000" points="5395.2241,-151.8549 5398.7241,-161.855 5402.2241,-151.855 5395.2241,-151.8549"/>
</g>
<!-- MeetingComponent -->
<g id="node40" class="node">
<title>MeetingComponent</title>
<polygon fill="#ffffb3" stroke="#000000" points="5351.9874,-122 5224.0126,-122 5224.0126,-86 5351.9874,-86 5351.9874,-122"/>
<text text-anchor="middle" x="5288" y="-99.8" font-family="Times,serif" font-size="14.00" fill="#000000">MeetingComponent</text>
</g>
<!-- MeetingComponent&#45;&gt;ComponentsModule -->
<g id="edge39" class="edge">
<title>MeetingComponent&#45;&gt;ComponentsModule</title>
<path fill="none" stroke="#000000" d="M5324.4152,-122.0109C5324.4152,-122.0109 5324.4152,-151.855 5324.4152,-151.855"/>
<polygon fill="#000000" stroke="#000000" points="5320.9152,-151.8549 5324.4152,-161.855 5327.9152,-151.855 5320.9152,-151.8549"/>
</g>
<!-- NewsComponent -->
<g id="node41" class="node">
<title>NewsComponent</title>
<polygon fill="#ffffb3" stroke="#000000" points="5205.705,-122 5092.295,-122 5092.295,-86 5205.705,-86 5205.705,-122"/>
<text text-anchor="middle" x="5149" y="-99.8" font-family="Times,serif" font-size="14.00" fill="#000000">NewsComponent</text>
</g>
<!-- NewsComponent&#45;&gt;ComponentsModule -->
<g id="edge40" class="edge">
<title>NewsComponent&#45;&gt;ComponentsModule</title>
<path fill="none" stroke="#000000" d="M5149,-122.1686C5149,-141.0898 5149,-168 5149,-168 5149,-168 5286.6454,-168 5286.6454,-168"/>
<polygon fill="#000000" stroke="#000000" points="5286.6455,-171.5001 5296.6454,-168 5286.6454,-164.5001 5286.6455,-171.5001"/>
</g>
<!-- SupportComponent -->
<g id="node42" class="node">
<title>SupportComponent</title>
<polygon fill="#ffffb3" stroke="#000000" points="5074.6666,-122 4949.3334,-122 4949.3334,-86 5074.6666,-86 5074.6666,-122"/>
<text text-anchor="middle" x="5012" y="-99.8" font-family="Times,serif" font-size="14.00" fill="#000000">SupportComponent</text>
</g>
<!-- SupportComponent&#45;&gt;ComponentsModule -->
<g id="edge41" class="edge">
<title>SupportComponent&#45;&gt;ComponentsModule</title>
<path fill="none" stroke="#000000" d="M5012,-122.0267C5012,-142.7672 5012,-174 5012,-174 5012,-174 5286.5783,-174 5286.5783,-174"/>
<polygon fill="#000000" stroke="#000000" points="5286.5783,-177.5001 5296.5783,-174 5286.5782,-170.5001 5286.5783,-177.5001"/>
</g>
<!-- TrafficComponent -->
<g id="node43" class="node">
<title>TrafficComponent</title>
<polygon fill="#ffffb3" stroke="#000000" points="4931.1867,-122 4810.8133,-122 4810.8133,-86 4931.1867,-86 4931.1867,-122"/>
<text text-anchor="middle" x="4871" y="-99.8" font-family="Times,serif" font-size="14.00" fill="#000000">TrafficComponent</text>
</g>
<!-- TrafficComponent&#45;&gt;ComponentsModule -->
<g id="edge42" class="edge">
<title>TrafficComponent&#45;&gt;ComponentsModule</title>
<path fill="none" stroke="#000000" d="M4871,-122.0109C4871,-144.4852 4871,-180 4871,-180 4871,-180 5286.799,-180 5286.799,-180"/>
<polygon fill="#000000" stroke="#000000" points="5286.799,-183.5001 5296.799,-180 5286.799,-176.5001 5286.799,-183.5001"/>
</g>
<!-- WeatherComponent -->
<g id="node44" class="node">
<title>WeatherComponent</title>
<polygon fill="#ffffb3" stroke="#000000" points="4793.2423,-122 4664.7577,-122 4664.7577,-86 4793.2423,-86 4793.2423,-122"/>
<text text-anchor="middle" x="4729" y="-99.8" font-family="Times,serif" font-size="14.00" fill="#000000">WeatherComponent</text>
</g>
<!-- WeatherComponent&#45;&gt;ComponentsModule -->
<g id="edge43" class="edge">
<title>WeatherComponent&#45;&gt;ComponentsModule</title>
<path fill="none" stroke="#000000" d="M4729,-122.1985C4729,-146.3563 4729,-186 4729,-186 4729,-186 5286.6421,-186 5286.6421,-186"/>
<polygon fill="#000000" stroke="#000000" points="5286.6421,-189.5001 5296.6421,-186 5286.642,-182.5001 5286.6421,-189.5001"/>
</g>
<!-- WebsiteLoopComponent -->
<g id="node45" class="node">
<title>WebsiteLoopComponent</title>
<polygon fill="#ffffb3" stroke="#000000" points="4646.2548,-122 4489.7452,-122 4489.7452,-86 4646.2548,-86 4646.2548,-122"/>
<text text-anchor="middle" x="4568" y="-99.8" font-family="Times,serif" font-size="14.00" fill="#000000">WebsiteLoopComponent</text>
</g>
<!-- WebsiteLoopComponent&#45;&gt;ComponentsModule -->
<g id="edge44" class="edge">
<title>WebsiteLoopComponent&#45;&gt;ComponentsModule</title>
<path fill="none" stroke="#000000" d="M4568,-122.2337C4568,-148.0094 4568,-192 4568,-192 4568,-192 5286.6863,-192 5286.6863,-192"/>
<polygon fill="#000000" stroke="#000000" points="5286.6863,-195.5001 5296.6863,-192 5286.6862,-188.5001 5286.6863,-195.5001"/>
</g>
</g>
</svg>
