<?xml version="1.0" encoding="UTF-8" standalone="no"?>
<!DOCTYPE svg PUBLIC "-//W3C//DTD SVG 1.1//EN"
 "http://www.w3.org/Graphics/SVG/1.1/DTD/svg11.dtd">
<!-- Generated by graphviz version 2.40.1 (20161225.0304)
 -->
<!-- Title: dependencies Pages: 1 -->
<svg width="6025pt" height="360pt"
 viewBox="0.00 0.00 6025.00 360.00" xmlns="http://www.w3.org/2000/svg" xmlns:xlink="http://www.w3.org/1999/xlink">
<g id="graph0" class="graph" transform="scale(1 1) rotate(0) translate(4 356)">
<title>dependencies</title>
<polygon fill="#ffffff" stroke="transparent" points="-4,4 -4,-356 6021,-356 6021,4 -4,4"/>
<text text-anchor="start" x="2987.5091" y="-42.4" font-family="sans-serif" font-weight="bold" font-size="14.00" fill="#000000">Legend</text>
<polygon fill="#ffffb3" stroke="transparent" points="2774.5,-10 2774.5,-30 2794.5,-30 2794.5,-10 2774.5,-10"/>
<text text-anchor="start" x="2798.129" y="-15.4" font-family="sans-serif" font-size="14.00" fill="#000000"> &#160;Declarations</text>
<polygon fill="#8dd3c7" stroke="transparent" points="2887.5,-10 2887.5,-30 2907.5,-30 2907.5,-10 2887.5,-10"/>
<text text-anchor="start" x="2911.2251" y="-15.4" font-family="sans-serif" font-size="14.00" fill="#000000"> &#160;Module</text>
<polygon fill="#80b1d3" stroke="transparent" points="2973.5,-10 2973.5,-30 2993.5,-30 2993.5,-10 2973.5,-10"/>
<text text-anchor="start" x="2997.2812" y="-15.4" font-family="sans-serif" font-size="14.00" fill="#000000"> &#160;Bootstrap</text>
<polygon fill="#fdb462" stroke="transparent" points="3070.5,-10 3070.5,-30 3090.5,-30 3090.5,-10 3070.5,-10"/>
<text text-anchor="start" x="3094.1732" y="-15.4" font-family="sans-serif" font-size="14.00" fill="#000000"> &#160;Providers</text>
<polygon fill="#fb8072" stroke="transparent" points="3166.5,-10 3166.5,-30 3186.5,-30 3186.5,-10 3166.5,-10"/>
<text text-anchor="start" x="3190.2258" y="-15.4" font-family="sans-serif" font-size="14.00" fill="#000000"> &#160;Exports</text>
<g id="clust1" class="cluster">
<title>cluster_AdminModule</title>
<polygon fill="none" stroke="#000000" stroke-dasharray="1,5" points="8,-70 8,-206 3678,-206 3678,-70 8,-70"/>
</g>
<g id="clust2" class="cluster">
<title>cluster_AdminModule_declarations</title>
<polygon fill="none" stroke="#000000" points="184,-78 184,-130 3670,-130 3670,-78 184,-78"/>
</g>
<g id="clust22" class="cluster">
<title>cluster_AdminModule_imports</title>
<polygon fill="none" stroke="#000000" points="16,-78 16,-130 176,-130 176,-78 16,-78"/>
</g>
<g id="clust32" class="cluster">
<title>cluster_AppModule</title>
<polygon fill="none" stroke="#000000" stroke-dasharray="1,5" points="4744,-146 4744,-344 5888,-344 5888,-146 4744,-146"/>
</g>
<g id="clust33" class="cluster">
<title>cluster_AppModule_declarations</title>
<polygon fill="none" stroke="#000000" points="5758,-154 5758,-206 5880,-206 5880,-154 5758,-154"/>
</g>
<g id="clust35" class="cluster">
<title>cluster_AppModule_imports</title>
<polygon fill="none" stroke="#000000" points="5476,-154 5476,-206 5750,-206 5750,-154 5476,-154"/>
</g>
<g id="clust37" class="cluster">
<title>cluster_AppModule_bootstrap</title>
<polygon fill="none" stroke="#000000" points="5198,-284 5198,-336 5322,-336 5322,-284 5198,-284"/>
</g>
<g id="clust38" class="cluster">
<title>cluster_AppModule_providers</title>
<polygon fill="none" stroke="#000000" points="4752,-154 4752,-206 5468,-206 5468,-154 4752,-154"/>
</g>
<g id="clust45" class="cluster">
<title>cluster_ChannelsModule</title>
<polygon fill="none" stroke="#000000" stroke-dasharray="1,5" points="5237,-70 5237,-138 6009,-138 6009,-70 5237,-70"/>
</g>
<g id="clust46" class="cluster">
<title>cluster_ChannelsModule_declarations</title>
<polygon fill="none" stroke="#000000" points="5245,-78 5245,-130 5821,-130 5821,-78 5245,-78"/>
</g>
<g id="clust51" class="cluster">
<title>cluster_ChannelsModule_imports</title>
<polygon fill="none" stroke="#000000" points="5829,-78 5829,-130 6001,-130 6001,-78 5829,-78"/>
</g>
<g id="clust61" class="cluster">
<title>cluster_ComponentsModule</title>
<polygon fill="none" stroke="#000000" stroke-dasharray="1,5" points="3686,-70 3686,-206 4736,-206 4736,-70 3686,-70"/>
</g>
<g id="clust62" class="cluster">
<title>cluster_ComponentsModule_declarations</title>
<polygon fill="none" stroke="#000000" points="3694,-78 3694,-130 4728,-130 4728,-78 3694,-78"/>
</g>
<!-- AdminSideNavComponent -->
<g id="node1" class="node">
<title>AdminSideNavComponent</title>
<polygon fill="#ffffb3" stroke="#000000" points="3490.4297,-122 3321.5703,-122 3321.5703,-86 3490.4297,-86 3490.4297,-122"/>
<text text-anchor="middle" x="3406" y="-99.8" font-family="Times,serif" font-size="14.00" fill="#000000">AdminSideNavComponent</text>
</g>
<!-- AdminModule -->
<g id="node20" class="node">
<title>AdminModule</title>
<polygon fill="#8dd3c7" stroke="#000000" points="2046.4386,-198 2043.4386,-202 2022.4386,-202 2019.4386,-198 1947.5614,-198 1947.5614,-162 2046.4386,-162 2046.4386,-198"/>
<text text-anchor="middle" x="1997" y="-175.8" font-family="Times,serif" font-size="14.00" fill="#000000">AdminModule</text>
</g>
<!-- AdminSideNavComponent&#45;&gt;AdminModule -->
<g id="edge1" class="edge">
<title>AdminSideNavComponent&#45;&gt;AdminModule</title>
<path fill="none" stroke="#000000" d="M3406,-122.3228C3406,-145.6602 3406,-183 3406,-183 3406,-183 2056.3209,-183 2056.3209,-183"/>
<polygon fill="#000000" stroke="#000000" points="2056.3209,-179.5001 2046.3209,-183 2056.3209,-186.5001 2056.3209,-179.5001"/>
</g>
<!-- AdminChannelsComponent -->
<g id="node2" class="node">
<title>AdminChannelsComponent</title>
<polygon fill="#ffffb3" stroke="#000000" points="3304.3215,-122 3131.6785,-122 3131.6785,-86 3304.3215,-86 3304.3215,-122"/>
<text text-anchor="middle" x="3218" y="-99.8" font-family="Times,serif" font-size="14.00" fill="#000000">AdminChannelsComponent</text>
</g>
<!-- AdminChannelsComponent&#45;&gt;AdminModule -->
<g id="edge2" class="edge">
<title>AdminChannelsComponent&#45;&gt;AdminModule</title>
<path fill="none" stroke="#000000" d="M3218,-122.0109C3218,-144.4852 3218,-180 3218,-180 3218,-180 2056.3769,-180 2056.3769,-180"/>
<polygon fill="#000000" stroke="#000000" points="2056.3769,-176.5001 2046.3769,-180 2056.3769,-183.5001 2056.3769,-176.5001"/>
</g>
<!-- DashboardComponent -->
<g id="node3" class="node">
<title>DashboardComponent</title>
<polygon fill="#ffffb3" stroke="#000000" points="3113.9734,-122 2972.0266,-122 2972.0266,-86 3113.9734,-86 3113.9734,-122"/>
<text text-anchor="middle" x="3043" y="-99.8" font-family="Times,serif" font-size="14.00" fill="#000000">DashboardComponent</text>
</g>
<!-- DashboardComponent&#45;&gt;AdminModule -->
<g id="edge3" class="edge">
<title>DashboardComponent&#45;&gt;AdminModule</title>
<path fill="none" stroke="#000000" d="M3043,-122.2921C3043,-144.2057 3043,-178 3043,-178 3043,-178 2056.3969,-178 2056.3969,-178"/>
<polygon fill="#000000" stroke="#000000" points="2056.3969,-174.5001 2046.3969,-178 2056.3968,-181.5001 2056.3969,-174.5001"/>
</g>
<!-- SettingComponent -->
<g id="node4" class="node">
<title>SettingComponent</title>
<polygon fill="#ffffb3" stroke="#000000" points="2954.5014,-122 2833.4986,-122 2833.4986,-86 2954.5014,-86 2954.5014,-122"/>
<text text-anchor="middle" x="2894" y="-99.8" font-family="Times,serif" font-size="14.00" fill="#000000">SettingComponent</text>
</g>
<!-- SettingComponent&#45;&gt;AdminModule -->
<g id="edge4" class="edge">
<title>SettingComponent&#45;&gt;AdminModule</title>
<path fill="none" stroke="#000000" d="M2894,-122.2843C2894,-143.3211 2894,-175 2894,-175 2894,-175 2056.5043,-175 2056.5043,-175"/>
<polygon fill="#000000" stroke="#000000" points="2056.5044,-171.5001 2046.5043,-175 2056.5043,-178.5001 2056.5044,-171.5001"/>
</g>
<!-- BuildServersComponent -->
<g id="node5" class="node">
<title>BuildServersComponent</title>
<polygon fill="#ffffb3" stroke="#000000" points="3662.4284,-122 3507.5716,-122 3507.5716,-86 3662.4284,-86 3662.4284,-122"/>
<text text-anchor="middle" x="3585" y="-99.8" font-family="Times,serif" font-size="14.00" fill="#000000">BuildServersComponent</text>
</g>
<!-- BuildServersComponent&#45;&gt;AdminModule -->
<g id="edge5" class="edge">
<title>BuildServersComponent&#45;&gt;AdminModule</title>
<path fill="none" stroke="#000000" d="M3559.262,-122.1985C3559.262,-146.3563 3559.262,-186 3559.262,-186 3559.262,-186 2056.3357,-186 2056.3357,-186"/>
<polygon fill="#000000" stroke="#000000" points="2056.3357,-182.5001 2046.3357,-186 2056.3356,-189.5001 2056.3357,-182.5001"/>
</g>
<!-- ComponentsModule -->
<g id="node44" class="node">
<title>ComponentsModule</title>
<polygon fill="#8dd3c7" stroke="#000000" points="4246.3272,-198 4243.3272,-202 4222.3272,-202 4219.3272,-198 4115.6728,-198 4115.6728,-162 4246.3272,-162 4246.3272,-198"/>
<text text-anchor="middle" x="4181" y="-175.8" font-family="Times,serif" font-size="14.00" fill="#000000">ComponentsModule</text>
</g>
<!-- BuildServersComponent&#45;&gt;ComponentsModule -->
<g id="edge42" class="edge">
<title>BuildServersComponent&#45;&gt;ComponentsModule</title>
<path fill="none" stroke="#000000" d="M3610.738,-122.1762C3610.738,-148.9879 3610.738,-196 3610.738,-196 3610.738,-196 4105.5837,-196 4105.5837,-196"/>
<polygon fill="#000000" stroke="#000000" points="4105.5837,-199.5001 4115.5837,-196 4105.5837,-192.5001 4105.5837,-199.5001"/>
</g>
<!-- AdminComponent -->
<g id="node6" class="node">
<title>AdminComponent</title>
<polygon fill="#ffffb3" stroke="#000000" points="2622.2204,-122 2501.7796,-122 2501.7796,-86 2622.2204,-86 2622.2204,-122"/>
<text text-anchor="middle" x="2562" y="-99.8" font-family="Times,serif" font-size="14.00" fill="#000000">AdminComponent</text>
</g>
<!-- AdminComponent&#45;&gt;AdminModule -->
<g id="edge6" class="edge">
<title>AdminComponent&#45;&gt;AdminModule</title>
<path fill="none" stroke="#000000" d="M2562,-122.0348C2562,-141.5762 2562,-170 2562,-170 2562,-170 2056.6448,-170 2056.6448,-170"/>
<polygon fill="#000000" stroke="#000000" points="2056.6448,-166.5001 2046.6448,-170 2056.6448,-173.5001 2056.6448,-166.5001"/>
</g>
<!-- AdminEntranceComponent -->
<g id="node7" class="node">
<title>AdminEntranceComponent</title>
<polygon fill="#ffffb3" stroke="#000000" points="2483.9678,-122 2314.0322,-122 2314.0322,-86 2483.9678,-86 2483.9678,-122"/>
<text text-anchor="middle" x="2399" y="-99.8" font-family="Times,serif" font-size="14.00" fill="#000000">AdminEntranceComponent</text>
</g>
<!-- AdminEntranceComponent&#45;&gt;AdminModule -->
<g id="edge7" class="edge">
<title>AdminEntranceComponent&#45;&gt;AdminModule</title>
<path fill="none" stroke="#000000" d="M2399,-122.1686C2399,-141.0898 2399,-168 2399,-168 2399,-168 2056.2931,-168 2056.2931,-168"/>
<polygon fill="#000000" stroke="#000000" points="2056.2931,-164.5001 2046.2931,-168 2056.2931,-171.5001 2056.2931,-164.5001"/>
</g>
<!-- AdminEntranceDetailComponent -->
<g id="node8" class="node">
<title>AdminEntranceDetailComponent</title>
<polygon fill="#ffffb3" stroke="#000000" points="2296.1755,-122 2091.8245,-122 2091.8245,-86 2296.1755,-86 2296.1755,-122"/>
<text text-anchor="middle" x="2194" y="-99.8" font-family="Times,serif" font-size="14.00" fill="#000000">AdminEntranceDetailComponent</text>
</g>
<!-- AdminEntranceDetailComponent&#45;&gt;AdminModule -->
<g id="edge8" class="edge">
<title>AdminEntranceDetailComponent&#45;&gt;AdminModule</title>
<path fill="none" stroke="#000000" d="M2194,-122.302C2194,-140.2699 2194,-165 2194,-165 2194,-165 2056.4571,-165 2056.4571,-165"/>
<polygon fill="#000000" stroke="#000000" points="2056.4572,-161.5001 2046.4571,-165 2056.4571,-168.5001 2056.4572,-161.5001"/>
</g>
<!-- AdminEventComponent -->
<g id="node9" class="node">
<title>AdminEventComponent</title>
<polygon fill="#ffffb3" stroke="#000000" points="2073.378,-122 1920.622,-122 1920.622,-86 2073.378,-86 2073.378,-122"/>
<text text-anchor="middle" x="1997" y="-99.8" font-family="Times,serif" font-size="14.00" fill="#000000">AdminEventComponent</text>
</g>
<!-- AdminEventComponent&#45;&gt;AdminModule -->
<g id="edge9" class="edge">
<title>AdminEventComponent&#45;&gt;AdminModule</title>
<path fill="none" stroke="#000000" d="M1997,-122.0109C1997,-122.0109 1997,-151.855 1997,-151.855"/>
<polygon fill="#000000" stroke="#000000" points="1993.5001,-151.8549 1997,-161.855 2000.5001,-151.855 1993.5001,-151.8549"/>
</g>
<!-- AdminEventDetailComponent -->
<g id="node10" class="node">
<title>AdminEventDetailComponent</title>
<polygon fill="#ffffb3" stroke="#000000" points="1902.5856,-122 1715.4144,-122 1715.4144,-86 1902.5856,-86 1902.5856,-122"/>
<text text-anchor="middle" x="1809" y="-99.8" font-family="Times,serif" font-size="14.00" fill="#000000">AdminEventDetailComponent</text>
</g>
<!-- AdminEventDetailComponent&#45;&gt;AdminModule -->
<g id="edge10" class="edge">
<title>AdminEventDetailComponent&#45;&gt;AdminModule</title>
<path fill="none" stroke="#000000" d="M1809,-122.2667C1809,-140.5552 1809,-166 1809,-166 1809,-166 1937.6052,-166 1937.6052,-166"/>
<polygon fill="#000000" stroke="#000000" points="1937.6052,-169.5001 1947.6052,-166 1937.6052,-162.5001 1937.6052,-169.5001"/>
</g>
<!-- AdminMeetingComponent -->
<g id="node11" class="node">
<title>AdminMeetingComponent</title>
<polygon fill="#ffffb3" stroke="#000000" points="1697.3752,-122 1530.6248,-122 1530.6248,-86 1697.3752,-86 1697.3752,-122"/>
<text text-anchor="middle" x="1614" y="-99.8" font-family="Times,serif" font-size="14.00" fill="#000000">AdminMeetingComponent</text>
</g>
<!-- AdminMeetingComponent&#45;&gt;AdminModule -->
<g id="edge11" class="edge">
<title>AdminMeetingComponent&#45;&gt;AdminModule</title>
<path fill="none" stroke="#000000" d="M1614,-122.1061C1614,-141.3391 1614,-169 1614,-169 1614,-169 1937.7135,-169 1937.7135,-169"/>
<polygon fill="#000000" stroke="#000000" points="1937.7136,-172.5001 1947.7135,-169 1937.7135,-165.5001 1937.7136,-172.5001"/>
</g>
<!-- SupportTicketsComponent -->
<g id="node12" class="node">
<title>SupportTicketsComponent</title>
<polygon fill="#ffffb3" stroke="#000000" points="1512.3738,-122 1345.6262,-122 1345.6262,-86 1512.3738,-86 1512.3738,-122"/>
<text text-anchor="middle" x="1429" y="-99.8" font-family="Times,serif" font-size="14.00" fill="#000000">SupportTicketsComponent</text>
</g>
<!-- SupportTicketsComponent&#45;&gt;AdminModule -->
<g id="edge12" class="edge">
<title>SupportTicketsComponent&#45;&gt;AdminModule</title>
<path fill="none" stroke="#000000" d="M1429,-122.2228C1429,-142.3652 1429,-172 1429,-172 1429,-172 1937.5874,-172 1937.5874,-172"/>
<polygon fill="#000000" stroke="#000000" points="1937.5874,-175.5001 1947.5874,-172 1937.5873,-168.5001 1937.5874,-175.5001"/>
</g>
<!-- ImageUploadComponent -->
<g id="node13" class="node">
<title>ImageUploadComponent</title>
<polygon fill="#ffffb3" stroke="#000000" points="1327.5253,-122 1170.4747,-122 1170.4747,-86 1327.5253,-86 1327.5253,-122"/>
<text text-anchor="middle" x="1249" y="-99.8" font-family="Times,serif" font-size="14.00" fill="#000000">ImageUploadComponent</text>
</g>
<!-- ImageUploadComponent&#45;&gt;AdminModule -->
<g id="edge13" class="edge">
<title>ImageUploadComponent&#45;&gt;AdminModule</title>
<path fill="none" stroke="#000000" d="M1249,-122.1686C1249,-143.498 1249,-176 1249,-176 1249,-176 1937.6324,-176 1937.6324,-176"/>
<polygon fill="#000000" stroke="#000000" points="1937.6324,-179.5001 1947.6324,-176 1937.6323,-172.5001 1937.6324,-179.5001"/>
</g>
<!-- ImageViewComponent -->
<g id="node14" class="node">
<title>ImageViewComponent</title>
<polygon fill="#ffffb3" stroke="#000000" points="1152.1317,-122 1005.8683,-122 1005.8683,-86 1152.1317,-86 1152.1317,-122"/>
<text text-anchor="middle" x="1079" y="-99.8" font-family="Times,serif" font-size="14.00" fill="#000000">ImageViewComponent</text>
</g>
<!-- ImageViewComponent&#45;&gt;AdminModule -->
<g id="edge14" class="edge">
<title>ImageViewComponent&#45;&gt;AdminModule</title>
<path fill="none" stroke="#000000" d="M1079,-122.1554C1079,-144.3519 1079,-179 1079,-179 1079,-179 1937.6443,-179 1937.6443,-179"/>
<polygon fill="#000000" stroke="#000000" points="1937.6444,-182.5001 1947.6443,-179 1937.6443,-175.5001 1937.6444,-182.5001"/>
</g>
<!-- AdminChannelsContentsComponent -->
<g id="node15" class="node">
<title>AdminChannelsContentsComponent</title>
<polygon fill="#ffffb3" stroke="#000000" points="988.0982,-122 765.9018,-122 765.9018,-86 988.0982,-86 988.0982,-122"/>
<text text-anchor="middle" x="877" y="-99.8" font-family="Times,serif" font-size="14.00" fill="#000000">AdminChannelsContentsComponent</text>
</g>
<!-- AdminChannelsContentsComponent&#45;&gt;AdminModule -->
<g id="edge15" class="edge">
<title>AdminChannelsContentsComponent&#45;&gt;AdminModule</title>
<path fill="none" stroke="#000000" d="M877,-122.0908C877,-145.1328 877,-182 877,-182 877,-182 1937.4299,-182 1937.4299,-182"/>
<polygon fill="#000000" stroke="#000000" points="1937.4299,-185.5001 1947.4299,-182 1937.4298,-178.5001 1937.4299,-185.5001"/>
</g>
<!-- EntranceContentsComponent -->
<g id="node16" class="node">
<title>EntranceContentsComponent</title>
<polygon fill="#ffffb3" stroke="#000000" points="748.3571,-122 567.6429,-122 567.6429,-86 748.3571,-86 748.3571,-122"/>
<text text-anchor="middle" x="658" y="-99.8" font-family="Times,serif" font-size="14.00" fill="#000000">EntranceContentsComponent</text>
</g>
<!-- EntranceContentsComponent&#45;&gt;AdminModule -->
<g id="edge16" class="edge">
<title>EntranceContentsComponent&#45;&gt;AdminModule</title>
<path fill="none" stroke="#000000" d="M658,-122.3802C658,-146.2785 658,-185 658,-185 658,-185 1937.7563,-185 1937.7563,-185"/>
<polygon fill="#000000" stroke="#000000" points="1937.7563,-188.5001 1947.7563,-185 1937.7562,-181.5001 1937.7563,-188.5001"/>
</g>
<!-- MeetingContentsComponent -->
<g id="node17" class="node">
<title>MeetingContentsComponent</title>
<polygon fill="#ffffb3" stroke="#000000" points="549.7646,-122 372.2354,-122 372.2354,-86 549.7646,-86 549.7646,-122"/>
<text text-anchor="middle" x="461" y="-99.8" font-family="Times,serif" font-size="14.00" fill="#000000">MeetingContentsComponent</text>
</g>
<!-- MeetingContentsComponent&#45;&gt;AdminModule -->
<g id="edge17" class="edge">
<title>MeetingContentsComponent&#45;&gt;AdminModule</title>
<path fill="none" stroke="#000000" d="M461,-122.0263C461,-146.9773 461,-189 461,-189 461,-189 1937.6342,-189 1937.6342,-189"/>
<polygon fill="#000000" stroke="#000000" points="1937.6342,-192.5001 1947.6342,-189 1937.6342,-185.5001 1937.6342,-192.5001"/>
</g>
<!-- OtherContentsComponent -->
<g id="node18" class="node">
<title>OtherContentsComponent</title>
<polygon fill="#ffffb3" stroke="#000000" points="354.4818,-122 191.5182,-122 191.5182,-86 354.4818,-86 354.4818,-122"/>
<text text-anchor="middle" x="273" y="-99.8" font-family="Times,serif" font-size="14.00" fill="#000000">OtherContentsComponent</text>
</g>
<!-- OtherContentsComponent&#45;&gt;AdminModule -->
<g id="edge18" class="edge">
<title>OtherContentsComponent&#45;&gt;AdminModule</title>
<path fill="none" stroke="#000000" d="M273,-122.2337C273,-148.0094 273,-192 273,-192 273,-192 1937.7232,-192 1937.7232,-192"/>
<polygon fill="#000000" stroke="#000000" points="1937.7232,-195.5001 1947.7232,-192 1937.7231,-188.5001 1937.7232,-195.5001"/>
</g>
<!-- SupportContentsComponent -->
<g id="node19" class="node">
<title>SupportContentsComponent</title>
<polygon fill="#ffffb3" stroke="#000000" points="2815.9438,-122 2640.0562,-122 2640.0562,-86 2815.9438,-86 2815.9438,-122"/>
<text text-anchor="middle" x="2728" y="-99.8" font-family="Times,serif" font-size="14.00" fill="#000000">SupportContentsComponent</text>
</g>
<!-- SupportContentsComponent&#45;&gt;AdminModule -->
<g id="edge19" class="edge">
<title>SupportContentsComponent&#45;&gt;AdminModule</title>
<path fill="none" stroke="#000000" d="M2728,-122.1289C2728,-142.5724 2728,-173 2728,-173 2728,-173 2056.3836,-173 2056.3836,-173"/>
<polygon fill="#000000" stroke="#000000" points="2056.3837,-169.5001 2046.3836,-173 2056.3836,-176.5001 2056.3837,-169.5001"/>
</g>
<!-- AppModule -->
<g id="node23" class="node">
<title>AppModule</title>
<polygon fill="#8dd3c7" stroke="#000000" points="5301.6571,-263 5298.6571,-267 5277.6571,-267 5274.6571,-263 5218.3429,-263 5218.3429,-227 5301.6571,-227 5301.6571,-263"/>
<text text-anchor="middle" x="5260" y="-240.8" font-family="Times,serif" font-size="14.00" fill="#000000">AppModule</text>
</g>
<!-- AdminModule&#45;&gt;AppModule -->
<g id="edge22" class="edge">
<title>AdminModule&#45;&gt;AppModule</title>
<path fill="none" stroke="#000000" d="M1997,-198.0109C1997,-220.4852 1997,-256 1997,-256 1997,-256 5208.1489,-256 5208.1489,-256"/>
<polygon fill="#000000" stroke="#000000" points="5208.149,-259.5001 5218.1489,-256 5208.1489,-252.5001 5208.149,-259.5001"/>
</g>
<!-- AdminRoutingModule -->
<g id="node21" class="node">
<title>AdminRoutingModule</title>
<polygon fill="#8dd3c7" stroke="#000000" points="167.5561,-122 164.5561,-126 143.5561,-126 140.5561,-122 24.4439,-122 24.4439,-86 167.5561,-86 167.5561,-122"/>
<text text-anchor="middle" x="96" y="-99.8" font-family="Times,serif" font-size="14.00" fill="#000000">AdminRoutingModule</text>
</g>
<!-- AdminRoutingModule&#45;&gt;AdminModule -->
<g id="edge20" class="edge">
<title>AdminRoutingModule&#45;&gt;AdminModule</title>
<path fill="none" stroke="#000000" d="M96,-122.4152C96,-149.0057 96,-195 96,-195 96,-195 1937.6153,-195 1937.6153,-195"/>
<polygon fill="#000000" stroke="#000000" points="1937.6153,-198.5001 1947.6153,-195 1937.6152,-191.5001 1937.6153,-198.5001"/>
</g>
<!-- AppComponent -->
<g id="node22" class="node">
<title>AppComponent</title>
<polygon fill="#ffffb3" stroke="#000000" points="5871.9399,-198 5766.0601,-198 5766.0601,-162 5871.9399,-162 5871.9399,-198"/>
<text text-anchor="middle" x="5819" y="-175.8" font-family="Times,serif" font-size="14.00" fill="#000000">AppComponent</text>
</g>
<!-- AppComponent&#45;&gt;AppModule -->
<g id="edge21" class="edge">
<title>AppComponent&#45;&gt;AppModule</title>
<path fill="none" stroke="#000000" d="M5819,-198.0109C5819,-220.4852 5819,-256 5819,-256 5819,-256 5312.0159,-256 5312.0159,-256"/>
<polygon fill="#000000" stroke="#000000" points="5312.0159,-252.5001 5302.0159,-256 5312.0158,-259.5001 5312.0159,-252.5001"/>
</g>
<!-- AppComponent  -->
<g id="node26" class="node">
<title>AppComponent </title>
<polygon fill="#80b1d3" stroke="#000000" points="5314.439,-328 5205.561,-328 5205.561,-292 5314.439,-292 5314.439,-328"/>
<text text-anchor="middle" x="5260" y="-305.8" font-family="Times,serif" font-size="14.00" fill="#000000">AppComponent </text>
</g>
<!-- AppModule&#45;&gt;AppComponent  -->
<g id="edge25" class="edge">
<title>AppModule&#45;&gt;AppComponent </title>
<path fill="none" stroke="#000000" stroke-dasharray="1,5" d="M5260,-263.1061C5260,-263.1061 5260,-281.991 5260,-281.991"/>
<polygon fill="#000000" stroke="#000000" points="5256.5001,-281.9909 5260,-291.991 5263.5001,-281.991 5256.5001,-281.9909"/>
</g>
<!-- ChannelsModule -->
<g id="node24" class="node">
<title>ChannelsModule</title>
<polygon fill="#8dd3c7" stroke="#000000" points="5741.6513,-198 5738.6513,-202 5717.6513,-202 5714.6513,-198 5630.3487,-198 5630.3487,-162 5741.6513,-162 5741.6513,-198"/>
<text text-anchor="middle" x="5686" y="-175.8" font-family="Times,serif" font-size="14.00" fill="#000000">ChannelsModule</text>
</g>
<!-- ChannelsModule&#45;&gt;AppModule -->
<g id="edge23" class="edge">
<title>ChannelsModule&#45;&gt;AppModule</title>
<path fill="none" stroke="#000000" d="M5686,-198.1289C5686,-218.5724 5686,-249 5686,-249 5686,-249 5312.0124,-249 5312.0124,-249"/>
<polygon fill="#000000" stroke="#000000" points="5312.0124,-245.5001 5302.0124,-249 5312.0123,-252.5001 5312.0124,-245.5001"/>
</g>
<!-- AppRoutingModule -->
<g id="node25" class="node">
<title>AppRoutingModule</title>
<polygon fill="#8dd3c7" stroke="#000000" points="5612.2744,-198 5609.2744,-202 5588.2744,-202 5585.2744,-198 5483.7256,-198 5483.7256,-162 5612.2744,-162 5612.2744,-198"/>
<text text-anchor="middle" x="5548" y="-175.8" font-family="Times,serif" font-size="14.00" fill="#000000">AppRoutingModule</text>
</g>
<!-- AppRoutingModule&#45;&gt;AppModule -->
<g id="edge24" class="edge">
<title>AppRoutingModule&#45;&gt;AppModule</title>
<path fill="none" stroke="#000000" d="M5548,-198.2667C5548,-216.5552 5548,-242 5548,-242 5548,-242 5311.8777,-242 5311.8777,-242"/>
<polygon fill="#000000" stroke="#000000" points="5311.8777,-238.5001 5301.8777,-242 5311.8776,-245.5001 5311.8777,-238.5001"/>
</g>
<!-- DataService -->
<g id="node27" class="node">
<title>DataService</title>
<ellipse fill="#fdb462" stroke="#000000" cx="5402" cy="-180" rx="58.4415" ry="18"/>
<text text-anchor="middle" x="5402" y="-175.8" font-family="Times,serif" font-size="14.00" fill="#000000">DataService</text>
</g>
<!-- DataService&#45;&gt;AppModule -->
<g id="edge26" class="edge">
<title>DataService&#45;&gt;AppModule</title>
<path fill="none" stroke="#000000" d="M5402,-198.0091C5402,-214.0494 5402,-235 5402,-235 5402,-235 5311.8367,-235 5311.8367,-235"/>
<polygon fill="#000000" stroke="#000000" points="5311.8367,-231.5001 5301.8367,-235 5311.8366,-238.5001 5311.8367,-231.5001"/>
</g>
<!-- SocketService -->
<g id="node28" class="node">
<title>SocketService</title>
<ellipse fill="#fdb462" stroke="#000000" cx="5260" cy="-180" rx="66.0492" ry="18"/>
<text text-anchor="middle" x="5260" y="-175.8" font-family="Times,serif" font-size="14.00" fill="#000000">SocketService</text>
</g>
<!-- SocketService&#45;&gt;AppModule -->
<g id="edge27" class="edge">
<title>SocketService&#45;&gt;AppModule</title>
<path fill="none" stroke="#000000" d="M5260,-198.1061C5260,-198.1061 5260,-216.991 5260,-216.991"/>
<polygon fill="#000000" stroke="#000000" points="5256.5001,-216.9909 5260,-226.991 5263.5001,-216.991 5256.5001,-216.9909"/>
</g>
<!-- NewsService -->
<g id="node29" class="node">
<title>NewsService</title>
<ellipse fill="#fdb462" stroke="#000000" cx="5114" cy="-180" rx="61.9538" ry="18"/>
<text text-anchor="middle" x="5114" y="-175.8" font-family="Times,serif" font-size="14.00" fill="#000000">NewsService</text>
</g>
<!-- NewsService&#45;&gt;AppModule -->
<g id="edge28" class="edge">
<title>NewsService&#45;&gt;AppModule</title>
<path fill="none" stroke="#000000" d="M5114,-198.0091C5114,-214.0494 5114,-235 5114,-235 5114,-235 5208.1623,-235 5208.1623,-235"/>
<polygon fill="#000000" stroke="#000000" points="5208.1623,-238.5001 5218.1623,-235 5208.1622,-231.5001 5208.1623,-238.5001"/>
</g>
<!-- WeatherService -->
<g id="node30" class="node">
<title>WeatherService</title>
<ellipse fill="#fdb462" stroke="#000000" cx="4961" cy="-180" rx="72.8889" ry="18"/>
<text text-anchor="middle" x="4961" y="-175.8" font-family="Times,serif" font-size="14.00" fill="#000000">WeatherService</text>
</g>
<!-- WeatherService&#45;&gt;AppModule -->
<g id="edge29" class="edge">
<title>WeatherService&#45;&gt;AppModule</title>
<path fill="none" stroke="#000000" d="M4961,-198.2667C4961,-216.5552 4961,-242 4961,-242 4961,-242 5208.1105,-242 5208.1105,-242"/>
<polygon fill="#000000" stroke="#000000" points="5208.1105,-245.5001 5218.1105,-242 5208.1105,-238.5001 5208.1105,-245.5001"/>
</g>
<!-- FileService -->
<g id="node31" class="node">
<title>FileService</title>
<ellipse fill="#fdb462" stroke="#000000" cx="4815" cy="-180" rx="55.0285" ry="18"/>
<text text-anchor="middle" x="4815" y="-175.8" font-family="Times,serif" font-size="14.00" fill="#000000">FileService</text>
</g>
<!-- FileService&#45;&gt;AppModule -->
<g id="edge30" class="edge">
<title>FileService&#45;&gt;AppModule</title>
<path fill="none" stroke="#000000" d="M4815,-198.1289C4815,-218.5724 4815,-249 4815,-249 4815,-249 5208.1355,-249 5208.1355,-249"/>
<polygon fill="#000000" stroke="#000000" points="5208.1355,-252.5001 5218.1355,-249 5208.1354,-245.5001 5208.1355,-252.5001"/>
</g>
<!-- ChannelsComponent -->
<g id="node32" class="node">
<title>ChannelsComponent</title>
<polygon fill="#ffffb3" stroke="#000000" points="5681.9341,-122 5548.0659,-122 5548.0659,-86 5681.9341,-86 5681.9341,-122"/>
<text text-anchor="middle" x="5615" y="-99.8" font-family="Times,serif" font-size="14.00" fill="#000000">ChannelsComponent</text>
</g>
<!-- ChannelsComponent&#45;&gt;ChannelsModule -->
<g id="edge31" class="edge">
<title>ChannelsComponent&#45;&gt;ChannelsModule</title>
<path fill="none" stroke="#000000" d="M5668.8312,-122.0109C5668.8312,-122.0109 5668.8312,-151.855 5668.8312,-151.855"/>
<polygon fill="#000000" stroke="#000000" points="5665.3313,-151.8549 5668.8312,-161.855 5672.3313,-151.855 5665.3313,-151.8549"/>
</g>
<!-- EntranceComponent -->
<g id="node33" class="node">
<title>EntranceComponent</title>
<polygon fill="#ffffb3" stroke="#000000" points="5530.58,-122 5399.42,-122 5399.42,-86 5530.58,-86 5530.58,-122"/>
<text text-anchor="middle" x="5465" y="-99.8" font-family="Times,serif" font-size="14.00" fill="#000000">EntranceComponent</text>
</g>
<!-- EntranceComponent&#45;&gt;ChannelsModule -->
<g id="edge32" class="edge">
<title>EntranceComponent&#45;&gt;ChannelsModule</title>
<path fill="none" stroke="#000000" d="M5507.0765,-122.1097C5507.0765,-131.897 5507.0765,-142 5507.0765,-142 5507.0765,-142 5655.9457,-142 5655.9457,-142 5655.9457,-142 5655.9457,-151.8903 5655.9457,-151.8903"/>
<polygon fill="#000000" stroke="#000000" points="5652.4457,-151.8903 5655.9457,-161.8903 5659.4457,-151.8904 5652.4457,-151.8903"/>
</g>
<!-- MeetingComponent -->
<g id="node34" class="node">
<title>MeetingComponent</title>
<polygon fill="#ffffb3" stroke="#000000" points="5380.9874,-122 5253.0126,-122 5253.0126,-86 5380.9874,-86 5380.9874,-122"/>
<text text-anchor="middle" x="5317" y="-99.8" font-family="Times,serif" font-size="14.00" fill="#000000">MeetingComponent</text>
</g>
<!-- MeetingComponent&#45;&gt;ChannelsModule -->
<g id="edge33" class="edge">
<title>MeetingComponent&#45;&gt;ChannelsModule</title>
<path fill="none" stroke="#000000" d="M5362.3867,-122.1467C5362.3867,-135.7395 5362.3867,-152 5362.3867,-152 5362.3867,-152 5643.0601,-152 5643.0601,-152 5643.0601,-152 5643.0601,-152.9793 5643.0601,-152.9793"/>
<polygon fill="#000000" stroke="#000000" points="5639.5602,-151.793 5643.0601,-161.793 5646.5602,-151.7931 5639.5602,-151.793"/>
</g>
<!-- MeetingComponent&#45;&gt;ComponentsModule -->
<g id="edge38" class="edge">
<title>MeetingComponent&#45;&gt;ComponentsModule</title>
<path fill="none" stroke="#000000" d="M5252.7708,-104C5102.3781,-104 4740.0202,-104 4740.0202,-104 4740.0202,-104 4740.0202,-191 4740.0202,-191 4740.0202,-191 4256.2208,-191 4256.2208,-191"/>
<polygon fill="#000000" stroke="#000000" points="4256.2208,-187.5001 4246.2208,-191 4256.2208,-194.5001 4256.2208,-187.5001"/>
</g>
<!-- OtherComponent -->
<g id="node35" class="node">
<title>OtherComponent</title>
<polygon fill="#ffffb3" stroke="#000000" points="5812.705,-122 5699.295,-122 5699.295,-86 5812.705,-86 5812.705,-122"/>
<text text-anchor="middle" x="5756" y="-99.8" font-family="Times,serif" font-size="14.00" fill="#000000">OtherComponent</text>
</g>
<!-- OtherComponent&#45;&gt;ChannelsModule -->
<g id="edge34" class="edge">
<title>OtherComponent&#45;&gt;ChannelsModule</title>
<path fill="none" stroke="#000000" d="M5713.5402,-122.0109C5713.5402,-122.0109 5713.5402,-151.855 5713.5402,-151.855"/>
<polygon fill="#000000" stroke="#000000" points="5710.0403,-151.8549 5713.5402,-161.855 5717.0403,-151.855 5710.0403,-151.8549"/>
</g>
<!-- ChannelsRoutingModule -->
<g id="node36" class="node">
<title>ChannelsRoutingModule</title>
<polygon fill="#8dd3c7" stroke="#000000" points="5993.2688,-122 5990.2688,-126 5969.2688,-126 5966.2688,-122 5836.7312,-122 5836.7312,-86 5993.2688,-86 5993.2688,-122"/>
<text text-anchor="middle" x="5915" y="-99.8" font-family="Times,serif" font-size="14.00" fill="#000000">ChannelsRoutingModule</text>
</g>
<!-- ChannelsRoutingModule&#45;&gt;ChannelsModule -->
<g id="edge35" class="edge">
<title>ChannelsRoutingModule&#45;&gt;ChannelsModule</title>
<path fill="none" stroke="#000000" d="M5854.1676,-122.207C5854.1676,-127.5549 5854.1676,-132 5854.1676,-132 5854.1676,-132 5727.6828,-132 5727.6828,-132 5727.6828,-132 5727.6828,-151.8533 5727.6828,-151.8533"/>
<polygon fill="#000000" stroke="#000000" points="5724.1829,-151.8532 5727.6828,-161.8533 5731.1829,-151.8533 5724.1829,-151.8532"/>
</g>
<!-- ComponentsComponent -->
<g id="node37" class="node">
<title>ComponentsComponent</title>
<polygon fill="#ffffb3" stroke="#000000" points="4720.1094,-122 4567.8906,-122 4567.8906,-86 4720.1094,-86 4720.1094,-122"/>
<text text-anchor="middle" x="4644" y="-99.8" font-family="Times,serif" font-size="14.00" fill="#000000">ComponentsComponent</text>
</g>
<!-- ComponentsComponent&#45;&gt;ComponentsModule -->
<g id="edge36" class="edge">
<title>ComponentsComponent&#45;&gt;ComponentsModule</title>
<path fill="none" stroke="#000000" d="M4644,-122.1532C4644,-145.7566 4644,-184 4644,-184 4644,-184 4256.3546,-184 4256.3546,-184"/>
<polygon fill="#000000" stroke="#000000" points="4256.3546,-180.5001 4246.3546,-184 4256.3546,-187.5001 4256.3546,-180.5001"/>
</g>
<!-- WebsiteLoopComponent -->
<g id="node38" class="node">
<title>WebsiteLoopComponent</title>
<polygon fill="#ffffb3" stroke="#000000" points="4550.2548,-122 4393.7452,-122 4393.7452,-86 4550.2548,-86 4550.2548,-122"/>
<text text-anchor="middle" x="4472" y="-99.8" font-family="Times,serif" font-size="14.00" fill="#000000">WebsiteLoopComponent</text>
</g>
<!-- WebsiteLoopComponent&#45;&gt;ComponentsModule -->
<g id="edge37" class="edge">
<title>WebsiteLoopComponent&#45;&gt;ComponentsModule</title>
<path fill="none" stroke="#000000" d="M4472,-122.0449C4472,-143.6623 4472,-177 4472,-177 4472,-177 4256.3061,-177 4256.3061,-177"/>
<polygon fill="#000000" stroke="#000000" points="4256.3061,-173.5001 4246.3061,-177 4256.306,-180.5001 4256.3061,-173.5001"/>
</g>
<!-- EventComponent -->
<g id="node39" class="node">
<title>EventComponent</title>
<polygon fill="#ffffb3" stroke="#000000" points="4375.9902,-122 4262.0098,-122 4262.0098,-86 4375.9902,-86 4375.9902,-122"/>
<text text-anchor="middle" x="4319" y="-99.8" font-family="Times,serif" font-size="14.00" fill="#000000">EventComponent</text>
</g>
<!-- EventComponent&#45;&gt;ComponentsModule -->
<g id="edge39" class="edge">
<title>EventComponent&#45;&gt;ComponentsModule</title>
<path fill="none" stroke="#000000" d="M4319,-122.0348C4319,-141.5762 4319,-170 4319,-170 4319,-170 4256.3628,-170 4256.3628,-170"/>
<polygon fill="#000000" stroke="#000000" points="4256.3629,-166.5001 4246.3628,-170 4256.3628,-173.5001 4256.3629,-166.5001"/>
</g>
<!-- SupportComponent -->
<g id="node40" class="node">
<title>SupportComponent</title>
<polygon fill="#ffffb3" stroke="#000000" points="4243.6666,-122 4118.3334,-122 4118.3334,-86 4243.6666,-86 4243.6666,-122"/>
<text text-anchor="middle" x="4181" y="-99.8" font-family="Times,serif" font-size="14.00" fill="#000000">SupportComponent</text>
</g>
<!-- SupportComponent&#45;&gt;ComponentsModule -->
<g id="edge40" class="edge">
<title>SupportComponent&#45;&gt;ComponentsModule</title>
<path fill="none" stroke="#000000" d="M4181,-122.0109C4181,-122.0109 4181,-151.855 4181,-151.855"/>
<polygon fill="#000000" stroke="#000000" points="4177.5001,-151.8549 4181,-161.855 4184.5001,-151.855 4177.5001,-151.8549"/>
</g>
<!-- FinancialComponent -->
<g id="node41" class="node">
<title>FinancialComponent</title>
<polygon fill="#ffffb3" stroke="#000000" points="4099.9313,-122 3966.0687,-122 3966.0687,-86 4099.9313,-86 4099.9313,-122"/>
<text text-anchor="middle" x="4033" y="-99.8" font-family="Times,serif" font-size="14.00" fill="#000000">FinancialComponent</text>
</g>
<!-- FinancialComponent&#45;&gt;ComponentsModule -->
<g id="edge41" class="edge">
<title>FinancialComponent&#45;&gt;ComponentsModule</title>
<path fill="none" stroke="#000000" d="M4033,-122.2267C4033,-146.9318 4033,-188 4033,-188 4033,-188 4105.6542,-188 4105.6542,-188"/>
<polygon fill="#000000" stroke="#000000" points="4105.6543,-191.5001 4115.6542,-188 4105.6542,-184.5001 4105.6543,-191.5001"/>
</g>
<!-- WeatherComponent -->
<g id="node42" class="node">
<title>WeatherComponent</title>
<polygon fill="#ffffb3" stroke="#000000" points="3948.2423,-122 3819.7577,-122 3819.7577,-86 3948.2423,-86 3948.2423,-122"/>
<text text-anchor="middle" x="3884" y="-99.8" font-family="Times,serif" font-size="14.00" fill="#000000">WeatherComponent</text>
</g>
<!-- WeatherComponent&#45;&gt;ComponentsModule -->
<g id="edge43" class="edge">
<title>WeatherComponent&#45;&gt;ComponentsModule</title>
<path fill="none" stroke="#000000" d="M3884,-122.0265C3884,-147.5093 3884,-191 3884,-191 3884,-191 4105.8221,-191 4105.8221,-191"/>
<polygon fill="#000000" stroke="#000000" points="4105.8221,-194.5001 4115.8221,-191 4105.8221,-187.5001 4105.8221,-194.5001"/>
</g>
<!-- AllComponent -->
<g id="node43" class="node">
<title>AllComponent</title>
<polygon fill="#ffffb3" stroke="#000000" points="3801.7204,-122 3702.2796,-122 3702.2796,-86 3801.7204,-86 3801.7204,-122"/>
<text text-anchor="middle" x="3752" y="-99.8" font-family="Times,serif" font-size="14.00" fill="#000000">AllComponent</text>
</g>
<!-- AllComponent&#45;&gt;ComponentsModule -->
<g id="edge44" class="edge">
<title>AllComponent&#45;&gt;ComponentsModule</title>
<path fill="none" stroke="#000000" d="M3752,-122.0105C3752,-148.0165 3752,-193 3752,-193 3752,-193 4105.3771,-193 4105.3771,-193"/>
<polygon fill="#000000" stroke="#000000" points="4105.3772,-196.5001 4115.3771,-193 4105.3771,-189.5001 4105.3772,-196.5001"/>
</g>
</g>
</svg>
