<?xml version="1.0" encoding="UTF-8" standalone="no"?>
<!DOCTYPE svg PUBLIC "-//W3C//DTD SVG 1.1//EN"
 "http://www.w3.org/Graphics/SVG/1.1/DTD/svg11.dtd">
<!-- Generated by graphviz version 2.40.1 (20161225.0304)
 -->
<!-- Title: dependencies Pages: 1 -->
<svg width="2687pt" height="211pt"
 viewBox="0.00 0.00 2687.00 211.00" xmlns="http://www.w3.org/2000/svg" xmlns:xlink="http://www.w3.org/1999/xlink">
<g id="graph0" class="graph" transform="scale(1 1) rotate(0) translate(4 207)">
<title>dependencies</title>
<polygon fill="#ffffff" stroke="transparent" points="-4,4 -4,-207 2683,-207 2683,4 -4,4"/>
<text text-anchor="start" x="1318.5091" y="-42.4" font-family="sans-serif" font-weight="bold" font-size="14.00" fill="#000000">Legend</text>
<polygon fill="#ffffb3" stroke="transparent" points="1105.5,-10 1105.5,-30 1125.5,-30 1125.5,-10 1105.5,-10"/>
<text text-anchor="start" x="1129.129" y="-15.4" font-family="sans-serif" font-size="14.00" fill="#000000"> &#160;Declarations</text>
<polygon fill="#8dd3c7" stroke="transparent" points="1218.5,-10 1218.5,-30 1238.5,-30 1238.5,-10 1218.5,-10"/>
<text text-anchor="start" x="1242.2251" y="-15.4" font-family="sans-serif" font-size="14.00" fill="#000000"> &#160;Module</text>
<polygon fill="#80b1d3" stroke="transparent" points="1304.5,-10 1304.5,-30 1324.5,-30 1324.5,-10 1304.5,-10"/>
<text text-anchor="start" x="1328.2812" y="-15.4" font-family="sans-serif" font-size="14.00" fill="#000000"> &#160;Bootstrap</text>
<polygon fill="#fdb462" stroke="transparent" points="1401.5,-10 1401.5,-30 1421.5,-30 1421.5,-10 1401.5,-10"/>
<text text-anchor="start" x="1425.1732" y="-15.4" font-family="sans-serif" font-size="14.00" fill="#000000"> &#160;Providers</text>
<polygon fill="#fb8072" stroke="transparent" points="1497.5,-10 1497.5,-30 1517.5,-30 1517.5,-10 1497.5,-10"/>
<text text-anchor="start" x="1521.2258" y="-15.4" font-family="sans-serif" font-size="14.00" fill="#000000"> &#160;Exports</text>
<g id="clust1" class="cluster">
<title>cluster_AdminModule</title>
<polygon fill="none" stroke="#000000" stroke-dasharray="1,5" points="8,-70 8,-195 2671,-195 2671,-70 8,-70"/>
</g>
<g id="clust2" class="cluster">
<title>cluster_AdminModule_declarations</title>
<polygon fill="none" stroke="#000000" points="184,-78 184,-130 2663,-130 2663,-78 184,-78"/>
</g>
<g id="clust17" class="cluster">
<title>cluster_AdminModule_imports</title>
<polygon fill="none" stroke="#000000" points="16,-78 16,-130 176,-130 176,-78 16,-78"/>
</g>
<!-- AdminSideNavComponent -->
<g id="node1" class="node">
<title>AdminSideNavComponent</title>
<polygon fill="#ffffb3" stroke="#000000" points="2655.4297,-122 2486.5703,-122 2486.5703,-86 2655.4297,-86 2655.4297,-122"/>
<text text-anchor="middle" x="2571" y="-99.8" font-family="Times,serif" font-size="14.00" fill="#000000">AdminSideNavComponent</text>
</g>
<!-- AdminModule -->
<g id="node15" class="node">
<title>AdminModule</title>
<polygon fill="#8dd3c7" stroke="#000000" points="1429.4386,-187 1426.4386,-191 1405.4386,-191 1402.4386,-187 1330.5614,-187 1330.5614,-151 1429.4386,-151 1429.4386,-187"/>
<text text-anchor="middle" x="1380" y="-164.8" font-family="Times,serif" font-size="14.00" fill="#000000">AdminModule</text>
</g>
<!-- AdminSideNavComponent&#45;&gt;AdminModule -->
<g id="edge1" class="edge">
<title>AdminSideNavComponent&#45;&gt;AdminModule</title>
<path fill="none" stroke="#000000" d="M2571,-122.3228C2571,-145.6602 2571,-183 2571,-183 2571,-183 1439.2836,-183 1439.2836,-183"/>
<polygon fill="#000000" stroke="#000000" points="1439.2836,-179.5001 1429.2836,-183 1439.2836,-186.5001 1439.2836,-179.5001"/>
</g>
<!-- AdminChannelsComponent -->
<g id="node2" class="node">
<title>AdminChannelsComponent</title>
<polygon fill="#ffffb3" stroke="#000000" points="2469.3215,-122 2296.6785,-122 2296.6785,-86 2469.3215,-86 2469.3215,-122"/>
<text text-anchor="middle" x="2383" y="-99.8" font-family="Times,serif" font-size="14.00" fill="#000000">AdminChannelsComponent</text>
</g>
<!-- AdminChannelsComponent&#45;&gt;AdminModule -->
<g id="edge2" class="edge">
<title>AdminChannelsComponent&#45;&gt;AdminModule</title>
<path fill="none" stroke="#000000" d="M2383,-122.2921C2383,-144.2057 2383,-178 2383,-178 2383,-178 1439.3968,-178 1439.3968,-178"/>
<polygon fill="#000000" stroke="#000000" points="1439.3968,-174.5001 1429.3968,-178 1439.3968,-181.5001 1439.3968,-174.5001"/>
</g>
<!-- DashboardComponent -->
<g id="node3" class="node">
<title>DashboardComponent</title>
<polygon fill="#ffffb3" stroke="#000000" points="2278.9734,-122 2137.0266,-122 2137.0266,-86 2278.9734,-86 2278.9734,-122"/>
<text text-anchor="middle" x="2208" y="-99.8" font-family="Times,serif" font-size="14.00" fill="#000000">DashboardComponent</text>
</g>
<!-- DashboardComponent&#45;&gt;AdminModule -->
<g id="edge3" class="edge">
<title>DashboardComponent&#45;&gt;AdminModule</title>
<path fill="none" stroke="#000000" d="M2208,-122.0267C2208,-142.7672 2208,-174 2208,-174 2208,-174 1439.3155,-174 1439.3155,-174"/>
<polygon fill="#000000" stroke="#000000" points="1439.3156,-170.5001 1429.3155,-174 1439.3155,-177.5001 1439.3156,-170.5001"/>
</g>
<!-- SettingComponent -->
<g id="node4" class="node">
<title>SettingComponent</title>
<polygon fill="#ffffb3" stroke="#000000" points="2119.5014,-122 1998.4986,-122 1998.4986,-86 2119.5014,-86 2119.5014,-122"/>
<text text-anchor="middle" x="2059" y="-99.8" font-family="Times,serif" font-size="14.00" fill="#000000">SettingComponent</text>
</g>
<!-- SettingComponent&#45;&gt;AdminModule -->
<g id="edge4" class="edge">
<title>SettingComponent&#45;&gt;AdminModule</title>
<path fill="none" stroke="#000000" d="M2059,-122.1061C2059,-141.3391 2059,-169 2059,-169 2059,-169 1439.3789,-169 1439.3789,-169"/>
<polygon fill="#000000" stroke="#000000" points="1439.379,-165.5001 1429.3789,-169 1439.3789,-172.5001 1439.379,-165.5001"/>
</g>
<!-- BuildServersComponent -->
<g id="node5" class="node">
<title>BuildServersComponent</title>
<polygon fill="#ffffb3" stroke="#000000" points="1980.4284,-122 1825.5716,-122 1825.5716,-86 1980.4284,-86 1980.4284,-122"/>
<text text-anchor="middle" x="1903" y="-99.8" font-family="Times,serif" font-size="14.00" fill="#000000">BuildServersComponent</text>
</g>
<!-- BuildServersComponent&#45;&gt;AdminModule -->
<g id="edge5" class="edge">
<title>BuildServersComponent&#45;&gt;AdminModule</title>
<path fill="none" stroke="#000000" d="M1903,-122.302C1903,-140.2699 1903,-165 1903,-165 1903,-165 1439.6741,-165 1439.6741,-165"/>
<polygon fill="#000000" stroke="#000000" points="1439.6741,-161.5001 1429.6741,-165 1439.674,-168.5001 1439.6741,-161.5001"/>
</g>
<!-- AdminComponent -->
<g id="node6" class="node">
<title>AdminComponent</title>
<polygon fill="#ffffb3" stroke="#000000" points="1808.2204,-122 1687.7796,-122 1687.7796,-86 1808.2204,-86 1808.2204,-122"/>
<text text-anchor="middle" x="1748" y="-99.8" font-family="Times,serif" font-size="14.00" fill="#000000">AdminComponent</text>
</g>
<!-- AdminComponent&#45;&gt;AdminModule -->
<g id="edge6" class="edge">
<title>AdminComponent&#45;&gt;AdminModule</title>
<path fill="none" stroke="#000000" d="M1748,-122.027C1748,-138.3976 1748,-160 1748,-160 1748,-160 1439.2483,-160 1439.2483,-160"/>
<polygon fill="#000000" stroke="#000000" points="1439.2483,-156.5001 1429.2483,-160 1439.2482,-163.5001 1439.2483,-156.5001"/>
</g>
<!-- AdminEntranceComponent -->
<g id="node7" class="node">
<title>AdminEntranceComponent</title>
<polygon fill="#ffffb3" stroke="#000000" points="1669.9678,-122 1500.0322,-122 1500.0322,-86 1669.9678,-86 1669.9678,-122"/>
<text text-anchor="middle" x="1585" y="-99.8" font-family="Times,serif" font-size="14.00" fill="#000000">AdminEntranceComponent</text>
</g>
<!-- AdminEntranceComponent&#45;&gt;AdminModule -->
<g id="edge7" class="edge">
<title>AdminEntranceComponent&#45;&gt;AdminModule</title>
<path fill="none" stroke="#000000" d="M1585,-122.1871C1585,-137.1824 1585,-156 1585,-156 1585,-156 1439.3635,-156 1439.3635,-156"/>
<polygon fill="#000000" stroke="#000000" points="1439.3635,-152.5001 1429.3635,-156 1439.3634,-159.5001 1439.3635,-152.5001"/>
</g>
<!-- AdminEntranceDetailComponent -->
<g id="node8" class="node">
<title>AdminEntranceDetailComponent</title>
<polygon fill="#ffffb3" stroke="#000000" points="1482.1755,-122 1277.8245,-122 1277.8245,-86 1482.1755,-86 1482.1755,-122"/>
<text text-anchor="middle" x="1380" y="-99.8" font-family="Times,serif" font-size="14.00" fill="#000000">AdminEntranceDetailComponent</text>
</g>
<!-- AdminEntranceDetailComponent&#45;&gt;AdminModule -->
<g id="edge8" class="edge">
<title>AdminEntranceDetailComponent&#45;&gt;AdminModule</title>
<path fill="none" stroke="#000000" d="M1380,-122.1061C1380,-122.1061 1380,-140.991 1380,-140.991"/>
<polygon fill="#000000" stroke="#000000" points="1376.5001,-140.9909 1380,-150.991 1383.5001,-140.991 1376.5001,-140.9909"/>
</g>
<!-- AdminEventComponent -->
<g id="node9" class="node">
<title>AdminEventComponent</title>
<polygon fill="#ffffb3" stroke="#000000" points="1259.378,-122 1106.622,-122 1106.622,-86 1259.378,-86 1259.378,-122"/>
<text text-anchor="middle" x="1183" y="-99.8" font-family="Times,serif" font-size="14.00" fill="#000000">AdminEventComponent</text>
</g>
<!-- AdminEventComponent&#45;&gt;AdminModule -->
<g id="edge9" class="edge">
<title>AdminEventComponent&#45;&gt;AdminModule</title>
<path fill="none" stroke="#000000" d="M1183,-122.1871C1183,-137.1824 1183,-156 1183,-156 1183,-156 1320.5429,-156 1320.5429,-156"/>
<polygon fill="#000000" stroke="#000000" points="1320.5429,-159.5001 1330.5429,-156 1320.5428,-152.5001 1320.5429,-159.5001"/>
</g>
<!-- AdminEventDetailComponent -->
<g id="node10" class="node">
<title>AdminEventDetailComponent</title>
<polygon fill="#ffffb3" stroke="#000000" points="1088.5856,-122 901.4144,-122 901.4144,-86 1088.5856,-86 1088.5856,-122"/>
<text text-anchor="middle" x="995" y="-99.8" font-family="Times,serif" font-size="14.00" fill="#000000">AdminEventDetailComponent</text>
</g>
<!-- AdminEventDetailComponent&#45;&gt;AdminModule -->
<g id="edge10" class="edge">
<title>AdminEventDetailComponent&#45;&gt;AdminModule</title>
<path fill="none" stroke="#000000" d="M995,-122.027C995,-138.3976 995,-160 995,-160 995,-160 1320.4562,-160 1320.4562,-160"/>
<polygon fill="#000000" stroke="#000000" points="1320.4562,-163.5001 1330.4562,-160 1320.4561,-156.5001 1320.4562,-163.5001"/>
</g>
<!-- AdminMeetingComponent -->
<g id="node11" class="node">
<title>AdminMeetingComponent</title>
<polygon fill="#ffffb3" stroke="#000000" points="883.3752,-122 716.6248,-122 716.6248,-86 883.3752,-86 883.3752,-122"/>
<text text-anchor="middle" x="800" y="-99.8" font-family="Times,serif" font-size="14.00" fill="#000000">AdminMeetingComponent</text>
</g>
<!-- AdminMeetingComponent&#45;&gt;AdminModule -->
<g id="edge11" class="edge">
<title>AdminMeetingComponent&#45;&gt;AdminModule</title>
<path fill="none" stroke="#000000" d="M800,-122.302C800,-140.2699 800,-165 800,-165 800,-165 1320.5495,-165 1320.5495,-165"/>
<polygon fill="#000000" stroke="#000000" points="1320.5496,-168.5001 1330.5495,-165 1320.5495,-161.5001 1320.5496,-168.5001"/>
</g>
<!-- SupportTicketsComponent -->
<g id="node12" class="node">
<title>SupportTicketsComponent</title>
<polygon fill="#ffffb3" stroke="#000000" points="698.3738,-122 531.6262,-122 531.6262,-86 698.3738,-86 698.3738,-122"/>
<text text-anchor="middle" x="615" y="-99.8" font-family="Times,serif" font-size="14.00" fill="#000000">SupportTicketsComponent</text>
</g>
<!-- SupportTicketsComponent&#45;&gt;AdminModule -->
<g id="edge12" class="edge">
<title>SupportTicketsComponent&#45;&gt;AdminModule</title>
<path fill="none" stroke="#000000" d="M615,-122.1061C615,-141.3391 615,-169 615,-169 615,-169 1320.6892,-169 1320.6892,-169"/>
<polygon fill="#000000" stroke="#000000" points="1320.6893,-172.5001 1330.6892,-169 1320.6892,-165.5001 1320.6893,-172.5001"/>
</g>
<!-- ImageUploadComponent -->
<g id="node13" class="node">
<title>ImageUploadComponent</title>
<polygon fill="#ffffb3" stroke="#000000" points="513.5253,-122 356.4747,-122 356.4747,-86 513.5253,-86 513.5253,-122"/>
<text text-anchor="middle" x="435" y="-99.8" font-family="Times,serif" font-size="14.00" fill="#000000">ImageUploadComponent</text>
</g>
<!-- ImageUploadComponent&#45;&gt;AdminModule -->
<g id="edge13" class="edge">
<title>ImageUploadComponent&#45;&gt;AdminModule</title>
<path fill="none" stroke="#000000" d="M435,-122.0267C435,-142.7672 435,-174 435,-174 435,-174 1320.5232,-174 1320.5232,-174"/>
<polygon fill="#000000" stroke="#000000" points="1320.5233,-177.5001 1330.5232,-174 1320.5232,-170.5001 1320.5233,-177.5001"/>
</g>
<!-- ImageViewComponent -->
<g id="node14" class="node">
<title>ImageViewComponent</title>
<polygon fill="#ffffb3" stroke="#000000" points="338.1317,-122 191.8683,-122 191.8683,-86 338.1317,-86 338.1317,-122"/>
<text text-anchor="middle" x="265" y="-99.8" font-family="Times,serif" font-size="14.00" fill="#000000">ImageViewComponent</text>
</g>
<!-- ImageViewComponent&#45;&gt;AdminModule -->
<g id="edge14" class="edge">
<title>ImageViewComponent&#45;&gt;AdminModule</title>
<path fill="none" stroke="#000000" d="M265,-122.2921C265,-144.2057 265,-178 265,-178 265,-178 1320.6512,-178 1320.6512,-178"/>
<polygon fill="#000000" stroke="#000000" points="1320.6512,-181.5001 1330.6512,-178 1320.6511,-174.5001 1320.6512,-181.5001"/>
</g>
<!-- AdminRoutingModule -->
<g id="node16" class="node">
<title>AdminRoutingModule</title>
<polygon fill="#8dd3c7" stroke="#000000" points="167.5561,-122 164.5561,-126 143.5561,-126 140.5561,-122 24.4439,-122 24.4439,-86 167.5561,-86 167.5561,-122"/>
<text text-anchor="middle" x="96" y="-99.8" font-family="Times,serif" font-size="14.00" fill="#000000">AdminRoutingModule</text>
</g>
<!-- AdminRoutingModule&#45;&gt;AdminModule -->
<g id="edge15" class="edge">
<title>AdminRoutingModule&#45;&gt;AdminModule</title>
<path fill="none" stroke="#000000" d="M96,-122.3228C96,-145.6602 96,-183 96,-183 96,-183 1320.4524,-183 1320.4524,-183"/>
<polygon fill="#000000" stroke="#000000" points="1320.4525,-186.5001 1330.4524,-183 1320.4524,-179.5001 1320.4525,-186.5001"/>
</g>
</g>
</svg>
