<?xml version="1.0" encoding="UTF-8" standalone="no"?>
<!DOCTYPE svg PUBLIC "-//W3C//DTD SVG 1.1//EN"
 "http://www.w3.org/Graphics/SVG/1.1/DTD/svg11.dtd">
<!-- Generated by graphviz version 2.40.1 (20161225.0304)
 -->
<!-- Title: dependencies Pages: 1 -->
<svg width="3233pt" height="211pt"
 viewBox="0.00 0.00 3233.00 211.00" xmlns="http://www.w3.org/2000/svg" xmlns:xlink="http://www.w3.org/1999/xlink">
<g id="graph0" class="graph" transform="scale(1 1) rotate(0) translate(4 207)">
<title>dependencies</title>
<polygon fill="#ffffff" stroke="transparent" points="-4,4 -4,-207 3229,-207 3229,4 -4,4"/>
<text text-anchor="start" x="1591.5091" y="-42.4" font-family="sans-serif" font-weight="bold" font-size="14.00" fill="#000000">Legend</text>
<polygon fill="#ffffb3" stroke="transparent" points="1378.5,-10 1378.5,-30 1398.5,-30 1398.5,-10 1378.5,-10"/>
<text text-anchor="start" x="1402.129" y="-15.4" font-family="sans-serif" font-size="14.00" fill="#000000"> &#160;Declarations</text>
<polygon fill="#8dd3c7" stroke="transparent" points="1491.5,-10 1491.5,-30 1511.5,-30 1511.5,-10 1491.5,-10"/>
<text text-anchor="start" x="1515.2251" y="-15.4" font-family="sans-serif" font-size="14.00" fill="#000000"> &#160;Module</text>
<polygon fill="#80b1d3" stroke="transparent" points="1577.5,-10 1577.5,-30 1597.5,-30 1597.5,-10 1577.5,-10"/>
<text text-anchor="start" x="1601.2812" y="-15.4" font-family="sans-serif" font-size="14.00" fill="#000000"> &#160;Bootstrap</text>
<polygon fill="#fdb462" stroke="transparent" points="1674.5,-10 1674.5,-30 1694.5,-30 1694.5,-10 1674.5,-10"/>
<text text-anchor="start" x="1698.1732" y="-15.4" font-family="sans-serif" font-size="14.00" fill="#000000"> &#160;Providers</text>
<polygon fill="#fb8072" stroke="transparent" points="1770.5,-10 1770.5,-30 1790.5,-30 1790.5,-10 1770.5,-10"/>
<text text-anchor="start" x="1794.2258" y="-15.4" font-family="sans-serif" font-size="14.00" fill="#000000"> &#160;Exports</text>
<g id="clust1" class="cluster">
<title>cluster_AdminModule</title>
<polygon fill="none" stroke="#000000" stroke-dasharray="1,5" points="8,-70 8,-195 3217,-195 3217,-70 8,-70"/>
</g>
<g id="clust2" class="cluster">
<title>cluster_AdminModule_declarations</title>
<polygon fill="none" stroke="#000000" points="184,-78 184,-130 3209,-130 3209,-78 184,-78"/>
</g>
<g id="clust20" class="cluster">
<title>cluster_AdminModule_imports</title>
<polygon fill="none" stroke="#000000" points="16,-78 16,-130 176,-130 176,-78 16,-78"/>
</g>
<!-- AdminChannelsComponent -->
<g id="node1" class="node">
<title>AdminChannelsComponent</title>
<polygon fill="#ffffb3" stroke="#000000" points="3201.3215,-122 3028.6785,-122 3028.6785,-86 3201.3215,-86 3201.3215,-122"/>
<text text-anchor="middle" x="3115" y="-99.8" font-family="Times,serif" font-size="14.00" fill="#000000">AdminChannelsComponent</text>
</g>
<!-- AdminModule -->
<g id="node18" class="node">
<title>AdminModule</title>
<polygon fill="#8dd3c7" stroke="#000000" points="1532.4386,-187 1529.4386,-191 1508.4386,-191 1505.4386,-187 1433.5614,-187 1433.5614,-151 1532.4386,-151 1532.4386,-187"/>
<text text-anchor="middle" x="1483" y="-164.8" font-family="Times,serif" font-size="14.00" fill="#000000">AdminModule</text>
</g>
<!-- AdminChannelsComponent&#45;&gt;AdminModule -->
<g id="edge1" class="edge">
<title>AdminChannelsComponent&#45;&gt;AdminModule</title>
<path fill="none" stroke="#000000" d="M3115,-122.3228C3115,-145.6602 3115,-183 3115,-183 3115,-183 1542.2871,-183 1542.2871,-183"/>
<polygon fill="#000000" stroke="#000000" points="1542.2872,-179.5001 1532.2871,-183 1542.2871,-186.5001 1542.2872,-179.5001"/>
</g>
<!-- AdminChannelsContentsComponent -->
<g id="node2" class="node">
<title>AdminChannelsContentsComponent</title>
<polygon fill="#ffffb3" stroke="#000000" points="3011.0982,-122 2788.9018,-122 2788.9018,-86 3011.0982,-86 3011.0982,-122"/>
<text text-anchor="middle" x="2900" y="-99.8" font-family="Times,serif" font-size="14.00" fill="#000000">AdminChannelsContentsComponent</text>
</g>
<!-- AdminChannelsContentsComponent&#45;&gt;AdminModule -->
<g id="edge2" class="edge">
<title>AdminChannelsContentsComponent&#45;&gt;AdminModule</title>
<path fill="none" stroke="#000000" d="M2900,-122.1554C2900,-144.3519 2900,-179 2900,-179 2900,-179 1542.6009,-179 1542.6009,-179"/>
<polygon fill="#000000" stroke="#000000" points="1542.601,-175.5001 1532.6009,-179 1542.6009,-182.5001 1542.601,-175.5001"/>
</g>
<!-- AdminComponent -->
<g id="node3" class="node">
<title>AdminComponent</title>
<polygon fill="#ffffb3" stroke="#000000" points="2771.2204,-122 2650.7796,-122 2650.7796,-86 2771.2204,-86 2771.2204,-122"/>
<text text-anchor="middle" x="2711" y="-99.8" font-family="Times,serif" font-size="14.00" fill="#000000">AdminComponent</text>
</g>
<!-- AdminComponent&#45;&gt;AdminModule -->
<g id="edge3" class="edge">
<title>AdminComponent&#45;&gt;AdminModule</title>
<path fill="none" stroke="#000000" d="M2711,-122.2843C2711,-143.3211 2711,-175 2711,-175 2711,-175 1542.2777,-175 1542.2777,-175"/>
<polygon fill="#000000" stroke="#000000" points="1542.2778,-171.5001 1532.2777,-175 1542.2777,-178.5001 1542.2778,-171.5001"/>
</g>
<!-- AdminEntranceComponent -->
<g id="node4" class="node">
<title>AdminEntranceComponent</title>
<polygon fill="#ffffb3" stroke="#000000" points="2632.9678,-122 2463.0322,-122 2463.0322,-86 2632.9678,-86 2632.9678,-122"/>
<text text-anchor="middle" x="2548" y="-99.8" font-family="Times,serif" font-size="14.00" fill="#000000">AdminEntranceComponent</text>
</g>
<!-- AdminEntranceComponent&#45;&gt;AdminModule -->
<g id="edge4" class="edge">
<title>AdminEntranceComponent&#45;&gt;AdminModule</title>
<path fill="none" stroke="#000000" d="M2548,-122.308C2548,-142.1455 2548,-171 2548,-171 2548,-171 1542.2312,-171 1542.2312,-171"/>
<polygon fill="#000000" stroke="#000000" points="1542.2313,-167.5001 1532.2312,-171 1542.2312,-174.5001 1542.2313,-167.5001"/>
</g>
<!-- AdminEntranceDetailComponent -->
<g id="node5" class="node">
<title>AdminEntranceDetailComponent</title>
<polygon fill="#ffffb3" stroke="#000000" points="2445.1755,-122 2240.8245,-122 2240.8245,-86 2445.1755,-86 2445.1755,-122"/>
<text text-anchor="middle" x="2343" y="-99.8" font-family="Times,serif" font-size="14.00" fill="#000000">AdminEntranceDetailComponent</text>
</g>
<!-- AdminEntranceDetailComponent&#45;&gt;AdminModule -->
<g id="edge5" class="edge">
<title>AdminEntranceDetailComponent&#45;&gt;AdminModule</title>
<path fill="none" stroke="#000000" d="M2343,-122.2222C2343,-140.8285 2343,-167 2343,-167 2343,-167 1542.3262,-167 1542.3262,-167"/>
<polygon fill="#000000" stroke="#000000" points="1542.3262,-163.5001 1532.3262,-167 1542.3262,-170.5001 1542.3262,-163.5001"/>
</g>
<!-- AdminEventComponent -->
<g id="node6" class="node">
<title>AdminEventComponent</title>
<polygon fill="#ffffb3" stroke="#000000" points="2222.378,-122 2069.622,-122 2069.622,-86 2222.378,-86 2222.378,-122"/>
<text text-anchor="middle" x="2146" y="-99.8" font-family="Times,serif" font-size="14.00" fill="#000000">AdminEventComponent</text>
</g>
<!-- AdminEventComponent&#45;&gt;AdminModule -->
<g id="edge6" class="edge">
<title>AdminEventComponent&#45;&gt;AdminModule</title>
<path fill="none" stroke="#000000" d="M2146,-122.0225C2146,-139.3734 2146,-163 2146,-163 2146,-163 1542.2911,-163 1542.2911,-163"/>
<polygon fill="#000000" stroke="#000000" points="1542.2911,-159.5001 1532.2911,-163 1542.2911,-166.5001 1542.2911,-159.5001"/>
</g>
<!-- AdminEventDetailComponent -->
<g id="node7" class="node">
<title>AdminEventDetailComponent</title>
<polygon fill="#ffffb3" stroke="#000000" points="2051.5856,-122 1864.4144,-122 1864.4144,-86 2051.5856,-86 2051.5856,-122"/>
<text text-anchor="middle" x="1958" y="-99.8" font-family="Times,serif" font-size="14.00" fill="#000000">AdminEventDetailComponent</text>
</g>
<!-- AdminEventDetailComponent&#45;&gt;AdminModule -->
<g id="edge7" class="edge">
<title>AdminEventDetailComponent&#45;&gt;AdminModule</title>
<path fill="none" stroke="#000000" d="M1958,-122.0091C1958,-138.0494 1958,-159 1958,-159 1958,-159 1542.4891,-159 1542.4891,-159"/>
<polygon fill="#000000" stroke="#000000" points="1542.4891,-155.5001 1532.4891,-159 1542.4891,-162.5001 1542.4891,-155.5001"/>
</g>
<!-- AdminSideNavComponent -->
<g id="node8" class="node">
<title>AdminSideNavComponent</title>
<polygon fill="#ffffb3" stroke="#000000" points="1846.4297,-122 1677.5703,-122 1677.5703,-86 1846.4297,-86 1846.4297,-122"/>
<text text-anchor="middle" x="1762" y="-99.8" font-family="Times,serif" font-size="14.00" fill="#000000">AdminSideNavComponent</text>
</g>
<!-- AdminSideNavComponent&#45;&gt;AdminModule -->
<g id="edge8" class="edge">
<title>AdminSideNavComponent&#45;&gt;AdminModule</title>
<path fill="none" stroke="#000000" d="M1762,-122.1243C1762,-136.7832 1762,-155 1762,-155 1762,-155 1542.2374,-155 1542.2374,-155"/>
<polygon fill="#000000" stroke="#000000" points="1542.2374,-151.5001 1532.2374,-155 1542.2373,-158.5001 1542.2374,-151.5001"/>
</g>
<!-- ChannelContentComponent -->
<g id="node9" class="node">
<title>ChannelContentComponent</title>
<polygon fill="#ffffb3" stroke="#000000" points="1660.3215,-122 1487.6785,-122 1487.6785,-86 1660.3215,-86 1660.3215,-122"/>
<text text-anchor="middle" x="1574" y="-99.8" font-family="Times,serif" font-size="14.00" fill="#000000">ChannelContentComponent</text>
</g>
<!-- ChannelContentComponent&#45;&gt;AdminModule -->
<g id="edge9" class="edge">
<title>ChannelContentComponent&#45;&gt;AdminModule</title>
<path fill="none" stroke="#000000" d="M1510.0291,-122.1061C1510.0291,-122.1061 1510.0291,-140.991 1510.0291,-140.991"/>
<polygon fill="#000000" stroke="#000000" points="1506.5292,-140.9909 1510.0291,-150.991 1513.5292,-140.991 1506.5292,-140.9909"/>
</g>
<!-- ChannelNewComponent -->
<g id="node10" class="node">
<title>ChannelNewComponent</title>
<polygon fill="#ffffb3" stroke="#000000" points="1470.4172,-122 1315.5828,-122 1315.5828,-86 1470.4172,-86 1470.4172,-122"/>
<text text-anchor="middle" x="1393" y="-99.8" font-family="Times,serif" font-size="14.00" fill="#000000">ChannelNewComponent</text>
</g>
<!-- ChannelNewComponent&#45;&gt;AdminModule -->
<g id="edge10" class="edge">
<title>ChannelNewComponent&#45;&gt;AdminModule</title>
<path fill="none" stroke="#000000" d="M1451.9947,-122.1061C1451.9947,-122.1061 1451.9947,-140.991 1451.9947,-140.991"/>
<polygon fill="#000000" stroke="#000000" points="1448.4948,-140.9909 1451.9947,-150.991 1455.4948,-140.991 1448.4948,-140.9909"/>
</g>
<!-- CreateComponent -->
<g id="node11" class="node">
<title>CreateComponent</title>
<polygon fill="#ffffb3" stroke="#000000" points="1297.8641,-122 1180.1359,-122 1180.1359,-86 1297.8641,-86 1297.8641,-122"/>
<text text-anchor="middle" x="1239" y="-99.8" font-family="Times,serif" font-size="14.00" fill="#000000">CreateComponent</text>
</g>
<!-- CreateComponent&#45;&gt;AdminModule -->
<g id="edge11" class="edge">
<title>CreateComponent&#45;&gt;AdminModule</title>
<path fill="none" stroke="#000000" d="M1239,-122.1243C1239,-136.7832 1239,-155 1239,-155 1239,-155 1423.623,-155 1423.623,-155"/>
<polygon fill="#000000" stroke="#000000" points="1423.623,-158.5001 1433.623,-155 1423.6229,-151.5001 1423.623,-158.5001"/>
</g>
<!-- DashboardComponent -->
<g id="node12" class="node">
<title>DashboardComponent</title>
<polygon fill="#ffffb3" stroke="#000000" points="1161.9734,-122 1020.0266,-122 1020.0266,-86 1161.9734,-86 1161.9734,-122"/>
<text text-anchor="middle" x="1091" y="-99.8" font-family="Times,serif" font-size="14.00" fill="#000000">DashboardComponent</text>
</g>
<!-- DashboardComponent&#45;&gt;AdminModule -->
<g id="edge12" class="edge">
<title>DashboardComponent&#45;&gt;AdminModule</title>
<path fill="none" stroke="#000000" d="M1091,-122.0091C1091,-138.0494 1091,-159 1091,-159 1091,-159 1423.7499,-159 1423.7499,-159"/>
<polygon fill="#000000" stroke="#000000" points="1423.7499,-162.5001 1433.7499,-159 1423.7498,-155.5001 1423.7499,-162.5001"/>
</g>
<!-- ImageUploadComponent -->
<g id="node13" class="node">
<title>ImageUploadComponent</title>
<polygon fill="#ffffb3" stroke="#000000" points="1001.5253,-122 844.4747,-122 844.4747,-86 1001.5253,-86 1001.5253,-122"/>
<text text-anchor="middle" x="923" y="-99.8" font-family="Times,serif" font-size="14.00" fill="#000000">ImageUploadComponent</text>
</g>
<!-- ImageUploadComponent&#45;&gt;AdminModule -->
<g id="edge13" class="edge">
<title>ImageUploadComponent&#45;&gt;AdminModule</title>
<path fill="none" stroke="#000000" d="M923,-122.0225C923,-139.3734 923,-163 923,-163 923,-163 1423.3037,-163 1423.3037,-163"/>
<polygon fill="#000000" stroke="#000000" points="1423.3038,-166.5001 1433.3037,-163 1423.3037,-159.5001 1423.3038,-166.5001"/>
</g>
<!-- ImageViewComponent -->
<g id="node14" class="node">
<title>ImageViewComponent</title>
<polygon fill="#ffffb3" stroke="#000000" points="826.1317,-122 679.8683,-122 679.8683,-86 826.1317,-86 826.1317,-122"/>
<text text-anchor="middle" x="753" y="-99.8" font-family="Times,serif" font-size="14.00" fill="#000000">ImageViewComponent</text>
</g>
<!-- ImageViewComponent&#45;&gt;AdminModule -->
<g id="edge14" class="edge">
<title>ImageViewComponent&#45;&gt;AdminModule</title>
<path fill="none" stroke="#000000" d="M753,-122.2222C753,-140.8285 753,-167 753,-167 753,-167 1423.6839,-167 1423.6839,-167"/>
<polygon fill="#000000" stroke="#000000" points="1423.684,-170.5001 1433.6839,-167 1423.6839,-163.5001 1423.684,-170.5001"/>
</g>
<!-- ListingComponentsComponent -->
<g id="node15" class="node">
<title>ListingComponentsComponent</title>
<polygon fill="#ffffb3" stroke="#000000" points="661.7785,-122 470.2215,-122 470.2215,-86 661.7785,-86 661.7785,-122"/>
<text text-anchor="middle" x="566" y="-99.8" font-family="Times,serif" font-size="14.00" fill="#000000">ListingComponentsComponent</text>
</g>
<!-- ListingComponentsComponent&#45;&gt;AdminModule -->
<g id="edge15" class="edge">
<title>ListingComponentsComponent&#45;&gt;AdminModule</title>
<path fill="none" stroke="#000000" d="M566,-122.308C566,-142.1455 566,-171 566,-171 566,-171 1423.6981,-171 1423.6981,-171"/>
<polygon fill="#000000" stroke="#000000" points="1423.6981,-174.5001 1433.6981,-171 1423.6981,-167.5001 1423.6981,-174.5001"/>
</g>
<!-- SettingComponent -->
<g id="node16" class="node">
<title>SettingComponent</title>
<polygon fill="#ffffb3" stroke="#000000" points="452.5014,-122 331.4986,-122 331.4986,-86 452.5014,-86 452.5014,-122"/>
<text text-anchor="middle" x="392" y="-99.8" font-family="Times,serif" font-size="14.00" fill="#000000">SettingComponent</text>
</g>
<!-- SettingComponent&#45;&gt;AdminModule -->
<g id="edge16" class="edge">
<title>SettingComponent&#45;&gt;AdminModule</title>
<path fill="none" stroke="#000000" d="M392,-122.2843C392,-143.3211 392,-175 392,-175 392,-175 1423.6453,-175 1423.6453,-175"/>
<polygon fill="#000000" stroke="#000000" points="1423.6454,-178.5001 1433.6453,-175 1423.6453,-171.5001 1423.6454,-178.5001"/>
</g>
<!-- UpdateComponent -->
<g id="node17" class="node">
<title>UpdateComponent</title>
<polygon fill="#ffffb3" stroke="#000000" points="313.759,-122 192.241,-122 192.241,-86 313.759,-86 313.759,-122"/>
<text text-anchor="middle" x="253" y="-99.8" font-family="Times,serif" font-size="14.00" fill="#000000">UpdateComponent</text>
</g>
<!-- UpdateComponent&#45;&gt;AdminModule -->
<g id="edge17" class="edge">
<title>UpdateComponent&#45;&gt;AdminModule</title>
<path fill="none" stroke="#000000" d="M253,-122.1554C253,-144.3519 253,-179 253,-179 253,-179 1423.642,-179 1423.642,-179"/>
<polygon fill="#000000" stroke="#000000" points="1423.642,-182.5001 1433.642,-179 1423.642,-175.5001 1423.642,-182.5001"/>
</g>
<!-- AdminRoutingModule -->
<g id="node19" class="node">
<title>AdminRoutingModule</title>
<polygon fill="#8dd3c7" stroke="#000000" points="167.5561,-122 164.5561,-126 143.5561,-126 140.5561,-122 24.4439,-122 24.4439,-86 167.5561,-86 167.5561,-122"/>
<text text-anchor="middle" x="96" y="-99.8" font-family="Times,serif" font-size="14.00" fill="#000000">AdminRoutingModule</text>
</g>
<!-- AdminRoutingModule&#45;&gt;AdminModule -->
<g id="edge18" class="edge">
<title>AdminRoutingModule&#45;&gt;AdminModule</title>
<path fill="none" stroke="#000000" d="M96,-122.3228C96,-145.6602 96,-183 96,-183 96,-183 1423.6359,-183 1423.6359,-183"/>
<polygon fill="#000000" stroke="#000000" points="1423.636,-186.5001 1433.6359,-183 1423.6359,-179.5001 1423.636,-186.5001"/>
</g>
</g>
</svg>
