<?xml version="1.0" encoding="UTF-8" standalone="no"?>
<!DOCTYPE svg PUBLIC "-//W3C//DTD SVG 1.1//EN"
 "http://www.w3.org/Graphics/SVG/1.1/DTD/svg11.dtd">
<!-- Generated by graphviz version 2.40.1 (20161225.0304)
 -->
<!-- Title: dependencies Pages: 1 -->
<svg width="3483pt" height="211pt"
 viewBox="0.00 0.00 3483.00 211.00" xmlns="http://www.w3.org/2000/svg" xmlns:xlink="http://www.w3.org/1999/xlink">
<g id="graph0" class="graph" transform="scale(1 1) rotate(0) translate(4 207)">
<title>dependencies</title>
<polygon fill="#ffffff" stroke="transparent" points="-4,4 -4,-207 3479,-207 3479,4 -4,4"/>
<text text-anchor="start" x="1716.5091" y="-42.4" font-family="sans-serif" font-weight="bold" font-size="14.00" fill="#000000">Legend</text>
<polygon fill="#ffffb3" stroke="transparent" points="1503.5,-10 1503.5,-30 1523.5,-30 1523.5,-10 1503.5,-10"/>
<text text-anchor="start" x="1527.129" y="-15.4" font-family="sans-serif" font-size="14.00" fill="#000000"> &#160;Declarations</text>
<polygon fill="#8dd3c7" stroke="transparent" points="1616.5,-10 1616.5,-30 1636.5,-30 1636.5,-10 1616.5,-10"/>
<text text-anchor="start" x="1640.2251" y="-15.4" font-family="sans-serif" font-size="14.00" fill="#000000"> &#160;Module</text>
<polygon fill="#80b1d3" stroke="transparent" points="1702.5,-10 1702.5,-30 1722.5,-30 1722.5,-10 1702.5,-10"/>
<text text-anchor="start" x="1726.2812" y="-15.4" font-family="sans-serif" font-size="14.00" fill="#000000"> &#160;Bootstrap</text>
<polygon fill="#fdb462" stroke="transparent" points="1799.5,-10 1799.5,-30 1819.5,-30 1819.5,-10 1799.5,-10"/>
<text text-anchor="start" x="1823.1732" y="-15.4" font-family="sans-serif" font-size="14.00" fill="#000000"> &#160;Providers</text>
<polygon fill="#fb8072" stroke="transparent" points="1895.5,-10 1895.5,-30 1915.5,-30 1915.5,-10 1895.5,-10"/>
<text text-anchor="start" x="1919.2258" y="-15.4" font-family="sans-serif" font-size="14.00" fill="#000000"> &#160;Exports</text>
<g id="clust1" class="cluster">
<title>cluster_AdminModule</title>
<polygon fill="none" stroke="#000000" stroke-dasharray="1,5" points="8,-70 8,-195 3467,-195 3467,-70 8,-70"/>
</g>
<g id="clust2" class="cluster">
<title>cluster_AdminModule_declarations</title>
<polygon fill="none" stroke="#000000" points="184,-78 184,-130 3459,-130 3459,-78 184,-78"/>
</g>
<g id="clust21" class="cluster">
<title>cluster_AdminModule_imports</title>
<polygon fill="none" stroke="#000000" points="16,-78 16,-130 176,-130 176,-78 16,-78"/>
</g>
<!-- AdminSideNavComponent -->
<g id="node1" class="node">
<title>AdminSideNavComponent</title>
<polygon fill="#ffffb3" stroke="#000000" points="3451.4297,-122 3282.5703,-122 3282.5703,-86 3451.4297,-86 3451.4297,-122"/>
<text text-anchor="middle" x="3367" y="-99.8" font-family="Times,serif" font-size="14.00" fill="#000000">AdminSideNavComponent</text>
</g>
<!-- AdminModule -->
<g id="node19" class="node">
<title>AdminModule</title>
<polygon fill="#8dd3c7" stroke="#000000" points="1840.4386,-187 1837.4386,-191 1816.4386,-191 1813.4386,-187 1741.5614,-187 1741.5614,-151 1840.4386,-151 1840.4386,-187"/>
<text text-anchor="middle" x="1791" y="-164.8" font-family="Times,serif" font-size="14.00" fill="#000000">AdminModule</text>
</g>
<!-- AdminSideNavComponent&#45;&gt;AdminModule -->
<g id="edge1" class="edge">
<title>AdminSideNavComponent&#45;&gt;AdminModule</title>
<path fill="none" stroke="#000000" d="M3367,-122.1532C3367,-145.7566 3367,-184 3367,-184 3367,-184 1850.3312,-184 1850.3312,-184"/>
<polygon fill="#000000" stroke="#000000" points="1850.3313,-180.5001 1840.3312,-184 1850.3312,-187.5001 1850.3313,-180.5001"/>
</g>
<!-- AdminChannelsComponent -->
<g id="node2" class="node">
<title>AdminChannelsComponent</title>
<polygon fill="#ffffb3" stroke="#000000" points="3265.3215,-122 3092.6785,-122 3092.6785,-86 3265.3215,-86 3265.3215,-122"/>
<text text-anchor="middle" x="3179" y="-99.8" font-family="Times,serif" font-size="14.00" fill="#000000">AdminChannelsComponent</text>
</g>
<!-- AdminChannelsComponent&#45;&gt;AdminModule -->
<g id="edge2" class="edge">
<title>AdminChannelsComponent&#45;&gt;AdminModule</title>
<path fill="none" stroke="#000000" d="M3179,-122.0109C3179,-144.4852 3179,-180 3179,-180 3179,-180 1850.3997,-180 1850.3997,-180"/>
<polygon fill="#000000" stroke="#000000" points="1850.3997,-176.5001 1840.3997,-180 1850.3996,-183.5001 1850.3997,-176.5001"/>
</g>
<!-- DashboardComponent -->
<g id="node3" class="node">
<title>DashboardComponent</title>
<polygon fill="#ffffb3" stroke="#000000" points="3074.9734,-122 2933.0266,-122 2933.0266,-86 3074.9734,-86 3074.9734,-122"/>
<text text-anchor="middle" x="3004" y="-99.8" font-family="Times,serif" font-size="14.00" fill="#000000">DashboardComponent</text>
</g>
<!-- DashboardComponent&#45;&gt;AdminModule -->
<g id="edge3" class="edge">
<title>DashboardComponent&#45;&gt;AdminModule</title>
<path fill="none" stroke="#000000" d="M3004,-122.0449C3004,-143.6623 3004,-177 3004,-177 3004,-177 1850.4323,-177 1850.4323,-177"/>
<polygon fill="#000000" stroke="#000000" points="1850.4323,-173.5001 1840.4323,-177 1850.4322,-180.5001 1850.4323,-173.5001"/>
</g>
<!-- SettingComponent -->
<g id="node4" class="node">
<title>SettingComponent</title>
<polygon fill="#ffffb3" stroke="#000000" points="2915.5014,-122 2794.4986,-122 2794.4986,-86 2915.5014,-86 2915.5014,-122"/>
<text text-anchor="middle" x="2855" y="-99.8" font-family="Times,serif" font-size="14.00" fill="#000000">SettingComponent</text>
</g>
<!-- SettingComponent&#45;&gt;AdminModule -->
<g id="edge4" class="edge">
<title>SettingComponent&#45;&gt;AdminModule</title>
<path fill="none" stroke="#000000" d="M2855,-122.1289C2855,-142.5724 2855,-173 2855,-173 2855,-173 1850.5379,-173 1850.5379,-173"/>
<polygon fill="#000000" stroke="#000000" points="1850.5379,-169.5001 1840.5379,-173 1850.5378,-176.5001 1850.5379,-169.5001"/>
</g>
<!-- BuildServersComponent -->
<g id="node5" class="node">
<title>BuildServersComponent</title>
<polygon fill="#ffffb3" stroke="#000000" points="2776.4284,-122 2621.5716,-122 2621.5716,-86 2776.4284,-86 2776.4284,-122"/>
<text text-anchor="middle" x="2699" y="-99.8" font-family="Times,serif" font-size="14.00" fill="#000000">BuildServersComponent</text>
</g>
<!-- BuildServersComponent&#45;&gt;AdminModule -->
<g id="edge5" class="edge">
<title>BuildServersComponent&#45;&gt;AdminModule</title>
<path fill="none" stroke="#000000" d="M2699,-122.1061C2699,-141.3391 2699,-169 2699,-169 2699,-169 1850.4628,-169 1850.4628,-169"/>
<polygon fill="#000000" stroke="#000000" points="1850.4629,-165.5001 1840.4628,-169 1850.4628,-172.5001 1850.4629,-165.5001"/>
</g>
<!-- AdminComponent -->
<g id="node6" class="node">
<title>AdminComponent</title>
<polygon fill="#ffffb3" stroke="#000000" points="2604.2204,-122 2483.7796,-122 2483.7796,-86 2604.2204,-86 2604.2204,-122"/>
<text text-anchor="middle" x="2544" y="-99.8" font-family="Times,serif" font-size="14.00" fill="#000000">AdminComponent</text>
</g>
<!-- AdminComponent&#45;&gt;AdminModule -->
<g id="edge6" class="edge">
<title>AdminComponent&#45;&gt;AdminModule</title>
<path fill="none" stroke="#000000" d="M2544,-122.2667C2544,-140.5552 2544,-166 2544,-166 2544,-166 1850.4064,-166 1850.4064,-166"/>
<polygon fill="#000000" stroke="#000000" points="1850.4065,-162.5001 1840.4064,-166 1850.4064,-169.5001 1850.4065,-162.5001"/>
</g>
<!-- AdminEntranceComponent -->
<g id="node7" class="node">
<title>AdminEntranceComponent</title>
<polygon fill="#ffffb3" stroke="#000000" points="2465.9678,-122 2296.0322,-122 2296.0322,-86 2465.9678,-86 2465.9678,-122"/>
<text text-anchor="middle" x="2381" y="-99.8" font-family="Times,serif" font-size="14.00" fill="#000000">AdminEntranceComponent</text>
</g>
<!-- AdminEntranceComponent&#45;&gt;AdminModule -->
<g id="edge7" class="edge">
<title>AdminEntranceComponent&#45;&gt;AdminModule</title>
<path fill="none" stroke="#000000" d="M2381,-122.0336C2381,-139.0597 2381,-162 2381,-162 2381,-162 1850.2883,-162 1850.2883,-162"/>
<polygon fill="#000000" stroke="#000000" points="1850.2883,-158.5001 1840.2883,-162 1850.2882,-165.5001 1850.2883,-158.5001"/>
</g>
<!-- AdminEntranceDetailComponent -->
<g id="node8" class="node">
<title>AdminEntranceDetailComponent</title>
<polygon fill="#ffffb3" stroke="#000000" points="2278.1755,-122 2073.8245,-122 2073.8245,-86 2278.1755,-86 2278.1755,-122"/>
<text text-anchor="middle" x="2176" y="-99.8" font-family="Times,serif" font-size="14.00" fill="#000000">AdminEntranceDetailComponent</text>
</g>
<!-- AdminEntranceDetailComponent&#45;&gt;AdminModule -->
<g id="edge8" class="edge">
<title>AdminEntranceDetailComponent&#45;&gt;AdminModule</title>
<path fill="none" stroke="#000000" d="M2176,-122.0091C2176,-138.0494 2176,-159 2176,-159 2176,-159 1850.5438,-159 1850.5438,-159"/>
<polygon fill="#000000" stroke="#000000" points="1850.5439,-155.5001 1840.5438,-159 1850.5438,-162.5001 1850.5439,-155.5001"/>
</g>
<!-- AdminEventComponent -->
<g id="node9" class="node">
<title>AdminEventComponent</title>
<polygon fill="#ffffb3" stroke="#000000" points="2055.378,-122 1902.622,-122 1902.622,-86 2055.378,-86 2055.378,-122"/>
<text text-anchor="middle" x="1979" y="-99.8" font-family="Times,serif" font-size="14.00" fill="#000000">AdminEventComponent</text>
</g>
<!-- AdminEventComponent&#45;&gt;AdminModule -->
<g id="edge9" class="edge">
<title>AdminEventComponent&#45;&gt;AdminModule</title>
<path fill="none" stroke="#000000" d="M1979,-122.1243C1979,-136.7832 1979,-155 1979,-155 1979,-155 1850.3948,-155 1850.3948,-155"/>
<polygon fill="#000000" stroke="#000000" points="1850.3948,-151.5001 1840.3948,-155 1850.3948,-158.5001 1850.3948,-151.5001"/>
</g>
<!-- AdminEventDetailComponent -->
<g id="node10" class="node">
<title>AdminEventDetailComponent</title>
<polygon fill="#ffffb3" stroke="#000000" points="1884.5856,-122 1697.4144,-122 1697.4144,-86 1884.5856,-86 1884.5856,-122"/>
<text text-anchor="middle" x="1791" y="-99.8" font-family="Times,serif" font-size="14.00" fill="#000000">AdminEventDetailComponent</text>
</g>
<!-- AdminEventDetailComponent&#45;&gt;AdminModule -->
<g id="edge10" class="edge">
<title>AdminEventDetailComponent&#45;&gt;AdminModule</title>
<path fill="none" stroke="#000000" d="M1791,-122.1061C1791,-122.1061 1791,-140.991 1791,-140.991"/>
<polygon fill="#000000" stroke="#000000" points="1787.5001,-140.9909 1791,-150.991 1794.5001,-140.991 1787.5001,-140.9909"/>
</g>
<!-- AdminMeetingComponent -->
<g id="node11" class="node">
<title>AdminMeetingComponent</title>
<polygon fill="#ffffb3" stroke="#000000" points="1679.3752,-122 1512.6248,-122 1512.6248,-86 1679.3752,-86 1679.3752,-122"/>
<text text-anchor="middle" x="1596" y="-99.8" font-family="Times,serif" font-size="14.00" fill="#000000">AdminMeetingComponent</text>
</g>
<!-- AdminMeetingComponent&#45;&gt;AdminModule -->
<g id="edge11" class="edge">
<title>AdminMeetingComponent&#45;&gt;AdminModule</title>
<path fill="none" stroke="#000000" d="M1596,-122.1243C1596,-136.7832 1596,-155 1596,-155 1596,-155 1731.5412,-155 1731.5412,-155"/>
<polygon fill="#000000" stroke="#000000" points="1731.5412,-158.5001 1741.5412,-155 1731.5411,-151.5001 1731.5412,-158.5001"/>
</g>
<!-- SupportTicketsComponent -->
<g id="node12" class="node">
<title>SupportTicketsComponent</title>
<polygon fill="#ffffb3" stroke="#000000" points="1494.3738,-122 1327.6262,-122 1327.6262,-86 1494.3738,-86 1494.3738,-122"/>
<text text-anchor="middle" x="1411" y="-99.8" font-family="Times,serif" font-size="14.00" fill="#000000">SupportTicketsComponent</text>
</g>
<!-- SupportTicketsComponent&#45;&gt;AdminModule -->
<g id="edge12" class="edge">
<title>SupportTicketsComponent&#45;&gt;AdminModule</title>
<path fill="none" stroke="#000000" d="M1411,-122.0091C1411,-138.0494 1411,-159 1411,-159 1411,-159 1731.7112,-159 1731.7112,-159"/>
<polygon fill="#000000" stroke="#000000" points="1731.7112,-162.5001 1741.7112,-159 1731.7112,-155.5001 1731.7112,-162.5001"/>
</g>
<!-- ImageUploadComponent -->
<g id="node13" class="node">
<title>ImageUploadComponent</title>
<polygon fill="#ffffb3" stroke="#000000" points="1309.5253,-122 1152.4747,-122 1152.4747,-86 1309.5253,-86 1309.5253,-122"/>
<text text-anchor="middle" x="1231" y="-99.8" font-family="Times,serif" font-size="14.00" fill="#000000">ImageUploadComponent</text>
</g>
<!-- ImageUploadComponent&#45;&gt;AdminModule -->
<g id="edge13" class="edge">
<title>ImageUploadComponent&#45;&gt;AdminModule</title>
<path fill="none" stroke="#000000" d="M1231,-122.0336C1231,-139.0597 1231,-162 1231,-162 1231,-162 1731.3037,-162 1731.3037,-162"/>
<polygon fill="#000000" stroke="#000000" points="1731.3038,-165.5001 1741.3037,-162 1731.3037,-158.5001 1731.3038,-165.5001"/>
</g>
<!-- ImageViewComponent -->
<g id="node14" class="node">
<title>ImageViewComponent</title>
<polygon fill="#ffffb3" stroke="#000000" points="1134.1317,-122 987.8683,-122 987.8683,-86 1134.1317,-86 1134.1317,-122"/>
<text text-anchor="middle" x="1061" y="-99.8" font-family="Times,serif" font-size="14.00" fill="#000000">ImageViewComponent</text>
</g>
<!-- ImageViewComponent&#45;&gt;AdminModule -->
<g id="edge14" class="edge">
<title>ImageViewComponent&#45;&gt;AdminModule</title>
<path fill="none" stroke="#000000" d="M1061,-122.2667C1061,-140.5552 1061,-166 1061,-166 1061,-166 1731.6839,-166 1731.6839,-166"/>
<polygon fill="#000000" stroke="#000000" points="1731.684,-169.5001 1741.6839,-166 1731.6839,-162.5001 1731.684,-169.5001"/>
</g>
<!-- AdminChannelsContentsComponent -->
<g id="node15" class="node">
<title>AdminChannelsContentsComponent</title>
<polygon fill="#ffffb3" stroke="#000000" points="970.0982,-122 747.9018,-122 747.9018,-86 970.0982,-86 970.0982,-122"/>
<text text-anchor="middle" x="859" y="-99.8" font-family="Times,serif" font-size="14.00" fill="#000000">AdminChannelsContentsComponent</text>
</g>
<!-- AdminChannelsContentsComponent&#45;&gt;AdminModule -->
<g id="edge15" class="edge">
<title>AdminChannelsContentsComponent&#45;&gt;AdminModule</title>
<path fill="none" stroke="#000000" d="M859,-122.1061C859,-141.3391 859,-169 859,-169 859,-169 1731.5497,-169 1731.5497,-169"/>
<polygon fill="#000000" stroke="#000000" points="1731.5497,-172.5001 1741.5497,-169 1731.5496,-165.5001 1731.5497,-172.5001"/>
</g>
<!-- SupportContentsComponent -->
<g id="node16" class="node">
<title>SupportContentsComponent</title>
<polygon fill="#ffffb3" stroke="#000000" points="729.9438,-122 554.0562,-122 554.0562,-86 729.9438,-86 729.9438,-122"/>
<text text-anchor="middle" x="642" y="-99.8" font-family="Times,serif" font-size="14.00" fill="#000000">SupportContentsComponent</text>
</g>
<!-- SupportContentsComponent&#45;&gt;AdminModule -->
<g id="edge16" class="edge">
<title>SupportContentsComponent&#45;&gt;AdminModule</title>
<path fill="none" stroke="#000000" d="M642,-122.1289C642,-142.5724 642,-173 642,-173 642,-173 1731.6289,-173 1731.6289,-173"/>
<polygon fill="#000000" stroke="#000000" points="1731.6289,-176.5001 1741.6289,-173 1731.6289,-169.5001 1731.6289,-176.5001"/>
</g>
<!-- ChannelContentComponent -->
<g id="node17" class="node">
<title>ChannelContentComponent</title>
<polygon fill="#ffffb3" stroke="#000000" points="536.3215,-122 363.6785,-122 363.6785,-86 536.3215,-86 536.3215,-122"/>
<text text-anchor="middle" x="450" y="-99.8" font-family="Times,serif" font-size="14.00" fill="#000000">ChannelContentComponent</text>
</g>
<!-- ChannelContentComponent&#45;&gt;AdminModule -->
<g id="edge17" class="edge">
<title>ChannelContentComponent&#45;&gt;AdminModule</title>
<path fill="none" stroke="#000000" d="M450,-122.0449C450,-143.6623 450,-177 450,-177 450,-177 1731.6827,-177 1731.6827,-177"/>
<polygon fill="#000000" stroke="#000000" points="1731.6828,-180.5001 1741.6827,-177 1731.6827,-173.5001 1731.6828,-180.5001"/>
</g>
<!-- ChannelNewComponent -->
<g id="node18" class="node">
<title>ChannelNewComponent</title>
<polygon fill="#ffffb3" stroke="#000000" points="346.4172,-122 191.5828,-122 191.5828,-86 346.4172,-86 346.4172,-122"/>
<text text-anchor="middle" x="269" y="-99.8" font-family="Times,serif" font-size="14.00" fill="#000000">ChannelNewComponent</text>
</g>
<!-- ChannelNewComponent&#45;&gt;AdminModule -->
<g id="edge18" class="edge">
<title>ChannelNewComponent&#45;&gt;AdminModule</title>
<path fill="none" stroke="#000000" d="M269,-122.0109C269,-144.4852 269,-180 269,-180 269,-180 1731.6557,-180 1731.6557,-180"/>
<polygon fill="#000000" stroke="#000000" points="1731.6558,-183.5001 1741.6557,-180 1731.6557,-176.5001 1731.6558,-183.5001"/>
</g>
<!-- AdminRoutingModule -->
<g id="node20" class="node">
<title>AdminRoutingModule</title>
<polygon fill="#8dd3c7" stroke="#000000" points="167.5561,-122 164.5561,-126 143.5561,-126 140.5561,-122 24.4439,-122 24.4439,-86 167.5561,-86 167.5561,-122"/>
<text text-anchor="middle" x="96" y="-99.8" font-family="Times,serif" font-size="14.00" fill="#000000">AdminRoutingModule</text>
</g>
<!-- AdminRoutingModule&#45;&gt;AdminModule -->
<g id="edge19" class="edge">
<title>AdminRoutingModule&#45;&gt;AdminModule</title>
<path fill="none" stroke="#000000" d="M96,-122.1532C96,-145.7566 96,-184 96,-184 96,-184 1731.6458,-184 1731.6458,-184"/>
<polygon fill="#000000" stroke="#000000" points="1731.6459,-187.5001 1741.6458,-184 1731.6458,-180.5001 1731.6459,-187.5001"/>
</g>
</g>
</svg>
