<?xml version="1.0" encoding="UTF-8" standalone="no"?>
<!DOCTYPE svg PUBLIC "-//W3C//DTD SVG 1.1//EN"
 "http://www.w3.org/Graphics/SVG/1.1/DTD/svg11.dtd">
<!-- Generated by graphviz version 2.40.1 (20161225.0304)
 -->
<!-- Title: dependencies Pages: 1 -->
<svg width="3233pt" height="211pt"
 viewBox="0.00 0.00 3233.00 211.00" xmlns="http://www.w3.org/2000/svg" xmlns:xlink="http://www.w3.org/1999/xlink">
<g id="graph0" class="graph" transform="scale(1 1) rotate(0) translate(4 207)">
<title>dependencies</title>
<polygon fill="#ffffff" stroke="transparent" points="-4,4 -4,-207 3229,-207 3229,4 -4,4"/>
<text text-anchor="start" x="1591.5091" y="-42.4" font-family="sans-serif" font-weight="bold" font-size="14.00" fill="#000000">Legend</text>
<polygon fill="#ffffb3" stroke="transparent" points="1378.5,-10 1378.5,-30 1398.5,-30 1398.5,-10 1378.5,-10"/>
<text text-anchor="start" x="1402.129" y="-15.4" font-family="sans-serif" font-size="14.00" fill="#000000"> &#160;Declarations</text>
<polygon fill="#8dd3c7" stroke="transparent" points="1491.5,-10 1491.5,-30 1511.5,-30 1511.5,-10 1491.5,-10"/>
<text text-anchor="start" x="1515.2251" y="-15.4" font-family="sans-serif" font-size="14.00" fill="#000000"> &#160;Module</text>
<polygon fill="#80b1d3" stroke="transparent" points="1577.5,-10 1577.5,-30 1597.5,-30 1597.5,-10 1577.5,-10"/>
<text text-anchor="start" x="1601.2812" y="-15.4" font-family="sans-serif" font-size="14.00" fill="#000000"> &#160;Bootstrap</text>
<polygon fill="#fdb462" stroke="transparent" points="1674.5,-10 1674.5,-30 1694.5,-30 1694.5,-10 1674.5,-10"/>
<text text-anchor="start" x="1698.1732" y="-15.4" font-family="sans-serif" font-size="14.00" fill="#000000"> &#160;Providers</text>
<polygon fill="#fb8072" stroke="transparent" points="1770.5,-10 1770.5,-30 1790.5,-30 1790.5,-10 1770.5,-10"/>
<text text-anchor="start" x="1794.2258" y="-15.4" font-family="sans-serif" font-size="14.00" fill="#000000"> &#160;Exports</text>
<g id="clust1" class="cluster">
<title>cluster_AdminModule</title>
<polygon fill="none" stroke="#000000" stroke-dasharray="1,5" points="8,-70 8,-195 3217,-195 3217,-70 8,-70"/>
</g>
<g id="clust2" class="cluster">
<title>cluster_AdminModule_declarations</title>
<polygon fill="none" stroke="#000000" points="184,-78 184,-130 3209,-130 3209,-78 184,-78"/>
</g>
<g id="clust20" class="cluster">
<title>cluster_AdminModule_imports</title>
<polygon fill="none" stroke="#000000" points="16,-78 16,-130 176,-130 176,-78 16,-78"/>
</g>
<!-- AdminSideNavComponent -->
<g id="node1" class="node">
<title>AdminSideNavComponent</title>
<polygon fill="#ffffb3" stroke="#000000" points="3201.4297,-122 3032.5703,-122 3032.5703,-86 3201.4297,-86 3201.4297,-122"/>
<text text-anchor="middle" x="3117" y="-99.8" font-family="Times,serif" font-size="14.00" fill="#000000">AdminSideNavComponent</text>
</g>
<!-- AdminModule -->
<g id="node18" class="node">
<title>AdminModule</title>
<polygon fill="#8dd3c7" stroke="#000000" points="1667.4386,-187 1664.4386,-191 1643.4386,-191 1640.4386,-187 1568.5614,-187 1568.5614,-151 1667.4386,-151 1667.4386,-187"/>
<text text-anchor="middle" x="1618" y="-164.8" font-family="Times,serif" font-size="14.00" fill="#000000">AdminModule</text>
</g>
<!-- AdminSideNavComponent&#45;&gt;AdminModule -->
<g id="edge1" class="edge">
<title>AdminSideNavComponent&#45;&gt;AdminModule</title>
<path fill="none" stroke="#000000" d="M3117,-122.3228C3117,-145.6602 3117,-183 3117,-183 3117,-183 1677.4475,-183 1677.4475,-183"/>
<polygon fill="#000000" stroke="#000000" points="1677.4475,-179.5001 1667.4475,-183 1677.4474,-186.5001 1677.4475,-179.5001"/>
</g>
<!-- AdminChannelsComponent -->
<g id="node2" class="node">
<title>AdminChannelsComponent</title>
<polygon fill="#ffffb3" stroke="#000000" points="3015.3215,-122 2842.6785,-122 2842.6785,-86 3015.3215,-86 3015.3215,-122"/>
<text text-anchor="middle" x="2929" y="-99.8" font-family="Times,serif" font-size="14.00" fill="#000000">AdminChannelsComponent</text>
</g>
<!-- AdminChannelsComponent&#45;&gt;AdminModule -->
<g id="edge2" class="edge">
<title>AdminChannelsComponent&#45;&gt;AdminModule</title>
<path fill="none" stroke="#000000" d="M2929,-122.1554C2929,-144.3519 2929,-179 2929,-179 2929,-179 1677.3953,-179 1677.3953,-179"/>
<polygon fill="#000000" stroke="#000000" points="1677.3953,-175.5001 1667.3953,-179 1677.3952,-182.5001 1677.3953,-175.5001"/>
</g>
<!-- DashboardComponent -->
<g id="node3" class="node">
<title>DashboardComponent</title>
<polygon fill="#ffffb3" stroke="#000000" points="2824.9734,-122 2683.0266,-122 2683.0266,-86 2824.9734,-86 2824.9734,-122"/>
<text text-anchor="middle" x="2754" y="-99.8" font-family="Times,serif" font-size="14.00" fill="#000000">DashboardComponent</text>
</g>
<!-- DashboardComponent&#45;&gt;AdminModule -->
<g id="edge3" class="edge">
<title>DashboardComponent&#45;&gt;AdminModule</title>
<path fill="none" stroke="#000000" d="M2754,-122.2843C2754,-143.3211 2754,-175 2754,-175 2754,-175 1677.543,-175 1677.543,-175"/>
<polygon fill="#000000" stroke="#000000" points="1677.543,-171.5001 1667.543,-175 1677.5429,-178.5001 1677.543,-171.5001"/>
</g>
<!-- SettingComponent -->
<g id="node4" class="node">
<title>SettingComponent</title>
<polygon fill="#ffffb3" stroke="#000000" points="2665.5014,-122 2544.4986,-122 2544.4986,-86 2665.5014,-86 2665.5014,-122"/>
<text text-anchor="middle" x="2605" y="-99.8" font-family="Times,serif" font-size="14.00" fill="#000000">SettingComponent</text>
</g>
<!-- SettingComponent&#45;&gt;AdminModule -->
<g id="edge4" class="edge">
<title>SettingComponent&#45;&gt;AdminModule</title>
<path fill="none" stroke="#000000" d="M2605,-122.308C2605,-142.1455 2605,-171 2605,-171 2605,-171 1677.2832,-171 1677.2832,-171"/>
<polygon fill="#000000" stroke="#000000" points="1677.2832,-167.5001 1667.2832,-171 1677.2831,-174.5001 1677.2832,-167.5001"/>
</g>
<!-- AdminComponent -->
<g id="node5" class="node">
<title>AdminComponent</title>
<polygon fill="#ffffb3" stroke="#000000" points="2526.2204,-122 2405.7796,-122 2405.7796,-86 2526.2204,-86 2526.2204,-122"/>
<text text-anchor="middle" x="2466" y="-99.8" font-family="Times,serif" font-size="14.00" fill="#000000">AdminComponent</text>
</g>
<!-- AdminComponent&#45;&gt;AdminModule -->
<g id="edge5" class="edge">
<title>AdminComponent&#45;&gt;AdminModule</title>
<path fill="none" stroke="#000000" d="M2466,-122.2222C2466,-140.8285 2466,-167 2466,-167 2466,-167 1677.2574,-167 1677.2574,-167"/>
<polygon fill="#000000" stroke="#000000" points="1677.2575,-163.5001 1667.2574,-167 1677.2574,-170.5001 1677.2575,-163.5001"/>
</g>
<!-- AdminEntranceComponent -->
<g id="node6" class="node">
<title>AdminEntranceComponent</title>
<polygon fill="#ffffb3" stroke="#000000" points="2387.9678,-122 2218.0322,-122 2218.0322,-86 2387.9678,-86 2387.9678,-122"/>
<text text-anchor="middle" x="2303" y="-99.8" font-family="Times,serif" font-size="14.00" fill="#000000">AdminEntranceComponent</text>
</g>
<!-- AdminEntranceComponent&#45;&gt;AdminModule -->
<g id="edge6" class="edge">
<title>AdminEntranceComponent&#45;&gt;AdminModule</title>
<path fill="none" stroke="#000000" d="M2303,-122.0225C2303,-139.3734 2303,-163 2303,-163 2303,-163 1677.2635,-163 1677.2635,-163"/>
<polygon fill="#000000" stroke="#000000" points="1677.2635,-159.5001 1667.2635,-163 1677.2635,-166.5001 1677.2635,-159.5001"/>
</g>
<!-- AdminEntranceDetailComponent -->
<g id="node7" class="node">
<title>AdminEntranceDetailComponent</title>
<polygon fill="#ffffb3" stroke="#000000" points="2200.1755,-122 1995.8245,-122 1995.8245,-86 2200.1755,-86 2200.1755,-122"/>
<text text-anchor="middle" x="2098" y="-99.8" font-family="Times,serif" font-size="14.00" fill="#000000">AdminEntranceDetailComponent</text>
</g>
<!-- AdminEntranceDetailComponent&#45;&gt;AdminModule -->
<g id="edge7" class="edge">
<title>AdminEntranceDetailComponent&#45;&gt;AdminModule</title>
<path fill="none" stroke="#000000" d="M2098,-122.0091C2098,-138.0494 2098,-159 2098,-159 2098,-159 1677.5605,-159 1677.5605,-159"/>
<polygon fill="#000000" stroke="#000000" points="1677.5606,-155.5001 1667.5605,-159 1677.5605,-162.5001 1677.5606,-155.5001"/>
</g>
<!-- AdminEventComponent -->
<g id="node8" class="node">
<title>AdminEventComponent</title>
<polygon fill="#ffffb3" stroke="#000000" points="1977.378,-122 1824.622,-122 1824.622,-86 1977.378,-86 1977.378,-122"/>
<text text-anchor="middle" x="1901" y="-99.8" font-family="Times,serif" font-size="14.00" fill="#000000">AdminEventComponent</text>
</g>
<!-- AdminEventComponent&#45;&gt;AdminModule -->
<g id="edge8" class="edge">
<title>AdminEventComponent&#45;&gt;AdminModule</title>
<path fill="none" stroke="#000000" d="M1901,-122.1243C1901,-136.7832 1901,-155 1901,-155 1901,-155 1677.2948,-155 1677.2948,-155"/>
<polygon fill="#000000" stroke="#000000" points="1677.2949,-151.5001 1667.2948,-155 1677.2948,-158.5001 1677.2949,-151.5001"/>
</g>
<!-- AdminEventDetailComponent -->
<g id="node9" class="node">
<title>AdminEventDetailComponent</title>
<polygon fill="#ffffb3" stroke="#000000" points="1806.5856,-122 1619.4144,-122 1619.4144,-86 1806.5856,-86 1806.5856,-122"/>
<text text-anchor="middle" x="1713" y="-99.8" font-family="Times,serif" font-size="14.00" fill="#000000">AdminEventDetailComponent</text>
</g>
<!-- AdminEventDetailComponent&#45;&gt;AdminModule -->
<g id="edge9" class="edge">
<title>AdminEventDetailComponent&#45;&gt;AdminModule</title>
<path fill="none" stroke="#000000" d="M1643.338,-122.1061C1643.338,-122.1061 1643.338,-140.991 1643.338,-140.991"/>
<polygon fill="#000000" stroke="#000000" points="1639.8381,-140.9909 1643.338,-150.991 1646.8381,-140.991 1639.8381,-140.9909"/>
</g>
<!-- ImageUploadComponent -->
<g id="node10" class="node">
<title>ImageUploadComponent</title>
<polygon fill="#ffffb3" stroke="#000000" points="1601.5253,-122 1444.4747,-122 1444.4747,-86 1601.5253,-86 1601.5253,-122"/>
<text text-anchor="middle" x="1523" y="-99.8" font-family="Times,serif" font-size="14.00" fill="#000000">ImageUploadComponent</text>
</g>
<!-- ImageUploadComponent&#45;&gt;AdminModule -->
<g id="edge10" class="edge">
<title>ImageUploadComponent&#45;&gt;AdminModule</title>
<path fill="none" stroke="#000000" d="M1585.2717,-122.1061C1585.2717,-122.1061 1585.2717,-140.991 1585.2717,-140.991"/>
<polygon fill="#000000" stroke="#000000" points="1581.7718,-140.9909 1585.2717,-150.991 1588.7718,-140.991 1581.7718,-140.9909"/>
</g>
<!-- ImageViewComponent -->
<g id="node11" class="node">
<title>ImageViewComponent</title>
<polygon fill="#ffffb3" stroke="#000000" points="1426.1317,-122 1279.8683,-122 1279.8683,-86 1426.1317,-86 1426.1317,-122"/>
<text text-anchor="middle" x="1353" y="-99.8" font-family="Times,serif" font-size="14.00" fill="#000000">ImageViewComponent</text>
</g>
<!-- ImageViewComponent&#45;&gt;AdminModule -->
<g id="edge11" class="edge">
<title>ImageViewComponent&#45;&gt;AdminModule</title>
<path fill="none" stroke="#000000" d="M1353,-122.1243C1353,-136.7832 1353,-155 1353,-155 1353,-155 1558.7766,-155 1558.7766,-155"/>
<polygon fill="#000000" stroke="#000000" points="1558.7766,-158.5001 1568.7766,-155 1558.7765,-151.5001 1558.7766,-158.5001"/>
</g>
<!-- AdminChannelsContentsComponent -->
<g id="node12" class="node">
<title>AdminChannelsContentsComponent</title>
<polygon fill="#ffffb3" stroke="#000000" points="1262.0982,-122 1039.9018,-122 1039.9018,-86 1262.0982,-86 1262.0982,-122"/>
<text text-anchor="middle" x="1151" y="-99.8" font-family="Times,serif" font-size="14.00" fill="#000000">AdminChannelsContentsComponent</text>
</g>
<!-- AdminChannelsContentsComponent&#45;&gt;AdminModule -->
<g id="edge12" class="edge">
<title>AdminChannelsContentsComponent&#45;&gt;AdminModule</title>
<path fill="none" stroke="#000000" d="M1151,-122.0091C1151,-138.0494 1151,-159 1151,-159 1151,-159 1558.4649,-159 1558.4649,-159"/>
<polygon fill="#000000" stroke="#000000" points="1558.465,-162.5001 1568.4649,-159 1558.4649,-155.5001 1558.465,-162.5001"/>
</g>
<!-- ChannelContentComponent -->
<g id="node13" class="node">
<title>ChannelContentComponent</title>
<polygon fill="#ffffb3" stroke="#000000" points="1022.3215,-122 849.6785,-122 849.6785,-86 1022.3215,-86 1022.3215,-122"/>
<text text-anchor="middle" x="936" y="-99.8" font-family="Times,serif" font-size="14.00" fill="#000000">ChannelContentComponent</text>
</g>
<!-- ChannelContentComponent&#45;&gt;AdminModule -->
<g id="edge13" class="edge">
<title>ChannelContentComponent&#45;&gt;AdminModule</title>
<path fill="none" stroke="#000000" d="M936,-122.0225C936,-139.3734 936,-163 936,-163 936,-163 1558.6779,-163 1558.6779,-163"/>
<polygon fill="#000000" stroke="#000000" points="1558.6779,-166.5001 1568.6779,-163 1558.6779,-159.5001 1558.6779,-166.5001"/>
</g>
<!-- ChannelNewComponent -->
<g id="node14" class="node">
<title>ChannelNewComponent</title>
<polygon fill="#ffffb3" stroke="#000000" points="832.4172,-122 677.5828,-122 677.5828,-86 832.4172,-86 832.4172,-122"/>
<text text-anchor="middle" x="755" y="-99.8" font-family="Times,serif" font-size="14.00" fill="#000000">ChannelNewComponent</text>
</g>
<!-- ChannelNewComponent&#45;&gt;AdminModule -->
<g id="edge14" class="edge">
<title>ChannelNewComponent&#45;&gt;AdminModule</title>
<path fill="none" stroke="#000000" d="M755,-122.2222C755,-140.8285 755,-167 755,-167 755,-167 1558.5017,-167 1558.5017,-167"/>
<polygon fill="#000000" stroke="#000000" points="1558.5018,-170.5001 1568.5017,-167 1558.5017,-163.5001 1558.5018,-170.5001"/>
</g>
<!-- ListingComponentsComponent -->
<g id="node15" class="node">
<title>ListingComponentsComponent</title>
<polygon fill="#ffffb3" stroke="#000000" points="659.7785,-122 468.2215,-122 468.2215,-86 659.7785,-86 659.7785,-122"/>
<text text-anchor="middle" x="564" y="-99.8" font-family="Times,serif" font-size="14.00" fill="#000000">ListingComponentsComponent</text>
</g>
<!-- ListingComponentsComponent&#45;&gt;AdminModule -->
<g id="edge15" class="edge">
<title>ListingComponentsComponent&#45;&gt;AdminModule</title>
<path fill="none" stroke="#000000" d="M564,-122.308C564,-142.1455 564,-171 564,-171 564,-171 1558.5771,-171 1558.5771,-171"/>
<polygon fill="#000000" stroke="#000000" points="1558.5771,-174.5001 1568.5771,-171 1558.5771,-167.5001 1558.5771,-174.5001"/>
</g>
<!-- UpdateComponent -->
<g id="node16" class="node">
<title>UpdateComponent</title>
<polygon fill="#ffffb3" stroke="#000000" points="449.759,-122 328.241,-122 328.241,-86 449.759,-86 449.759,-122"/>
<text text-anchor="middle" x="389" y="-99.8" font-family="Times,serif" font-size="14.00" fill="#000000">UpdateComponent</text>
</g>
<!-- UpdateComponent&#45;&gt;AdminModule -->
<g id="edge16" class="edge">
<title>UpdateComponent&#45;&gt;AdminModule</title>
<path fill="none" stroke="#000000" d="M389,-122.2843C389,-143.3211 389,-175 389,-175 389,-175 1558.6821,-175 1558.6821,-175"/>
<polygon fill="#000000" stroke="#000000" points="1558.6822,-178.5001 1568.6821,-175 1558.6821,-171.5001 1558.6822,-178.5001"/>
</g>
<!-- CreateComponent -->
<g id="node17" class="node">
<title>CreateComponent</title>
<polygon fill="#ffffb3" stroke="#000000" points="309.8641,-122 192.1359,-122 192.1359,-86 309.8641,-86 309.8641,-122"/>
<text text-anchor="middle" x="251" y="-99.8" font-family="Times,serif" font-size="14.00" fill="#000000">CreateComponent</text>
</g>
<!-- CreateComponent&#45;&gt;AdminModule -->
<g id="edge17" class="edge">
<title>CreateComponent&#45;&gt;AdminModule</title>
<path fill="none" stroke="#000000" d="M251,-122.1554C251,-144.3519 251,-179 251,-179 251,-179 1558.5402,-179 1558.5402,-179"/>
<polygon fill="#000000" stroke="#000000" points="1558.5402,-182.5001 1568.5402,-179 1558.5401,-175.5001 1558.5402,-182.5001"/>
</g>
<!-- AdminRoutingModule -->
<g id="node19" class="node">
<title>AdminRoutingModule</title>
<polygon fill="#8dd3c7" stroke="#000000" points="167.5561,-122 164.5561,-126 143.5561,-126 140.5561,-122 24.4439,-122 24.4439,-86 167.5561,-86 167.5561,-122"/>
<text text-anchor="middle" x="96" y="-99.8" font-family="Times,serif" font-size="14.00" fill="#000000">AdminRoutingModule</text>
</g>
<!-- AdminRoutingModule&#45;&gt;AdminModule -->
<g id="edge18" class="edge">
<title>AdminRoutingModule&#45;&gt;AdminModule</title>
<path fill="none" stroke="#000000" d="M96,-122.3228C96,-145.6602 96,-183 96,-183 96,-183 1558.6557,-183 1558.6557,-183"/>
<polygon fill="#000000" stroke="#000000" points="1558.6558,-186.5001 1568.6557,-183 1558.6557,-179.5001 1558.6558,-186.5001"/>
</g>
</g>
</svg>
