<?xml version="1.0" encoding="UTF-8" standalone="no"?>
<!DOCTYPE svg PUBLIC "-//W3C//DTD SVG 1.1//EN"
 "http://www.w3.org/Graphics/SVG/1.1/DTD/svg11.dtd">
<!-- Generated by graphviz version 2.40.1 (20161225.0304)
 -->
<!-- Title: dependencies Pages: 1 -->
<svg width="3775pt" height="211pt"
 viewBox="0.00 0.00 3775.00 211.00" xmlns="http://www.w3.org/2000/svg" xmlns:xlink="http://www.w3.org/1999/xlink">
<g id="graph0" class="graph" transform="scale(1 1) rotate(0) translate(4 207)">
<title>dependencies</title>
<polygon fill="#ffffff" stroke="transparent" points="-4,4 -4,-207 3771,-207 3771,4 -4,4"/>
<text text-anchor="start" x="1862.5091" y="-42.4" font-family="sans-serif" font-weight="bold" font-size="14.00" fill="#000000">Legend</text>
<polygon fill="#ffffb3" stroke="transparent" points="1649.5,-10 1649.5,-30 1669.5,-30 1669.5,-10 1649.5,-10"/>
<text text-anchor="start" x="1673.129" y="-15.4" font-family="sans-serif" font-size="14.00" fill="#000000"> &#160;Declarations</text>
<polygon fill="#8dd3c7" stroke="transparent" points="1762.5,-10 1762.5,-30 1782.5,-30 1782.5,-10 1762.5,-10"/>
<text text-anchor="start" x="1786.2251" y="-15.4" font-family="sans-serif" font-size="14.00" fill="#000000"> &#160;Module</text>
<polygon fill="#80b1d3" stroke="transparent" points="1848.5,-10 1848.5,-30 1868.5,-30 1868.5,-10 1848.5,-10"/>
<text text-anchor="start" x="1872.2812" y="-15.4" font-family="sans-serif" font-size="14.00" fill="#000000"> &#160;Bootstrap</text>
<polygon fill="#fdb462" stroke="transparent" points="1945.5,-10 1945.5,-30 1965.5,-30 1965.5,-10 1945.5,-10"/>
<text text-anchor="start" x="1969.1732" y="-15.4" font-family="sans-serif" font-size="14.00" fill="#000000"> &#160;Providers</text>
<polygon fill="#fb8072" stroke="transparent" points="2041.5,-10 2041.5,-30 2061.5,-30 2061.5,-10 2041.5,-10"/>
<text text-anchor="start" x="2065.2258" y="-15.4" font-family="sans-serif" font-size="14.00" fill="#000000"> &#160;Exports</text>
<g id="clust1" class="cluster">
<title>cluster_AdminModule</title>
<polygon fill="none" stroke="#000000" stroke-dasharray="1,5" points="8,-70 8,-195 3759,-195 3759,-70 8,-70"/>
</g>
<g id="clust2" class="cluster">
<title>cluster_AdminModule_declarations</title>
<polygon fill="none" stroke="#000000" points="184,-78 184,-130 3751,-130 3751,-78 184,-78"/>
</g>
<g id="clust23" class="cluster">
<title>cluster_AdminModule_imports</title>
<polygon fill="none" stroke="#000000" points="16,-78 16,-130 176,-130 176,-78 16,-78"/>
</g>
<!-- AdminSideNavComponent -->
<g id="node1" class="node">
<title>AdminSideNavComponent</title>
<polygon fill="#ffffb3" stroke="#000000" points="3743.4297,-122 3574.5703,-122 3574.5703,-86 3743.4297,-86 3743.4297,-122"/>
<text text-anchor="middle" x="3659" y="-99.8" font-family="Times,serif" font-size="14.00" fill="#000000">AdminSideNavComponent</text>
</g>
<!-- AdminModule -->
<g id="node21" class="node">
<title>AdminModule</title>
<polygon fill="#8dd3c7" stroke="#000000" points="1937.4386,-187 1934.4386,-191 1913.4386,-191 1910.4386,-187 1838.5614,-187 1838.5614,-151 1937.4386,-151 1937.4386,-187"/>
<text text-anchor="middle" x="1888" y="-164.8" font-family="Times,serif" font-size="14.00" fill="#000000">AdminModule</text>
</g>
<!-- AdminSideNavComponent&#45;&gt;AdminModule -->
<g id="edge1" class="edge">
<title>AdminSideNavComponent&#45;&gt;AdminModule</title>
<path fill="none" stroke="#000000" d="M3659,-122.1532C3659,-145.7566 3659,-184 3659,-184 3659,-184 1947.6814,-184 1947.6814,-184"/>
<polygon fill="#000000" stroke="#000000" points="1947.6815,-180.5001 1937.6814,-184 1947.6814,-187.5001 1947.6815,-180.5001"/>
</g>
<!-- AdminChannelsComponent -->
<g id="node2" class="node">
<title>AdminChannelsComponent</title>
<polygon fill="#ffffb3" stroke="#000000" points="3557.3215,-122 3384.6785,-122 3384.6785,-86 3557.3215,-86 3557.3215,-122"/>
<text text-anchor="middle" x="3471" y="-99.8" font-family="Times,serif" font-size="14.00" fill="#000000">AdminChannelsComponent</text>
</g>
<!-- AdminChannelsComponent&#45;&gt;AdminModule -->
<g id="edge2" class="edge">
<title>AdminChannelsComponent&#45;&gt;AdminModule</title>
<path fill="none" stroke="#000000" d="M3471,-122.2479C3471,-145.0179 3471,-181 3471,-181 3471,-181 1947.5503,-181 1947.5503,-181"/>
<polygon fill="#000000" stroke="#000000" points="1947.5504,-177.5001 1937.5503,-181 1947.5503,-184.5001 1947.5504,-177.5001"/>
</g>
<!-- DashboardComponent -->
<g id="node3" class="node">
<title>DashboardComponent</title>
<polygon fill="#ffffb3" stroke="#000000" points="3366.9734,-122 3225.0266,-122 3225.0266,-86 3366.9734,-86 3366.9734,-122"/>
<text text-anchor="middle" x="3296" y="-99.8" font-family="Times,serif" font-size="14.00" fill="#000000">DashboardComponent</text>
</g>
<!-- DashboardComponent&#45;&gt;AdminModule -->
<g id="edge3" class="edge">
<title>DashboardComponent&#45;&gt;AdminModule</title>
<path fill="none" stroke="#000000" d="M3296,-122.2921C3296,-144.2057 3296,-178 3296,-178 3296,-178 1947.2859,-178 1947.2859,-178"/>
<polygon fill="#000000" stroke="#000000" points="1947.2859,-174.5001 1937.2859,-178 1947.2858,-181.5001 1947.2859,-174.5001"/>
</g>
<!-- SettingComponent -->
<g id="node4" class="node">
<title>SettingComponent</title>
<polygon fill="#ffffb3" stroke="#000000" points="3207.5014,-122 3086.4986,-122 3086.4986,-86 3207.5014,-86 3207.5014,-122"/>
<text text-anchor="middle" x="3147" y="-99.8" font-family="Times,serif" font-size="14.00" fill="#000000">SettingComponent</text>
</g>
<!-- SettingComponent&#45;&gt;AdminModule -->
<g id="edge4" class="edge">
<title>SettingComponent&#45;&gt;AdminModule</title>
<path fill="none" stroke="#000000" d="M3147,-122.0267C3147,-142.7672 3147,-174 3147,-174 3147,-174 1947.3543,-174 1947.3543,-174"/>
<polygon fill="#000000" stroke="#000000" points="1947.3543,-170.5001 1937.3543,-174 1947.3543,-177.5001 1947.3543,-170.5001"/>
</g>
<!-- BuildServersComponent -->
<g id="node5" class="node">
<title>BuildServersComponent</title>
<polygon fill="#ffffb3" stroke="#000000" points="3068.4284,-122 2913.5716,-122 2913.5716,-86 3068.4284,-86 3068.4284,-122"/>
<text text-anchor="middle" x="2991" y="-99.8" font-family="Times,serif" font-size="14.00" fill="#000000">BuildServersComponent</text>
</g>
<!-- BuildServersComponent&#45;&gt;AdminModule -->
<g id="edge5" class="edge">
<title>BuildServersComponent&#45;&gt;AdminModule</title>
<path fill="none" stroke="#000000" d="M2991,-122.308C2991,-142.1455 2991,-171 2991,-171 2991,-171 1947.5364,-171 1947.5364,-171"/>
<polygon fill="#000000" stroke="#000000" points="1947.5364,-167.5001 1937.5364,-171 1947.5364,-174.5001 1947.5364,-167.5001"/>
</g>
<!-- AdminComponent -->
<g id="node6" class="node">
<title>AdminComponent</title>
<polygon fill="#ffffb3" stroke="#000000" points="2896.2204,-122 2775.7796,-122 2775.7796,-86 2896.2204,-86 2896.2204,-122"/>
<text text-anchor="middle" x="2836" y="-99.8" font-family="Times,serif" font-size="14.00" fill="#000000">AdminComponent</text>
</g>
<!-- AdminComponent&#45;&gt;AdminModule -->
<g id="edge6" class="edge">
<title>AdminComponent&#45;&gt;AdminModule</title>
<path fill="none" stroke="#000000" d="M2836,-122.1686C2836,-141.0898 2836,-168 2836,-168 2836,-168 1947.3026,-168 1947.3026,-168"/>
<polygon fill="#000000" stroke="#000000" points="1947.3026,-164.5001 1937.3026,-168 1947.3026,-171.5001 1947.3026,-164.5001"/>
</g>
<!-- AdminEntranceComponent -->
<g id="node7" class="node">
<title>AdminEntranceComponent</title>
<polygon fill="#ffffb3" stroke="#000000" points="2757.9678,-122 2588.0322,-122 2588.0322,-86 2757.9678,-86 2757.9678,-122"/>
<text text-anchor="middle" x="2673" y="-99.8" font-family="Times,serif" font-size="14.00" fill="#000000">AdminEntranceComponent</text>
</g>
<!-- AdminEntranceComponent&#45;&gt;AdminModule -->
<g id="edge7" class="edge">
<title>AdminEntranceComponent&#45;&gt;AdminModule</title>
<path fill="none" stroke="#000000" d="M2673,-122.302C2673,-140.2699 2673,-165 2673,-165 2673,-165 1947.4026,-165 1947.4026,-165"/>
<polygon fill="#000000" stroke="#000000" points="1947.4027,-161.5001 1937.4026,-165 1947.4026,-168.5001 1947.4027,-161.5001"/>
</g>
<!-- AdminEntranceDetailComponent -->
<g id="node8" class="node">
<title>AdminEntranceDetailComponent</title>
<polygon fill="#ffffb3" stroke="#000000" points="2570.1755,-122 2365.8245,-122 2365.8245,-86 2570.1755,-86 2570.1755,-122"/>
<text text-anchor="middle" x="2468" y="-99.8" font-family="Times,serif" font-size="14.00" fill="#000000">AdminEntranceDetailComponent</text>
</g>
<!-- AdminEntranceDetailComponent&#45;&gt;AdminModule -->
<g id="edge8" class="edge">
<title>AdminEntranceDetailComponent&#45;&gt;AdminModule</title>
<path fill="none" stroke="#000000" d="M2468,-122.0352C2468,-138.7344 2468,-161 2468,-161 2468,-161 1947.4505,-161 1947.4505,-161"/>
<polygon fill="#000000" stroke="#000000" points="1947.4505,-157.5001 1937.4505,-161 1947.4504,-164.5001 1947.4505,-157.5001"/>
</g>
<!-- AdminEventComponent -->
<g id="node9" class="node">
<title>AdminEventComponent</title>
<polygon fill="#ffffb3" stroke="#000000" points="2347.378,-122 2194.622,-122 2194.622,-86 2347.378,-86 2347.378,-122"/>
<text text-anchor="middle" x="2271" y="-99.8" font-family="Times,serif" font-size="14.00" fill="#000000">AdminEventComponent</text>
</g>
<!-- AdminEventComponent&#45;&gt;AdminModule -->
<g id="edge9" class="edge">
<title>AdminEventComponent&#45;&gt;AdminModule</title>
<path fill="none" stroke="#000000" d="M2271,-122.2819C2271,-137.9478 2271,-158 2271,-158 2271,-158 1947.2865,-158 1947.2865,-158"/>
<polygon fill="#000000" stroke="#000000" points="1947.2865,-154.5001 1937.2865,-158 1947.2864,-161.5001 1947.2865,-154.5001"/>
</g>
<!-- AdminEventDetailComponent -->
<g id="node10" class="node">
<title>AdminEventDetailComponent</title>
<polygon fill="#ffffb3" stroke="#000000" points="2176.5856,-122 1989.4144,-122 1989.4144,-86 2176.5856,-86 2176.5856,-122"/>
<text text-anchor="middle" x="2083" y="-99.8" font-family="Times,serif" font-size="14.00" fill="#000000">AdminEventDetailComponent</text>
</g>
<!-- AdminEventDetailComponent&#45;&gt;AdminModule -->
<g id="edge10" class="edge">
<title>AdminEventDetailComponent&#45;&gt;AdminModule</title>
<path fill="none" stroke="#000000" d="M2083,-122.1243C2083,-136.7832 2083,-155 2083,-155 2083,-155 1947.4588,-155 1947.4588,-155"/>
<polygon fill="#000000" stroke="#000000" points="1947.4589,-151.5001 1937.4588,-155 1947.4588,-158.5001 1947.4589,-151.5001"/>
</g>
<!-- AdminMeetingComponent -->
<g id="node11" class="node">
<title>AdminMeetingComponent</title>
<polygon fill="#ffffb3" stroke="#000000" points="1971.3752,-122 1804.6248,-122 1804.6248,-86 1971.3752,-86 1971.3752,-122"/>
<text text-anchor="middle" x="1888" y="-99.8" font-family="Times,serif" font-size="14.00" fill="#000000">AdminMeetingComponent</text>
</g>
<!-- AdminMeetingComponent&#45;&gt;AdminModule -->
<g id="edge11" class="edge">
<title>AdminMeetingComponent&#45;&gt;AdminModule</title>
<path fill="none" stroke="#000000" d="M1888,-122.1061C1888,-122.1061 1888,-140.991 1888,-140.991"/>
<polygon fill="#000000" stroke="#000000" points="1884.5001,-140.9909 1888,-150.991 1891.5001,-140.991 1884.5001,-140.9909"/>
</g>
<!-- SupportTicketsComponent -->
<g id="node12" class="node">
<title>SupportTicketsComponent</title>
<polygon fill="#ffffb3" stroke="#000000" points="1786.3738,-122 1619.6262,-122 1619.6262,-86 1786.3738,-86 1786.3738,-122"/>
<text text-anchor="middle" x="1703" y="-99.8" font-family="Times,serif" font-size="14.00" fill="#000000">SupportTicketsComponent</text>
</g>
<!-- SupportTicketsComponent&#45;&gt;AdminModule -->
<g id="edge12" class="edge">
<title>SupportTicketsComponent&#45;&gt;AdminModule</title>
<path fill="none" stroke="#000000" d="M1703,-122.1243C1703,-136.7832 1703,-155 1703,-155 1703,-155 1828.4234,-155 1828.4234,-155"/>
<polygon fill="#000000" stroke="#000000" points="1828.4234,-158.5001 1838.4234,-155 1828.4234,-151.5001 1828.4234,-158.5001"/>
</g>
<!-- ImageUploadComponent -->
<g id="node13" class="node">
<title>ImageUploadComponent</title>
<polygon fill="#ffffb3" stroke="#000000" points="1601.5253,-122 1444.4747,-122 1444.4747,-86 1601.5253,-86 1601.5253,-122"/>
<text text-anchor="middle" x="1523" y="-99.8" font-family="Times,serif" font-size="14.00" fill="#000000">ImageUploadComponent</text>
</g>
<!-- ImageUploadComponent&#45;&gt;AdminModule -->
<g id="edge13" class="edge">
<title>ImageUploadComponent&#45;&gt;AdminModule</title>
<path fill="none" stroke="#000000" d="M1523,-122.2819C1523,-137.9478 1523,-158 1523,-158 1523,-158 1828.7745,-158 1828.7745,-158"/>
<polygon fill="#000000" stroke="#000000" points="1828.7745,-161.5001 1838.7745,-158 1828.7744,-154.5001 1828.7745,-161.5001"/>
</g>
<!-- ImageViewComponent -->
<g id="node14" class="node">
<title>ImageViewComponent</title>
<polygon fill="#ffffb3" stroke="#000000" points="1426.1317,-122 1279.8683,-122 1279.8683,-86 1426.1317,-86 1426.1317,-122"/>
<text text-anchor="middle" x="1353" y="-99.8" font-family="Times,serif" font-size="14.00" fill="#000000">ImageViewComponent</text>
</g>
<!-- ImageViewComponent&#45;&gt;AdminModule -->
<g id="edge14" class="edge">
<title>ImageViewComponent&#45;&gt;AdminModule</title>
<path fill="none" stroke="#000000" d="M1353,-122.0352C1353,-138.7344 1353,-161 1353,-161 1353,-161 1828.6274,-161 1828.6274,-161"/>
<polygon fill="#000000" stroke="#000000" points="1828.6275,-164.5001 1838.6274,-161 1828.6274,-157.5001 1828.6275,-164.5001"/>
</g>
<!-- AdminChannelsContentsComponent -->
<g id="node15" class="node">
<title>AdminChannelsContentsComponent</title>
<polygon fill="#ffffb3" stroke="#000000" points="1262.0982,-122 1039.9018,-122 1039.9018,-86 1262.0982,-86 1262.0982,-122"/>
<text text-anchor="middle" x="1151" y="-99.8" font-family="Times,serif" font-size="14.00" fill="#000000">AdminChannelsContentsComponent</text>
</g>
<!-- AdminChannelsContentsComponent&#45;&gt;AdminModule -->
<g id="edge15" class="edge">
<title>AdminChannelsContentsComponent&#45;&gt;AdminModule</title>
<path fill="none" stroke="#000000" d="M1151,-122.302C1151,-140.2699 1151,-165 1151,-165 1151,-165 1828.499,-165 1828.499,-165"/>
<polygon fill="#000000" stroke="#000000" points="1828.499,-168.5001 1838.499,-165 1828.4989,-161.5001 1828.499,-168.5001"/>
</g>
<!-- ChannelContentComponent -->
<g id="node16" class="node">
<title>ChannelContentComponent</title>
<polygon fill="#ffffb3" stroke="#000000" points="1022.3215,-122 849.6785,-122 849.6785,-86 1022.3215,-86 1022.3215,-122"/>
<text text-anchor="middle" x="936" y="-99.8" font-family="Times,serif" font-size="14.00" fill="#000000">ChannelContentComponent</text>
</g>
<!-- ChannelContentComponent&#45;&gt;AdminModule -->
<g id="edge16" class="edge">
<title>ChannelContentComponent&#45;&gt;AdminModule</title>
<path fill="none" stroke="#000000" d="M936,-122.1686C936,-141.0898 936,-168 936,-168 936,-168 1828.4894,-168 1828.4894,-168"/>
<polygon fill="#000000" stroke="#000000" points="1828.4894,-171.5001 1838.4894,-168 1828.4893,-164.5001 1828.4894,-171.5001"/>
</g>
<!-- ChannelNewComponent -->
<g id="node17" class="node">
<title>ChannelNewComponent</title>
<polygon fill="#ffffb3" stroke="#000000" points="832.4172,-122 677.5828,-122 677.5828,-86 832.4172,-86 832.4172,-122"/>
<text text-anchor="middle" x="755" y="-99.8" font-family="Times,serif" font-size="14.00" fill="#000000">ChannelNewComponent</text>
</g>
<!-- ChannelNewComponent&#45;&gt;AdminModule -->
<g id="edge17" class="edge">
<title>ChannelNewComponent&#45;&gt;AdminModule</title>
<path fill="none" stroke="#000000" d="M755,-122.308C755,-142.1455 755,-171 755,-171 755,-171 1828.5879,-171 1828.5879,-171"/>
<polygon fill="#000000" stroke="#000000" points="1828.5879,-174.5001 1838.5879,-171 1828.5878,-167.5001 1828.5879,-174.5001"/>
</g>
<!-- ListingComponentsComponent -->
<g id="node18" class="node">
<title>ListingComponentsComponent</title>
<polygon fill="#ffffb3" stroke="#000000" points="659.7785,-122 468.2215,-122 468.2215,-86 659.7785,-86 659.7785,-122"/>
<text text-anchor="middle" x="564" y="-99.8" font-family="Times,serif" font-size="14.00" fill="#000000">ListingComponentsComponent</text>
</g>
<!-- ListingComponentsComponent&#45;&gt;AdminModule -->
<g id="edge18" class="edge">
<title>ListingComponentsComponent&#45;&gt;AdminModule</title>
<path fill="none" stroke="#000000" d="M564,-122.0267C564,-142.7672 564,-174 564,-174 564,-174 1828.5141,-174 1828.5141,-174"/>
<polygon fill="#000000" stroke="#000000" points="1828.5141,-177.5001 1838.5141,-174 1828.514,-170.5001 1828.5141,-177.5001"/>
</g>
<!-- UpdateComponent -->
<g id="node19" class="node">
<title>UpdateComponent</title>
<polygon fill="#ffffb3" stroke="#000000" points="449.759,-122 328.241,-122 328.241,-86 449.759,-86 449.759,-122"/>
<text text-anchor="middle" x="389" y="-99.8" font-family="Times,serif" font-size="14.00" fill="#000000">UpdateComponent</text>
</g>
<!-- UpdateComponent&#45;&gt;AdminModule -->
<g id="edge19" class="edge">
<title>UpdateComponent&#45;&gt;AdminModule</title>
<path fill="none" stroke="#000000" d="M389,-122.2921C389,-144.2057 389,-178 389,-178 389,-178 1828.5525,-178 1828.5525,-178"/>
<polygon fill="#000000" stroke="#000000" points="1828.5526,-181.5001 1838.5525,-178 1828.5525,-174.5001 1828.5526,-181.5001"/>
</g>
<!-- CreateComponent -->
<g id="node20" class="node">
<title>CreateComponent</title>
<polygon fill="#ffffb3" stroke="#000000" points="309.8641,-122 192.1359,-122 192.1359,-86 309.8641,-86 309.8641,-122"/>
<text text-anchor="middle" x="251" y="-99.8" font-family="Times,serif" font-size="14.00" fill="#000000">CreateComponent</text>
</g>
<!-- CreateComponent&#45;&gt;AdminModule -->
<g id="edge20" class="edge">
<title>CreateComponent&#45;&gt;AdminModule</title>
<path fill="none" stroke="#000000" d="M251,-122.2479C251,-145.0179 251,-181 251,-181 251,-181 1828.5619,-181 1828.5619,-181"/>
<polygon fill="#000000" stroke="#000000" points="1828.5619,-184.5001 1838.5619,-181 1828.5618,-177.5001 1828.5619,-184.5001"/>
</g>
<!-- AdminRoutingModule -->
<g id="node22" class="node">
<title>AdminRoutingModule</title>
<polygon fill="#8dd3c7" stroke="#000000" points="167.5561,-122 164.5561,-126 143.5561,-126 140.5561,-122 24.4439,-122 24.4439,-86 167.5561,-86 167.5561,-122"/>
<text text-anchor="middle" x="96" y="-99.8" font-family="Times,serif" font-size="14.00" fill="#000000">AdminRoutingModule</text>
</g>
<!-- AdminRoutingModule&#45;&gt;AdminModule -->
<g id="edge21" class="edge">
<title>AdminRoutingModule&#45;&gt;AdminModule</title>
<path fill="none" stroke="#000000" d="M96,-122.1532C96,-145.7566 96,-184 96,-184 96,-184 1828.6712,-184 1828.6712,-184"/>
<polygon fill="#000000" stroke="#000000" points="1828.6712,-187.5001 1838.6712,-184 1828.6711,-180.5001 1828.6712,-187.5001"/>
</g>
</g>
</svg>
