<?xml version="1.0" encoding="UTF-8" standalone="no"?>
<!DOCTYPE svg PUBLIC "-//W3C//DTD SVG 1.1//EN"
 "http://www.w3.org/Graphics/SVG/1.1/DTD/svg11.dtd">
<!-- Generated by graphviz version 2.40.1 (20161225.0304)
 -->
<!-- Title: dependencies Pages: 1 -->
<svg width="3499pt" height="211pt"
 viewBox="0.00 0.00 3499.00 211.00" xmlns="http://www.w3.org/2000/svg" xmlns:xlink="http://www.w3.org/1999/xlink">
<g id="graph0" class="graph" transform="scale(1 1) rotate(0) translate(4 207)">
<title>dependencies</title>
<polygon fill="#ffffff" stroke="transparent" points="-4,4 -4,-207 3495,-207 3495,4 -4,4"/>
<text text-anchor="start" x="1724.5091" y="-42.4" font-family="sans-serif" font-weight="bold" font-size="14.00" fill="#000000">Legend</text>
<polygon fill="#ffffb3" stroke="transparent" points="1511.5,-10 1511.5,-30 1531.5,-30 1531.5,-10 1511.5,-10"/>
<text text-anchor="start" x="1535.129" y="-15.4" font-family="sans-serif" font-size="14.00" fill="#000000"> &#160;Declarations</text>
<polygon fill="#8dd3c7" stroke="transparent" points="1624.5,-10 1624.5,-30 1644.5,-30 1644.5,-10 1624.5,-10"/>
<text text-anchor="start" x="1648.2251" y="-15.4" font-family="sans-serif" font-size="14.00" fill="#000000"> &#160;Module</text>
<polygon fill="#80b1d3" stroke="transparent" points="1710.5,-10 1710.5,-30 1730.5,-30 1730.5,-10 1710.5,-10"/>
<text text-anchor="start" x="1734.2812" y="-15.4" font-family="sans-serif" font-size="14.00" fill="#000000"> &#160;Bootstrap</text>
<polygon fill="#fdb462" stroke="transparent" points="1807.5,-10 1807.5,-30 1827.5,-30 1827.5,-10 1807.5,-10"/>
<text text-anchor="start" x="1831.1732" y="-15.4" font-family="sans-serif" font-size="14.00" fill="#000000"> &#160;Providers</text>
<polygon fill="#fb8072" stroke="transparent" points="1903.5,-10 1903.5,-30 1923.5,-30 1923.5,-10 1903.5,-10"/>
<text text-anchor="start" x="1927.2258" y="-15.4" font-family="sans-serif" font-size="14.00" fill="#000000"> &#160;Exports</text>
<g id="clust1" class="cluster">
<title>cluster_AdminModule</title>
<polygon fill="none" stroke="#000000" stroke-dasharray="1,5" points="8,-70 8,-195 3483,-195 3483,-70 8,-70"/>
</g>
<g id="clust2" class="cluster">
<title>cluster_AdminModule_declarations</title>
<polygon fill="none" stroke="#000000" points="184,-78 184,-130 3475,-130 3475,-78 184,-78"/>
</g>
<g id="clust21" class="cluster">
<title>cluster_AdminModule_imports</title>
<polygon fill="none" stroke="#000000" points="16,-78 16,-130 176,-130 176,-78 16,-78"/>
</g>
<!-- AdminSideNavComponent -->
<g id="node1" class="node">
<title>AdminSideNavComponent</title>
<polygon fill="#ffffb3" stroke="#000000" points="3467.4297,-122 3298.5703,-122 3298.5703,-86 3467.4297,-86 3467.4297,-122"/>
<text text-anchor="middle" x="3383" y="-99.8" font-family="Times,serif" font-size="14.00" fill="#000000">AdminSideNavComponent</text>
</g>
<!-- AdminModule -->
<g id="node19" class="node">
<title>AdminModule</title>
<polygon fill="#8dd3c7" stroke="#000000" points="1856.4386,-187 1853.4386,-191 1832.4386,-191 1829.4386,-187 1757.5614,-187 1757.5614,-151 1856.4386,-151 1856.4386,-187"/>
<text text-anchor="middle" x="1807" y="-164.8" font-family="Times,serif" font-size="14.00" fill="#000000">AdminModule</text>
</g>
<!-- AdminSideNavComponent&#45;&gt;AdminModule -->
<g id="edge1" class="edge">
<title>AdminSideNavComponent&#45;&gt;AdminModule</title>
<path fill="none" stroke="#000000" d="M3383,-122.1532C3383,-145.7566 3383,-184 3383,-184 3383,-184 1866.3312,-184 1866.3312,-184"/>
<polygon fill="#000000" stroke="#000000" points="1866.3313,-180.5001 1856.3312,-184 1866.3312,-187.5001 1866.3313,-180.5001"/>
</g>
<!-- AdminChannelsComponent -->
<g id="node2" class="node">
<title>AdminChannelsComponent</title>
<polygon fill="#ffffb3" stroke="#000000" points="3281.3215,-122 3108.6785,-122 3108.6785,-86 3281.3215,-86 3281.3215,-122"/>
<text text-anchor="middle" x="3195" y="-99.8" font-family="Times,serif" font-size="14.00" fill="#000000">AdminChannelsComponent</text>
</g>
<!-- AdminChannelsComponent&#45;&gt;AdminModule -->
<g id="edge2" class="edge">
<title>AdminChannelsComponent&#45;&gt;AdminModule</title>
<path fill="none" stroke="#000000" d="M3195,-122.0109C3195,-144.4852 3195,-180 3195,-180 3195,-180 1866.3997,-180 1866.3997,-180"/>
<polygon fill="#000000" stroke="#000000" points="1866.3997,-176.5001 1856.3997,-180 1866.3996,-183.5001 1866.3997,-176.5001"/>
</g>
<!-- DashboardComponent -->
<g id="node3" class="node">
<title>DashboardComponent</title>
<polygon fill="#ffffb3" stroke="#000000" points="3090.9734,-122 2949.0266,-122 2949.0266,-86 3090.9734,-86 3090.9734,-122"/>
<text text-anchor="middle" x="3020" y="-99.8" font-family="Times,serif" font-size="14.00" fill="#000000">DashboardComponent</text>
</g>
<!-- DashboardComponent&#45;&gt;AdminModule -->
<g id="edge3" class="edge">
<title>DashboardComponent&#45;&gt;AdminModule</title>
<path fill="none" stroke="#000000" d="M3020,-122.0449C3020,-143.6623 3020,-177 3020,-177 3020,-177 1866.4323,-177 1866.4323,-177"/>
<polygon fill="#000000" stroke="#000000" points="1866.4323,-173.5001 1856.4323,-177 1866.4322,-180.5001 1866.4323,-173.5001"/>
</g>
<!-- SettingComponent -->
<g id="node4" class="node">
<title>SettingComponent</title>
<polygon fill="#ffffb3" stroke="#000000" points="2931.5014,-122 2810.4986,-122 2810.4986,-86 2931.5014,-86 2931.5014,-122"/>
<text text-anchor="middle" x="2871" y="-99.8" font-family="Times,serif" font-size="14.00" fill="#000000">SettingComponent</text>
</g>
<!-- SettingComponent&#45;&gt;AdminModule -->
<g id="edge4" class="edge">
<title>SettingComponent&#45;&gt;AdminModule</title>
<path fill="none" stroke="#000000" d="M2871,-122.1289C2871,-142.5724 2871,-173 2871,-173 2871,-173 1866.5379,-173 1866.5379,-173"/>
<polygon fill="#000000" stroke="#000000" points="1866.5379,-169.5001 1856.5379,-173 1866.5378,-176.5001 1866.5379,-169.5001"/>
</g>
<!-- BuildServersComponent -->
<g id="node5" class="node">
<title>BuildServersComponent</title>
<polygon fill="#ffffb3" stroke="#000000" points="2792.4284,-122 2637.5716,-122 2637.5716,-86 2792.4284,-86 2792.4284,-122"/>
<text text-anchor="middle" x="2715" y="-99.8" font-family="Times,serif" font-size="14.00" fill="#000000">BuildServersComponent</text>
</g>
<!-- BuildServersComponent&#45;&gt;AdminModule -->
<g id="edge5" class="edge">
<title>BuildServersComponent&#45;&gt;AdminModule</title>
<path fill="none" stroke="#000000" d="M2715,-122.1061C2715,-141.3391 2715,-169 2715,-169 2715,-169 1866.4628,-169 1866.4628,-169"/>
<polygon fill="#000000" stroke="#000000" points="1866.4629,-165.5001 1856.4628,-169 1866.4628,-172.5001 1866.4629,-165.5001"/>
</g>
<!-- AdminComponent -->
<g id="node6" class="node">
<title>AdminComponent</title>
<polygon fill="#ffffb3" stroke="#000000" points="2620.2204,-122 2499.7796,-122 2499.7796,-86 2620.2204,-86 2620.2204,-122"/>
<text text-anchor="middle" x="2560" y="-99.8" font-family="Times,serif" font-size="14.00" fill="#000000">AdminComponent</text>
</g>
<!-- AdminComponent&#45;&gt;AdminModule -->
<g id="edge6" class="edge">
<title>AdminComponent&#45;&gt;AdminModule</title>
<path fill="none" stroke="#000000" d="M2560,-122.2667C2560,-140.5552 2560,-166 2560,-166 2560,-166 1866.4064,-166 1866.4064,-166"/>
<polygon fill="#000000" stroke="#000000" points="1866.4065,-162.5001 1856.4064,-166 1866.4064,-169.5001 1866.4065,-162.5001"/>
</g>
<!-- AdminEntranceComponent -->
<g id="node7" class="node">
<title>AdminEntranceComponent</title>
<polygon fill="#ffffb3" stroke="#000000" points="2481.9678,-122 2312.0322,-122 2312.0322,-86 2481.9678,-86 2481.9678,-122"/>
<text text-anchor="middle" x="2397" y="-99.8" font-family="Times,serif" font-size="14.00" fill="#000000">AdminEntranceComponent</text>
</g>
<!-- AdminEntranceComponent&#45;&gt;AdminModule -->
<g id="edge7" class="edge">
<title>AdminEntranceComponent&#45;&gt;AdminModule</title>
<path fill="none" stroke="#000000" d="M2397,-122.0336C2397,-139.0597 2397,-162 2397,-162 2397,-162 1866.2883,-162 1866.2883,-162"/>
<polygon fill="#000000" stroke="#000000" points="1866.2883,-158.5001 1856.2883,-162 1866.2882,-165.5001 1866.2883,-158.5001"/>
</g>
<!-- AdminEntranceDetailComponent -->
<g id="node8" class="node">
<title>AdminEntranceDetailComponent</title>
<polygon fill="#ffffb3" stroke="#000000" points="2294.1755,-122 2089.8245,-122 2089.8245,-86 2294.1755,-86 2294.1755,-122"/>
<text text-anchor="middle" x="2192" y="-99.8" font-family="Times,serif" font-size="14.00" fill="#000000">AdminEntranceDetailComponent</text>
</g>
<!-- AdminEntranceDetailComponent&#45;&gt;AdminModule -->
<g id="edge8" class="edge">
<title>AdminEntranceDetailComponent&#45;&gt;AdminModule</title>
<path fill="none" stroke="#000000" d="M2192,-122.0091C2192,-138.0494 2192,-159 2192,-159 2192,-159 1866.5438,-159 1866.5438,-159"/>
<polygon fill="#000000" stroke="#000000" points="1866.5439,-155.5001 1856.5438,-159 1866.5438,-162.5001 1866.5439,-155.5001"/>
</g>
<!-- AdminEventComponent -->
<g id="node9" class="node">
<title>AdminEventComponent</title>
<polygon fill="#ffffb3" stroke="#000000" points="2071.378,-122 1918.622,-122 1918.622,-86 2071.378,-86 2071.378,-122"/>
<text text-anchor="middle" x="1995" y="-99.8" font-family="Times,serif" font-size="14.00" fill="#000000">AdminEventComponent</text>
</g>
<!-- AdminEventComponent&#45;&gt;AdminModule -->
<g id="edge9" class="edge">
<title>AdminEventComponent&#45;&gt;AdminModule</title>
<path fill="none" stroke="#000000" d="M1995,-122.1243C1995,-136.7832 1995,-155 1995,-155 1995,-155 1866.3948,-155 1866.3948,-155"/>
<polygon fill="#000000" stroke="#000000" points="1866.3948,-151.5001 1856.3948,-155 1866.3948,-158.5001 1866.3948,-151.5001"/>
</g>
<!-- AdminEventDetailComponent -->
<g id="node10" class="node">
<title>AdminEventDetailComponent</title>
<polygon fill="#ffffb3" stroke="#000000" points="1900.5856,-122 1713.4144,-122 1713.4144,-86 1900.5856,-86 1900.5856,-122"/>
<text text-anchor="middle" x="1807" y="-99.8" font-family="Times,serif" font-size="14.00" fill="#000000">AdminEventDetailComponent</text>
</g>
<!-- AdminEventDetailComponent&#45;&gt;AdminModule -->
<g id="edge10" class="edge">
<title>AdminEventDetailComponent&#45;&gt;AdminModule</title>
<path fill="none" stroke="#000000" d="M1807,-122.1061C1807,-122.1061 1807,-140.991 1807,-140.991"/>
<polygon fill="#000000" stroke="#000000" points="1803.5001,-140.9909 1807,-150.991 1810.5001,-140.991 1803.5001,-140.9909"/>
</g>
<!-- AdminMeetingComponent -->
<g id="node11" class="node">
<title>AdminMeetingComponent</title>
<polygon fill="#ffffb3" stroke="#000000" points="1695.3752,-122 1528.6248,-122 1528.6248,-86 1695.3752,-86 1695.3752,-122"/>
<text text-anchor="middle" x="1612" y="-99.8" font-family="Times,serif" font-size="14.00" fill="#000000">AdminMeetingComponent</text>
</g>
<!-- AdminMeetingComponent&#45;&gt;AdminModule -->
<g id="edge11" class="edge">
<title>AdminMeetingComponent&#45;&gt;AdminModule</title>
<path fill="none" stroke="#000000" d="M1612,-122.1243C1612,-136.7832 1612,-155 1612,-155 1612,-155 1747.5412,-155 1747.5412,-155"/>
<polygon fill="#000000" stroke="#000000" points="1747.5412,-158.5001 1757.5412,-155 1747.5411,-151.5001 1747.5412,-158.5001"/>
</g>
<!-- SupportTicketsComponent -->
<g id="node12" class="node">
<title>SupportTicketsComponent</title>
<polygon fill="#ffffb3" stroke="#000000" points="1510.3738,-122 1343.6262,-122 1343.6262,-86 1510.3738,-86 1510.3738,-122"/>
<text text-anchor="middle" x="1427" y="-99.8" font-family="Times,serif" font-size="14.00" fill="#000000">SupportTicketsComponent</text>
</g>
<!-- SupportTicketsComponent&#45;&gt;AdminModule -->
<g id="edge12" class="edge">
<title>SupportTicketsComponent&#45;&gt;AdminModule</title>
<path fill="none" stroke="#000000" d="M1427,-122.0091C1427,-138.0494 1427,-159 1427,-159 1427,-159 1747.7112,-159 1747.7112,-159"/>
<polygon fill="#000000" stroke="#000000" points="1747.7112,-162.5001 1757.7112,-159 1747.7112,-155.5001 1747.7112,-162.5001"/>
</g>
<!-- ImageUploadComponent -->
<g id="node13" class="node">
<title>ImageUploadComponent</title>
<polygon fill="#ffffb3" stroke="#000000" points="1325.5253,-122 1168.4747,-122 1168.4747,-86 1325.5253,-86 1325.5253,-122"/>
<text text-anchor="middle" x="1247" y="-99.8" font-family="Times,serif" font-size="14.00" fill="#000000">ImageUploadComponent</text>
</g>
<!-- ImageUploadComponent&#45;&gt;AdminModule -->
<g id="edge13" class="edge">
<title>ImageUploadComponent&#45;&gt;AdminModule</title>
<path fill="none" stroke="#000000" d="M1247,-122.0336C1247,-139.0597 1247,-162 1247,-162 1247,-162 1747.3037,-162 1747.3037,-162"/>
<polygon fill="#000000" stroke="#000000" points="1747.3038,-165.5001 1757.3037,-162 1747.3037,-158.5001 1747.3038,-165.5001"/>
</g>
<!-- ImageViewComponent -->
<g id="node14" class="node">
<title>ImageViewComponent</title>
<polygon fill="#ffffb3" stroke="#000000" points="1150.1317,-122 1003.8683,-122 1003.8683,-86 1150.1317,-86 1150.1317,-122"/>
<text text-anchor="middle" x="1077" y="-99.8" font-family="Times,serif" font-size="14.00" fill="#000000">ImageViewComponent</text>
</g>
<!-- ImageViewComponent&#45;&gt;AdminModule -->
<g id="edge14" class="edge">
<title>ImageViewComponent&#45;&gt;AdminModule</title>
<path fill="none" stroke="#000000" d="M1077,-122.2667C1077,-140.5552 1077,-166 1077,-166 1077,-166 1747.6839,-166 1747.6839,-166"/>
<polygon fill="#000000" stroke="#000000" points="1747.684,-169.5001 1757.6839,-166 1747.6839,-162.5001 1747.684,-169.5001"/>
</g>
<!-- AdminChannelsContentsComponent -->
<g id="node15" class="node">
<title>AdminChannelsContentsComponent</title>
<polygon fill="#ffffb3" stroke="#000000" points="986.0982,-122 763.9018,-122 763.9018,-86 986.0982,-86 986.0982,-122"/>
<text text-anchor="middle" x="875" y="-99.8" font-family="Times,serif" font-size="14.00" fill="#000000">AdminChannelsContentsComponent</text>
</g>
<!-- AdminChannelsContentsComponent&#45;&gt;AdminModule -->
<g id="edge15" class="edge">
<title>AdminChannelsContentsComponent&#45;&gt;AdminModule</title>
<path fill="none" stroke="#000000" d="M875,-122.1061C875,-141.3391 875,-169 875,-169 875,-169 1747.5497,-169 1747.5497,-169"/>
<polygon fill="#000000" stroke="#000000" points="1747.5497,-172.5001 1757.5497,-169 1747.5496,-165.5001 1747.5497,-172.5001"/>
</g>
<!-- ChannelContentComponent -->
<g id="node16" class="node">
<title>ChannelContentComponent</title>
<polygon fill="#ffffb3" stroke="#000000" points="746.3215,-122 573.6785,-122 573.6785,-86 746.3215,-86 746.3215,-122"/>
<text text-anchor="middle" x="660" y="-99.8" font-family="Times,serif" font-size="14.00" fill="#000000">ChannelContentComponent</text>
</g>
<!-- ChannelContentComponent&#45;&gt;AdminModule -->
<g id="edge16" class="edge">
<title>ChannelContentComponent&#45;&gt;AdminModule</title>
<path fill="none" stroke="#000000" d="M660,-122.1289C660,-142.5724 660,-173 660,-173 660,-173 1747.7148,-173 1747.7148,-173"/>
<polygon fill="#000000" stroke="#000000" points="1747.7149,-176.5001 1757.7148,-173 1747.7148,-169.5001 1747.7149,-176.5001"/>
</g>
<!-- ChannelNewComponent -->
<g id="node17" class="node">
<title>ChannelNewComponent</title>
<polygon fill="#ffffb3" stroke="#000000" points="556.4172,-122 401.5828,-122 401.5828,-86 556.4172,-86 556.4172,-122"/>
<text text-anchor="middle" x="479" y="-99.8" font-family="Times,serif" font-size="14.00" fill="#000000">ChannelNewComponent</text>
</g>
<!-- ChannelNewComponent&#45;&gt;AdminModule -->
<g id="edge17" class="edge">
<title>ChannelNewComponent&#45;&gt;AdminModule</title>
<path fill="none" stroke="#000000" d="M479,-122.0449C479,-143.6623 479,-177 479,-177 479,-177 1747.7634,-177 1747.7634,-177"/>
<polygon fill="#000000" stroke="#000000" points="1747.7634,-180.5001 1757.7634,-177 1747.7634,-173.5001 1747.7634,-180.5001"/>
</g>
<!-- ListingComponentsComponent -->
<g id="node18" class="node">
<title>ListingComponentsComponent</title>
<polygon fill="#ffffb3" stroke="#000000" points="383.7785,-122 192.2215,-122 192.2215,-86 383.7785,-86 383.7785,-122"/>
<text text-anchor="middle" x="288" y="-99.8" font-family="Times,serif" font-size="14.00" fill="#000000">ListingComponentsComponent</text>
</g>
<!-- ListingComponentsComponent&#45;&gt;AdminModule -->
<g id="edge18" class="edge">
<title>ListingComponentsComponent&#45;&gt;AdminModule</title>
<path fill="none" stroke="#000000" d="M288,-122.0109C288,-144.4852 288,-180 288,-180 288,-180 1747.753,-180 1747.753,-180"/>
<polygon fill="#000000" stroke="#000000" points="1747.753,-183.5001 1757.753,-180 1747.753,-176.5001 1747.753,-183.5001"/>
</g>
<!-- AdminRoutingModule -->
<g id="node20" class="node">
<title>AdminRoutingModule</title>
<polygon fill="#8dd3c7" stroke="#000000" points="167.5561,-122 164.5561,-126 143.5561,-126 140.5561,-122 24.4439,-122 24.4439,-86 167.5561,-86 167.5561,-122"/>
<text text-anchor="middle" x="96" y="-99.8" font-family="Times,serif" font-size="14.00" fill="#000000">AdminRoutingModule</text>
</g>
<!-- AdminRoutingModule&#45;&gt;AdminModule -->
<g id="edge19" class="edge">
<title>AdminRoutingModule&#45;&gt;AdminModule</title>
<path fill="none" stroke="#000000" d="M96,-122.1532C96,-145.7566 96,-184 96,-184 96,-184 1747.6383,-184 1747.6383,-184"/>
<polygon fill="#000000" stroke="#000000" points="1747.6384,-187.5001 1757.6383,-184 1747.6383,-180.5001 1747.6384,-187.5001"/>
</g>
</g>
</svg>
