<?xml version="1.0" encoding="UTF-8" standalone="no"?>
<!DOCTYPE svg PUBLIC "-//W3C//DTD SVG 1.1//EN"
 "http://www.w3.org/Graphics/SVG/1.1/DTD/svg11.dtd">
<!-- Generated by graphviz version 2.40.1 (20161225.0304)
 -->
<!-- Title: dependencies Pages: 1 -->
<svg width="2819pt" height="211pt"
 viewBox="0.00 0.00 2819.00 211.00" xmlns="http://www.w3.org/2000/svg" xmlns:xlink="http://www.w3.org/1999/xlink">
<g id="graph0" class="graph" transform="scale(1 1) rotate(0) translate(4 207)">
<title>dependencies</title>
<polygon fill="#ffffff" stroke="transparent" points="-4,4 -4,-207 2815,-207 2815,4 -4,4"/>
<text text-anchor="start" x="1384.5091" y="-42.4" font-family="sans-serif" font-weight="bold" font-size="14.00" fill="#000000">Legend</text>
<polygon fill="#ffffb3" stroke="transparent" points="1171.5,-10 1171.5,-30 1191.5,-30 1191.5,-10 1171.5,-10"/>
<text text-anchor="start" x="1195.129" y="-15.4" font-family="sans-serif" font-size="14.00" fill="#000000"> &#160;Declarations</text>
<polygon fill="#8dd3c7" stroke="transparent" points="1284.5,-10 1284.5,-30 1304.5,-30 1304.5,-10 1284.5,-10"/>
<text text-anchor="start" x="1308.2251" y="-15.4" font-family="sans-serif" font-size="14.00" fill="#000000"> &#160;Module</text>
<polygon fill="#80b1d3" stroke="transparent" points="1370.5,-10 1370.5,-30 1390.5,-30 1390.5,-10 1370.5,-10"/>
<text text-anchor="start" x="1394.2812" y="-15.4" font-family="sans-serif" font-size="14.00" fill="#000000"> &#160;Bootstrap</text>
<polygon fill="#fdb462" stroke="transparent" points="1467.5,-10 1467.5,-30 1487.5,-30 1487.5,-10 1467.5,-10"/>
<text text-anchor="start" x="1491.1732" y="-15.4" font-family="sans-serif" font-size="14.00" fill="#000000"> &#160;Providers</text>
<polygon fill="#fb8072" stroke="transparent" points="1563.5,-10 1563.5,-30 1583.5,-30 1583.5,-10 1563.5,-10"/>
<text text-anchor="start" x="1587.2258" y="-15.4" font-family="sans-serif" font-size="14.00" fill="#000000"> &#160;Exports</text>
<g id="clust1" class="cluster">
<title>cluster_AdminModule</title>
<polygon fill="none" stroke="#000000" stroke-dasharray="1,5" points="8,-70 8,-195 2803,-195 2803,-70 8,-70"/>
</g>
<g id="clust2" class="cluster">
<title>cluster_AdminModule_declarations</title>
<polygon fill="none" stroke="#000000" points="184,-78 184,-130 2795,-130 2795,-78 184,-78"/>
</g>
<g id="clust17" class="cluster">
<title>cluster_AdminModule_imports</title>
<polygon fill="none" stroke="#000000" points="16,-78 16,-130 176,-130 176,-78 16,-78"/>
</g>
<!-- AdminChannelsComponent -->
<g id="node1" class="node">
<title>AdminChannelsComponent</title>
<polygon fill="#ffffb3" stroke="#000000" points="2787.3215,-122 2614.6785,-122 2614.6785,-86 2787.3215,-86 2787.3215,-122"/>
<text text-anchor="middle" x="2701" y="-99.8" font-family="Times,serif" font-size="14.00" fill="#000000">AdminChannelsComponent</text>
</g>
<!-- AdminModule -->
<g id="node15" class="node">
<title>AdminModule</title>
<polygon fill="#8dd3c7" stroke="#000000" points="1397.4386,-187 1394.4386,-191 1373.4386,-191 1370.4386,-187 1298.5614,-187 1298.5614,-151 1397.4386,-151 1397.4386,-187"/>
<text text-anchor="middle" x="1348" y="-164.8" font-family="Times,serif" font-size="14.00" fill="#000000">AdminModule</text>
</g>
<!-- AdminChannelsComponent&#45;&gt;AdminModule -->
<g id="edge1" class="edge">
<title>AdminChannelsComponent&#45;&gt;AdminModule</title>
<path fill="none" stroke="#000000" d="M2701,-122.3228C2701,-145.6602 2701,-183 2701,-183 2701,-183 1407.3552,-183 1407.3552,-183"/>
<polygon fill="#000000" stroke="#000000" points="1407.3552,-179.5001 1397.3552,-183 1407.3552,-186.5001 1407.3552,-179.5001"/>
</g>
<!-- AdminChannelsContentsComponent -->
<g id="node2" class="node">
<title>AdminChannelsContentsComponent</title>
<polygon fill="#ffffb3" stroke="#000000" points="2597.0982,-122 2374.9018,-122 2374.9018,-86 2597.0982,-86 2597.0982,-122"/>
<text text-anchor="middle" x="2486" y="-99.8" font-family="Times,serif" font-size="14.00" fill="#000000">AdminChannelsContentsComponent</text>
</g>
<!-- AdminChannelsContentsComponent&#45;&gt;AdminModule -->
<g id="edge2" class="edge">
<title>AdminChannelsContentsComponent&#45;&gt;AdminModule</title>
<path fill="none" stroke="#000000" d="M2486,-122.2921C2486,-144.2057 2486,-178 2486,-178 2486,-178 1407.2637,-178 1407.2637,-178"/>
<polygon fill="#000000" stroke="#000000" points="1407.2637,-174.5001 1397.2637,-178 1407.2637,-181.5001 1407.2637,-174.5001"/>
</g>
<!-- AdminComponent -->
<g id="node3" class="node">
<title>AdminComponent</title>
<polygon fill="#ffffb3" stroke="#000000" points="2357.2204,-122 2236.7796,-122 2236.7796,-86 2357.2204,-86 2357.2204,-122"/>
<text text-anchor="middle" x="2297" y="-99.8" font-family="Times,serif" font-size="14.00" fill="#000000">AdminComponent</text>
</g>
<!-- AdminComponent&#45;&gt;AdminModule -->
<g id="edge3" class="edge">
<title>AdminComponent&#45;&gt;AdminModule</title>
<path fill="none" stroke="#000000" d="M2297,-122.0267C2297,-142.7672 2297,-174 2297,-174 2297,-174 1407.3546,-174 1407.3546,-174"/>
<polygon fill="#000000" stroke="#000000" points="1407.3546,-170.5001 1397.3546,-174 1407.3546,-177.5001 1407.3546,-170.5001"/>
</g>
<!-- AdminEntranceComponent -->
<g id="node4" class="node">
<title>AdminEntranceComponent</title>
<polygon fill="#ffffb3" stroke="#000000" points="2218.9678,-122 2049.0322,-122 2049.0322,-86 2218.9678,-86 2218.9678,-122"/>
<text text-anchor="middle" x="2134" y="-99.8" font-family="Times,serif" font-size="14.00" fill="#000000">AdminEntranceComponent</text>
</g>
<!-- AdminEntranceComponent&#45;&gt;AdminModule -->
<g id="edge4" class="edge">
<title>AdminEntranceComponent&#45;&gt;AdminModule</title>
<path fill="none" stroke="#000000" d="M2134,-122.1061C2134,-141.3391 2134,-169 2134,-169 2134,-169 1407.4656,-169 1407.4656,-169"/>
<polygon fill="#000000" stroke="#000000" points="1407.4656,-165.5001 1397.4656,-169 1407.4655,-172.5001 1407.4656,-165.5001"/>
</g>
<!-- AdminEntranceDetailComponent -->
<g id="node5" class="node">
<title>AdminEntranceDetailComponent</title>
<polygon fill="#ffffb3" stroke="#000000" points="2031.1755,-122 1826.8245,-122 1826.8245,-86 2031.1755,-86 2031.1755,-122"/>
<text text-anchor="middle" x="1929" y="-99.8" font-family="Times,serif" font-size="14.00" fill="#000000">AdminEntranceDetailComponent</text>
</g>
<!-- AdminEntranceDetailComponent&#45;&gt;AdminModule -->
<g id="edge5" class="edge">
<title>AdminEntranceDetailComponent&#45;&gt;AdminModule</title>
<path fill="none" stroke="#000000" d="M1929,-122.302C1929,-140.2699 1929,-165 1929,-165 1929,-165 1407.5357,-165 1407.5357,-165"/>
<polygon fill="#000000" stroke="#000000" points="1407.5358,-161.5001 1397.5357,-165 1407.5357,-168.5001 1407.5358,-161.5001"/>
</g>
<!-- AdminEventComponent -->
<g id="node6" class="node">
<title>AdminEventComponent</title>
<polygon fill="#ffffb3" stroke="#000000" points="1808.378,-122 1655.622,-122 1655.622,-86 1808.378,-86 1808.378,-122"/>
<text text-anchor="middle" x="1732" y="-99.8" font-family="Times,serif" font-size="14.00" fill="#000000">AdminEventComponent</text>
</g>
<!-- AdminEventComponent&#45;&gt;AdminModule -->
<g id="edge6" class="edge">
<title>AdminEventComponent&#45;&gt;AdminModule</title>
<path fill="none" stroke="#000000" d="M1732,-122.027C1732,-138.3976 1732,-160 1732,-160 1732,-160 1407.4152,-160 1407.4152,-160"/>
<polygon fill="#000000" stroke="#000000" points="1407.4152,-156.5001 1397.4152,-160 1407.4151,-163.5001 1407.4152,-156.5001"/>
</g>
<!-- AdminEventDetailComponent -->
<g id="node7" class="node">
<title>AdminEventDetailComponent</title>
<polygon fill="#ffffb3" stroke="#000000" points="1637.5856,-122 1450.4144,-122 1450.4144,-86 1637.5856,-86 1637.5856,-122"/>
<text text-anchor="middle" x="1544" y="-99.8" font-family="Times,serif" font-size="14.00" fill="#000000">AdminEventDetailComponent</text>
</g>
<!-- AdminEventDetailComponent&#45;&gt;AdminModule -->
<g id="edge7" class="edge">
<title>AdminEventDetailComponent&#45;&gt;AdminModule</title>
<path fill="none" stroke="#000000" d="M1544,-122.1871C1544,-137.1824 1544,-156 1544,-156 1544,-156 1407.4591,-156 1407.4591,-156"/>
<polygon fill="#000000" stroke="#000000" points="1407.4591,-152.5001 1397.4591,-156 1407.459,-159.5001 1407.4591,-152.5001"/>
</g>
<!-- AdminSideNavComponent -->
<g id="node8" class="node">
<title>AdminSideNavComponent</title>
<polygon fill="#ffffb3" stroke="#000000" points="1432.4297,-122 1263.5703,-122 1263.5703,-86 1432.4297,-86 1432.4297,-122"/>
<text text-anchor="middle" x="1348" y="-99.8" font-family="Times,serif" font-size="14.00" fill="#000000">AdminSideNavComponent</text>
</g>
<!-- AdminSideNavComponent&#45;&gt;AdminModule -->
<g id="edge8" class="edge">
<title>AdminSideNavComponent&#45;&gt;AdminModule</title>
<path fill="none" stroke="#000000" d="M1348,-122.1061C1348,-122.1061 1348,-140.991 1348,-140.991"/>
<polygon fill="#000000" stroke="#000000" points="1344.5001,-140.9909 1348,-150.991 1351.5001,-140.991 1344.5001,-140.9909"/>
</g>
<!-- ChannelContentComponent -->
<g id="node9" class="node">
<title>ChannelContentComponent</title>
<polygon fill="#ffffb3" stroke="#000000" points="1246.3215,-122 1073.6785,-122 1073.6785,-86 1246.3215,-86 1246.3215,-122"/>
<text text-anchor="middle" x="1160" y="-99.8" font-family="Times,serif" font-size="14.00" fill="#000000">ChannelContentComponent</text>
</g>
<!-- ChannelContentComponent&#45;&gt;AdminModule -->
<g id="edge9" class="edge">
<title>ChannelContentComponent&#45;&gt;AdminModule</title>
<path fill="none" stroke="#000000" d="M1160,-122.1871C1160,-137.1824 1160,-156 1160,-156 1160,-156 1288.6052,-156 1288.6052,-156"/>
<polygon fill="#000000" stroke="#000000" points="1288.6052,-159.5001 1298.6052,-156 1288.6052,-152.5001 1288.6052,-159.5001"/>
</g>
<!-- ChannelNewComponent -->
<g id="node10" class="node">
<title>ChannelNewComponent</title>
<polygon fill="#ffffb3" stroke="#000000" points="1056.4172,-122 901.5828,-122 901.5828,-86 1056.4172,-86 1056.4172,-122"/>
<text text-anchor="middle" x="979" y="-99.8" font-family="Times,serif" font-size="14.00" fill="#000000">ChannelNewComponent</text>
</g>
<!-- ChannelNewComponent&#45;&gt;AdminModule -->
<g id="edge10" class="edge">
<title>ChannelNewComponent&#45;&gt;AdminModule</title>
<path fill="none" stroke="#000000" d="M979,-122.027C979,-138.3976 979,-160 979,-160 979,-160 1288.6179,-160 1288.6179,-160"/>
<polygon fill="#000000" stroke="#000000" points="1288.6179,-163.5001 1298.6179,-160 1288.6179,-156.5001 1288.6179,-163.5001"/>
</g>
<!-- DashboardComponent -->
<g id="node11" class="node">
<title>DashboardComponent</title>
<polygon fill="#ffffb3" stroke="#000000" points="883.9734,-122 742.0266,-122 742.0266,-86 883.9734,-86 883.9734,-122"/>
<text text-anchor="middle" x="813" y="-99.8" font-family="Times,serif" font-size="14.00" fill="#000000">DashboardComponent</text>
</g>
<!-- DashboardComponent&#45;&gt;AdminModule -->
<g id="edge11" class="edge">
<title>DashboardComponent&#45;&gt;AdminModule</title>
<path fill="none" stroke="#000000" d="M813,-122.302C813,-140.2699 813,-165 813,-165 813,-165 1288.6274,-165 1288.6274,-165"/>
<polygon fill="#000000" stroke="#000000" points="1288.6275,-168.5001 1298.6274,-165 1288.6274,-161.5001 1288.6275,-168.5001"/>
</g>
<!-- ImageUploadComponent -->
<g id="node12" class="node">
<title>ImageUploadComponent</title>
<polygon fill="#ffffb3" stroke="#000000" points="723.5253,-122 566.4747,-122 566.4747,-86 723.5253,-86 723.5253,-122"/>
<text text-anchor="middle" x="645" y="-99.8" font-family="Times,serif" font-size="14.00" fill="#000000">ImageUploadComponent</text>
</g>
<!-- ImageUploadComponent&#45;&gt;AdminModule -->
<g id="edge12" class="edge">
<title>ImageUploadComponent&#45;&gt;AdminModule</title>
<path fill="none" stroke="#000000" d="M645,-122.1061C645,-141.3391 645,-169 645,-169 645,-169 1288.5664,-169 1288.5664,-169"/>
<polygon fill="#000000" stroke="#000000" points="1288.5664,-172.5001 1298.5664,-169 1288.5664,-165.5001 1288.5664,-172.5001"/>
</g>
<!-- ImageViewComponent -->
<g id="node13" class="node">
<title>ImageViewComponent</title>
<polygon fill="#ffffb3" stroke="#000000" points="548.1317,-122 401.8683,-122 401.8683,-86 548.1317,-86 548.1317,-122"/>
<text text-anchor="middle" x="475" y="-99.8" font-family="Times,serif" font-size="14.00" fill="#000000">ImageViewComponent</text>
</g>
<!-- ImageViewComponent&#45;&gt;AdminModule -->
<g id="edge13" class="edge">
<title>ImageViewComponent&#45;&gt;AdminModule</title>
<path fill="none" stroke="#000000" d="M475,-122.0267C475,-142.7672 475,-174 475,-174 475,-174 1288.5624,-174 1288.5624,-174"/>
<polygon fill="#000000" stroke="#000000" points="1288.5624,-177.5001 1298.5624,-174 1288.5624,-170.5001 1288.5624,-177.5001"/>
</g>
<!-- ListingComponentsComponent -->
<g id="node14" class="node">
<title>ListingComponentsComponent</title>
<polygon fill="#ffffb3" stroke="#000000" points="383.7785,-122 192.2215,-122 192.2215,-86 383.7785,-86 383.7785,-122"/>
<text text-anchor="middle" x="288" y="-99.8" font-family="Times,serif" font-size="14.00" fill="#000000">ListingComponentsComponent</text>
</g>
<!-- ListingComponentsComponent&#45;&gt;AdminModule -->
<g id="edge14" class="edge">
<title>ListingComponentsComponent&#45;&gt;AdminModule</title>
<path fill="none" stroke="#000000" d="M288,-122.2921C288,-144.2057 288,-178 288,-178 288,-178 1288.6484,-178 1288.6484,-178"/>
<polygon fill="#000000" stroke="#000000" points="1288.6484,-181.5001 1298.6484,-178 1288.6483,-174.5001 1288.6484,-181.5001"/>
</g>
<!-- AdminRoutingModule -->
<g id="node16" class="node">
<title>AdminRoutingModule</title>
<polygon fill="#8dd3c7" stroke="#000000" points="167.5561,-122 164.5561,-126 143.5561,-126 140.5561,-122 24.4439,-122 24.4439,-86 167.5561,-86 167.5561,-122"/>
<text text-anchor="middle" x="96" y="-99.8" font-family="Times,serif" font-size="14.00" fill="#000000">AdminRoutingModule</text>
</g>
<!-- AdminRoutingModule&#45;&gt;AdminModule -->
<g id="edge15" class="edge">
<title>AdminRoutingModule&#45;&gt;AdminModule</title>
<path fill="none" stroke="#000000" d="M96,-122.3228C96,-145.6602 96,-183 96,-183 96,-183 1288.5345,-183 1288.5345,-183"/>
<polygon fill="#000000" stroke="#000000" points="1288.5345,-186.5001 1298.5345,-183 1288.5345,-179.5001 1288.5345,-186.5001"/>
</g>
</g>
</svg>
