<?xml version="1.0" encoding="UTF-8" standalone="no"?>
<!DOCTYPE svg PUBLIC "-//W3C//DTD SVG 1.1//EN"
 "http://www.w3.org/Graphics/SVG/1.1/DTD/svg11.dtd">
<!-- Generated by graphviz version 2.40.1 (20161225.0304)
 -->
<!-- Title: dependencies Pages: 1 -->
<svg width="3695pt" height="211pt"
 viewBox="0.00 0.00 3695.00 211.00" xmlns="http://www.w3.org/2000/svg" xmlns:xlink="http://www.w3.org/1999/xlink">
<g id="graph0" class="graph" transform="scale(1 1) rotate(0) translate(4 207)">
<title>dependencies</title>
<polygon fill="#ffffff" stroke="transparent" points="-4,4 -4,-207 3691,-207 3691,4 -4,4"/>
<text text-anchor="start" x="1822.5091" y="-42.4" font-family="sans-serif" font-weight="bold" font-size="14.00" fill="#000000">Legend</text>
<polygon fill="#ffffb3" stroke="transparent" points="1609.5,-10 1609.5,-30 1629.5,-30 1629.5,-10 1609.5,-10"/>
<text text-anchor="start" x="1633.129" y="-15.4" font-family="sans-serif" font-size="14.00" fill="#000000"> &#160;Declarations</text>
<polygon fill="#8dd3c7" stroke="transparent" points="1722.5,-10 1722.5,-30 1742.5,-30 1742.5,-10 1722.5,-10"/>
<text text-anchor="start" x="1746.2251" y="-15.4" font-family="sans-serif" font-size="14.00" fill="#000000"> &#160;Module</text>
<polygon fill="#80b1d3" stroke="transparent" points="1808.5,-10 1808.5,-30 1828.5,-30 1828.5,-10 1808.5,-10"/>
<text text-anchor="start" x="1832.2812" y="-15.4" font-family="sans-serif" font-size="14.00" fill="#000000"> &#160;Bootstrap</text>
<polygon fill="#fdb462" stroke="transparent" points="1905.5,-10 1905.5,-30 1925.5,-30 1925.5,-10 1905.5,-10"/>
<text text-anchor="start" x="1929.1732" y="-15.4" font-family="sans-serif" font-size="14.00" fill="#000000"> &#160;Providers</text>
<polygon fill="#fb8072" stroke="transparent" points="2001.5,-10 2001.5,-30 2021.5,-30 2021.5,-10 2001.5,-10"/>
<text text-anchor="start" x="2025.2258" y="-15.4" font-family="sans-serif" font-size="14.00" fill="#000000"> &#160;Exports</text>
<g id="clust1" class="cluster">
<title>cluster_AdminModule</title>
<polygon fill="none" stroke="#000000" stroke-dasharray="1,5" points="8,-70 8,-195 3679,-195 3679,-70 8,-70"/>
</g>
<g id="clust2" class="cluster">
<title>cluster_AdminModule_declarations</title>
<polygon fill="none" stroke="#000000" points="184,-78 184,-130 3671,-130 3671,-78 184,-78"/>
</g>
<g id="clust22" class="cluster">
<title>cluster_AdminModule_imports</title>
<polygon fill="none" stroke="#000000" points="16,-78 16,-130 176,-130 176,-78 16,-78"/>
</g>
<!-- AdminSideNavComponent -->
<g id="node1" class="node">
<title>AdminSideNavComponent</title>
<polygon fill="#ffffb3" stroke="#000000" points="3663.4297,-122 3494.5703,-122 3494.5703,-86 3663.4297,-86 3663.4297,-122"/>
<text text-anchor="middle" x="3579" y="-99.8" font-family="Times,serif" font-size="14.00" fill="#000000">AdminSideNavComponent</text>
</g>
<!-- AdminModule -->
<g id="node20" class="node">
<title>AdminModule</title>
<polygon fill="#8dd3c7" stroke="#000000" points="1954.4386,-187 1951.4386,-191 1930.4386,-191 1927.4386,-187 1855.5614,-187 1855.5614,-151 1954.4386,-151 1954.4386,-187"/>
<text text-anchor="middle" x="1905" y="-164.8" font-family="Times,serif" font-size="14.00" fill="#000000">AdminModule</text>
</g>
<!-- AdminSideNavComponent&#45;&gt;AdminModule -->
<g id="edge1" class="edge">
<title>AdminSideNavComponent&#45;&gt;AdminModule</title>
<path fill="none" stroke="#000000" d="M3579,-122.1532C3579,-145.7566 3579,-184 3579,-184 3579,-184 1964.6453,-184 1964.6453,-184"/>
<polygon fill="#000000" stroke="#000000" points="1964.6454,-180.5001 1954.6453,-184 1964.6453,-187.5001 1964.6454,-180.5001"/>
</g>
<!-- AdminChannelsComponent -->
<g id="node2" class="node">
<title>AdminChannelsComponent</title>
<polygon fill="#ffffb3" stroke="#000000" points="3477.3215,-122 3304.6785,-122 3304.6785,-86 3477.3215,-86 3477.3215,-122"/>
<text text-anchor="middle" x="3391" y="-99.8" font-family="Times,serif" font-size="14.00" fill="#000000">AdminChannelsComponent</text>
</g>
<!-- AdminChannelsComponent&#45;&gt;AdminModule -->
<g id="edge2" class="edge">
<title>AdminChannelsComponent&#45;&gt;AdminModule</title>
<path fill="none" stroke="#000000" d="M3391,-122.0109C3391,-144.4852 3391,-180 3391,-180 3391,-180 1964.4419,-180 1964.4419,-180"/>
<polygon fill="#000000" stroke="#000000" points="1964.4419,-176.5001 1954.4419,-180 1964.4418,-183.5001 1964.4419,-176.5001"/>
</g>
<!-- DashboardComponent -->
<g id="node3" class="node">
<title>DashboardComponent</title>
<polygon fill="#ffffb3" stroke="#000000" points="3286.9734,-122 3145.0266,-122 3145.0266,-86 3286.9734,-86 3286.9734,-122"/>
<text text-anchor="middle" x="3216" y="-99.8" font-family="Times,serif" font-size="14.00" fill="#000000">DashboardComponent</text>
</g>
<!-- DashboardComponent&#45;&gt;AdminModule -->
<g id="edge3" class="edge">
<title>DashboardComponent&#45;&gt;AdminModule</title>
<path fill="none" stroke="#000000" d="M3216,-122.0449C3216,-143.6623 3216,-177 3216,-177 3216,-177 1964.3953,-177 1964.3953,-177"/>
<polygon fill="#000000" stroke="#000000" points="1964.3953,-173.5001 1954.3953,-177 1964.3952,-180.5001 1964.3953,-173.5001"/>
</g>
<!-- SettingComponent -->
<g id="node4" class="node">
<title>SettingComponent</title>
<polygon fill="#ffffb3" stroke="#000000" points="3127.5014,-122 3006.4986,-122 3006.4986,-86 3127.5014,-86 3127.5014,-122"/>
<text text-anchor="middle" x="3067" y="-99.8" font-family="Times,serif" font-size="14.00" fill="#000000">SettingComponent</text>
</g>
<!-- SettingComponent&#45;&gt;AdminModule -->
<g id="edge4" class="edge">
<title>SettingComponent&#45;&gt;AdminModule</title>
<path fill="none" stroke="#000000" d="M3067,-122.1289C3067,-142.5724 3067,-173 3067,-173 3067,-173 1964.558,-173 1964.558,-173"/>
<polygon fill="#000000" stroke="#000000" points="1964.558,-169.5001 1954.558,-173 1964.5579,-176.5001 1964.558,-169.5001"/>
</g>
<!-- BuildServersComponent -->
<g id="node5" class="node">
<title>BuildServersComponent</title>
<polygon fill="#ffffb3" stroke="#000000" points="2988.4284,-122 2833.5716,-122 2833.5716,-86 2988.4284,-86 2988.4284,-122"/>
<text text-anchor="middle" x="2911" y="-99.8" font-family="Times,serif" font-size="14.00" fill="#000000">BuildServersComponent</text>
</g>
<!-- BuildServersComponent&#45;&gt;AdminModule -->
<g id="edge5" class="edge">
<title>BuildServersComponent&#45;&gt;AdminModule</title>
<path fill="none" stroke="#000000" d="M2911,-122.1061C2911,-141.3391 2911,-169 2911,-169 2911,-169 1964.5446,-169 1964.5446,-169"/>
<polygon fill="#000000" stroke="#000000" points="1964.5446,-165.5001 1954.5446,-169 1964.5445,-172.5001 1964.5446,-165.5001"/>
</g>
<!-- AdminComponent -->
<g id="node6" class="node">
<title>AdminComponent</title>
<polygon fill="#ffffb3" stroke="#000000" points="2816.2204,-122 2695.7796,-122 2695.7796,-86 2816.2204,-86 2816.2204,-122"/>
<text text-anchor="middle" x="2756" y="-99.8" font-family="Times,serif" font-size="14.00" fill="#000000">AdminComponent</text>
</g>
<!-- AdminComponent&#45;&gt;AdminModule -->
<g id="edge6" class="edge">
<title>AdminComponent&#45;&gt;AdminModule</title>
<path fill="none" stroke="#000000" d="M2756,-122.2667C2756,-140.5552 2756,-166 2756,-166 2756,-166 1964.4317,-166 1964.4317,-166"/>
<polygon fill="#000000" stroke="#000000" points="1964.4317,-162.5001 1954.4317,-166 1964.4317,-169.5001 1964.4317,-162.5001"/>
</g>
<!-- AdminEntranceComponent -->
<g id="node7" class="node">
<title>AdminEntranceComponent</title>
<polygon fill="#ffffb3" stroke="#000000" points="2677.9678,-122 2508.0322,-122 2508.0322,-86 2677.9678,-86 2677.9678,-122"/>
<text text-anchor="middle" x="2593" y="-99.8" font-family="Times,serif" font-size="14.00" fill="#000000">AdminEntranceComponent</text>
</g>
<!-- AdminEntranceComponent&#45;&gt;AdminModule -->
<g id="edge7" class="edge">
<title>AdminEntranceComponent&#45;&gt;AdminModule</title>
<path fill="none" stroke="#000000" d="M2593,-122.0336C2593,-139.0597 2593,-162 2593,-162 2593,-162 1964.4793,-162 1964.4793,-162"/>
<polygon fill="#000000" stroke="#000000" points="1964.4793,-158.5001 1954.4793,-162 1964.4792,-165.5001 1964.4793,-158.5001"/>
</g>
<!-- AdminEntranceDetailComponent -->
<g id="node8" class="node">
<title>AdminEntranceDetailComponent</title>
<polygon fill="#ffffb3" stroke="#000000" points="2490.1755,-122 2285.8245,-122 2285.8245,-86 2490.1755,-86 2490.1755,-122"/>
<text text-anchor="middle" x="2388" y="-99.8" font-family="Times,serif" font-size="14.00" fill="#000000">AdminEntranceDetailComponent</text>
</g>
<!-- AdminEntranceDetailComponent&#45;&gt;AdminModule -->
<g id="edge8" class="edge">
<title>AdminEntranceDetailComponent&#45;&gt;AdminModule</title>
<path fill="none" stroke="#000000" d="M2388,-122.0091C2388,-138.0494 2388,-159 2388,-159 2388,-159 1964.4196,-159 1964.4196,-159"/>
<polygon fill="#000000" stroke="#000000" points="1964.4197,-155.5001 1954.4196,-159 1964.4196,-162.5001 1964.4197,-155.5001"/>
</g>
<!-- AdminEventComponent -->
<g id="node9" class="node">
<title>AdminEventComponent</title>
<polygon fill="#ffffb3" stroke="#000000" points="2267.378,-122 2114.622,-122 2114.622,-86 2267.378,-86 2267.378,-122"/>
<text text-anchor="middle" x="2191" y="-99.8" font-family="Times,serif" font-size="14.00" fill="#000000">AdminEventComponent</text>
</g>
<!-- AdminEventComponent&#45;&gt;AdminModule -->
<g id="edge9" class="edge">
<title>AdminEventComponent&#45;&gt;AdminModule</title>
<path fill="none" stroke="#000000" d="M2191,-122.1243C2191,-136.7832 2191,-155 2191,-155 2191,-155 1964.4909,-155 1964.4909,-155"/>
<polygon fill="#000000" stroke="#000000" points="1964.4909,-151.5001 1954.4909,-155 1964.4909,-158.5001 1964.4909,-151.5001"/>
</g>
<!-- AdminEventDetailComponent -->
<g id="node10" class="node">
<title>AdminEventDetailComponent</title>
<polygon fill="#ffffb3" stroke="#000000" points="2096.5856,-122 1909.4144,-122 1909.4144,-86 2096.5856,-86 2096.5856,-122"/>
<text text-anchor="middle" x="2003" y="-99.8" font-family="Times,serif" font-size="14.00" fill="#000000">AdminEventDetailComponent</text>
</g>
<!-- AdminEventDetailComponent&#45;&gt;AdminModule -->
<g id="edge10" class="edge">
<title>AdminEventDetailComponent&#45;&gt;AdminModule</title>
<path fill="none" stroke="#000000" d="M1931.838,-122.1061C1931.838,-122.1061 1931.838,-140.991 1931.838,-140.991"/>
<polygon fill="#000000" stroke="#000000" points="1928.3381,-140.9909 1931.838,-150.991 1935.3381,-140.991 1928.3381,-140.9909"/>
</g>
<!-- AdminMeetingComponent -->
<g id="node11" class="node">
<title>AdminMeetingComponent</title>
<polygon fill="#ffffb3" stroke="#000000" points="1891.3752,-122 1724.6248,-122 1724.6248,-86 1891.3752,-86 1891.3752,-122"/>
<text text-anchor="middle" x="1808" y="-99.8" font-family="Times,serif" font-size="14.00" fill="#000000">AdminMeetingComponent</text>
</g>
<!-- AdminMeetingComponent&#45;&gt;AdminModule -->
<g id="edge11" class="edge">
<title>AdminMeetingComponent&#45;&gt;AdminModule</title>
<path fill="none" stroke="#000000" d="M1873.6094,-122.1061C1873.6094,-122.1061 1873.6094,-140.991 1873.6094,-140.991"/>
<polygon fill="#000000" stroke="#000000" points="1870.1095,-140.9909 1873.6094,-150.991 1877.1095,-140.991 1870.1095,-140.9909"/>
</g>
<!-- SupportTicketsComponent -->
<g id="node12" class="node">
<title>SupportTicketsComponent</title>
<polygon fill="#ffffb3" stroke="#000000" points="1706.3738,-122 1539.6262,-122 1539.6262,-86 1706.3738,-86 1706.3738,-122"/>
<text text-anchor="middle" x="1623" y="-99.8" font-family="Times,serif" font-size="14.00" fill="#000000">SupportTicketsComponent</text>
</g>
<!-- SupportTicketsComponent&#45;&gt;AdminModule -->
<g id="edge12" class="edge">
<title>SupportTicketsComponent&#45;&gt;AdminModule</title>
<path fill="none" stroke="#000000" d="M1623,-122.1243C1623,-136.7832 1623,-155 1623,-155 1623,-155 1845.5567,-155 1845.5567,-155"/>
<polygon fill="#000000" stroke="#000000" points="1845.5567,-158.5001 1855.5567,-155 1845.5566,-151.5001 1845.5567,-158.5001"/>
</g>
<!-- ImageUploadComponent -->
<g id="node13" class="node">
<title>ImageUploadComponent</title>
<polygon fill="#ffffb3" stroke="#000000" points="1521.5253,-122 1364.4747,-122 1364.4747,-86 1521.5253,-86 1521.5253,-122"/>
<text text-anchor="middle" x="1443" y="-99.8" font-family="Times,serif" font-size="14.00" fill="#000000">ImageUploadComponent</text>
</g>
<!-- ImageUploadComponent&#45;&gt;AdminModule -->
<g id="edge13" class="edge">
<title>ImageUploadComponent&#45;&gt;AdminModule</title>
<path fill="none" stroke="#000000" d="M1443,-122.0091C1443,-138.0494 1443,-159 1443,-159 1443,-159 1845.5579,-159 1845.5579,-159"/>
<polygon fill="#000000" stroke="#000000" points="1845.5579,-162.5001 1855.5579,-159 1845.5579,-155.5001 1845.5579,-162.5001"/>
</g>
<!-- ImageViewComponent -->
<g id="node14" class="node">
<title>ImageViewComponent</title>
<polygon fill="#ffffb3" stroke="#000000" points="1346.1317,-122 1199.8683,-122 1199.8683,-86 1346.1317,-86 1346.1317,-122"/>
<text text-anchor="middle" x="1273" y="-99.8" font-family="Times,serif" font-size="14.00" fill="#000000">ImageViewComponent</text>
</g>
<!-- ImageViewComponent&#45;&gt;AdminModule -->
<g id="edge14" class="edge">
<title>ImageViewComponent&#45;&gt;AdminModule</title>
<path fill="none" stroke="#000000" d="M1273,-122.0336C1273,-139.0597 1273,-162 1273,-162 1273,-162 1845.6713,-162 1845.6713,-162"/>
<polygon fill="#000000" stroke="#000000" points="1845.6713,-165.5001 1855.6713,-162 1845.6712,-158.5001 1845.6713,-165.5001"/>
</g>
<!-- AdminChannelsContentsComponent -->
<g id="node15" class="node">
<title>AdminChannelsContentsComponent</title>
<polygon fill="#ffffb3" stroke="#000000" points="1182.0982,-122 959.9018,-122 959.9018,-86 1182.0982,-86 1182.0982,-122"/>
<text text-anchor="middle" x="1071" y="-99.8" font-family="Times,serif" font-size="14.00" fill="#000000">AdminChannelsContentsComponent</text>
</g>
<!-- AdminChannelsContentsComponent&#45;&gt;AdminModule -->
<g id="edge15" class="edge">
<title>AdminChannelsContentsComponent&#45;&gt;AdminModule</title>
<path fill="none" stroke="#000000" d="M1071,-122.2667C1071,-140.5552 1071,-166 1071,-166 1071,-166 1845.6355,-166 1845.6355,-166"/>
<polygon fill="#000000" stroke="#000000" points="1845.6356,-169.5001 1855.6355,-166 1845.6355,-162.5001 1845.6356,-169.5001"/>
</g>
<!-- EntranceContentsComponent -->
<g id="node16" class="node">
<title>EntranceContentsComponent</title>
<polygon fill="#ffffb3" stroke="#000000" points="942.3571,-122 761.6429,-122 761.6429,-86 942.3571,-86 942.3571,-122"/>
<text text-anchor="middle" x="852" y="-99.8" font-family="Times,serif" font-size="14.00" fill="#000000">EntranceContentsComponent</text>
</g>
<!-- EntranceContentsComponent&#45;&gt;AdminModule -->
<g id="edge16" class="edge">
<title>EntranceContentsComponent&#45;&gt;AdminModule</title>
<path fill="none" stroke="#000000" d="M852,-122.1061C852,-141.3391 852,-169 852,-169 852,-169 1845.624,-169 1845.624,-169"/>
<polygon fill="#000000" stroke="#000000" points="1845.624,-172.5001 1855.624,-169 1845.6239,-165.5001 1845.624,-172.5001"/>
</g>
<!-- MeetingContentsComponent -->
<g id="node17" class="node">
<title>MeetingContentsComponent</title>
<polygon fill="#ffffb3" stroke="#000000" points="743.7646,-122 566.2354,-122 566.2354,-86 743.7646,-86 743.7646,-122"/>
<text text-anchor="middle" x="655" y="-99.8" font-family="Times,serif" font-size="14.00" fill="#000000">MeetingContentsComponent</text>
</g>
<!-- MeetingContentsComponent&#45;&gt;AdminModule -->
<g id="edge17" class="edge">
<title>MeetingContentsComponent&#45;&gt;AdminModule</title>
<path fill="none" stroke="#000000" d="M655,-122.1289C655,-142.5724 655,-173 655,-173 655,-173 1845.6135,-173 1845.6135,-173"/>
<polygon fill="#000000" stroke="#000000" points="1845.6135,-176.5001 1855.6135,-173 1845.6135,-169.5001 1845.6135,-176.5001"/>
</g>
<!-- OtherContentsComponent -->
<g id="node18" class="node">
<title>OtherContentsComponent</title>
<polygon fill="#ffffb3" stroke="#000000" points="548.4818,-122 385.5182,-122 385.5182,-86 548.4818,-86 548.4818,-122"/>
<text text-anchor="middle" x="467" y="-99.8" font-family="Times,serif" font-size="14.00" fill="#000000">OtherContentsComponent</text>
</g>
<!-- OtherContentsComponent&#45;&gt;AdminModule -->
<g id="edge18" class="edge">
<title>OtherContentsComponent&#45;&gt;AdminModule</title>
<path fill="none" stroke="#000000" d="M467,-122.0449C467,-143.6623 467,-177 467,-177 467,-177 1845.5008,-177 1845.5008,-177"/>
<polygon fill="#000000" stroke="#000000" points="1845.5008,-180.5001 1855.5008,-177 1845.5008,-173.5001 1845.5008,-180.5001"/>
</g>
<!-- SupportContentsComponent -->
<g id="node19" class="node">
<title>SupportContentsComponent</title>
<polygon fill="#ffffb3" stroke="#000000" points="367.9438,-122 192.0562,-122 192.0562,-86 367.9438,-86 367.9438,-122"/>
<text text-anchor="middle" x="280" y="-99.8" font-family="Times,serif" font-size="14.00" fill="#000000">SupportContentsComponent</text>
</g>
<!-- SupportContentsComponent&#45;&gt;AdminModule -->
<g id="edge19" class="edge">
<title>SupportContentsComponent&#45;&gt;AdminModule</title>
<path fill="none" stroke="#000000" d="M280,-122.0109C280,-144.4852 280,-180 280,-180 280,-180 1845.4797,-180 1845.4797,-180"/>
<polygon fill="#000000" stroke="#000000" points="1845.4797,-183.5001 1855.4797,-180 1845.4797,-176.5001 1845.4797,-183.5001"/>
</g>
<!-- AdminRoutingModule -->
<g id="node21" class="node">
<title>AdminRoutingModule</title>
<polygon fill="#8dd3c7" stroke="#000000" points="167.5561,-122 164.5561,-126 143.5561,-126 140.5561,-122 24.4439,-122 24.4439,-86 167.5561,-86 167.5561,-122"/>
<text text-anchor="middle" x="96" y="-99.8" font-family="Times,serif" font-size="14.00" fill="#000000">AdminRoutingModule</text>
</g>
<!-- AdminRoutingModule&#45;&gt;AdminModule -->
<g id="edge20" class="edge">
<title>AdminRoutingModule&#45;&gt;AdminModule</title>
<path fill="none" stroke="#000000" d="M96,-122.1532C96,-145.7566 96,-184 96,-184 96,-184 1845.6754,-184 1845.6754,-184"/>
<polygon fill="#000000" stroke="#000000" points="1845.6755,-187.5001 1855.6754,-184 1845.6754,-180.5001 1845.6755,-187.5001"/>
</g>
</g>
</svg>
