<?xml version="1.0" encoding="UTF-8" standalone="no"?>
<!DOCTYPE svg PUBLIC "-//W3C//DTD SVG 1.1//EN"
 "http://www.w3.org/Graphics/SVG/1.1/DTD/svg11.dtd">
<!-- Generated by graphviz version 2.40.1 (20161225.0304)
 -->
<!-- Title: dependencies Pages: 1 -->
<svg width="1284pt" height="284pt"
 viewBox="0.00 0.00 1284.00 284.00" xmlns="http://www.w3.org/2000/svg" xmlns:xlink="http://www.w3.org/1999/xlink">
<g id="graph0" class="graph" transform="scale(1 1) rotate(0) translate(4 280)">
<title>dependencies</title>
<polygon fill="#ffffff" stroke="transparent" points="-4,4 -4,-280 1280,-280 1280,4 -4,4"/>
<text text-anchor="start" x="617.0091" y="-42.4" font-family="sans-serif" font-weight="bold" font-size="14.00" fill="#000000">Legend</text>
<polygon fill="#ffffb3" stroke="transparent" points="404,-10 404,-30 424,-30 424,-10 404,-10"/>
<text text-anchor="start" x="427.629" y="-15.4" font-family="sans-serif" font-size="14.00" fill="#000000"> &#160;Declarations</text>
<polygon fill="#8dd3c7" stroke="transparent" points="517,-10 517,-30 537,-30 537,-10 517,-10"/>
<text text-anchor="start" x="540.7251" y="-15.4" font-family="sans-serif" font-size="14.00" fill="#000000"> &#160;Module</text>
<polygon fill="#80b1d3" stroke="transparent" points="603,-10 603,-30 623,-30 623,-10 603,-10"/>
<text text-anchor="start" x="626.7812" y="-15.4" font-family="sans-serif" font-size="14.00" fill="#000000"> &#160;Bootstrap</text>
<polygon fill="#fdb462" stroke="transparent" points="700,-10 700,-30 720,-30 720,-10 700,-10"/>
<text text-anchor="start" x="723.6732" y="-15.4" font-family="sans-serif" font-size="14.00" fill="#000000"> &#160;Providers</text>
<polygon fill="#fb8072" stroke="transparent" points="796,-10 796,-30 816,-30 816,-10 796,-10"/>
<text text-anchor="start" x="819.7258" y="-15.4" font-family="sans-serif" font-size="14.00" fill="#000000"> &#160;Exports</text>
<g id="clust1" class="cluster">
<title>cluster_AppModule</title>
<polygon fill="none" stroke="#000000" stroke-dasharray="1,5" points="8,-70 8,-268 1268,-268 1268,-70 8,-70"/>
</g>
<g id="clust2" class="cluster">
<title>cluster_AppModule_declarations</title>
<polygon fill="none" stroke="#000000" points="1138,-78 1138,-130 1260,-130 1260,-78 1138,-78"/>
</g>
<g id="clust4" class="cluster">
<title>cluster_AppModule_imports</title>
<polygon fill="none" stroke="#000000" points="740,-78 740,-130 1130,-130 1130,-78 740,-78"/>
</g>
<g id="clust6" class="cluster">
<title>cluster_AppModule_bootstrap</title>
<polygon fill="none" stroke="#000000" points="604,-208 604,-260 728,-260 728,-208 604,-208"/>
</g>
<g id="clust7" class="cluster">
<title>cluster_AppModule_providers</title>
<polygon fill="none" stroke="#000000" points="16,-78 16,-130 732,-130 732,-78 16,-78"/>
</g>
<!-- AppComponent -->
<g id="node1" class="node">
<title>AppComponent</title>
<polygon fill="#ffffb3" stroke="#000000" points="1251.9399,-122 1146.0601,-122 1146.0601,-86 1251.9399,-86 1251.9399,-122"/>
<text text-anchor="middle" x="1199" y="-99.8" font-family="Times,serif" font-size="14.00" fill="#000000">AppComponent</text>
</g>
<!-- AppModule -->
<g id="node2" class="node">
<title>AppModule</title>
<polygon fill="#8dd3c7" stroke="#000000" points="707.6571,-187 704.6571,-191 683.6571,-191 680.6571,-187 624.3429,-187 624.3429,-151 707.6571,-151 707.6571,-187"/>
<text text-anchor="middle" x="666" y="-164.8" font-family="Times,serif" font-size="14.00" fill="#000000">AppModule</text>
</g>
<!-- AppComponent&#45;&gt;AppModule -->
<g id="edge1" class="edge">
<title>AppComponent&#45;&gt;AppModule</title>
<path fill="none" stroke="#000000" d="M1199,-122.0109C1199,-144.4852 1199,-180 1199,-180 1199,-180 717.8236,-180 717.8236,-180"/>
<polygon fill="#000000" stroke="#000000" points="717.8237,-176.5001 707.8236,-180 717.8236,-183.5001 717.8237,-176.5001"/>
</g>
<!-- AppComponent  -->
<g id="node6" class="node">
<title>AppComponent </title>
<polygon fill="#80b1d3" stroke="#000000" points="720.439,-252 611.561,-252 611.561,-216 720.439,-216 720.439,-252"/>
<text text-anchor="middle" x="666" y="-229.8" font-family="Times,serif" font-size="14.00" fill="#000000">AppComponent </text>
</g>
<!-- AppModule&#45;&gt;AppComponent  -->
<g id="edge5" class="edge">
<title>AppModule&#45;&gt;AppComponent </title>
<path fill="none" stroke="#000000" stroke-dasharray="1,5" d="M666,-187.1061C666,-187.1061 666,-205.991 666,-205.991"/>
<polygon fill="#000000" stroke="#000000" points="662.5001,-205.9909 666,-215.991 669.5001,-205.991 662.5001,-205.9909"/>
</g>
<!-- AdminModule -->
<g id="node3" class="node">
<title>AdminModule</title>
<polygon fill="#8dd3c7" stroke="#000000" points="1122.4386,-122 1119.4386,-126 1098.4386,-126 1095.4386,-122 1023.5614,-122 1023.5614,-86 1122.4386,-86 1122.4386,-122"/>
<text text-anchor="middle" x="1073" y="-99.8" font-family="Times,serif" font-size="14.00" fill="#000000">AdminModule</text>
</g>
<!-- AdminModule&#45;&gt;AppModule -->
<g id="edge2" class="edge">
<title>AdminModule&#45;&gt;AppModule</title>
<path fill="none" stroke="#000000" d="M1073,-122.1289C1073,-142.5724 1073,-173 1073,-173 1073,-173 718.0232,-173 718.0232,-173"/>
<polygon fill="#000000" stroke="#000000" points="718.0232,-169.5001 708.0232,-173 718.0232,-176.5001 718.0232,-169.5001"/>
</g>
<!-- ChannelsModule -->
<g id="node4" class="node">
<title>ChannelsModule</title>
<polygon fill="#8dd3c7" stroke="#000000" points="1005.6513,-122 1002.6513,-126 981.6513,-126 978.6513,-122 894.3487,-122 894.3487,-86 1005.6513,-86 1005.6513,-122"/>
<text text-anchor="middle" x="950" y="-99.8" font-family="Times,serif" font-size="14.00" fill="#000000">ChannelsModule</text>
</g>
<!-- ChannelsModule&#45;&gt;AppModule -->
<g id="edge3" class="edge">
<title>ChannelsModule&#45;&gt;AppModule</title>
<path fill="none" stroke="#000000" d="M950,-122.2667C950,-140.5552 950,-166 950,-166 950,-166 717.9052,-166 717.9052,-166"/>
<polygon fill="#000000" stroke="#000000" points="717.9052,-162.5001 707.9052,-166 717.9051,-169.5001 717.9052,-162.5001"/>
</g>
<!-- AppRoutingModule -->
<g id="node5" class="node">
<title>AppRoutingModule</title>
<polygon fill="#8dd3c7" stroke="#000000" points="876.2744,-122 873.2744,-126 852.2744,-126 849.2744,-122 747.7256,-122 747.7256,-86 876.2744,-86 876.2744,-122"/>
<text text-anchor="middle" x="812" y="-99.8" font-family="Times,serif" font-size="14.00" fill="#000000">AppRoutingModule</text>
</g>
<!-- AppRoutingModule&#45;&gt;AppModule -->
<g id="edge4" class="edge">
<title>AppRoutingModule&#45;&gt;AppModule</title>
<path fill="none" stroke="#000000" d="M812,-122.0091C812,-138.0494 812,-159 812,-159 812,-159 717.8377,-159 717.8377,-159"/>
<polygon fill="#000000" stroke="#000000" points="717.8378,-155.5001 707.8377,-159 717.8377,-162.5001 717.8378,-155.5001"/>
</g>
<!-- DataService -->
<g id="node7" class="node">
<title>DataService</title>
<ellipse fill="#fdb462" stroke="#000000" cx="666" cy="-104" rx="58.4415" ry="18"/>
<text text-anchor="middle" x="666" y="-99.8" font-family="Times,serif" font-size="14.00" fill="#000000">DataService</text>
</g>
<!-- DataService&#45;&gt;AppModule -->
<g id="edge6" class="edge">
<title>DataService&#45;&gt;AppModule</title>
<path fill="none" stroke="#000000" d="M666,-122.1061C666,-122.1061 666,-140.991 666,-140.991"/>
<polygon fill="#000000" stroke="#000000" points="662.5001,-140.9909 666,-150.991 669.5001,-140.991 662.5001,-140.9909"/>
</g>
<!-- SocketService -->
<g id="node8" class="node">
<title>SocketService</title>
<ellipse fill="#fdb462" stroke="#000000" cx="524" cy="-104" rx="66.0492" ry="18"/>
<text text-anchor="middle" x="524" y="-99.8" font-family="Times,serif" font-size="14.00" fill="#000000">SocketService</text>
</g>
<!-- SocketService&#45;&gt;AppModule -->
<g id="edge7" class="edge">
<title>SocketService&#45;&gt;AppModule</title>
<path fill="none" stroke="#000000" d="M524,-122.0091C524,-138.0494 524,-159 524,-159 524,-159 614.1633,-159 614.1633,-159"/>
<polygon fill="#000000" stroke="#000000" points="614.1634,-162.5001 624.1633,-159 614.1633,-155.5001 614.1634,-162.5001"/>
</g>
<!-- NewsService -->
<g id="node9" class="node">
<title>NewsService</title>
<ellipse fill="#fdb462" stroke="#000000" cx="378" cy="-104" rx="61.9538" ry="18"/>
<text text-anchor="middle" x="378" y="-99.8" font-family="Times,serif" font-size="14.00" fill="#000000">NewsService</text>
</g>
<!-- NewsService&#45;&gt;AppModule -->
<g id="edge8" class="edge">
<title>NewsService&#45;&gt;AppModule</title>
<path fill="none" stroke="#000000" d="M378,-122.2667C378,-140.5552 378,-166 378,-166 378,-166 614.1223,-166 614.1223,-166"/>
<polygon fill="#000000" stroke="#000000" points="614.1224,-169.5001 624.1223,-166 614.1223,-162.5001 614.1224,-169.5001"/>
</g>
<!-- WeatherService -->
<g id="node10" class="node">
<title>WeatherService</title>
<ellipse fill="#fdb462" stroke="#000000" cx="225" cy="-104" rx="72.8889" ry="18"/>
<text text-anchor="middle" x="225" y="-99.8" font-family="Times,serif" font-size="14.00" fill="#000000">WeatherService</text>
</g>
<!-- WeatherService&#45;&gt;AppModule -->
<g id="edge9" class="edge">
<title>WeatherService&#45;&gt;AppModule</title>
<path fill="none" stroke="#000000" d="M225,-122.1289C225,-142.5724 225,-173 225,-173 225,-173 614.1142,-173 614.1142,-173"/>
<polygon fill="#000000" stroke="#000000" points="614.1142,-176.5001 624.1142,-173 614.1142,-169.5001 614.1142,-176.5001"/>
</g>
<!-- FileService -->
<g id="node11" class="node">
<title>FileService</title>
<ellipse fill="#fdb462" stroke="#000000" cx="79" cy="-104" rx="55.0285" ry="18"/>
<text text-anchor="middle" x="79" y="-99.8" font-family="Times,serif" font-size="14.00" fill="#000000">FileService</text>
</g>
<!-- FileService&#45;&gt;AppModule -->
<g id="edge10" class="edge">
<title>FileService&#45;&gt;AppModule</title>
<path fill="none" stroke="#000000" d="M79,-122.0109C79,-144.4852 79,-180 79,-180 79,-180 614.255,-180 614.255,-180"/>
<polygon fill="#000000" stroke="#000000" points="614.255,-183.5001 624.255,-180 614.255,-176.5001 614.255,-183.5001"/>
</g>
</g>
</svg>
