<?xml version="1.0" encoding="UTF-8" standalone="no"?>
<!DOCTYPE svg PUBLIC "-//W3C//DTD SVG 1.1//EN"
 "http://www.w3.org/Graphics/SVG/1.1/DTD/svg11.dtd">
<!-- Generated by graphviz version 2.40.1 (20161225.0304)
 -->
<!-- Title: dependencies Pages: 1 -->
<svg width="1207pt" height="284pt"
 viewBox="0.00 0.00 1207.00 284.00" xmlns="http://www.w3.org/2000/svg" xmlns:xlink="http://www.w3.org/1999/xlink">
<g id="graph0" class="graph" transform="scale(1 1) rotate(0) translate(4 280)">
<title>dependencies</title>
<polygon fill="#ffffff" stroke="transparent" points="-4,4 -4,-280 1203,-280 1203,4 -4,4"/>
<text text-anchor="start" x="578.5091" y="-42.4" font-family="sans-serif" font-weight="bold" font-size="14.00" fill="#000000">Legend</text>
<polygon fill="#ffffb3" stroke="transparent" points="365.5,-10 365.5,-30 385.5,-30 385.5,-10 365.5,-10"/>
<text text-anchor="start" x="389.129" y="-15.4" font-family="sans-serif" font-size="14.00" fill="#000000"> &#160;Declarations</text>
<polygon fill="#8dd3c7" stroke="transparent" points="478.5,-10 478.5,-30 498.5,-30 498.5,-10 478.5,-10"/>
<text text-anchor="start" x="502.2251" y="-15.4" font-family="sans-serif" font-size="14.00" fill="#000000"> &#160;Module</text>
<polygon fill="#80b1d3" stroke="transparent" points="564.5,-10 564.5,-30 584.5,-30 584.5,-10 564.5,-10"/>
<text text-anchor="start" x="588.2812" y="-15.4" font-family="sans-serif" font-size="14.00" fill="#000000"> &#160;Bootstrap</text>
<polygon fill="#fdb462" stroke="transparent" points="661.5,-10 661.5,-30 681.5,-30 681.5,-10 661.5,-10"/>
<text text-anchor="start" x="685.1732" y="-15.4" font-family="sans-serif" font-size="14.00" fill="#000000"> &#160;Providers</text>
<polygon fill="#fb8072" stroke="transparent" points="757.5,-10 757.5,-30 777.5,-30 777.5,-10 757.5,-10"/>
<text text-anchor="start" x="781.2258" y="-15.4" font-family="sans-serif" font-size="14.00" fill="#000000"> &#160;Exports</text>
<g id="clust1" class="cluster">
<title>cluster_AppModule</title>
<polygon fill="none" stroke="#000000" stroke-dasharray="1,5" points="8,-70 8,-268 1191,-268 1191,-70 8,-70"/>
</g>
<g id="clust2" class="cluster">
<title>cluster_AppModule_declarations</title>
<polygon fill="none" stroke="#000000" points="1061,-78 1061,-130 1183,-130 1183,-78 1061,-78"/>
</g>
<g id="clust4" class="cluster">
<title>cluster_AppModule_imports</title>
<polygon fill="none" stroke="#000000" points="590,-78 590,-130 1053,-130 1053,-78 590,-78"/>
</g>
<g id="clust6" class="cluster">
<title>cluster_AppModule_bootstrap</title>
<polygon fill="none" stroke="#000000" points="592,-208 592,-260 716,-260 716,-208 592,-208"/>
</g>
<g id="clust7" class="cluster">
<title>cluster_AppModule_providers</title>
<polygon fill="none" stroke="#000000" points="16,-78 16,-130 582,-130 582,-78 16,-78"/>
</g>
<!-- AppComponent -->
<g id="node1" class="node">
<title>AppComponent</title>
<polygon fill="#ffffb3" stroke="#000000" points="1174.9399,-122 1069.0601,-122 1069.0601,-86 1174.9399,-86 1174.9399,-122"/>
<text text-anchor="middle" x="1122" y="-99.8" font-family="Times,serif" font-size="14.00" fill="#000000">AppComponent</text>
</g>
<!-- AppModule -->
<g id="node2" class="node">
<title>AppModule</title>
<polygon fill="#8dd3c7" stroke="#000000" points="695.6571,-187 692.6571,-191 671.6571,-191 668.6571,-187 612.3429,-187 612.3429,-151 695.6571,-151 695.6571,-187"/>
<text text-anchor="middle" x="654" y="-164.8" font-family="Times,serif" font-size="14.00" fill="#000000">AppModule</text>
</g>
<!-- AppComponent&#45;&gt;AppModule -->
<g id="edge1" class="edge">
<title>AppComponent&#45;&gt;AppModule</title>
<path fill="none" stroke="#000000" d="M1122,-122.0109C1122,-144.4852 1122,-180 1122,-180 1122,-180 705.9437,-180 705.9437,-180"/>
<polygon fill="#000000" stroke="#000000" points="705.9438,-176.5001 695.9437,-180 705.9437,-183.5001 705.9438,-176.5001"/>
</g>
<!-- AppComponent  -->
<g id="node7" class="node">
<title>AppComponent </title>
<polygon fill="#80b1d3" stroke="#000000" points="708.439,-252 599.561,-252 599.561,-216 708.439,-216 708.439,-252"/>
<text text-anchor="middle" x="654" y="-229.8" font-family="Times,serif" font-size="14.00" fill="#000000">AppComponent </text>
</g>
<!-- AppModule&#45;&gt;AppComponent  -->
<g id="edge6" class="edge">
<title>AppModule&#45;&gt;AppComponent </title>
<path fill="none" stroke="#000000" stroke-dasharray="1,5" d="M654,-187.1061C654,-187.1061 654,-205.991 654,-205.991"/>
<polygon fill="#000000" stroke="#000000" points="650.5001,-205.9909 654,-215.991 657.5001,-205.991 650.5001,-205.9909"/>
</g>
<!-- ! -->
<g id="node3" class="node">
<title>!</title>
<polygon fill="#8dd3c7" stroke="#000000" points="1045,-122 1042,-126 1021,-126 1018,-122 991,-122 991,-86 1045,-86 1045,-122"/>
<text text-anchor="middle" x="1018" y="-99.8" font-family="Times,serif" font-size="14.00" fill="#000000">!</text>
</g>
<!-- !&#45;&gt;AppModule -->
<g id="edge2" class="edge">
<title>!&#45;&gt;AppModule</title>
<path fill="none" stroke="#000000" d="M1018,-122.1289C1018,-142.5724 1018,-173 1018,-173 1018,-173 705.7554,-173 705.7554,-173"/>
<polygon fill="#000000" stroke="#000000" points="705.7555,-169.5001 695.7554,-173 705.7554,-176.5001 705.7555,-169.5001"/>
</g>
<!-- AdminModule -->
<g id="node4" class="node">
<title>AdminModule</title>
<polygon fill="#8dd3c7" stroke="#000000" points="973.4386,-122 970.4386,-126 949.4386,-126 946.4386,-122 874.5614,-122 874.5614,-86 973.4386,-86 973.4386,-122"/>
<text text-anchor="middle" x="924" y="-99.8" font-family="Times,serif" font-size="14.00" fill="#000000">AdminModule</text>
</g>
<!-- AdminModule&#45;&gt;AppModule -->
<g id="edge3" class="edge">
<title>AdminModule&#45;&gt;AppModule</title>
<path fill="none" stroke="#000000" d="M924,-122.2667C924,-140.5552 924,-166 924,-166 924,-166 705.8913,-166 705.8913,-166"/>
<polygon fill="#000000" stroke="#000000" points="705.8913,-162.5001 695.8913,-166 705.8912,-169.5001 705.8913,-162.5001"/>
</g>
<!-- AppRoutingModule -->
<g id="node5" class="node">
<title>AppRoutingModule</title>
<polygon fill="#8dd3c7" stroke="#000000" points="856.2744,-122 853.2744,-126 832.2744,-126 829.2744,-122 727.7256,-122 727.7256,-86 856.2744,-86 856.2744,-122"/>
<text text-anchor="middle" x="792" y="-99.8" font-family="Times,serif" font-size="14.00" fill="#000000">AppRoutingModule</text>
</g>
<!-- AppRoutingModule&#45;&gt;AppModule -->
<g id="edge4" class="edge">
<title>AppRoutingModule&#45;&gt;AppModule</title>
<path fill="none" stroke="#000000" d="M792,-122.0091C792,-138.0494 792,-159 792,-159 792,-159 705.779,-159 705.779,-159"/>
<polygon fill="#000000" stroke="#000000" points="705.7791,-155.5001 695.779,-159 705.779,-162.5001 705.7791,-155.5001"/>
</g>
<!-- ChannelsModule -->
<g id="node6" class="node">
<title>ChannelsModule</title>
<polygon fill="#8dd3c7" stroke="#000000" points="709.6513,-122 706.6513,-126 685.6513,-126 682.6513,-122 598.3487,-122 598.3487,-86 709.6513,-86 709.6513,-122"/>
<text text-anchor="middle" x="654" y="-99.8" font-family="Times,serif" font-size="14.00" fill="#000000">ChannelsModule</text>
</g>
<!-- ChannelsModule&#45;&gt;AppModule -->
<g id="edge5" class="edge">
<title>ChannelsModule&#45;&gt;AppModule</title>
<path fill="none" stroke="#000000" d="M654,-122.1061C654,-122.1061 654,-140.991 654,-140.991"/>
<polygon fill="#000000" stroke="#000000" points="650.5001,-140.9909 654,-150.991 657.5001,-140.991 650.5001,-140.9909"/>
</g>
<!-- DataService -->
<g id="node8" class="node">
<title>DataService</title>
<ellipse fill="#fdb462" stroke="#000000" cx="516" cy="-104" rx="58.4415" ry="18"/>
<text text-anchor="middle" x="516" y="-99.8" font-family="Times,serif" font-size="14.00" fill="#000000">DataService</text>
</g>
<!-- DataService&#45;&gt;AppModule -->
<g id="edge7" class="edge">
<title>DataService&#45;&gt;AppModule</title>
<path fill="none" stroke="#000000" d="M516,-122.0091C516,-138.0494 516,-159 516,-159 516,-159 602.221,-159 602.221,-159"/>
<polygon fill="#000000" stroke="#000000" points="602.221,-162.5001 612.221,-159 602.2209,-155.5001 602.221,-162.5001"/>
</g>
<!-- FileService -->
<g id="node9" class="node">
<title>FileService</title>
<ellipse fill="#fdb462" stroke="#000000" cx="385" cy="-104" rx="55.0285" ry="18"/>
<text text-anchor="middle" x="385" y="-99.8" font-family="Times,serif" font-size="14.00" fill="#000000">FileService</text>
</g>
<!-- FileService&#45;&gt;AppModule -->
<g id="edge8" class="edge">
<title>FileService&#45;&gt;AppModule</title>
<path fill="none" stroke="#000000" d="M385,-122.2667C385,-140.5552 385,-166 385,-166 385,-166 602.2639,-166 602.2639,-166"/>
<polygon fill="#000000" stroke="#000000" points="602.2639,-169.5001 612.2639,-166 602.2639,-162.5001 602.2639,-169.5001"/>
</g>
<!-- NewsService -->
<g id="node10" class="node">
<title>NewsService</title>
<ellipse fill="#fdb462" stroke="#000000" cx="250" cy="-104" rx="61.9538" ry="18"/>
<text text-anchor="middle" x="250" y="-99.8" font-family="Times,serif" font-size="14.00" fill="#000000">NewsService</text>
</g>
<!-- NewsService&#45;&gt;AppModule -->
<g id="edge9" class="edge">
<title>NewsService&#45;&gt;AppModule</title>
<path fill="none" stroke="#000000" d="M250,-122.1289C250,-142.5724 250,-173 250,-173 250,-173 602.2866,-173 602.2866,-173"/>
<polygon fill="#000000" stroke="#000000" points="602.2866,-176.5001 612.2866,-173 602.2865,-169.5001 602.2866,-176.5001"/>
</g>
<!-- WeatherService -->
<g id="node11" class="node">
<title>WeatherService</title>
<ellipse fill="#fdb462" stroke="#000000" cx="97" cy="-104" rx="72.8889" ry="18"/>
<text text-anchor="middle" x="97" y="-99.8" font-family="Times,serif" font-size="14.00" fill="#000000">WeatherService</text>
</g>
<!-- WeatherService&#45;&gt;AppModule -->
<g id="edge10" class="edge">
<title>WeatherService&#45;&gt;AppModule</title>
<path fill="none" stroke="#000000" d="M97,-122.0109C97,-144.4852 97,-180 97,-180 97,-180 602.1345,-180 602.1345,-180"/>
<polygon fill="#000000" stroke="#000000" points="602.1345,-183.5001 612.1345,-180 602.1344,-176.5001 602.1345,-183.5001"/>
</g>
</g>
</svg>
