<?xml version="1.0" encoding="UTF-8" standalone="no"?>
<!DOCTYPE svg PUBLIC "-//W3C//DTD SVG 1.1//EN"
 "http://www.w3.org/Graphics/SVG/1.1/DTD/svg11.dtd">
<!-- Generated by graphviz version 2.40.1 (20161225.0304)
 -->
<!-- Title: dependencies Pages: 1 -->
<svg width="1134pt" height="284pt"
 viewBox="0.00 0.00 1134.00 284.00" xmlns="http://www.w3.org/2000/svg" xmlns:xlink="http://www.w3.org/1999/xlink">
<g id="graph0" class="graph" transform="scale(1 1) rotate(0) translate(4 280)">
<title>dependencies</title>
<polygon fill="#ffffff" stroke="transparent" points="-4,4 -4,-280 1130,-280 1130,4 -4,4"/>
<text text-anchor="start" x="542.0091" y="-42.4" font-family="sans-serif" font-weight="bold" font-size="14.00" fill="#000000">Legend</text>
<polygon fill="#ffffb3" stroke="transparent" points="329,-10 329,-30 349,-30 349,-10 329,-10"/>
<text text-anchor="start" x="352.629" y="-15.4" font-family="sans-serif" font-size="14.00" fill="#000000"> &#160;Declarations</text>
<polygon fill="#8dd3c7" stroke="transparent" points="442,-10 442,-30 462,-30 462,-10 442,-10"/>
<text text-anchor="start" x="465.7251" y="-15.4" font-family="sans-serif" font-size="14.00" fill="#000000"> &#160;Module</text>
<polygon fill="#80b1d3" stroke="transparent" points="528,-10 528,-30 548,-30 548,-10 528,-10"/>
<text text-anchor="start" x="551.7812" y="-15.4" font-family="sans-serif" font-size="14.00" fill="#000000"> &#160;Bootstrap</text>
<polygon fill="#fdb462" stroke="transparent" points="625,-10 625,-30 645,-30 645,-10 625,-10"/>
<text text-anchor="start" x="648.6732" y="-15.4" font-family="sans-serif" font-size="14.00" fill="#000000"> &#160;Providers</text>
<polygon fill="#fb8072" stroke="transparent" points="721,-10 721,-30 741,-30 741,-10 721,-10"/>
<text text-anchor="start" x="744.7258" y="-15.4" font-family="sans-serif" font-size="14.00" fill="#000000"> &#160;Exports</text>
<g id="clust1" class="cluster">
<title>cluster_AppModule</title>
<polygon fill="none" stroke="#000000" stroke-dasharray="1,5" points="8,-70 8,-268 1118,-268 1118,-70 8,-70"/>
</g>
<g id="clust2" class="cluster">
<title>cluster_AppModule_declarations</title>
<polygon fill="none" stroke="#000000" points="988,-78 988,-130 1110,-130 1110,-78 988,-78"/>
</g>
<g id="clust4" class="cluster">
<title>cluster_AppModule_imports</title>
<polygon fill="none" stroke="#000000" points="590,-78 590,-130 980,-130 980,-78 590,-78"/>
</g>
<g id="clust6" class="cluster">
<title>cluster_AppModule_bootstrap</title>
<polygon fill="none" stroke="#000000" points="527,-208 527,-260 651,-260 651,-208 527,-208"/>
</g>
<g id="clust7" class="cluster">
<title>cluster_AppModule_providers</title>
<polygon fill="none" stroke="#000000" points="16,-78 16,-130 582,-130 582,-78 16,-78"/>
</g>
<!-- AppComponent -->
<g id="node1" class="node">
<title>AppComponent</title>
<polygon fill="#ffffb3" stroke="#000000" points="1101.9399,-122 996.0601,-122 996.0601,-86 1101.9399,-86 1101.9399,-122"/>
<text text-anchor="middle" x="1049" y="-99.8" font-family="Times,serif" font-size="14.00" fill="#000000">AppComponent</text>
</g>
<!-- AppModule -->
<g id="node2" class="node">
<title>AppModule</title>
<polygon fill="#8dd3c7" stroke="#000000" points="630.6571,-187 627.6571,-191 606.6571,-191 603.6571,-187 547.3429,-187 547.3429,-151 630.6571,-151 630.6571,-187"/>
<text text-anchor="middle" x="589" y="-164.8" font-family="Times,serif" font-size="14.00" fill="#000000">AppModule</text>
</g>
<!-- AppComponent&#45;&gt;AppModule -->
<g id="edge1" class="edge">
<title>AppComponent&#45;&gt;AppModule</title>
<path fill="none" stroke="#000000" d="M1049,-122.2921C1049,-144.2057 1049,-178 1049,-178 1049,-178 641.0414,-178 641.0414,-178"/>
<polygon fill="#000000" stroke="#000000" points="641.0414,-174.5001 631.0414,-178 641.0413,-181.5001 641.0414,-174.5001"/>
</g>
<!-- AppComponent  -->
<g id="node6" class="node">
<title>AppComponent </title>
<polygon fill="#80b1d3" stroke="#000000" points="643.439,-252 534.561,-252 534.561,-216 643.439,-216 643.439,-252"/>
<text text-anchor="middle" x="589" y="-229.8" font-family="Times,serif" font-size="14.00" fill="#000000">AppComponent </text>
</g>
<!-- AppModule&#45;&gt;AppComponent  -->
<g id="edge5" class="edge">
<title>AppModule&#45;&gt;AppComponent </title>
<path fill="none" stroke="#000000" stroke-dasharray="1,5" d="M589,-187.1061C589,-187.1061 589,-205.991 589,-205.991"/>
<polygon fill="#000000" stroke="#000000" points="585.5001,-205.9909 589,-215.991 592.5001,-205.991 585.5001,-205.9909"/>
</g>
<!-- AdminModule -->
<g id="node3" class="node">
<title>AdminModule</title>
<polygon fill="#8dd3c7" stroke="#000000" points="972.4386,-122 969.4386,-126 948.4386,-126 945.4386,-122 873.5614,-122 873.5614,-86 972.4386,-86 972.4386,-122"/>
<text text-anchor="middle" x="923" y="-99.8" font-family="Times,serif" font-size="14.00" fill="#000000">AdminModule</text>
</g>
<!-- AdminModule&#45;&gt;AppModule -->
<g id="edge2" class="edge">
<title>AdminModule&#45;&gt;AppModule</title>
<path fill="none" stroke="#000000" d="M923,-122.1061C923,-141.3391 923,-169 923,-169 923,-169 640.9631,-169 640.9631,-169"/>
<polygon fill="#000000" stroke="#000000" points="640.9632,-165.5001 630.9631,-169 640.9631,-172.5001 640.9632,-165.5001"/>
</g>
<!-- ChannelsModule -->
<g id="node4" class="node">
<title>ChannelsModule</title>
<polygon fill="#8dd3c7" stroke="#000000" points="855.6513,-122 852.6513,-126 831.6513,-126 828.6513,-122 744.3487,-122 744.3487,-86 855.6513,-86 855.6513,-122"/>
<text text-anchor="middle" x="800" y="-99.8" font-family="Times,serif" font-size="14.00" fill="#000000">ChannelsModule</text>
</g>
<!-- ChannelsModule&#45;&gt;AppModule -->
<g id="edge3" class="edge">
<title>ChannelsModule&#45;&gt;AppModule</title>
<path fill="none" stroke="#000000" d="M800,-122.027C800,-138.3976 800,-160 800,-160 800,-160 640.6868,-160 640.6868,-160"/>
<polygon fill="#000000" stroke="#000000" points="640.6868,-156.5001 630.6868,-160 640.6868,-163.5001 640.6868,-156.5001"/>
</g>
<!-- AppRoutingModule -->
<g id="node5" class="node">
<title>AppRoutingModule</title>
<polygon fill="#8dd3c7" stroke="#000000" points="726.2744,-122 723.2744,-126 702.2744,-126 699.2744,-122 597.7256,-122 597.7256,-86 726.2744,-86 726.2744,-122"/>
<text text-anchor="middle" x="662" y="-99.8" font-family="Times,serif" font-size="14.00" fill="#000000">AppRoutingModule</text>
</g>
<!-- AppRoutingModule&#45;&gt;AppModule -->
<g id="edge4" class="edge">
<title>AppRoutingModule&#45;&gt;AppModule</title>
<path fill="none" stroke="#000000" d="M614.2206,-122.1061C614.2206,-122.1061 614.2206,-140.991 614.2206,-140.991"/>
<polygon fill="#000000" stroke="#000000" points="610.7206,-140.9909 614.2206,-150.991 617.7206,-140.991 610.7206,-140.9909"/>
</g>
<!-- DataService -->
<g id="node7" class="node">
<title>DataService</title>
<ellipse fill="#fdb462" stroke="#000000" cx="516" cy="-104" rx="58.4415" ry="18"/>
<text text-anchor="middle" x="516" y="-99.8" font-family="Times,serif" font-size="14.00" fill="#000000">DataService</text>
</g>
<!-- DataService&#45;&gt;AppModule -->
<g id="edge6" class="edge">
<title>DataService&#45;&gt;AppModule</title>
<path fill="none" stroke="#000000" d="M560.6961,-115.6207C560.6961,-115.6207 560.6961,-140.8534 560.6961,-140.8534"/>
<polygon fill="#000000" stroke="#000000" points="557.1962,-140.8533 560.6961,-150.8534 564.1962,-140.8534 557.1962,-140.8533"/>
</g>
<!-- NewsService -->
<g id="node8" class="node">
<title>NewsService</title>
<ellipse fill="#fdb462" stroke="#000000" cx="378" cy="-104" rx="61.9538" ry="18"/>
<text text-anchor="middle" x="378" y="-99.8" font-family="Times,serif" font-size="14.00" fill="#000000">NewsService</text>
</g>
<!-- NewsService&#45;&gt;AppModule -->
<g id="edge7" class="edge">
<title>NewsService&#45;&gt;AppModule</title>
<path fill="none" stroke="#000000" d="M378,-122.027C378,-138.3976 378,-160 378,-160 378,-160 537.3132,-160 537.3132,-160"/>
<polygon fill="#000000" stroke="#000000" points="537.3132,-163.5001 547.3132,-160 537.3132,-156.5001 537.3132,-163.5001"/>
</g>
<!-- WeatherService -->
<g id="node9" class="node">
<title>WeatherService</title>
<ellipse fill="#fdb462" stroke="#000000" cx="225" cy="-104" rx="72.8889" ry="18"/>
<text text-anchor="middle" x="225" y="-99.8" font-family="Times,serif" font-size="14.00" fill="#000000">WeatherService</text>
</g>
<!-- WeatherService&#45;&gt;AppModule -->
<g id="edge8" class="edge">
<title>WeatherService&#45;&gt;AppModule</title>
<path fill="none" stroke="#000000" d="M225,-122.1061C225,-141.3391 225,-169 225,-169 225,-169 537.2446,-169 537.2446,-169"/>
<polygon fill="#000000" stroke="#000000" points="537.2446,-172.5001 547.2446,-169 537.2445,-165.5001 537.2446,-172.5001"/>
</g>
<!-- FileService -->
<g id="node10" class="node">
<title>FileService</title>
<ellipse fill="#fdb462" stroke="#000000" cx="79" cy="-104" rx="55.0285" ry="18"/>
<text text-anchor="middle" x="79" y="-99.8" font-family="Times,serif" font-size="14.00" fill="#000000">FileService</text>
</g>
<!-- FileService&#45;&gt;AppModule -->
<g id="edge9" class="edge">
<title>FileService&#45;&gt;AppModule</title>
<path fill="none" stroke="#000000" d="M79,-122.2921C79,-144.2057 79,-178 79,-178 79,-178 537.2646,-178 537.2646,-178"/>
<polygon fill="#000000" stroke="#000000" points="537.2646,-181.5001 547.2646,-178 537.2645,-174.5001 537.2646,-181.5001"/>
</g>
</g>
</svg>
