<?xml version="1.0" encoding="UTF-8" standalone="no"?>
<!DOCTYPE svg PUBLIC "-//W3C//DTD SVG 1.1//EN"
 "http://www.w3.org/Graphics/SVG/1.1/DTD/svg11.dtd">
<!-- Generated by graphviz version 2.40.1 (20161225.0304)
 -->
<!-- Title: dependencies Pages: 1 -->
<svg width="1135pt" height="284pt"
 viewBox="0.00 0.00 1135.00 284.00" xmlns="http://www.w3.org/2000/svg" xmlns:xlink="http://www.w3.org/1999/xlink">
<g id="graph0" class="graph" transform="scale(1 1) rotate(0) translate(4 280)">
<title>dependencies</title>
<polygon fill="#ffffff" stroke="transparent" points="-4,4 -4,-280 1131,-280 1131,4 -4,4"/>
<text text-anchor="start" x="542.5091" y="-42.4" font-family="sans-serif" font-weight="bold" font-size="14.00" fill="#000000">Legend</text>
<polygon fill="#ffffb3" stroke="transparent" points="329.5,-10 329.5,-30 349.5,-30 349.5,-10 329.5,-10"/>
<text text-anchor="start" x="353.129" y="-15.4" font-family="sans-serif" font-size="14.00" fill="#000000"> &#160;Declarations</text>
<polygon fill="#8dd3c7" stroke="transparent" points="442.5,-10 442.5,-30 462.5,-30 462.5,-10 442.5,-10"/>
<text text-anchor="start" x="466.2251" y="-15.4" font-family="sans-serif" font-size="14.00" fill="#000000"> &#160;Module</text>
<polygon fill="#80b1d3" stroke="transparent" points="528.5,-10 528.5,-30 548.5,-30 548.5,-10 528.5,-10"/>
<text text-anchor="start" x="552.2812" y="-15.4" font-family="sans-serif" font-size="14.00" fill="#000000"> &#160;Bootstrap</text>
<polygon fill="#fdb462" stroke="transparent" points="625.5,-10 625.5,-30 645.5,-30 645.5,-10 625.5,-10"/>
<text text-anchor="start" x="649.1732" y="-15.4" font-family="sans-serif" font-size="14.00" fill="#000000"> &#160;Providers</text>
<polygon fill="#fb8072" stroke="transparent" points="721.5,-10 721.5,-30 741.5,-30 741.5,-10 721.5,-10"/>
<text text-anchor="start" x="745.2258" y="-15.4" font-family="sans-serif" font-size="14.00" fill="#000000"> &#160;Exports</text>
<g id="clust1" class="cluster">
<title>cluster_AppModule</title>
<polygon fill="none" stroke="#000000" stroke-dasharray="1,5" points="8,-70 8,-268 1119,-268 1119,-70 8,-70"/>
</g>
<g id="clust2" class="cluster">
<title>cluster_AppModule_declarations</title>
<polygon fill="none" stroke="#000000" points="989,-78 989,-130 1111,-130 1111,-78 989,-78"/>
</g>
<g id="clust4" class="cluster">
<title>cluster_AppModule_imports</title>
<polygon fill="none" stroke="#000000" points="590,-78 590,-130 981,-130 981,-78 590,-78"/>
</g>
<g id="clust6" class="cluster">
<title>cluster_AppModule_bootstrap</title>
<polygon fill="none" stroke="#000000" points="523,-208 523,-260 647,-260 647,-208 523,-208"/>
</g>
<g id="clust7" class="cluster">
<title>cluster_AppModule_providers</title>
<polygon fill="none" stroke="#000000" points="16,-78 16,-130 582,-130 582,-78 16,-78"/>
</g>
<!-- AppComponent -->
<g id="node1" class="node">
<title>AppComponent</title>
<polygon fill="#ffffb3" stroke="#000000" points="1102.9399,-122 997.0601,-122 997.0601,-86 1102.9399,-86 1102.9399,-122"/>
<text text-anchor="middle" x="1050" y="-99.8" font-family="Times,serif" font-size="14.00" fill="#000000">AppComponent</text>
</g>
<!-- AppModule -->
<g id="node2" class="node">
<title>AppModule</title>
<polygon fill="#8dd3c7" stroke="#000000" points="626.6571,-187 623.6571,-191 602.6571,-191 599.6571,-187 543.3429,-187 543.3429,-151 626.6571,-151 626.6571,-187"/>
<text text-anchor="middle" x="585" y="-164.8" font-family="Times,serif" font-size="14.00" fill="#000000">AppModule</text>
</g>
<!-- AppComponent&#45;&gt;AppModule -->
<g id="edge1" class="edge">
<title>AppComponent&#45;&gt;AppModule</title>
<path fill="none" stroke="#000000" d="M1050,-122.2921C1050,-144.2057 1050,-178 1050,-178 1050,-178 636.6749,-178 636.6749,-178"/>
<polygon fill="#000000" stroke="#000000" points="636.6749,-174.5001 626.6749,-178 636.6748,-181.5001 636.6749,-174.5001"/>
</g>
<!-- AppComponent  -->
<g id="node6" class="node">
<title>AppComponent </title>
<polygon fill="#80b1d3" stroke="#000000" points="639.439,-252 530.561,-252 530.561,-216 639.439,-216 639.439,-252"/>
<text text-anchor="middle" x="585" y="-229.8" font-family="Times,serif" font-size="14.00" fill="#000000">AppComponent </text>
</g>
<!-- AppModule&#45;&gt;AppComponent  -->
<g id="edge5" class="edge">
<title>AppModule&#45;&gt;AppComponent </title>
<path fill="none" stroke="#000000" stroke-dasharray="1,5" d="M585,-187.1061C585,-187.1061 585,-205.991 585,-205.991"/>
<polygon fill="#000000" stroke="#000000" points="581.5001,-205.9909 585,-215.991 588.5001,-205.991 581.5001,-205.9909"/>
</g>
<!-- AdminModule -->
<g id="node3" class="node">
<title>AdminModule</title>
<polygon fill="#8dd3c7" stroke="#000000" points="973.4386,-122 970.4386,-126 949.4386,-126 946.4386,-122 874.5614,-122 874.5614,-86 973.4386,-86 973.4386,-122"/>
<text text-anchor="middle" x="924" y="-99.8" font-family="Times,serif" font-size="14.00" fill="#000000">AdminModule</text>
</g>
<!-- AdminModule&#45;&gt;AppModule -->
<g id="edge2" class="edge">
<title>AdminModule&#45;&gt;AppModule</title>
<path fill="none" stroke="#000000" d="M924,-122.1061C924,-141.3391 924,-169 924,-169 924,-169 636.9081,-169 636.9081,-169"/>
<polygon fill="#000000" stroke="#000000" points="636.9081,-165.5001 626.9081,-169 636.908,-172.5001 636.9081,-165.5001"/>
</g>
<!-- AppRoutingModule -->
<g id="node4" class="node">
<title>AppRoutingModule</title>
<polygon fill="#8dd3c7" stroke="#000000" points="856.2744,-122 853.2744,-126 832.2744,-126 829.2744,-122 727.7256,-122 727.7256,-86 856.2744,-86 856.2744,-122"/>
<text text-anchor="middle" x="792" y="-99.8" font-family="Times,serif" font-size="14.00" fill="#000000">AppRoutingModule</text>
</g>
<!-- AppRoutingModule&#45;&gt;AppModule -->
<g id="edge3" class="edge">
<title>AppRoutingModule&#45;&gt;AppModule</title>
<path fill="none" stroke="#000000" d="M792,-122.027C792,-138.3976 792,-160 792,-160 792,-160 636.8895,-160 636.8895,-160"/>
<polygon fill="#000000" stroke="#000000" points="636.8896,-156.5001 626.8895,-160 636.8895,-163.5001 636.8896,-156.5001"/>
</g>
<!-- ChannelsModule -->
<g id="node5" class="node">
<title>ChannelsModule</title>
<polygon fill="#8dd3c7" stroke="#000000" points="709.6513,-122 706.6513,-126 685.6513,-126 682.6513,-122 598.3487,-122 598.3487,-86 709.6513,-86 709.6513,-122"/>
<text text-anchor="middle" x="654" y="-99.8" font-family="Times,serif" font-size="14.00" fill="#000000">ChannelsModule</text>
</g>
<!-- ChannelsModule&#45;&gt;AppModule -->
<g id="edge4" class="edge">
<title>ChannelsModule&#45;&gt;AppModule</title>
<path fill="none" stroke="#000000" d="M612.5014,-122.1061C612.5014,-122.1061 612.5014,-140.991 612.5014,-140.991"/>
<polygon fill="#000000" stroke="#000000" points="609.0015,-140.9909 612.5014,-150.991 616.0015,-140.991 609.0015,-140.9909"/>
</g>
<!-- DataService -->
<g id="node7" class="node">
<title>DataService</title>
<ellipse fill="#fdb462" stroke="#000000" cx="516" cy="-104" rx="58.4415" ry="18"/>
<text text-anchor="middle" x="516" y="-99.8" font-family="Times,serif" font-size="14.00" fill="#000000">DataService</text>
</g>
<!-- DataService&#45;&gt;AppModule -->
<g id="edge6" class="edge">
<title>DataService&#45;&gt;AppModule</title>
<path fill="none" stroke="#000000" d="M558.6961,-116.5327C558.6961,-116.5327 558.6961,-140.8507 558.6961,-140.8507"/>
<polygon fill="#000000" stroke="#000000" points="555.1962,-140.8506 558.6961,-150.8507 562.1962,-140.8507 555.1962,-140.8506"/>
</g>
<!-- FileService -->
<g id="node8" class="node">
<title>FileService</title>
<ellipse fill="#fdb462" stroke="#000000" cx="385" cy="-104" rx="55.0285" ry="18"/>
<text text-anchor="middle" x="385" y="-99.8" font-family="Times,serif" font-size="14.00" fill="#000000">FileService</text>
</g>
<!-- FileService&#45;&gt;AppModule -->
<g id="edge7" class="edge">
<title>FileService&#45;&gt;AppModule</title>
<path fill="none" stroke="#000000" d="M385,-122.027C385,-138.3976 385,-160 385,-160 385,-160 533.0734,-160 533.0734,-160"/>
<polygon fill="#000000" stroke="#000000" points="533.0735,-163.5001 543.0734,-160 533.0734,-156.5001 533.0735,-163.5001"/>
</g>
<!-- NewsService -->
<g id="node9" class="node">
<title>NewsService</title>
<ellipse fill="#fdb462" stroke="#000000" cx="250" cy="-104" rx="61.9538" ry="18"/>
<text text-anchor="middle" x="250" y="-99.8" font-family="Times,serif" font-size="14.00" fill="#000000">NewsService</text>
</g>
<!-- NewsService&#45;&gt;AppModule -->
<g id="edge8" class="edge">
<title>NewsService&#45;&gt;AppModule</title>
<path fill="none" stroke="#000000" d="M250,-122.1061C250,-141.3391 250,-169 250,-169 250,-169 533.2494,-169 533.2494,-169"/>
<polygon fill="#000000" stroke="#000000" points="533.2494,-172.5001 543.2494,-169 533.2493,-165.5001 533.2494,-172.5001"/>
</g>
<!-- WeatherService -->
<g id="node10" class="node">
<title>WeatherService</title>
<ellipse fill="#fdb462" stroke="#000000" cx="97" cy="-104" rx="72.8889" ry="18"/>
<text text-anchor="middle" x="97" y="-99.8" font-family="Times,serif" font-size="14.00" fill="#000000">WeatherService</text>
</g>
<!-- WeatherService&#45;&gt;AppModule -->
<g id="edge9" class="edge">
<title>WeatherService&#45;&gt;AppModule</title>
<path fill="none" stroke="#000000" d="M97,-122.2921C97,-144.2057 97,-178 97,-178 97,-178 532.971,-178 532.971,-178"/>
<polygon fill="#000000" stroke="#000000" points="532.9711,-181.5001 542.971,-178 532.971,-174.5001 532.9711,-181.5001"/>
</g>
</g>
</svg>
