<?xml version="1.0" encoding="UTF-8" standalone="no"?>
<!DOCTYPE svg PUBLIC "-//W3C//DTD SVG 1.1//EN"
 "http://www.w3.org/Graphics/SVG/1.1/DTD/svg11.dtd">
<!-- Generated by graphviz version 2.40.1 (20161225.0304)
 -->
<!-- Title: dependencies Pages: 1 -->
<svg width="1382pt" height="284pt"
 viewBox="0.00 0.00 1382.00 284.00" xmlns="http://www.w3.org/2000/svg" xmlns:xlink="http://www.w3.org/1999/xlink">
<g id="graph0" class="graph" transform="scale(1 1) rotate(0) translate(4 280)">
<title>dependencies</title>
<polygon fill="#ffffff" stroke="transparent" points="-4,4 -4,-280 1378,-280 1378,4 -4,4"/>
<text text-anchor="start" x="666.0091" y="-42.4" font-family="sans-serif" font-weight="bold" font-size="14.00" fill="#000000">Legend</text>
<polygon fill="#ffffb3" stroke="transparent" points="453,-10 453,-30 473,-30 473,-10 453,-10"/>
<text text-anchor="start" x="476.629" y="-15.4" font-family="sans-serif" font-size="14.00" fill="#000000"> &#160;Declarations</text>
<polygon fill="#8dd3c7" stroke="transparent" points="566,-10 566,-30 586,-30 586,-10 566,-10"/>
<text text-anchor="start" x="589.7251" y="-15.4" font-family="sans-serif" font-size="14.00" fill="#000000"> &#160;Module</text>
<polygon fill="#80b1d3" stroke="transparent" points="652,-10 652,-30 672,-30 672,-10 652,-10"/>
<text text-anchor="start" x="675.7812" y="-15.4" font-family="sans-serif" font-size="14.00" fill="#000000"> &#160;Bootstrap</text>
<polygon fill="#fdb462" stroke="transparent" points="749,-10 749,-30 769,-30 769,-10 749,-10"/>
<text text-anchor="start" x="772.6732" y="-15.4" font-family="sans-serif" font-size="14.00" fill="#000000"> &#160;Providers</text>
<polygon fill="#fb8072" stroke="transparent" points="845,-10 845,-30 865,-30 865,-10 845,-10"/>
<text text-anchor="start" x="868.7258" y="-15.4" font-family="sans-serif" font-size="14.00" fill="#000000"> &#160;Exports</text>
<g id="clust1" class="cluster">
<title>cluster_AppModule</title>
<polygon fill="none" stroke="#000000" stroke-dasharray="1,5" points="8,-70 8,-268 1366,-268 1366,-70 8,-70"/>
</g>
<g id="clust2" class="cluster">
<title>cluster_AppModule_declarations</title>
<polygon fill="none" stroke="#000000" points="1236,-78 1236,-130 1358,-130 1358,-78 1236,-78"/>
</g>
<g id="clust4" class="cluster">
<title>cluster_AppModule_imports</title>
<polygon fill="none" stroke="#000000" points="727,-78 727,-130 1228,-130 1228,-78 727,-78"/>
</g>
<g id="clust6" class="cluster">
<title>cluster_AppModule_bootstrap</title>
<polygon fill="none" stroke="#000000" points="659,-208 659,-260 783,-260 783,-208 659,-208"/>
</g>
<g id="clust7" class="cluster">
<title>cluster_AppModule_providers</title>
<polygon fill="none" stroke="#000000" points="16,-78 16,-130 719,-130 719,-78 16,-78"/>
</g>
<!-- AppComponent -->
<g id="node1" class="node">
<title>AppComponent</title>
<polygon fill="#ffffb3" stroke="#000000" points="1349.9399,-122 1244.0601,-122 1244.0601,-86 1349.9399,-86 1349.9399,-122"/>
<text text-anchor="middle" x="1297" y="-99.8" font-family="Times,serif" font-size="14.00" fill="#000000">AppComponent</text>
</g>
<!-- AppModule -->
<g id="node2" class="node">
<title>AppModule</title>
<polygon fill="#8dd3c7" stroke="#000000" points="762.6571,-187 759.6571,-191 738.6571,-191 735.6571,-187 679.3429,-187 679.3429,-151 762.6571,-151 762.6571,-187"/>
<text text-anchor="middle" x="721" y="-164.8" font-family="Times,serif" font-size="14.00" fill="#000000">AppModule</text>
</g>
<!-- AppComponent&#45;&gt;AppModule -->
<g id="edge1" class="edge">
<title>AppComponent&#45;&gt;AppModule</title>
<path fill="none" stroke="#000000" d="M1297,-122.0109C1297,-144.4852 1297,-180 1297,-180 1297,-180 772.8885,-180 772.8885,-180"/>
<polygon fill="#000000" stroke="#000000" points="772.8885,-176.5001 762.8885,-180 772.8884,-183.5001 772.8885,-176.5001"/>
</g>
<!-- AppComponent  -->
<g id="node7" class="node">
<title>AppComponent </title>
<polygon fill="#80b1d3" stroke="#000000" points="775.439,-252 666.561,-252 666.561,-216 775.439,-216 775.439,-252"/>
<text text-anchor="middle" x="721" y="-229.8" font-family="Times,serif" font-size="14.00" fill="#000000">AppComponent </text>
</g>
<!-- AppModule&#45;&gt;AppComponent  -->
<g id="edge6" class="edge">
<title>AppModule&#45;&gt;AppComponent </title>
<path fill="none" stroke="#000000" stroke-dasharray="1,5" d="M721,-187.1061C721,-187.1061 721,-205.991 721,-205.991"/>
<polygon fill="#000000" stroke="#000000" points="717.5001,-205.9909 721,-215.991 724.5001,-205.991 717.5001,-205.9909"/>
</g>
<!-- !environment -->
<g id="node3" class="node">
<title>!environment</title>
<polygon fill="#8dd3c7" stroke="#000000" points="1219.9232,-122 1216.9232,-126 1195.9232,-126 1192.9232,-122 1128.0768,-122 1128.0768,-86 1219.9232,-86 1219.9232,-122"/>
<text text-anchor="middle" x="1174" y="-99.8" font-family="Times,serif" font-size="14.00" fill="#000000">!environment</text>
</g>
<!-- !environment&#45;&gt;AppModule -->
<g id="edge2" class="edge">
<title>!environment&#45;&gt;AppModule</title>
<path fill="none" stroke="#000000" d="M1174,-122.1289C1174,-142.5724 1174,-173 1174,-173 1174,-173 772.8052,-173 772.8052,-173"/>
<polygon fill="#000000" stroke="#000000" points="772.8052,-169.5001 762.8052,-173 772.8051,-176.5001 772.8052,-169.5001"/>
</g>
<!-- AdminModule -->
<g id="node4" class="node">
<title>AdminModule</title>
<polygon fill="#8dd3c7" stroke="#000000" points="1110.4386,-122 1107.4386,-126 1086.4386,-126 1083.4386,-122 1011.5614,-122 1011.5614,-86 1110.4386,-86 1110.4386,-122"/>
<text text-anchor="middle" x="1061" y="-99.8" font-family="Times,serif" font-size="14.00" fill="#000000">AdminModule</text>
</g>
<!-- AdminModule&#45;&gt;AppModule -->
<g id="edge3" class="edge">
<title>AdminModule&#45;&gt;AppModule</title>
<path fill="none" stroke="#000000" d="M1061,-122.2667C1061,-140.5552 1061,-166 1061,-166 1061,-166 772.6907,-166 772.6907,-166"/>
<polygon fill="#000000" stroke="#000000" points="772.6907,-162.5001 762.6907,-166 772.6906,-169.5001 772.6907,-162.5001"/>
</g>
<!-- AppRoutingModule -->
<g id="node5" class="node">
<title>AppRoutingModule</title>
<polygon fill="#8dd3c7" stroke="#000000" points="993.2744,-122 990.2744,-126 969.2744,-126 966.2744,-122 864.7256,-122 864.7256,-86 993.2744,-86 993.2744,-122"/>
<text text-anchor="middle" x="929" y="-99.8" font-family="Times,serif" font-size="14.00" fill="#000000">AppRoutingModule</text>
</g>
<!-- AppRoutingModule&#45;&gt;AppModule -->
<g id="edge4" class="edge">
<title>AppRoutingModule&#45;&gt;AppModule</title>
<path fill="none" stroke="#000000" d="M929,-122.0091C929,-138.0494 929,-159 929,-159 929,-159 773.0919,-159 773.0919,-159"/>
<polygon fill="#000000" stroke="#000000" points="773.0919,-155.5001 763.0919,-159 773.0919,-162.5001 773.0919,-155.5001"/>
</g>
<!-- ChannelsModule -->
<g id="node6" class="node">
<title>ChannelsModule</title>
<polygon fill="#8dd3c7" stroke="#000000" points="846.6513,-122 843.6513,-126 822.6513,-126 819.6513,-122 735.3487,-122 735.3487,-86 846.6513,-86 846.6513,-122"/>
<text text-anchor="middle" x="791" y="-99.8" font-family="Times,serif" font-size="14.00" fill="#000000">ChannelsModule</text>
</g>
<!-- ChannelsModule&#45;&gt;AppModule -->
<g id="edge5" class="edge">
<title>ChannelsModule&#45;&gt;AppModule</title>
<path fill="none" stroke="#000000" d="M749.0014,-122.1061C749.0014,-122.1061 749.0014,-140.991 749.0014,-140.991"/>
<polygon fill="#000000" stroke="#000000" points="745.5015,-140.9909 749.0014,-150.991 752.5015,-140.991 745.5015,-140.9909"/>
</g>
<!-- AuthService -->
<g id="node8" class="node">
<title>AuthService</title>
<ellipse fill="#fdb462" stroke="#000000" cx="652" cy="-104" rx="59.1083" ry="18"/>
<text text-anchor="middle" x="652" y="-99.8" font-family="Times,serif" font-size="14.00" fill="#000000">AuthService</text>
</g>
<!-- AuthService&#45;&gt;AppModule -->
<g id="edge7" class="edge">
<title>AuthService&#45;&gt;AppModule</title>
<path fill="none" stroke="#000000" d="M695.2378,-116.5327C695.2378,-116.5327 695.2378,-140.8507 695.2378,-140.8507"/>
<polygon fill="#000000" stroke="#000000" points="691.7379,-140.8506 695.2378,-150.8507 698.7379,-140.8507 691.7379,-140.8506"/>
</g>
<!-- DataService -->
<g id="node9" class="node">
<title>DataService</title>
<ellipse fill="#fdb462" stroke="#000000" cx="516" cy="-104" rx="58.4415" ry="18"/>
<text text-anchor="middle" x="516" y="-99.8" font-family="Times,serif" font-size="14.00" fill="#000000">DataService</text>
</g>
<!-- DataService&#45;&gt;AppModule -->
<g id="edge8" class="edge">
<title>DataService&#45;&gt;AppModule</title>
<path fill="none" stroke="#000000" d="M516,-122.0091C516,-138.0494 516,-159 516,-159 516,-159 669.0205,-159 669.0205,-159"/>
<polygon fill="#000000" stroke="#000000" points="669.0205,-162.5001 679.0205,-159 669.0205,-155.5001 669.0205,-162.5001"/>
</g>
<!-- FileService -->
<g id="node10" class="node">
<title>FileService</title>
<ellipse fill="#fdb462" stroke="#000000" cx="385" cy="-104" rx="55.0285" ry="18"/>
<text text-anchor="middle" x="385" y="-99.8" font-family="Times,serif" font-size="14.00" fill="#000000">FileService</text>
</g>
<!-- FileService&#45;&gt;AppModule -->
<g id="edge9" class="edge">
<title>FileService&#45;&gt;AppModule</title>
<path fill="none" stroke="#000000" d="M385,-122.2667C385,-140.5552 385,-166 385,-166 385,-166 669.1247,-166 669.1247,-166"/>
<polygon fill="#000000" stroke="#000000" points="669.1248,-169.5001 679.1247,-166 669.1247,-162.5001 669.1248,-169.5001"/>
</g>
<!-- NewsService -->
<g id="node11" class="node">
<title>NewsService</title>
<ellipse fill="#fdb462" stroke="#000000" cx="250" cy="-104" rx="61.9538" ry="18"/>
<text text-anchor="middle" x="250" y="-99.8" font-family="Times,serif" font-size="14.00" fill="#000000">NewsService</text>
</g>
<!-- NewsService&#45;&gt;AppModule -->
<g id="edge10" class="edge">
<title>NewsService&#45;&gt;AppModule</title>
<path fill="none" stroke="#000000" d="M250,-122.1289C250,-142.5724 250,-173 250,-173 250,-173 669.2019,-173 669.2019,-173"/>
<polygon fill="#000000" stroke="#000000" points="669.2019,-176.5001 679.2019,-173 669.2019,-169.5001 669.2019,-176.5001"/>
</g>
<!-- WeatherService -->
<g id="node12" class="node">
<title>WeatherService</title>
<ellipse fill="#fdb462" stroke="#000000" cx="97" cy="-104" rx="72.8889" ry="18"/>
<text text-anchor="middle" x="97" y="-99.8" font-family="Times,serif" font-size="14.00" fill="#000000">WeatherService</text>
</g>
<!-- WeatherService&#45;&gt;AppModule -->
<g id="edge11" class="edge">
<title>WeatherService&#45;&gt;AppModule</title>
<path fill="none" stroke="#000000" d="M97,-122.0109C97,-144.4852 97,-180 97,-180 97,-180 669.0887,-180 669.0887,-180"/>
<polygon fill="#000000" stroke="#000000" points="669.0887,-183.5001 679.0887,-180 669.0886,-176.5001 669.0887,-183.5001"/>
</g>
</g>
</svg>
