<?xml version="1.0" encoding="UTF-8" standalone="no"?>
<!DOCTYPE svg PUBLIC "-//W3C//DTD SVG 1.1//EN"
 "http://www.w3.org/Graphics/SVG/1.1/DTD/svg11.dtd">
<!-- Generated by graphviz version 2.40.1 (20161225.0304)
 -->
<!-- Title: dependencies Pages: 1 -->
<svg width="1272pt" height="284pt"
 viewBox="0.00 0.00 1272.00 284.00" xmlns="http://www.w3.org/2000/svg" xmlns:xlink="http://www.w3.org/1999/xlink">
<g id="graph0" class="graph" transform="scale(1 1) rotate(0) translate(4 280)">
<title>dependencies</title>
<polygon fill="#ffffff" stroke="transparent" points="-4,4 -4,-280 1268,-280 1268,4 -4,4"/>
<text text-anchor="start" x="611.0091" y="-42.4" font-family="sans-serif" font-weight="bold" font-size="14.00" fill="#000000">Legend</text>
<polygon fill="#ffffb3" stroke="transparent" points="398,-10 398,-30 418,-30 418,-10 398,-10"/>
<text text-anchor="start" x="421.629" y="-15.4" font-family="sans-serif" font-size="14.00" fill="#000000"> &#160;Declarations</text>
<polygon fill="#8dd3c7" stroke="transparent" points="511,-10 511,-30 531,-30 531,-10 511,-10"/>
<text text-anchor="start" x="534.7251" y="-15.4" font-family="sans-serif" font-size="14.00" fill="#000000"> &#160;Module</text>
<polygon fill="#80b1d3" stroke="transparent" points="597,-10 597,-30 617,-30 617,-10 597,-10"/>
<text text-anchor="start" x="620.7812" y="-15.4" font-family="sans-serif" font-size="14.00" fill="#000000"> &#160;Bootstrap</text>
<polygon fill="#fdb462" stroke="transparent" points="694,-10 694,-30 714,-30 714,-10 694,-10"/>
<text text-anchor="start" x="717.6732" y="-15.4" font-family="sans-serif" font-size="14.00" fill="#000000"> &#160;Providers</text>
<polygon fill="#fb8072" stroke="transparent" points="790,-10 790,-30 810,-30 810,-10 790,-10"/>
<text text-anchor="start" x="813.7258" y="-15.4" font-family="sans-serif" font-size="14.00" fill="#000000"> &#160;Exports</text>
<g id="clust1" class="cluster">
<title>cluster_AppModule</title>
<polygon fill="none" stroke="#000000" stroke-dasharray="1,5" points="8,-70 8,-268 1256,-268 1256,-70 8,-70"/>
</g>
<g id="clust2" class="cluster">
<title>cluster_AppModule_declarations</title>
<polygon fill="none" stroke="#000000" points="1126,-78 1126,-130 1248,-130 1248,-78 1126,-78"/>
</g>
<g id="clust4" class="cluster">
<title>cluster_AppModule_imports</title>
<polygon fill="none" stroke="#000000" points="727,-78 727,-130 1118,-130 1118,-78 727,-78"/>
</g>
<g id="clust6" class="cluster">
<title>cluster_AppModule_bootstrap</title>
<polygon fill="none" stroke="#000000" points="590,-208 590,-260 714,-260 714,-208 590,-208"/>
</g>
<g id="clust7" class="cluster">
<title>cluster_AppModule_providers</title>
<polygon fill="none" stroke="#000000" points="16,-78 16,-130 719,-130 719,-78 16,-78"/>
</g>
<!-- AppComponent -->
<g id="node1" class="node">
<title>AppComponent</title>
<polygon fill="#ffffb3" stroke="#000000" points="1239.9399,-122 1134.0601,-122 1134.0601,-86 1239.9399,-86 1239.9399,-122"/>
<text text-anchor="middle" x="1187" y="-99.8" font-family="Times,serif" font-size="14.00" fill="#000000">AppComponent</text>
</g>
<!-- AppModule -->
<g id="node2" class="node">
<title>AppModule</title>
<polygon fill="#8dd3c7" stroke="#000000" points="693.6571,-187 690.6571,-191 669.6571,-191 666.6571,-187 610.3429,-187 610.3429,-151 693.6571,-151 693.6571,-187"/>
<text text-anchor="middle" x="652" y="-164.8" font-family="Times,serif" font-size="14.00" fill="#000000">AppModule</text>
</g>
<!-- AppComponent&#45;&gt;AppModule -->
<g id="edge1" class="edge">
<title>AppComponent&#45;&gt;AppModule</title>
<path fill="none" stroke="#000000" d="M1187,-122.0109C1187,-144.4852 1187,-180 1187,-180 1187,-180 703.9806,-180 703.9806,-180"/>
<polygon fill="#000000" stroke="#000000" points="703.9806,-176.5001 693.9806,-180 703.9805,-183.5001 703.9806,-176.5001"/>
</g>
<!-- AppComponent  -->
<g id="node6" class="node">
<title>AppComponent </title>
<polygon fill="#80b1d3" stroke="#000000" points="706.439,-252 597.561,-252 597.561,-216 706.439,-216 706.439,-252"/>
<text text-anchor="middle" x="652" y="-229.8" font-family="Times,serif" font-size="14.00" fill="#000000">AppComponent </text>
</g>
<!-- AppModule&#45;&gt;AppComponent  -->
<g id="edge5" class="edge">
<title>AppModule&#45;&gt;AppComponent </title>
<path fill="none" stroke="#000000" stroke-dasharray="1,5" d="M652,-187.1061C652,-187.1061 652,-205.991 652,-205.991"/>
<polygon fill="#000000" stroke="#000000" points="648.5001,-205.9909 652,-215.991 655.5001,-205.991 648.5001,-205.9909"/>
</g>
<!-- AdminModule -->
<g id="node3" class="node">
<title>AdminModule</title>
<polygon fill="#8dd3c7" stroke="#000000" points="1110.4386,-122 1107.4386,-126 1086.4386,-126 1083.4386,-122 1011.5614,-122 1011.5614,-86 1110.4386,-86 1110.4386,-122"/>
<text text-anchor="middle" x="1061" y="-99.8" font-family="Times,serif" font-size="14.00" fill="#000000">AdminModule</text>
</g>
<!-- AdminModule&#45;&gt;AppModule -->
<g id="edge2" class="edge">
<title>AdminModule&#45;&gt;AppModule</title>
<path fill="none" stroke="#000000" d="M1061,-122.1289C1061,-142.5724 1061,-173 1061,-173 1061,-173 703.8481,-173 703.8481,-173"/>
<polygon fill="#000000" stroke="#000000" points="703.8481,-169.5001 693.8481,-173 703.8481,-176.5001 703.8481,-169.5001"/>
</g>
<!-- AppRoutingModule -->
<g id="node4" class="node">
<title>AppRoutingModule</title>
<polygon fill="#8dd3c7" stroke="#000000" points="993.2744,-122 990.2744,-126 969.2744,-126 966.2744,-122 864.7256,-122 864.7256,-86 993.2744,-86 993.2744,-122"/>
<text text-anchor="middle" x="929" y="-99.8" font-family="Times,serif" font-size="14.00" fill="#000000">AppRoutingModule</text>
</g>
<!-- AppRoutingModule&#45;&gt;AppModule -->
<g id="edge3" class="edge">
<title>AppRoutingModule&#45;&gt;AppModule</title>
<path fill="none" stroke="#000000" d="M929,-122.2667C929,-140.5552 929,-166 929,-166 929,-166 703.7696,-166 703.7696,-166"/>
<polygon fill="#000000" stroke="#000000" points="703.7696,-162.5001 693.7696,-166 703.7696,-169.5001 703.7696,-162.5001"/>
</g>
<!-- ChannelsModule -->
<g id="node5" class="node">
<title>ChannelsModule</title>
<polygon fill="#8dd3c7" stroke="#000000" points="846.6513,-122 843.6513,-126 822.6513,-126 819.6513,-122 735.3487,-122 735.3487,-86 846.6513,-86 846.6513,-122"/>
<text text-anchor="middle" x="791" y="-99.8" font-family="Times,serif" font-size="14.00" fill="#000000">ChannelsModule</text>
</g>
<!-- ChannelsModule&#45;&gt;AppModule -->
<g id="edge4" class="edge">
<title>ChannelsModule&#45;&gt;AppModule</title>
<path fill="none" stroke="#000000" d="M791,-122.0091C791,-138.0494 791,-159 791,-159 791,-159 703.7046,-159 703.7046,-159"/>
<polygon fill="#000000" stroke="#000000" points="703.7046,-155.5001 693.7046,-159 703.7045,-162.5001 703.7046,-155.5001"/>
</g>
<!-- AuthService -->
<g id="node7" class="node">
<title>AuthService</title>
<ellipse fill="#fdb462" stroke="#000000" cx="652" cy="-104" rx="59.1083" ry="18"/>
<text text-anchor="middle" x="652" y="-99.8" font-family="Times,serif" font-size="14.00" fill="#000000">AuthService</text>
</g>
<!-- AuthService&#45;&gt;AppModule -->
<g id="edge6" class="edge">
<title>AuthService&#45;&gt;AppModule</title>
<path fill="none" stroke="#000000" d="M652,-122.1061C652,-122.1061 652,-140.991 652,-140.991"/>
<polygon fill="#000000" stroke="#000000" points="648.5001,-140.9909 652,-150.991 655.5001,-140.991 648.5001,-140.9909"/>
</g>
<!-- DataService -->
<g id="node8" class="node">
<title>DataService</title>
<ellipse fill="#fdb462" stroke="#000000" cx="516" cy="-104" rx="58.4415" ry="18"/>
<text text-anchor="middle" x="516" y="-99.8" font-family="Times,serif" font-size="14.00" fill="#000000">DataService</text>
</g>
<!-- DataService&#45;&gt;AppModule -->
<g id="edge7" class="edge">
<title>DataService&#45;&gt;AppModule</title>
<path fill="none" stroke="#000000" d="M516,-122.0091C516,-138.0494 516,-159 516,-159 516,-159 600.0858,-159 600.0858,-159"/>
<polygon fill="#000000" stroke="#000000" points="600.0858,-162.5001 610.0858,-159 600.0858,-155.5001 600.0858,-162.5001"/>
</g>
<!-- FileService -->
<g id="node9" class="node">
<title>FileService</title>
<ellipse fill="#fdb462" stroke="#000000" cx="385" cy="-104" rx="55.0285" ry="18"/>
<text text-anchor="middle" x="385" y="-99.8" font-family="Times,serif" font-size="14.00" fill="#000000">FileService</text>
</g>
<!-- FileService&#45;&gt;AppModule -->
<g id="edge8" class="edge">
<title>FileService&#45;&gt;AppModule</title>
<path fill="none" stroke="#000000" d="M385,-122.2667C385,-140.5552 385,-166 385,-166 385,-166 600.2813,-166 600.2813,-166"/>
<polygon fill="#000000" stroke="#000000" points="600.2813,-169.5001 610.2813,-166 600.2812,-162.5001 600.2813,-169.5001"/>
</g>
<!-- NewsService -->
<g id="node10" class="node">
<title>NewsService</title>
<ellipse fill="#fdb462" stroke="#000000" cx="250" cy="-104" rx="61.9538" ry="18"/>
<text text-anchor="middle" x="250" y="-99.8" font-family="Times,serif" font-size="14.00" fill="#000000">NewsService</text>
</g>
<!-- NewsService&#45;&gt;AppModule -->
<g id="edge9" class="edge">
<title>NewsService&#45;&gt;AppModule</title>
<path fill="none" stroke="#000000" d="M250,-122.1289C250,-142.5724 250,-173 250,-173 250,-173 600.1166,-173 600.1166,-173"/>
<polygon fill="#000000" stroke="#000000" points="600.1166,-176.5001 610.1166,-173 600.1166,-169.5001 600.1166,-176.5001"/>
</g>
<!-- WeatherService -->
<g id="node11" class="node">
<title>WeatherService</title>
<ellipse fill="#fdb462" stroke="#000000" cx="97" cy="-104" rx="72.8889" ry="18"/>
<text text-anchor="middle" x="97" y="-99.8" font-family="Times,serif" font-size="14.00" fill="#000000">WeatherService</text>
</g>
<!-- WeatherService&#45;&gt;AppModule -->
<g id="edge10" class="edge">
<title>WeatherService&#45;&gt;AppModule</title>
<path fill="none" stroke="#000000" d="M97,-122.0109C97,-144.4852 97,-180 97,-180 97,-180 600.2848,-180 600.2848,-180"/>
<polygon fill="#000000" stroke="#000000" points="600.2848,-183.5001 610.2848,-180 600.2848,-176.5001 600.2848,-183.5001"/>
</g>
</g>
</svg>
