<?xml version="1.0" encoding="UTF-8" standalone="no"?>
<!DOCTYPE svg PUBLIC "-//W3C//DTD SVG 1.1//EN"
 "http://www.w3.org/Graphics/SVG/1.1/DTD/svg11.dtd">
<!-- Generated by graphviz version 2.40.1 (20161225.0304)
 -->
<!-- Title: dependencies Pages: 1 -->
<svg width="4494pt" height="284pt"
 viewBox="0.00 0.00 4494.00 284.00" xmlns="http://www.w3.org/2000/svg" xmlns:xlink="http://www.w3.org/1999/xlink">
<g id="graph0" class="graph" transform="scale(1 1) rotate(0) translate(4 280)">
<title>dependencies</title>
<polygon fill="#ffffff" stroke="transparent" points="-4,4 -4,-280 4490,-280 4490,4 -4,4"/>
<text text-anchor="start" x="2222.0091" y="-42.4" font-family="sans-serif" font-weight="bold" font-size="14.00" fill="#000000">Legend</text>
<polygon fill="#ffffb3" stroke="transparent" points="2009,-10 2009,-30 2029,-30 2029,-10 2009,-10"/>
<text text-anchor="start" x="2032.629" y="-15.4" font-family="sans-serif" font-size="14.00" fill="#000000"> &#160;Declarations</text>
<polygon fill="#8dd3c7" stroke="transparent" points="2122,-10 2122,-30 2142,-30 2142,-10 2122,-10"/>
<text text-anchor="start" x="2145.7251" y="-15.4" font-family="sans-serif" font-size="14.00" fill="#000000"> &#160;Module</text>
<polygon fill="#80b1d3" stroke="transparent" points="2208,-10 2208,-30 2228,-30 2228,-10 2208,-10"/>
<text text-anchor="start" x="2231.7812" y="-15.4" font-family="sans-serif" font-size="14.00" fill="#000000"> &#160;Bootstrap</text>
<polygon fill="#fdb462" stroke="transparent" points="2305,-10 2305,-30 2325,-30 2325,-10 2305,-10"/>
<text text-anchor="start" x="2328.6732" y="-15.4" font-family="sans-serif" font-size="14.00" fill="#000000"> &#160;Providers</text>
<polygon fill="#fb8072" stroke="transparent" points="2401,-10 2401,-30 2421,-30 2421,-10 2401,-10"/>
<text text-anchor="start" x="2424.7258" y="-15.4" font-family="sans-serif" font-size="14.00" fill="#000000"> &#160;Exports</text>
<g id="clust1" class="cluster">
<title>cluster_AppModule</title>
<polygon fill="none" stroke="#000000" stroke-dasharray="1,5" points="8,-70 8,-268 4478,-268 4478,-70 8,-70"/>
</g>
<g id="clust2" class="cluster">
<title>cluster_AppModule_declarations</title>
<polygon fill="none" stroke="#000000" points="1207,-78 1207,-130 4470,-130 4470,-78 1207,-78"/>
</g>
<g id="clust23" class="cluster">
<title>cluster_AppModule_imports</title>
<polygon fill="none" stroke="#000000" points="306,-78 306,-130 1199,-130 1199,-78 306,-78"/>
</g>
<g id="clust25" class="cluster">
<title>cluster_AppModule_bootstrap</title>
<polygon fill="none" stroke="#000000" points="2204,-208 2204,-260 2328,-260 2328,-208 2204,-208"/>
</g>
<g id="clust26" class="cluster">
<title>cluster_AppModule_providers</title>
<polygon fill="none" stroke="#000000" points="16,-78 16,-130 298,-130 298,-78 16,-78"/>
</g>
<!-- AppComponent -->
<g id="node1" class="node">
<title>AppComponent</title>
<polygon fill="#ffffb3" stroke="#000000" points="4461.9399,-122 4356.0601,-122 4356.0601,-86 4461.9399,-86 4461.9399,-122"/>
<text text-anchor="middle" x="4409" y="-99.8" font-family="Times,serif" font-size="14.00" fill="#000000">AppComponent</text>
</g>
<!-- AppModule -->
<g id="node21" class="node">
<title>AppModule</title>
<polygon fill="#8dd3c7" stroke="#000000" points="2307.6571,-187 2304.6571,-191 2283.6571,-191 2280.6571,-187 2224.3429,-187 2224.3429,-151 2307.6571,-151 2307.6571,-187"/>
<text text-anchor="middle" x="2266" y="-164.8" font-family="Times,serif" font-size="14.00" fill="#000000">AppModule</text>
</g>
<!-- AppComponent&#45;&gt;AppModule -->
<g id="edge1" class="edge">
<title>AppComponent&#45;&gt;AppModule</title>
<path fill="none" stroke="#000000" d="M4409,-122.3802C4409,-146.2785 4409,-185 4409,-185 4409,-185 2317.8463,-185 2317.8463,-185"/>
<polygon fill="#000000" stroke="#000000" points="2317.8464,-181.5001 2307.8463,-185 2317.8463,-188.5001 2317.8464,-181.5001"/>
</g>
<!-- ChannelsComponent -->
<g id="node2" class="node">
<title>ChannelsComponent</title>
<polygon fill="#ffffb3" stroke="#000000" points="4338.9341,-122 4205.0659,-122 4205.0659,-86 4338.9341,-86 4338.9341,-122"/>
<text text-anchor="middle" x="4272" y="-99.8" font-family="Times,serif" font-size="14.00" fill="#000000">ChannelsComponent</text>
</g>
<!-- ChannelsComponent&#45;&gt;AppModule -->
<g id="edge2" class="edge">
<title>ChannelsComponent&#45;&gt;AppModule</title>
<path fill="none" stroke="#000000" d="M4272,-122.0908C4272,-145.1328 4272,-182 4272,-182 4272,-182 2317.8982,-182 2317.8982,-182"/>
<polygon fill="#000000" stroke="#000000" points="2317.8982,-178.5001 2307.8982,-182 2317.8981,-185.5001 2317.8982,-178.5001"/>
</g>
<!-- EntranceComponent -->
<g id="node3" class="node">
<title>EntranceComponent</title>
<polygon fill="#ffffb3" stroke="#000000" points="4187.58,-122 4056.42,-122 4056.42,-86 4187.58,-86 4187.58,-122"/>
<text text-anchor="middle" x="4122" y="-99.8" font-family="Times,serif" font-size="14.00" fill="#000000">EntranceComponent</text>
</g>
<!-- EntranceComponent&#45;&gt;AppModule -->
<g id="edge3" class="edge">
<title>EntranceComponent&#45;&gt;AppModule</title>
<path fill="none" stroke="#000000" d="M4122,-122.0109C4122,-144.4852 4122,-180 4122,-180 4122,-180 2317.8088,-180 2317.8088,-180"/>
<polygon fill="#000000" stroke="#000000" points="2317.8088,-176.5001 2307.8088,-180 2317.8088,-183.5001 2317.8088,-176.5001"/>
</g>
<!-- MeetingComponent -->
<g id="node4" class="node">
<title>MeetingComponent</title>
<polygon fill="#ffffb3" stroke="#000000" points="4037.9874,-122 3910.0126,-122 3910.0126,-86 4037.9874,-86 4037.9874,-122"/>
<text text-anchor="middle" x="3974" y="-99.8" font-family="Times,serif" font-size="14.00" fill="#000000">MeetingComponent</text>
</g>
<!-- MeetingComponent&#45;&gt;AppModule -->
<g id="edge4" class="edge">
<title>MeetingComponent&#45;&gt;AppModule</title>
<path fill="none" stroke="#000000" d="M3974,-122.0449C3974,-143.6623 3974,-177 3974,-177 3974,-177 2317.7963,-177 2317.7963,-177"/>
<polygon fill="#000000" stroke="#000000" points="2317.7964,-173.5001 2307.7963,-177 2317.7963,-180.5001 2317.7964,-173.5001"/>
</g>
<!-- EventComponent -->
<g id="node5" class="node">
<title>EventComponent</title>
<polygon fill="#ffffb3" stroke="#000000" points="3891.9902,-122 3778.0098,-122 3778.0098,-86 3891.9902,-86 3891.9902,-122"/>
<text text-anchor="middle" x="3835" y="-99.8" font-family="Times,serif" font-size="14.00" fill="#000000">EventComponent</text>
</g>
<!-- EventComponent&#45;&gt;AppModule -->
<g id="edge5" class="edge">
<title>EventComponent&#45;&gt;AppModule</title>
<path fill="none" stroke="#000000" d="M3835,-122.2843C3835,-143.3211 3835,-175 3835,-175 3835,-175 2317.967,-175 2317.967,-175"/>
<polygon fill="#000000" stroke="#000000" points="2317.967,-171.5001 2307.967,-175 2317.9669,-178.5001 2317.967,-171.5001"/>
</g>
<!-- AdminComponent -->
<g id="node6" class="node">
<title>AdminComponent</title>
<polygon fill="#ffffb3" stroke="#000000" points="3760.2204,-122 3639.7796,-122 3639.7796,-86 3760.2204,-86 3760.2204,-122"/>
<text text-anchor="middle" x="3700" y="-99.8" font-family="Times,serif" font-size="14.00" fill="#000000">AdminComponent</text>
</g>
<!-- AdminComponent&#45;&gt;AppModule -->
<g id="edge6" class="edge">
<title>AdminComponent&#45;&gt;AppModule</title>
<path fill="none" stroke="#000000" d="M3700,-122.2228C3700,-142.3652 3700,-172 3700,-172 3700,-172 2317.7545,-172 2317.7545,-172"/>
<polygon fill="#000000" stroke="#000000" points="2317.7545,-168.5001 2307.7545,-172 2317.7545,-175.5001 2317.7545,-168.5001"/>
</g>
<!-- SettingComponent -->
<g id="node7" class="node">
<title>SettingComponent</title>
<polygon fill="#ffffb3" stroke="#000000" points="3621.5014,-122 3500.4986,-122 3500.4986,-86 3621.5014,-86 3621.5014,-122"/>
<text text-anchor="middle" x="3561" y="-99.8" font-family="Times,serif" font-size="14.00" fill="#000000">SettingComponent</text>
</g>
<!-- SettingComponent&#45;&gt;AppModule -->
<g id="edge7" class="edge">
<title>SettingComponent&#45;&gt;AppModule</title>
<path fill="none" stroke="#000000" d="M3561,-122.1061C3561,-141.3391 3561,-169 3561,-169 3561,-169 2317.9848,-169 2317.9848,-169"/>
<polygon fill="#000000" stroke="#000000" points="2317.9848,-165.5001 2307.9848,-169 2317.9847,-172.5001 2317.9848,-165.5001"/>
</g>
<!-- AdminChannelsComponent -->
<g id="node8" class="node">
<title>AdminChannelsComponent</title>
<polygon fill="#ffffb3" stroke="#000000" points="3482.3215,-122 3309.6785,-122 3309.6785,-86 3482.3215,-86 3482.3215,-122"/>
<text text-anchor="middle" x="3396" y="-99.8" font-family="Times,serif" font-size="14.00" fill="#000000">AdminChannelsComponent</text>
</g>
<!-- AdminChannelsComponent&#45;&gt;AppModule -->
<g id="edge8" class="edge">
<title>AdminChannelsComponent&#45;&gt;AppModule</title>
<path fill="none" stroke="#000000" d="M3396,-122.2222C3396,-140.8285 3396,-167 3396,-167 3396,-167 2317.8956,-167 2317.8956,-167"/>
<polygon fill="#000000" stroke="#000000" points="2317.8956,-163.5001 2307.8956,-167 2317.8956,-170.5001 2317.8956,-163.5001"/>
</g>
<!-- AdminSideNavComponent -->
<g id="node9" class="node">
<title>AdminSideNavComponent</title>
<polygon fill="#ffffb3" stroke="#000000" points="3292.4297,-122 3123.5703,-122 3123.5703,-86 3292.4297,-86 3292.4297,-122"/>
<text text-anchor="middle" x="3208" y="-99.8" font-family="Times,serif" font-size="14.00" fill="#000000">AdminSideNavComponent</text>
</g>
<!-- AdminSideNavComponent&#45;&gt;AppModule -->
<g id="edge9" class="edge">
<title>AdminSideNavComponent&#45;&gt;AppModule</title>
<path fill="none" stroke="#000000" d="M3208,-122.002C3208,-139.6754 3208,-164 3208,-164 3208,-164 2317.692,-164 2317.692,-164"/>
<polygon fill="#000000" stroke="#000000" points="2317.6921,-160.5001 2307.692,-164 2317.692,-167.5001 2317.6921,-160.5001"/>
</g>
<!-- DashboardComponent -->
<g id="node10" class="node">
<title>DashboardComponent</title>
<polygon fill="#ffffb3" stroke="#000000" points="3105.9734,-122 2964.0266,-122 2964.0266,-86 3105.9734,-86 3105.9734,-122"/>
<text text-anchor="middle" x="3035" y="-99.8" font-family="Times,serif" font-size="14.00" fill="#000000">DashboardComponent</text>
</g>
<!-- DashboardComponent&#45;&gt;AppModule -->
<g id="edge10" class="edge">
<title>DashboardComponent&#45;&gt;AppModule</title>
<path fill="none" stroke="#000000" d="M3035,-122.0336C3035,-139.0597 3035,-162 3035,-162 3035,-162 2317.8909,-162 2317.8909,-162"/>
<polygon fill="#000000" stroke="#000000" points="2317.8909,-158.5001 2307.8909,-162 2317.8909,-165.5001 2317.8909,-158.5001"/>
</g>
<!-- AdminEntranceComponent -->
<g id="node11" class="node">
<title>AdminEntranceComponent</title>
<polygon fill="#ffffb3" stroke="#000000" points="2945.9678,-122 2776.0322,-122 2776.0322,-86 2945.9678,-86 2945.9678,-122"/>
<text text-anchor="middle" x="2861" y="-99.8" font-family="Times,serif" font-size="14.00" fill="#000000">AdminEntranceComponent</text>
</g>
<!-- AdminEntranceComponent&#45;&gt;AppModule -->
<g id="edge11" class="edge">
<title>AdminEntranceComponent&#45;&gt;AppModule</title>
<path fill="none" stroke="#000000" d="M2861,-122.0091C2861,-138.0494 2861,-159 2861,-159 2861,-159 2317.8392,-159 2317.8392,-159"/>
<polygon fill="#000000" stroke="#000000" points="2317.8393,-155.5001 2307.8392,-159 2317.8392,-162.5001 2317.8393,-155.5001"/>
</g>
<!-- AdminEventComponent -->
<g id="node12" class="node">
<title>AdminEventComponent</title>
<polygon fill="#ffffb3" stroke="#000000" points="2758.378,-122 2605.622,-122 2605.622,-86 2758.378,-86 2758.378,-122"/>
<text text-anchor="middle" x="2682" y="-99.8" font-family="Times,serif" font-size="14.00" fill="#000000">AdminEventComponent</text>
</g>
<!-- AdminEventComponent&#45;&gt;AppModule -->
<g id="edge12" class="edge">
<title>AdminEventComponent&#45;&gt;AppModule</title>
<path fill="none" stroke="#000000" d="M2682,-122.2396C2682,-137.5706 2682,-157 2682,-157 2682,-157 2317.7924,-157 2317.7924,-157"/>
<polygon fill="#000000" stroke="#000000" points="2317.7924,-153.5001 2307.7924,-157 2317.7923,-160.5001 2317.7924,-153.5001"/>
</g>
<!-- AdminMeetingComponent -->
<g id="node13" class="node">
<title>AdminMeetingComponent</title>
<polygon fill="#ffffb3" stroke="#000000" points="2587.3752,-122 2420.6248,-122 2420.6248,-86 2587.3752,-86 2587.3752,-122"/>
<text text-anchor="middle" x="2504" y="-99.8" font-family="Times,serif" font-size="14.00" fill="#000000">AdminMeetingComponent</text>
</g>
<!-- AdminMeetingComponent&#45;&gt;AppModule -->
<g id="edge13" class="edge">
<title>AdminMeetingComponent&#45;&gt;AppModule</title>
<path fill="none" stroke="#000000" d="M2504,-122.0511C2504,-136.373 2504,-154 2504,-154 2504,-154 2317.7288,-154 2317.7288,-154"/>
<polygon fill="#000000" stroke="#000000" points="2317.7288,-150.5001 2307.7288,-154 2317.7287,-157.5001 2317.7288,-150.5001"/>
</g>
<!-- SupportComponent -->
<g id="node14" class="node">
<title>SupportComponent</title>
<polygon fill="#ffffb3" stroke="#000000" points="2402.6666,-122 2277.3334,-122 2277.3334,-86 2402.6666,-86 2402.6666,-122"/>
<text text-anchor="middle" x="2340" y="-99.8" font-family="Times,serif" font-size="14.00" fill="#000000">SupportComponent</text>
</g>
<!-- SupportComponent&#45;&gt;AppModule -->
<g id="edge14" class="edge">
<title>SupportComponent&#45;&gt;AppModule</title>
<path fill="none" stroke="#000000" d="M2292.4976,-122.1061C2292.4976,-122.1061 2292.4976,-140.991 2292.4976,-140.991"/>
<polygon fill="#000000" stroke="#000000" points="2288.9976,-140.9909 2292.4976,-150.991 2295.9976,-140.991 2288.9976,-140.9909"/>
</g>
<!-- FinancialComponent -->
<g id="node15" class="node">
<title>FinancialComponent</title>
<polygon fill="#ffffb3" stroke="#000000" points="2258.9313,-122 2125.0687,-122 2125.0687,-86 2258.9313,-86 2258.9313,-122"/>
<text text-anchor="middle" x="2192" y="-99.8" font-family="Times,serif" font-size="14.00" fill="#000000">FinancialComponent</text>
</g>
<!-- FinancialComponent&#45;&gt;AppModule -->
<g id="edge15" class="edge">
<title>FinancialComponent&#45;&gt;AppModule</title>
<path fill="none" stroke="#000000" d="M2241.4436,-122.1061C2241.4436,-122.1061 2241.4436,-140.991 2241.4436,-140.991"/>
<polygon fill="#000000" stroke="#000000" points="2237.9436,-140.9909 2241.4436,-150.991 2244.9436,-140.991 2237.9436,-140.9909"/>
</g>
<!-- BuildServersComponent -->
<g id="node16" class="node">
<title>BuildServersComponent</title>
<polygon fill="#ffffb3" stroke="#000000" points="2107.4284,-122 1952.5716,-122 1952.5716,-86 2107.4284,-86 2107.4284,-122"/>
<text text-anchor="middle" x="2030" y="-99.8" font-family="Times,serif" font-size="14.00" fill="#000000">BuildServersComponent</text>
</g>
<!-- BuildServersComponent&#45;&gt;AppModule -->
<g id="edge16" class="edge">
<title>BuildServersComponent&#45;&gt;AppModule</title>
<path fill="none" stroke="#000000" d="M2030,-122.0511C2030,-136.373 2030,-154 2030,-154 2030,-154 2214.0799,-154 2214.0799,-154"/>
<polygon fill="#000000" stroke="#000000" points="2214.0799,-157.5001 2224.0799,-154 2214.0798,-150.5001 2214.0799,-157.5001"/>
</g>
<!-- ChatComponent -->
<g id="node17" class="node">
<title>ChatComponent</title>
<polygon fill="#ffffb3" stroke="#000000" points="1934.7744,-122 1827.2256,-122 1827.2256,-86 1934.7744,-86 1934.7744,-122"/>
<text text-anchor="middle" x="1881" y="-99.8" font-family="Times,serif" font-size="14.00" fill="#000000">ChatComponent</text>
</g>
<!-- ChatComponent&#45;&gt;AppModule -->
<g id="edge17" class="edge">
<title>ChatComponent&#45;&gt;AppModule</title>
<path fill="none" stroke="#000000" d="M1881,-122.2396C1881,-137.5706 1881,-157 1881,-157 1881,-157 2214.0654,-157 2214.0654,-157"/>
<polygon fill="#000000" stroke="#000000" points="2214.0654,-160.5001 2224.0654,-157 2214.0653,-153.5001 2214.0654,-160.5001"/>
</g>
<!-- AdminEntranceDetailComponent -->
<g id="node18" class="node">
<title>AdminEntranceDetailComponent</title>
<polygon fill="#ffffb3" stroke="#000000" points="1809.1755,-122 1604.8245,-122 1604.8245,-86 1809.1755,-86 1809.1755,-122"/>
<text text-anchor="middle" x="1707" y="-99.8" font-family="Times,serif" font-size="14.00" fill="#000000">AdminEntranceDetailComponent</text>
</g>
<!-- AdminEntranceDetailComponent&#45;&gt;AppModule -->
<g id="edge18" class="edge">
<title>AdminEntranceDetailComponent&#45;&gt;AppModule</title>
<path fill="none" stroke="#000000" d="M1707,-122.0091C1707,-138.0494 1707,-159 1707,-159 1707,-159 2213.9841,-159 2213.9841,-159"/>
<polygon fill="#000000" stroke="#000000" points="2213.9842,-162.5001 2223.9841,-159 2213.9841,-155.5001 2213.9842,-162.5001"/>
</g>
<!-- AdminEventDetailComponent -->
<g id="node19" class="node">
<title>AdminEventDetailComponent</title>
<polygon fill="#ffffb3" stroke="#000000" points="1586.5856,-122 1399.4144,-122 1399.4144,-86 1586.5856,-86 1586.5856,-122"/>
<text text-anchor="middle" x="1493" y="-99.8" font-family="Times,serif" font-size="14.00" fill="#000000">AdminEventDetailComponent</text>
</g>
<!-- AdminEventDetailComponent&#45;&gt;AppModule -->
<g id="edge19" class="edge">
<title>AdminEventDetailComponent&#45;&gt;AppModule</title>
<path fill="none" stroke="#000000" d="M1493,-122.0336C1493,-139.0597 1493,-162 1493,-162 1493,-162 2214.1661,-162 2214.1661,-162"/>
<polygon fill="#000000" stroke="#000000" points="2214.1661,-165.5001 2224.1661,-162 2214.166,-158.5001 2214.1661,-165.5001"/>
</g>
<!-- SupportTicketsComponent -->
<g id="node20" class="node">
<title>SupportTicketsComponent</title>
<polygon fill="#ffffb3" stroke="#000000" points="1381.3738,-122 1214.6262,-122 1214.6262,-86 1381.3738,-86 1381.3738,-122"/>
<text text-anchor="middle" x="1298" y="-99.8" font-family="Times,serif" font-size="14.00" fill="#000000">SupportTicketsComponent</text>
</g>
<!-- SupportTicketsComponent&#45;&gt;AppModule -->
<g id="edge20" class="edge">
<title>SupportTicketsComponent&#45;&gt;AppModule</title>
<path fill="none" stroke="#000000" d="M1298,-122.002C1298,-139.6754 1298,-164 1298,-164 1298,-164 2214.0956,-164 2214.0956,-164"/>
<polygon fill="#000000" stroke="#000000" points="2214.0956,-167.5001 2224.0956,-164 2214.0955,-160.5001 2214.0956,-167.5001"/>
</g>
<!-- AppComponent  -->
<g id="node28" class="node">
<title>AppComponent </title>
<polygon fill="#80b1d3" stroke="#000000" points="2320.439,-252 2211.561,-252 2211.561,-216 2320.439,-216 2320.439,-252"/>
<text text-anchor="middle" x="2266" y="-229.8" font-family="Times,serif" font-size="14.00" fill="#000000">AppComponent </text>
</g>
<!-- AppModule&#45;&gt;AppComponent  -->
<g id="edge27" class="edge">
<title>AppModule&#45;&gt;AppComponent </title>
<path fill="none" stroke="#000000" stroke-dasharray="1,5" d="M2266,-187.1061C2266,-187.1061 2266,-205.991 2266,-205.991"/>
<polygon fill="#000000" stroke="#000000" points="2262.5001,-205.9909 2266,-215.991 2269.5001,-205.991 2262.5001,-205.9909"/>
</g>
<!-- BrowserModule -->
<g id="node22" class="node">
<title>BrowserModule</title>
<polygon fill="#8dd3c7" stroke="#000000" points="1191.4734,-122 1188.4734,-126 1167.4734,-126 1164.4734,-122 1084.5266,-122 1084.5266,-86 1191.4734,-86 1191.4734,-122"/>
<text text-anchor="middle" x="1138" y="-99.8" font-family="Times,serif" font-size="14.00" fill="#000000">BrowserModule</text>
</g>
<!-- BrowserModule&#45;&gt;AppModule -->
<g id="edge21" class="edge">
<title>BrowserModule&#45;&gt;AppModule</title>
<path fill="none" stroke="#000000" d="M1138,-122.2222C1138,-140.8285 1138,-167 1138,-167 1138,-167 2214.1786,-167 2214.1786,-167"/>
<polygon fill="#000000" stroke="#000000" points="2214.1786,-170.5001 2224.1786,-167 2214.1785,-163.5001 2214.1786,-170.5001"/>
</g>
<!-- AppRoutingModule -->
<g id="node23" class="node">
<title>AppRoutingModule</title>
<polygon fill="#8dd3c7" stroke="#000000" points="1066.2744,-122 1063.2744,-126 1042.2744,-126 1039.2744,-122 937.7256,-122 937.7256,-86 1066.2744,-86 1066.2744,-122"/>
<text text-anchor="middle" x="1002" y="-99.8" font-family="Times,serif" font-size="14.00" fill="#000000">AppRoutingModule</text>
</g>
<!-- AppRoutingModule&#45;&gt;AppModule -->
<g id="edge22" class="edge">
<title>AppRoutingModule&#45;&gt;AppModule</title>
<path fill="none" stroke="#000000" d="M1002,-122.1061C1002,-141.3391 1002,-169 1002,-169 1002,-169 2214.3045,-169 2214.3045,-169"/>
<polygon fill="#000000" stroke="#000000" points="2214.3045,-172.5001 2224.3045,-169 2214.3044,-165.5001 2214.3045,-172.5001"/>
</g>
<!-- HttpClientModule -->
<g id="node24" class="node">
<title>HttpClientModule</title>
<polygon fill="#8dd3c7" stroke="#000000" points="919.1611,-122 916.1611,-126 895.1611,-126 892.1611,-122 800.8389,-122 800.8389,-86 919.1611,-86 919.1611,-122"/>
<text text-anchor="middle" x="860" y="-99.8" font-family="Times,serif" font-size="14.00" fill="#000000">HttpClientModule</text>
</g>
<!-- HttpClientModule&#45;&gt;AppModule -->
<g id="edge23" class="edge">
<title>HttpClientModule&#45;&gt;AppModule</title>
<path fill="none" stroke="#000000" d="M860,-122.2228C860,-142.3652 860,-172 860,-172 860,-172 2214.3027,-172 2214.3027,-172"/>
<polygon fill="#000000" stroke="#000000" points="2214.3027,-175.5001 2224.3027,-172 2214.3026,-168.5001 2214.3027,-175.5001"/>
</g>
<!-- FormsModule -->
<g id="node25" class="node">
<title>FormsModule</title>
<polygon fill="#8dd3c7" stroke="#000000" points="782.8288,-122 779.8288,-126 758.8288,-126 755.8288,-122 687.1712,-122 687.1712,-86 782.8288,-86 782.8288,-122"/>
<text text-anchor="middle" x="735" y="-99.8" font-family="Times,serif" font-size="14.00" fill="#000000">FormsModule</text>
</g>
<!-- FormsModule&#45;&gt;AppModule -->
<g id="edge24" class="edge">
<title>FormsModule&#45;&gt;AppModule</title>
<path fill="none" stroke="#000000" d="M735,-122.2843C735,-143.3211 735,-175 735,-175 735,-175 2214.2554,-175 2214.2554,-175"/>
<polygon fill="#000000" stroke="#000000" points="2214.2555,-178.5001 2224.2554,-175 2214.2554,-171.5001 2214.2555,-178.5001"/>
</g>
<!-- ReactiveFormsModule -->
<g id="node26" class="node">
<title>ReactiveFormsModule</title>
<polygon fill="#8dd3c7" stroke="#000000" points="669.3047,-122 666.3047,-126 645.3047,-126 642.3047,-122 524.6953,-122 524.6953,-86 669.3047,-86 669.3047,-122"/>
<text text-anchor="middle" x="597" y="-99.8" font-family="Times,serif" font-size="14.00" fill="#000000">ReactiveFormsModule</text>
</g>
<!-- ReactiveFormsModule&#45;&gt;AppModule -->
<g id="edge25" class="edge">
<title>ReactiveFormsModule&#45;&gt;AppModule</title>
<path fill="none" stroke="#000000" d="M597,-122.0449C597,-143.6623 597,-177 597,-177 597,-177 2214.3272,-177 2214.3272,-177"/>
<polygon fill="#000000" stroke="#000000" points="2214.3272,-180.5001 2224.3272,-177 2214.3272,-173.5001 2214.3272,-180.5001"/>
</g>
<!-- NguiMapModule.forRoot(args) -->
<g id="node27" class="node">
<title>NguiMapModule.forRoot(args)</title>
<polygon fill="#8dd3c7" stroke="#000000" points="506.3956,-122 503.3956,-126 482.3956,-126 479.3956,-122 313.6044,-122 313.6044,-86 506.3956,-86 506.3956,-122"/>
<text text-anchor="middle" x="410" y="-99.8" font-family="Times,serif" font-size="14.00" fill="#000000">NguiMapModule.forRoot(args)</text>
</g>
<!-- NguiMapModule.forRoot(args)&#45;&gt;AppModule -->
<g id="edge26" class="edge">
<title>NguiMapModule.forRoot(args)&#45;&gt;AppModule</title>
<path fill="none" stroke="#000000" d="M410,-122.0109C410,-144.4852 410,-180 410,-180 410,-180 2214.1912,-180 2214.1912,-180"/>
<polygon fill="#000000" stroke="#000000" points="2214.1912,-183.5001 2224.1912,-180 2214.1912,-176.5001 2214.1912,-183.5001"/>
</g>
<!-- DataService -->
<g id="node29" class="node">
<title>DataService</title>
<ellipse fill="#fdb462" stroke="#000000" cx="232" cy="-104" rx="58.4415" ry="18"/>
<text text-anchor="middle" x="232" y="-99.8" font-family="Times,serif" font-size="14.00" fill="#000000">DataService</text>
</g>
<!-- DataService&#45;&gt;AppModule -->
<g id="edge28" class="edge">
<title>DataService&#45;&gt;AppModule</title>
<path fill="none" stroke="#000000" d="M232,-122.0908C232,-145.1328 232,-182 232,-182 232,-182 2213.9839,-182 2213.9839,-182"/>
<polygon fill="#000000" stroke="#000000" points="2213.9839,-185.5001 2223.9839,-182 2213.9839,-178.5001 2213.9839,-185.5001"/>
</g>
<!-- SocketService -->
<g id="node30" class="node">
<title>SocketService</title>
<ellipse fill="#fdb462" stroke="#000000" cx="90" cy="-104" rx="66.0492" ry="18"/>
<text text-anchor="middle" x="90" y="-99.8" font-family="Times,serif" font-size="14.00" fill="#000000">SocketService</text>
</g>
<!-- SocketService&#45;&gt;AppModule -->
<g id="edge29" class="edge">
<title>SocketService&#45;&gt;AppModule</title>
<path fill="none" stroke="#000000" d="M90,-122.3802C90,-146.2785 90,-185 90,-185 90,-185 2213.9932,-185 2213.9932,-185"/>
<polygon fill="#000000" stroke="#000000" points="2213.9932,-188.5001 2223.9932,-185 2213.9932,-181.5001 2213.9932,-188.5001"/>
</g>
</g>
</svg>
