<?xml version="1.0" encoding="UTF-8" standalone="no"?>
<!DOCTYPE svg PUBLIC "-//W3C//DTD SVG 1.1//EN"
 "http://www.w3.org/Graphics/SVG/1.1/DTD/svg11.dtd">
<!-- Generated by graphviz version 2.40.1 (20161225.0304)
 -->
<!-- Title: dependencies Pages: 1 -->
<svg width="1805pt" height="211pt"
 viewBox="0.00 0.00 1805.00 211.00" xmlns="http://www.w3.org/2000/svg" xmlns:xlink="http://www.w3.org/1999/xlink">
<g id="graph0" class="graph" transform="scale(1 1) rotate(0) translate(4 207)">
<title>dependencies</title>
<polygon fill="#ffffff" stroke="transparent" points="-4,4 -4,-207 1801,-207 1801,4 -4,4"/>
<text text-anchor="start" x="877.5091" y="-42.4" font-family="sans-serif" font-weight="bold" font-size="14.00" fill="#000000">Legend</text>
<polygon fill="#ffffb3" stroke="transparent" points="664.5,-10 664.5,-30 684.5,-30 684.5,-10 664.5,-10"/>
<text text-anchor="start" x="688.129" y="-15.4" font-family="sans-serif" font-size="14.00" fill="#000000"> &#160;Declarations</text>
<polygon fill="#8dd3c7" stroke="transparent" points="777.5,-10 777.5,-30 797.5,-30 797.5,-10 777.5,-10"/>
<text text-anchor="start" x="801.2251" y="-15.4" font-family="sans-serif" font-size="14.00" fill="#000000"> &#160;Module</text>
<polygon fill="#80b1d3" stroke="transparent" points="863.5,-10 863.5,-30 883.5,-30 883.5,-10 863.5,-10"/>
<text text-anchor="start" x="887.2812" y="-15.4" font-family="sans-serif" font-size="14.00" fill="#000000"> &#160;Bootstrap</text>
<polygon fill="#fdb462" stroke="transparent" points="960.5,-10 960.5,-30 980.5,-30 980.5,-10 960.5,-10"/>
<text text-anchor="start" x="984.1732" y="-15.4" font-family="sans-serif" font-size="14.00" fill="#000000"> &#160;Providers</text>
<polygon fill="#fb8072" stroke="transparent" points="1056.5,-10 1056.5,-30 1076.5,-30 1076.5,-10 1056.5,-10"/>
<text text-anchor="start" x="1080.2258" y="-15.4" font-family="sans-serif" font-size="14.00" fill="#000000"> &#160;Exports</text>
<g id="clust1" class="cluster">
<title>cluster_ComponentsModule</title>
<polygon fill="none" stroke="#000000" stroke-dasharray="1,5" points="8,-70 8,-195 1789,-195 1789,-70 8,-70"/>
</g>
<g id="clust2" class="cluster">
<title>cluster_ComponentsModule_declarations</title>
<polygon fill="none" stroke="#000000" points="16,-78 16,-130 1781,-130 1781,-78 16,-78"/>
</g>
<!-- AllComponent -->
<g id="node1" class="node">
<title>AllComponent</title>
<polygon fill="#ffffb3" stroke="#000000" points="1772.7204,-122 1673.2796,-122 1673.2796,-86 1772.7204,-86 1772.7204,-122"/>
<text text-anchor="middle" x="1723" y="-99.8" font-family="Times,serif" font-size="14.00" fill="#000000">AllComponent</text>
</g>
<!-- ComponentsModule -->
<g id="node13" class="node">
<title>ComponentsModule</title>
<polygon fill="#8dd3c7" stroke="#000000" points="961.3272,-187 958.3272,-191 937.3272,-191 934.3272,-187 830.6728,-187 830.6728,-151 961.3272,-151 961.3272,-187"/>
<text text-anchor="middle" x="896" y="-164.8" font-family="Times,serif" font-size="14.00" fill="#000000">ComponentsModule</text>
</g>
<!-- AllComponent&#45;&gt;ComponentsModule -->
<g id="edge1" class="edge">
<title>AllComponent&#45;&gt;ComponentsModule</title>
<path fill="none" stroke="#000000" d="M1723,-122.0908C1723,-145.1328 1723,-182 1723,-182 1723,-182 971.2385,-182 971.2385,-182"/>
<polygon fill="#000000" stroke="#000000" points="971.2386,-178.5001 961.2385,-182 971.2385,-185.5001 971.2386,-178.5001"/>
</g>
<!-- BuildServersComponent -->
<g id="node2" class="node">
<title>BuildServersComponent</title>
<polygon fill="#ffffb3" stroke="#000000" points="1655.4284,-122 1500.5716,-122 1500.5716,-86 1655.4284,-86 1655.4284,-122"/>
<text text-anchor="middle" x="1578" y="-99.8" font-family="Times,serif" font-size="14.00" fill="#000000">BuildServersComponent</text>
</g>
<!-- BuildServersComponent&#45;&gt;ComponentsModule -->
<g id="edge2" class="edge">
<title>BuildServersComponent&#45;&gt;ComponentsModule</title>
<path fill="none" stroke="#000000" d="M1578,-122.2843C1578,-143.3211 1578,-175 1578,-175 1578,-175 971.393,-175 971.393,-175"/>
<polygon fill="#000000" stroke="#000000" points="971.3931,-171.5001 961.393,-175 971.393,-178.5001 971.3931,-171.5001"/>
</g>
<!-- ComponentsComponent -->
<g id="node3" class="node">
<title>ComponentsComponent</title>
<polygon fill="#ffffb3" stroke="#000000" points="1483.1094,-122 1330.8906,-122 1330.8906,-86 1483.1094,-86 1483.1094,-122"/>
<text text-anchor="middle" x="1407" y="-99.8" font-family="Times,serif" font-size="14.00" fill="#000000">ComponentsComponent</text>
</g>
<!-- ComponentsComponent&#45;&gt;ComponentsModule -->
<g id="edge3" class="edge">
<title>ComponentsComponent&#45;&gt;ComponentsModule</title>
<path fill="none" stroke="#000000" d="M1407,-122.1061C1407,-141.3391 1407,-169 1407,-169 1407,-169 971.2375,-169 971.2375,-169"/>
<polygon fill="#000000" stroke="#000000" points="971.2376,-165.5001 961.2375,-169 971.2375,-172.5001 971.2376,-165.5001"/>
</g>
<!-- CustomComponent -->
<g id="node4" class="node">
<title>CustomComponent</title>
<polygon fill="#ffffb3" stroke="#000000" points="1312.3948,-122 1187.6052,-122 1187.6052,-86 1312.3948,-86 1312.3948,-122"/>
<text text-anchor="middle" x="1250" y="-99.8" font-family="Times,serif" font-size="14.00" fill="#000000">CustomComponent</text>
</g>
<!-- CustomComponent&#45;&gt;ComponentsModule -->
<g id="edge4" class="edge">
<title>CustomComponent&#45;&gt;ComponentsModule</title>
<path fill="none" stroke="#000000" d="M1250,-122.0225C1250,-139.3734 1250,-163 1250,-163 1250,-163 971.3416,-163 971.3416,-163"/>
<polygon fill="#000000" stroke="#000000" points="971.3416,-159.5001 961.3416,-163 971.3416,-166.5001 971.3416,-159.5001"/>
</g>
<!-- EventComponent -->
<g id="node5" class="node">
<title>EventComponent</title>
<polygon fill="#ffffb3" stroke="#000000" points="1169.9902,-122 1056.0098,-122 1056.0098,-86 1169.9902,-86 1169.9902,-122"/>
<text text-anchor="middle" x="1113" y="-99.8" font-family="Times,serif" font-size="14.00" fill="#000000">EventComponent</text>
</g>
<!-- EventComponent&#45;&gt;ComponentsModule -->
<g id="edge5" class="edge">
<title>EventComponent&#45;&gt;ComponentsModule</title>
<path fill="none" stroke="#000000" d="M1113,-122.2396C1113,-137.5706 1113,-157 1113,-157 1113,-157 971.4014,-157 971.4014,-157"/>
<polygon fill="#000000" stroke="#000000" points="971.4015,-153.5001 961.4014,-157 971.4014,-160.5001 971.4015,-153.5001"/>
</g>
<!-- FinancialComponent -->
<g id="node6" class="node">
<title>FinancialComponent</title>
<polygon fill="#ffffb3" stroke="#000000" points="1037.9313,-122 904.0687,-122 904.0687,-86 1037.9313,-86 1037.9313,-122"/>
<text text-anchor="middle" x="971" y="-99.8" font-family="Times,serif" font-size="14.00" fill="#000000">FinancialComponent</text>
</g>
<!-- FinancialComponent&#45;&gt;ComponentsModule -->
<g id="edge6" class="edge">
<title>FinancialComponent&#45;&gt;ComponentsModule</title>
<path fill="none" stroke="#000000" d="M932.7241,-122.1061C932.7241,-122.1061 932.7241,-140.991 932.7241,-140.991"/>
<polygon fill="#000000" stroke="#000000" points="929.2241,-140.9909 932.7241,-150.991 936.2241,-140.991 929.2241,-140.9909"/>
</g>
<!-- MeetingComponent -->
<g id="node7" class="node">
<title>MeetingComponent</title>
<polygon fill="#ffffb3" stroke="#000000" points="885.9874,-122 758.0126,-122 758.0126,-86 885.9874,-86 885.9874,-122"/>
<text text-anchor="middle" x="822" y="-99.8" font-family="Times,serif" font-size="14.00" fill="#000000">MeetingComponent</text>
</g>
<!-- MeetingComponent&#45;&gt;ComponentsModule -->
<g id="edge7" class="edge">
<title>MeetingComponent&#45;&gt;ComponentsModule</title>
<path fill="none" stroke="#000000" d="M858.4152,-122.1061C858.4152,-122.1061 858.4152,-140.991 858.4152,-140.991"/>
<polygon fill="#000000" stroke="#000000" points="854.9152,-140.9909 858.4152,-150.991 861.9152,-140.991 854.9152,-140.9909"/>
</g>
<!-- NewsComponent -->
<g id="node8" class="node">
<title>NewsComponent</title>
<polygon fill="#ffffb3" stroke="#000000" points="739.705,-122 626.295,-122 626.295,-86 739.705,-86 739.705,-122"/>
<text text-anchor="middle" x="683" y="-99.8" font-family="Times,serif" font-size="14.00" fill="#000000">NewsComponent</text>
</g>
<!-- NewsComponent&#45;&gt;ComponentsModule -->
<g id="edge8" class="edge">
<title>NewsComponent&#45;&gt;ComponentsModule</title>
<path fill="none" stroke="#000000" d="M683,-122.2396C683,-137.5706 683,-157 683,-157 683,-157 820.6454,-157 820.6454,-157"/>
<polygon fill="#000000" stroke="#000000" points="820.6455,-160.5001 830.6454,-157 820.6454,-153.5001 820.6455,-160.5001"/>
</g>
<!-- SupportComponent -->
<g id="node9" class="node">
<title>SupportComponent</title>
<polygon fill="#ffffb3" stroke="#000000" points="608.6666,-122 483.3334,-122 483.3334,-86 608.6666,-86 608.6666,-122"/>
<text text-anchor="middle" x="546" y="-99.8" font-family="Times,serif" font-size="14.00" fill="#000000">SupportComponent</text>
</g>
<!-- SupportComponent&#45;&gt;ComponentsModule -->
<g id="edge9" class="edge">
<title>SupportComponent&#45;&gt;ComponentsModule</title>
<path fill="none" stroke="#000000" d="M546,-122.0225C546,-139.3734 546,-163 546,-163 546,-163 820.5783,-163 820.5783,-163"/>
<polygon fill="#000000" stroke="#000000" points="820.5783,-166.5001 830.5783,-163 820.5782,-159.5001 820.5783,-166.5001"/>
</g>
<!-- TrafficComponent -->
<g id="node10" class="node">
<title>TrafficComponent</title>
<polygon fill="#ffffb3" stroke="#000000" points="465.1867,-122 344.8133,-122 344.8133,-86 465.1867,-86 465.1867,-122"/>
<text text-anchor="middle" x="405" y="-99.8" font-family="Times,serif" font-size="14.00" fill="#000000">TrafficComponent</text>
</g>
<!-- TrafficComponent&#45;&gt;ComponentsModule -->
<g id="edge10" class="edge">
<title>TrafficComponent&#45;&gt;ComponentsModule</title>
<path fill="none" stroke="#000000" d="M405,-122.1061C405,-141.3391 405,-169 405,-169 405,-169 820.799,-169 820.799,-169"/>
<polygon fill="#000000" stroke="#000000" points="820.799,-172.5001 830.799,-169 820.799,-165.5001 820.799,-172.5001"/>
</g>
<!-- WeatherComponent -->
<g id="node11" class="node">
<title>WeatherComponent</title>
<polygon fill="#ffffb3" stroke="#000000" points="327.2423,-122 198.7577,-122 198.7577,-86 327.2423,-86 327.2423,-122"/>
<text text-anchor="middle" x="263" y="-99.8" font-family="Times,serif" font-size="14.00" fill="#000000">WeatherComponent</text>
</g>
<!-- WeatherComponent&#45;&gt;ComponentsModule -->
<g id="edge11" class="edge">
<title>WeatherComponent&#45;&gt;ComponentsModule</title>
<path fill="none" stroke="#000000" d="M263,-122.2843C263,-143.3211 263,-175 263,-175 263,-175 820.6421,-175 820.6421,-175"/>
<polygon fill="#000000" stroke="#000000" points="820.6421,-178.5001 830.6421,-175 820.642,-171.5001 820.6421,-178.5001"/>
</g>
<!-- WebsiteLoopComponent -->
<g id="node12" class="node">
<title>WebsiteLoopComponent</title>
<polygon fill="#ffffb3" stroke="#000000" points="180.2548,-122 23.7452,-122 23.7452,-86 180.2548,-86 180.2548,-122"/>
<text text-anchor="middle" x="102" y="-99.8" font-family="Times,serif" font-size="14.00" fill="#000000">WebsiteLoopComponent</text>
</g>
<!-- WebsiteLoopComponent&#45;&gt;ComponentsModule -->
<g id="edge12" class="edge">
<title>WebsiteLoopComponent&#45;&gt;ComponentsModule</title>
<path fill="none" stroke="#000000" d="M102,-122.0908C102,-145.1328 102,-182 102,-182 102,-182 820.6863,-182 820.6863,-182"/>
<polygon fill="#000000" stroke="#000000" points="820.6863,-185.5001 830.6863,-182 820.6862,-178.5001 820.6863,-185.5001"/>
</g>
</g>
</svg>
