<?xml version="1.0" encoding="UTF-8" standalone="no"?>
<!DOCTYPE svg PUBLIC "-//W3C//DTD SVG 1.1//EN"
 "http://www.w3.org/Graphics/SVG/1.1/DTD/svg11.dtd">
<!-- Generated by graphviz version 2.40.1 (20161225.0304)
 -->
<!-- Title: dependencies Pages: 1 -->
<svg width="4838pt" height="290pt"
 viewBox="0.00 0.00 4838.00 290.00" xmlns="http://www.w3.org/2000/svg" xmlns:xlink="http://www.w3.org/1999/xlink">
<g id="graph0" class="graph" transform="scale(1 1) rotate(0) translate(4 286)">
<title>dependencies</title>
<polygon fill="#ffffff" stroke="transparent" points="-4,4 -4,-286 4834,-286 4834,4 -4,4"/>
<text text-anchor="start" x="2394.0091" y="-42.4" font-family="sans-serif" font-weight="bold" font-size="14.00" fill="#000000">Legend</text>
<polygon fill="#ffffb3" stroke="transparent" points="2181,-10 2181,-30 2201,-30 2201,-10 2181,-10"/>
<text text-anchor="start" x="2204.629" y="-15.4" font-family="sans-serif" font-size="14.00" fill="#000000"> &#160;Declarations</text>
<polygon fill="#8dd3c7" stroke="transparent" points="2294,-10 2294,-30 2314,-30 2314,-10 2294,-10"/>
<text text-anchor="start" x="2317.7251" y="-15.4" font-family="sans-serif" font-size="14.00" fill="#000000"> &#160;Module</text>
<polygon fill="#80b1d3" stroke="transparent" points="2380,-10 2380,-30 2400,-30 2400,-10 2380,-10"/>
<text text-anchor="start" x="2403.7812" y="-15.4" font-family="sans-serif" font-size="14.00" fill="#000000"> &#160;Bootstrap</text>
<polygon fill="#fdb462" stroke="transparent" points="2477,-10 2477,-30 2497,-30 2497,-10 2477,-10"/>
<text text-anchor="start" x="2500.6732" y="-15.4" font-family="sans-serif" font-size="14.00" fill="#000000"> &#160;Providers</text>
<polygon fill="#fb8072" stroke="transparent" points="2573,-10 2573,-30 2593,-30 2593,-10 2573,-10"/>
<text text-anchor="start" x="2596.7258" y="-15.4" font-family="sans-serif" font-size="14.00" fill="#000000"> &#160;Exports</text>
<g id="clust1" class="cluster">
<title>cluster_AppModule</title>
<polygon fill="none" stroke="#000000" stroke-dasharray="1,5" points="8,-70 8,-274 4478,-274 4478,-70 8,-70"/>
</g>
<g id="clust2" class="cluster">
<title>cluster_AppModule_declarations</title>
<polygon fill="none" stroke="#000000" points="306,-78 306,-130 3569,-130 3569,-78 306,-78"/>
</g>
<g id="clust23" class="cluster">
<title>cluster_AppModule_imports</title>
<polygon fill="none" stroke="#000000" points="3577,-78 3577,-130 4470,-130 4470,-78 3577,-78"/>
</g>
<g id="clust25" class="cluster">
<title>cluster_AppModule_bootstrap</title>
<polygon fill="none" stroke="#000000" points="2339,-214 2339,-266 2463,-266 2463,-214 2339,-214"/>
</g>
<g id="clust26" class="cluster">
<title>cluster_AppModule_providers</title>
<polygon fill="none" stroke="#000000" points="16,-78 16,-130 298,-130 298,-78 16,-78"/>
</g>
<g id="clust27" class="cluster">
<title>cluster_AppRoutingModule</title>
<polygon fill="none" stroke="#000000" stroke-dasharray="1,5" points="4486,-138 4486,-206 4822,-206 4822,-138 4486,-138"/>
</g>
<g id="clust29" class="cluster">
<title>cluster_AppRoutingModule_imports</title>
<polygon fill="none" stroke="#000000" points="4620,-146 4620,-198 4814,-198 4814,-146 4620,-146"/>
</g>
<g id="clust30" class="cluster">
<title>cluster_AppRoutingModule_exports</title>
<polygon fill="none" stroke="#000000" points="4494,-146 4494,-198 4612,-198 4612,-146 4494,-146"/>
</g>
<!-- AppComponent -->
<g id="node1" class="node">
<title>AppComponent</title>
<polygon fill="#ffffb3" stroke="#000000" points="3560.9399,-122 3455.0601,-122 3455.0601,-86 3560.9399,-86 3560.9399,-122"/>
<text text-anchor="middle" x="3508" y="-99.8" font-family="Times,serif" font-size="14.00" fill="#000000">AppComponent</text>
</g>
<!-- AppModule -->
<g id="node21" class="node">
<title>AppModule</title>
<polygon fill="#8dd3c7" stroke="#000000" points="2442.6571,-190 2439.6571,-194 2418.6571,-194 2415.6571,-190 2359.3429,-190 2359.3429,-154 2442.6571,-154 2442.6571,-190"/>
<text text-anchor="middle" x="2401" y="-167.8" font-family="Times,serif" font-size="14.00" fill="#000000">AppModule</text>
</g>
<!-- AppComponent&#45;&gt;AppModule -->
<g id="edge1" class="edge">
<title>AppComponent&#45;&gt;AppModule</title>
<path fill="none" stroke="#000000" d="M3508,-122.2228C3508,-142.3652 3508,-172 3508,-172 3508,-172 2452.709,-172 2452.709,-172"/>
<polygon fill="#000000" stroke="#000000" points="2452.7091,-168.5001 2442.709,-172 2452.709,-175.5001 2452.7091,-168.5001"/>
</g>
<!-- ChannelsComponent -->
<g id="node2" class="node">
<title>ChannelsComponent</title>
<polygon fill="#ffffb3" stroke="#000000" points="3437.9341,-122 3304.0659,-122 3304.0659,-86 3437.9341,-86 3437.9341,-122"/>
<text text-anchor="middle" x="3371" y="-99.8" font-family="Times,serif" font-size="14.00" fill="#000000">ChannelsComponent</text>
</g>
<!-- ChannelsComponent&#45;&gt;AppModule -->
<g id="edge2" class="edge">
<title>ChannelsComponent&#45;&gt;AppModule</title>
<path fill="none" stroke="#000000" d="M3371,-122.0348C3371,-141.5762 3371,-170 3371,-170 3371,-170 2452.6797,-170 2452.6797,-170"/>
<polygon fill="#000000" stroke="#000000" points="2452.6797,-166.5001 2442.6797,-170 2452.6797,-173.5001 2452.6797,-166.5001"/>
</g>
<!-- EntranceComponent -->
<g id="node3" class="node">
<title>EntranceComponent</title>
<polygon fill="#ffffb3" stroke="#000000" points="3286.58,-122 3155.42,-122 3155.42,-86 3286.58,-86 3286.58,-122"/>
<text text-anchor="middle" x="3221" y="-99.8" font-family="Times,serif" font-size="14.00" fill="#000000">EntranceComponent</text>
</g>
<!-- EntranceComponent&#45;&gt;AppModule -->
<g id="edge3" class="edge">
<title>EntranceComponent&#45;&gt;AppModule</title>
<path fill="none" stroke="#000000" d="M3221,-122.2222C3221,-140.8285 3221,-167 3221,-167 3221,-167 2452.7913,-167 2452.7913,-167"/>
<polygon fill="#000000" stroke="#000000" points="2452.7913,-163.5001 2442.7913,-167 2452.7912,-170.5001 2452.7913,-163.5001"/>
</g>
<!-- MeetingComponent -->
<g id="node4" class="node">
<title>MeetingComponent</title>
<polygon fill="#ffffb3" stroke="#000000" points="3136.9874,-122 3009.0126,-122 3009.0126,-86 3136.9874,-86 3136.9874,-122"/>
<text text-anchor="middle" x="3073" y="-99.8" font-family="Times,serif" font-size="14.00" fill="#000000">MeetingComponent</text>
</g>
<!-- MeetingComponent&#45;&gt;AppModule -->
<g id="edge4" class="edge">
<title>MeetingComponent&#45;&gt;AppModule</title>
<path fill="none" stroke="#000000" d="M3073,-122.302C3073,-140.2699 3073,-165 3073,-165 3073,-165 2452.7827,-165 2452.7827,-165"/>
<polygon fill="#000000" stroke="#000000" points="2452.7827,-161.5001 2442.7827,-165 2452.7827,-168.5001 2452.7827,-161.5001"/>
</g>
<!-- EventComponent -->
<g id="node5" class="node">
<title>EventComponent</title>
<polygon fill="#ffffb3" stroke="#000000" points="2990.9902,-122 2877.0098,-122 2877.0098,-86 2990.9902,-86 2990.9902,-122"/>
<text text-anchor="middle" x="2934" y="-99.8" font-family="Times,serif" font-size="14.00" fill="#000000">EventComponent</text>
</g>
<!-- EventComponent&#45;&gt;AppModule -->
<g id="edge5" class="edge">
<title>EventComponent&#45;&gt;AppModule</title>
<path fill="none" stroke="#000000" d="M2934,-122.0336C2934,-139.0597 2934,-162 2934,-162 2934,-162 2452.8236,-162 2452.8236,-162"/>
<polygon fill="#000000" stroke="#000000" points="2452.8237,-158.5001 2442.8236,-162 2452.8236,-165.5001 2452.8237,-158.5001"/>
</g>
<!-- AdminComponent -->
<g id="node6" class="node">
<title>AdminComponent</title>
<polygon fill="#ffffb3" stroke="#000000" points="2859.2204,-122 2738.7796,-122 2738.7796,-86 2859.2204,-86 2859.2204,-122"/>
<text text-anchor="middle" x="2799" y="-99.8" font-family="Times,serif" font-size="14.00" fill="#000000">AdminComponent</text>
</g>
<!-- AdminComponent&#45;&gt;AppModule -->
<g id="edge6" class="edge">
<title>AdminComponent&#45;&gt;AppModule</title>
<path fill="none" stroke="#000000" d="M2799,-122.027C2799,-138.3976 2799,-160 2799,-160 2799,-160 2452.8407,-160 2452.8407,-160"/>
<polygon fill="#000000" stroke="#000000" points="2452.8408,-156.5001 2442.8407,-160 2452.8407,-163.5001 2452.8408,-156.5001"/>
</g>
<!-- SettingComponent -->
<g id="node7" class="node">
<title>SettingComponent</title>
<polygon fill="#ffffb3" stroke="#000000" points="2720.5014,-122 2599.4986,-122 2599.4986,-86 2720.5014,-86 2720.5014,-122"/>
<text text-anchor="middle" x="2660" y="-99.8" font-family="Times,serif" font-size="14.00" fill="#000000">SettingComponent</text>
</g>
<!-- SettingComponent&#45;&gt;AppModule -->
<g id="edge7" class="edge">
<title>SettingComponent&#45;&gt;AppModule</title>
<path fill="none" stroke="#000000" d="M2660,-122.2396C2660,-137.5706 2660,-157 2660,-157 2660,-157 2452.9007,-157 2452.9007,-157"/>
<polygon fill="#000000" stroke="#000000" points="2452.9007,-153.5001 2442.9007,-157 2452.9006,-160.5001 2452.9007,-153.5001"/>
</g>
<!-- AdminChannelsComponent -->
<g id="node8" class="node">
<title>AdminChannelsComponent</title>
<polygon fill="#ffffb3" stroke="#000000" points="2581.3215,-122 2408.6785,-122 2408.6785,-86 2581.3215,-86 2581.3215,-122"/>
<text text-anchor="middle" x="2495" y="-99.8" font-family="Times,serif" font-size="14.00" fill="#000000">AdminChannelsComponent</text>
</g>
<!-- AdminChannelsComponent&#45;&gt;AppModule -->
<g id="edge8" class="edge">
<title>AdminChannelsComponent&#45;&gt;AppModule</title>
<path fill="none" stroke="#000000" d="M2425.8338,-122.2228C2425.8338,-122.2228 2425.8338,-143.7269 2425.8338,-143.7269"/>
<polygon fill="#000000" stroke="#000000" points="2422.3339,-143.7269 2425.8338,-153.7269 2429.3339,-143.727 2422.3339,-143.7269"/>
</g>
<!-- AdminSideNavComponent -->
<g id="node9" class="node">
<title>AdminSideNavComponent</title>
<polygon fill="#ffffb3" stroke="#000000" points="2391.4297,-122 2222.5703,-122 2222.5703,-86 2391.4297,-86 2391.4297,-122"/>
<text text-anchor="middle" x="2307" y="-99.8" font-family="Times,serif" font-size="14.00" fill="#000000">AdminSideNavComponent</text>
</g>
<!-- AdminSideNavComponent&#45;&gt;AppModule -->
<g id="edge9" class="edge">
<title>AdminSideNavComponent&#45;&gt;AppModule</title>
<path fill="none" stroke="#000000" d="M2375.1932,-122.2228C2375.1932,-122.2228 2375.1932,-143.7269 2375.1932,-143.7269"/>
<polygon fill="#000000" stroke="#000000" points="2371.6933,-143.7269 2375.1932,-153.7269 2378.6933,-143.727 2371.6933,-143.7269"/>
</g>
<!-- DashboardComponent -->
<g id="node10" class="node">
<title>DashboardComponent</title>
<polygon fill="#ffffb3" stroke="#000000" points="2204.9734,-122 2063.0266,-122 2063.0266,-86 2204.9734,-86 2204.9734,-122"/>
<text text-anchor="middle" x="2134" y="-99.8" font-family="Times,serif" font-size="14.00" fill="#000000">DashboardComponent</text>
</g>
<!-- DashboardComponent&#45;&gt;AppModule -->
<g id="edge10" class="edge">
<title>DashboardComponent&#45;&gt;AppModule</title>
<path fill="none" stroke="#000000" d="M2134,-122.2396C2134,-137.5706 2134,-157 2134,-157 2134,-157 2349.2813,-157 2349.2813,-157"/>
<polygon fill="#000000" stroke="#000000" points="2349.2813,-160.5001 2359.2813,-157 2349.2812,-153.5001 2349.2813,-160.5001"/>
</g>
<!-- AdminEntranceComponent -->
<g id="node11" class="node">
<title>AdminEntranceComponent</title>
<polygon fill="#ffffb3" stroke="#000000" points="2044.9678,-122 1875.0322,-122 1875.0322,-86 2044.9678,-86 2044.9678,-122"/>
<text text-anchor="middle" x="1960" y="-99.8" font-family="Times,serif" font-size="14.00" fill="#000000">AdminEntranceComponent</text>
</g>
<!-- AdminEntranceComponent&#45;&gt;AppModule -->
<g id="edge11" class="edge">
<title>AdminEntranceComponent&#45;&gt;AppModule</title>
<path fill="none" stroke="#000000" d="M1960,-122.027C1960,-138.3976 1960,-160 1960,-160 1960,-160 2349.1142,-160 2349.1142,-160"/>
<polygon fill="#000000" stroke="#000000" points="2349.1142,-163.5001 2359.1142,-160 2349.1142,-156.5001 2349.1142,-163.5001"/>
</g>
<!-- AdminEventComponent -->
<g id="node12" class="node">
<title>AdminEventComponent</title>
<polygon fill="#ffffb3" stroke="#000000" points="1857.378,-122 1704.622,-122 1704.622,-86 1857.378,-86 1857.378,-122"/>
<text text-anchor="middle" x="1781" y="-99.8" font-family="Times,serif" font-size="14.00" fill="#000000">AdminEventComponent</text>
</g>
<!-- AdminEventComponent&#45;&gt;AppModule -->
<g id="edge12" class="edge">
<title>AdminEventComponent&#45;&gt;AppModule</title>
<path fill="none" stroke="#000000" d="M1781,-122.0336C1781,-139.0597 1781,-162 1781,-162 1781,-162 2348.8723,-162 2348.8723,-162"/>
<polygon fill="#000000" stroke="#000000" points="2348.8724,-165.5001 2358.8723,-162 2348.8723,-158.5001 2348.8724,-165.5001"/>
</g>
<!-- AdminMeetingComponent -->
<g id="node13" class="node">
<title>AdminMeetingComponent</title>
<polygon fill="#ffffb3" stroke="#000000" points="1686.3752,-122 1519.6248,-122 1519.6248,-86 1686.3752,-86 1686.3752,-122"/>
<text text-anchor="middle" x="1603" y="-99.8" font-family="Times,serif" font-size="14.00" fill="#000000">AdminMeetingComponent</text>
</g>
<!-- AdminMeetingComponent&#45;&gt;AppModule -->
<g id="edge13" class="edge">
<title>AdminMeetingComponent&#45;&gt;AppModule</title>
<path fill="none" stroke="#000000" d="M1603,-122.302C1603,-140.2699 1603,-165 1603,-165 1603,-165 2349.2196,-165 2349.2196,-165"/>
<polygon fill="#000000" stroke="#000000" points="2349.2196,-168.5001 2359.2196,-165 2349.2196,-161.5001 2349.2196,-168.5001"/>
</g>
<!-- SupportComponent -->
<g id="node14" class="node">
<title>SupportComponent</title>
<polygon fill="#ffffb3" stroke="#000000" points="1501.6666,-122 1376.3334,-122 1376.3334,-86 1501.6666,-86 1501.6666,-122"/>
<text text-anchor="middle" x="1439" y="-99.8" font-family="Times,serif" font-size="14.00" fill="#000000">SupportComponent</text>
</g>
<!-- SupportComponent&#45;&gt;AppModule -->
<g id="edge14" class="edge">
<title>SupportComponent&#45;&gt;AppModule</title>
<path fill="none" stroke="#000000" d="M1439,-122.2222C1439,-140.8285 1439,-167 1439,-167 1439,-167 2349.0455,-167 2349.0455,-167"/>
<polygon fill="#000000" stroke="#000000" points="2349.0455,-170.5001 2359.0455,-167 2349.0454,-163.5001 2349.0455,-170.5001"/>
</g>
<!-- FinancialComponent -->
<g id="node15" class="node">
<title>FinancialComponent</title>
<polygon fill="#ffffb3" stroke="#000000" points="1357.9313,-122 1224.0687,-122 1224.0687,-86 1357.9313,-86 1357.9313,-122"/>
<text text-anchor="middle" x="1291" y="-99.8" font-family="Times,serif" font-size="14.00" fill="#000000">FinancialComponent</text>
</g>
<!-- FinancialComponent&#45;&gt;AppModule -->
<g id="edge15" class="edge">
<title>FinancialComponent&#45;&gt;AppModule</title>
<path fill="none" stroke="#000000" d="M1291,-122.0348C1291,-141.5762 1291,-170 1291,-170 1291,-170 2349.1779,-170 2349.1779,-170"/>
<polygon fill="#000000" stroke="#000000" points="2349.178,-173.5001 2359.1779,-170 2349.1779,-166.5001 2349.178,-173.5001"/>
</g>
<!-- BuildServersComponent -->
<g id="node16" class="node">
<title>BuildServersComponent</title>
<polygon fill="#ffffb3" stroke="#000000" points="1206.4284,-122 1051.5716,-122 1051.5716,-86 1206.4284,-86 1206.4284,-122"/>
<text text-anchor="middle" x="1129" y="-99.8" font-family="Times,serif" font-size="14.00" fill="#000000">BuildServersComponent</text>
</g>
<!-- BuildServersComponent&#45;&gt;AppModule -->
<g id="edge16" class="edge">
<title>BuildServersComponent&#45;&gt;AppModule</title>
<path fill="none" stroke="#000000" d="M1129,-122.2228C1129,-142.3652 1129,-172 1129,-172 1129,-172 2349.0406,-172 2349.0406,-172"/>
<polygon fill="#000000" stroke="#000000" points="2349.0406,-175.5001 2359.0406,-172 2349.0405,-168.5001 2349.0406,-175.5001"/>
</g>
<!-- ChatComponent -->
<g id="node17" class="node">
<title>ChatComponent</title>
<polygon fill="#ffffb3" stroke="#000000" points="1033.7744,-122 926.2256,-122 926.2256,-86 1033.7744,-86 1033.7744,-122"/>
<text text-anchor="middle" x="980" y="-99.8" font-family="Times,serif" font-size="14.00" fill="#000000">ChatComponent</text>
</g>
<!-- ChatComponent&#45;&gt;AppModule -->
<g id="edge17" class="edge">
<title>ChatComponent&#45;&gt;AppModule</title>
<path fill="none" stroke="#000000" d="M980,-122.2843C980,-143.3211 980,-175 980,-175 980,-175 2349.2417,-175 2349.2417,-175"/>
<polygon fill="#000000" stroke="#000000" points="2349.2418,-178.5001 2359.2417,-175 2349.2417,-171.5001 2349.2418,-178.5001"/>
</g>
<!-- AdminEntranceDetailComponent -->
<g id="node18" class="node">
<title>AdminEntranceDetailComponent</title>
<polygon fill="#ffffb3" stroke="#000000" points="908.1755,-122 703.8245,-122 703.8245,-86 908.1755,-86 908.1755,-122"/>
<text text-anchor="middle" x="806" y="-99.8" font-family="Times,serif" font-size="14.00" fill="#000000">AdminEntranceDetailComponent</text>
</g>
<!-- AdminEntranceDetailComponent&#45;&gt;AppModule -->
<g id="edge18" class="edge">
<title>AdminEntranceDetailComponent&#45;&gt;AppModule</title>
<path fill="none" stroke="#000000" d="M806,-122.2921C806,-144.2057 806,-178 806,-178 806,-178 2349.1575,-178 2349.1575,-178"/>
<polygon fill="#000000" stroke="#000000" points="2349.1575,-181.5001 2359.1575,-178 2349.1574,-174.5001 2349.1575,-181.5001"/>
</g>
<!-- AdminEventDetailComponent -->
<g id="node19" class="node">
<title>AdminEventDetailComponent</title>
<polygon fill="#ffffb3" stroke="#000000" points="685.5856,-122 498.4144,-122 498.4144,-86 685.5856,-86 685.5856,-122"/>
<text text-anchor="middle" x="592" y="-99.8" font-family="Times,serif" font-size="14.00" fill="#000000">AdminEventDetailComponent</text>
</g>
<!-- AdminEventDetailComponent&#45;&gt;AppModule -->
<g id="edge19" class="edge">
<title>AdminEventDetailComponent&#45;&gt;AppModule</title>
<path fill="none" stroke="#000000" d="M592,-122.0109C592,-144.4852 592,-180 592,-180 592,-180 2348.9466,-180 2348.9466,-180"/>
<polygon fill="#000000" stroke="#000000" points="2348.9467,-183.5001 2358.9466,-180 2348.9466,-176.5001 2348.9467,-183.5001"/>
</g>
<!-- SupportTicketsComponent -->
<g id="node20" class="node">
<title>SupportTicketsComponent</title>
<polygon fill="#ffffb3" stroke="#000000" points="480.3738,-122 313.6262,-122 313.6262,-86 480.3738,-86 480.3738,-122"/>
<text text-anchor="middle" x="397" y="-99.8" font-family="Times,serif" font-size="14.00" fill="#000000">SupportTicketsComponent</text>
</g>
<!-- SupportTicketsComponent&#45;&gt;AppModule -->
<g id="edge20" class="edge">
<title>SupportTicketsComponent&#45;&gt;AppModule</title>
<path fill="none" stroke="#000000" d="M397,-122.3228C397,-145.6602 397,-183 397,-183 397,-183 2349.1436,-183 2349.1436,-183"/>
<polygon fill="#000000" stroke="#000000" points="2349.1436,-186.5001 2359.1436,-183 2349.1436,-179.5001 2349.1436,-186.5001"/>
</g>
<!-- AppComponent  -->
<g id="node28" class="node">
<title>AppComponent </title>
<polygon fill="#80b1d3" stroke="#000000" points="2455.439,-258 2346.561,-258 2346.561,-222 2455.439,-222 2455.439,-258"/>
<text text-anchor="middle" x="2401" y="-235.8" font-family="Times,serif" font-size="14.00" fill="#000000">AppComponent </text>
</g>
<!-- AppModule&#45;&gt;AppComponent  -->
<g id="edge27" class="edge">
<title>AppModule&#45;&gt;AppComponent </title>
<path fill="none" stroke="#000000" stroke-dasharray="1,5" d="M2401,-190.2228C2401,-190.2228 2401,-211.7269 2401,-211.7269"/>
<polygon fill="#000000" stroke="#000000" points="2397.5001,-211.7269 2401,-221.7269 2404.5001,-211.727 2397.5001,-211.7269"/>
</g>
<!-- BrowserModule -->
<g id="node22" class="node">
<title>BrowserModule</title>
<polygon fill="#8dd3c7" stroke="#000000" points="4315.4734,-122 4312.4734,-126 4291.4734,-126 4288.4734,-122 4208.5266,-122 4208.5266,-86 4315.4734,-86 4315.4734,-122"/>
<text text-anchor="middle" x="4262" y="-99.8" font-family="Times,serif" font-size="14.00" fill="#000000">BrowserModule</text>
</g>
<!-- BrowserModule&#45;&gt;AppModule -->
<g id="edge21" class="edge">
<title>BrowserModule&#45;&gt;AppModule</title>
<path fill="none" stroke="#000000" d="M4262,-122.3802C4262,-146.2785 4262,-185 4262,-185 4262,-185 2452.9214,-185 2452.9214,-185"/>
<polygon fill="#000000" stroke="#000000" points="2452.9215,-181.5001 2442.9214,-185 2452.9214,-188.5001 2452.9215,-181.5001"/>
</g>
<!-- AppRoutingModule -->
<g id="node23" class="node">
<title>AppRoutingModule</title>
<polygon fill="#8dd3c7" stroke="#000000" points="4462.2744,-122 4459.2744,-126 4438.2744,-126 4435.2744,-122 4333.7256,-122 4333.7256,-86 4462.2744,-86 4462.2744,-122"/>
<text text-anchor="middle" x="4398" y="-99.8" font-family="Times,serif" font-size="14.00" fill="#000000">AppRoutingModule</text>
</g>
<!-- AppRoutingModule&#45;&gt;AppModule -->
<g id="edge22" class="edge">
<title>AppRoutingModule&#45;&gt;AppModule</title>
<path fill="none" stroke="#000000" d="M4398,-122.2267C4398,-146.9318 4398,-188 4398,-188 4398,-188 2452.7102,-188 2452.7102,-188"/>
<polygon fill="#000000" stroke="#000000" points="2452.7102,-184.5001 2442.7102,-188 2452.7101,-191.5001 2452.7102,-184.5001"/>
</g>
<!-- RouterModule  -->
<g id="node32" class="node">
<title>RouterModule </title>
<polygon fill="#fb8072" stroke="#000000" points="4603.6523,-190 4502.3477,-190 4502.3477,-154 4603.6523,-154 4603.6523,-190"/>
<text text-anchor="middle" x="4553" y="-167.8" font-family="Times,serif" font-size="14.00" fill="#000000">RouterModule </text>
</g>
<!-- AppRoutingModule&#45;&gt;RouterModule  -->
<g id="edge31" class="edge">
<title>AppRoutingModule&#45;&gt;RouterModule </title>
<path fill="none" stroke="#000000" stroke-dasharray="5,2" d="M4462.3874,-110C4504.9734,-110 4553,-110 4553,-110 4553,-110 4553,-143.7333 4553,-143.7333"/>
<polygon fill="#000000" stroke="#000000" points="4549.5001,-143.7333 4553,-153.7333 4556.5001,-143.7333 4549.5001,-143.7333"/>
</g>
<!-- HttpClientModule -->
<g id="node24" class="node">
<title>HttpClientModule</title>
<polygon fill="#8dd3c7" stroke="#000000" points="3979.1611,-122 3976.1611,-126 3955.1611,-126 3952.1611,-122 3860.8389,-122 3860.8389,-86 3979.1611,-86 3979.1611,-122"/>
<text text-anchor="middle" x="3920" y="-99.8" font-family="Times,serif" font-size="14.00" fill="#000000">HttpClientModule</text>
</g>
<!-- HttpClientModule&#45;&gt;AppModule -->
<g id="edge23" class="edge">
<title>HttpClientModule&#45;&gt;AppModule</title>
<path fill="none" stroke="#000000" d="M3920,-122.0109C3920,-144.4852 3920,-180 3920,-180 3920,-180 2452.8139,-180 2452.8139,-180"/>
<polygon fill="#000000" stroke="#000000" points="2452.8139,-176.5001 2442.8139,-180 2452.8139,-183.5001 2452.8139,-176.5001"/>
</g>
<!-- FormsModule -->
<g id="node25" class="node">
<title>FormsModule</title>
<polygon fill="#8dd3c7" stroke="#000000" points="3842.8288,-122 3839.8288,-126 3818.8288,-126 3815.8288,-122 3747.1712,-122 3747.1712,-86 3842.8288,-86 3842.8288,-122"/>
<text text-anchor="middle" x="3795" y="-99.8" font-family="Times,serif" font-size="14.00" fill="#000000">FormsModule</text>
</g>
<!-- FormsModule&#45;&gt;AppModule -->
<g id="edge24" class="edge">
<title>FormsModule&#45;&gt;AppModule</title>
<path fill="none" stroke="#000000" d="M3795,-122.2921C3795,-144.2057 3795,-178 3795,-178 3795,-178 2452.7197,-178 2452.7197,-178"/>
<polygon fill="#000000" stroke="#000000" points="2452.7197,-174.5001 2442.7197,-178 2452.7196,-181.5001 2452.7197,-174.5001"/>
</g>
<!-- ReactiveFormsModule -->
<g id="node26" class="node">
<title>ReactiveFormsModule</title>
<polygon fill="#8dd3c7" stroke="#000000" points="3729.3047,-122 3726.3047,-126 3705.3047,-126 3702.3047,-122 3584.6953,-122 3584.6953,-86 3729.3047,-86 3729.3047,-122"/>
<text text-anchor="middle" x="3657" y="-99.8" font-family="Times,serif" font-size="14.00" fill="#000000">ReactiveFormsModule</text>
</g>
<!-- ReactiveFormsModule&#45;&gt;AppModule -->
<g id="edge25" class="edge">
<title>ReactiveFormsModule&#45;&gt;AppModule</title>
<path fill="none" stroke="#000000" d="M3657,-122.2843C3657,-143.3211 3657,-175 3657,-175 3657,-175 2452.7894,-175 2452.7894,-175"/>
<polygon fill="#000000" stroke="#000000" points="2452.7894,-171.5001 2442.7894,-175 2452.7893,-178.5001 2452.7894,-171.5001"/>
</g>
<!-- NguiMapModule.forRoot(args) -->
<g id="node27" class="node">
<title>NguiMapModule.forRoot(args)</title>
<polygon fill="#8dd3c7" stroke="#000000" points="4190.3956,-122 4187.3956,-126 4166.3956,-126 4163.3956,-122 3997.6044,-122 3997.6044,-86 4190.3956,-86 4190.3956,-122"/>
<text text-anchor="middle" x="4094" y="-99.8" font-family="Times,serif" font-size="14.00" fill="#000000">NguiMapModule.forRoot(args)</text>
</g>
<!-- NguiMapModule.forRoot(args)&#45;&gt;AppModule -->
<g id="edge26" class="edge">
<title>NguiMapModule.forRoot(args)&#45;&gt;AppModule</title>
<path fill="none" stroke="#000000" d="M4094,-122.3228C4094,-145.6602 4094,-183 4094,-183 4094,-183 2452.8497,-183 2452.8497,-183"/>
<polygon fill="#000000" stroke="#000000" points="2452.8497,-179.5001 2442.8497,-183 2452.8496,-186.5001 2452.8497,-179.5001"/>
</g>
<!-- DataService -->
<g id="node29" class="node">
<title>DataService</title>
<ellipse fill="#fdb462" stroke="#000000" cx="232" cy="-104" rx="58.4415" ry="18"/>
<text text-anchor="middle" x="232" y="-99.8" font-family="Times,serif" font-size="14.00" fill="#000000">DataService</text>
</g>
<!-- DataService&#45;&gt;AppModule -->
<g id="edge28" class="edge">
<title>DataService&#45;&gt;AppModule</title>
<path fill="none" stroke="#000000" d="M232,-122.3802C232,-146.2785 232,-185 232,-185 232,-185 2349.1283,-185 2349.1283,-185"/>
<polygon fill="#000000" stroke="#000000" points="2349.1284,-188.5001 2359.1283,-185 2349.1283,-181.5001 2349.1284,-188.5001"/>
</g>
<!-- SocketService -->
<g id="node30" class="node">
<title>SocketService</title>
<ellipse fill="#fdb462" stroke="#000000" cx="90" cy="-104" rx="66.0492" ry="18"/>
<text text-anchor="middle" x="90" y="-99.8" font-family="Times,serif" font-size="14.00" fill="#000000">SocketService</text>
</g>
<!-- SocketService&#45;&gt;AppModule -->
<g id="edge29" class="edge">
<title>SocketService&#45;&gt;AppModule</title>
<path fill="none" stroke="#000000" d="M90,-122.2267C90,-146.9318 90,-188 90,-188 90,-188 2348.9155,-188 2348.9155,-188"/>
<polygon fill="#000000" stroke="#000000" points="2348.9155,-191.5001 2358.9155,-188 2348.9155,-184.5001 2348.9155,-191.5001"/>
</g>
<!-- RouterModule.forRoot(args) -->
<g id="node31" class="node">
<title>RouterModule.forRoot(args)</title>
<polygon fill="#8dd3c7" stroke="#000000" points="4805.8419,-190 4802.8419,-194 4781.8419,-194 4778.8419,-190 4628.1581,-190 4628.1581,-154 4805.8419,-154 4805.8419,-190"/>
<text text-anchor="middle" x="4717" y="-167.8" font-family="Times,serif" font-size="14.00" fill="#000000">RouterModule.forRoot(args)</text>
</g>
<!-- RouterModule.forRoot(args)&#45;&gt;AppRoutingModule -->
<g id="edge30" class="edge">
<title>RouterModule.forRoot(args)&#45;&gt;AppRoutingModule</title>
<path fill="none" stroke="#000000" d="M4717,-153.7079C4717,-131.7943 4717,-98 4717,-98 4717,-98 4472.5544,-98 4472.5544,-98"/>
<polygon fill="#000000" stroke="#000000" points="4472.5544,-94.5001 4462.5544,-98 4472.5544,-101.5001 4472.5544,-94.5001"/>
</g>
</g>
</svg>
